<svg width="60" height="74" viewBox="0 0 60 74" fill="none" xmlns="http://www.w3.org/2000/svg">
<path d="M30 73C30 73 59 58.6 59 37V11.8L30 1L1 11.8V37C1 58.6 30 73 30 73Z" stroke="white" stroke-width="2" stroke-linecap="round" stroke-linejoin="round"/>
<path d="M18.5413 28.1665L14.7239 24.6672L13.1333 26.576C13.0272 28.9089 13.8968 33.8292 18.2232 34.8471C24.8401 36.1196 27.5547 32.1961 28.0849 30.0753C29.6119 20.9134 22.1467 19.8954 18.2232 20.5317L16.9507 22.1223L20.7682 25.9397V27.8484L18.5413 28.1665Z" stroke="white" stroke-width="2"/>
<path d="M41.3415 45.5952L45.1589 49.0945L46.7495 47.1857C46.8556 44.8528 45.986 39.9326 41.6596 38.9146C35.0427 37.6421 32.3281 41.5656 31.7979 43.6865C30.2709 52.8483 37.7361 53.8663 41.6596 53.2301L42.9321 51.6395L39.1147 47.822V45.9133L41.3415 45.5952Z" stroke="white" stroke-width="2"/>
<path d="M23.3203 34.8477L31.9095 43.755" stroke="white" stroke-width="2"/>
<path d="M27.7734 30.3945L36.3627 39.3019" stroke="white" stroke-width="2"/>
</svg>
