<svg width="84" height="84" viewBox="0 0 84 84" fill="none" xmlns="http://www.w3.org/2000/svg">
<path d="M41.5 63C53.3741 63 63 53.3741 63 41.5C63 29.6259 53.3741 20 41.5 20C29.6259 20 20 29.6259 20 41.5C20 53.3741 29.6259 63 41.5 63Z" stroke="white" stroke-width="2" stroke-linecap="round" stroke-linejoin="round"/>
<path d="M41.6498 56.2997C49.7407 56.2997 56.2997 49.7407 56.2997 41.6498C56.2997 33.559 49.7407 27 41.6498 27C33.559 27 27 33.559 27 41.6498C27 49.7407 33.559 56.2997 41.6498 56.2997Z" stroke="white" stroke-width="2" stroke-linecap="round" stroke-linejoin="round"/>
<path d="M69.2333 52.9167C68.7397 54.0352 68.5924 55.2759 68.8106 56.4788C69.0287 57.6818 69.6022 58.7919 70.4571 59.6658L70.6796 59.8883C71.3692 60.5771 71.9162 61.3951 72.2894 62.2955C72.6627 63.1958 72.8548 64.161 72.8548 65.1356C72.8548 66.1103 72.6627 67.0754 72.2894 67.9758C71.9162 68.8761 71.3692 69.6941 70.6796 70.3829C69.9908 71.0725 69.1728 71.6195 68.2724 71.9928C67.3721 72.366 66.407 72.5581 65.4323 72.5581C64.4576 72.5581 63.4925 72.366 62.5921 71.9928C61.6918 71.6195 60.8738 71.0725 60.185 70.3829L59.9625 70.1604C59.0885 69.3055 57.9785 68.732 56.7755 68.5139C55.5725 68.2958 54.3318 68.443 53.2133 68.9367C52.1165 69.4067 51.1811 70.1873 50.5222 71.1822C49.8633 72.1771 49.5098 73.343 49.505 74.5362V75.1667C49.505 77.1337 48.7236 79.0201 47.3327 80.411C45.9418 81.8019 44.0554 82.5833 42.0883 82.5833C40.1213 82.5833 38.2349 81.8019 36.844 80.411C35.4531 79.0201 34.6717 77.1337 34.6717 75.1667V74.8329C34.643 73.6055 34.2456 72.4151 33.5314 71.4164C32.8171 70.4178 31.819 69.6571 30.6667 69.2333C29.5482 68.7397 28.3074 68.5924 27.1045 68.8106C25.9015 69.0287 24.7915 69.6022 23.9175 70.4571L23.695 70.6796C23.0062 71.3692 22.1882 71.9162 21.2878 72.2894C20.3875 72.6627 19.4224 72.8548 18.4477 72.8548C17.473 72.8548 16.5079 72.6627 15.6076 72.2894C14.7072 71.9162 13.8892 71.3692 13.2004 70.6796C12.5108 69.9908 11.9638 69.1728 11.5906 68.2724C11.2173 67.3721 11.0252 66.407 11.0252 65.4323C11.0252 64.4576 11.2173 63.4925 11.5906 62.5921C11.9638 61.6918 12.5108 60.8738 13.2004 60.185L13.4229 59.9625C14.2778 59.0885 14.8513 57.9785 15.0694 56.7755C15.2876 55.5725 15.1403 54.3318 14.6467 53.2133C14.1766 52.1165 13.3961 51.1811 12.4011 50.5222C11.4062 49.8633 10.2404 49.5098 9.04708 49.505H8.41667C6.44964 49.505 4.56319 48.7236 3.17229 47.3327C1.7814 45.9418 1 44.0554 1 42.0883C1 40.1213 1.7814 38.2349 3.17229 36.844C4.56319 35.4531 6.44964 34.6717 8.41667 34.6717H8.75042C9.97785 34.643 11.1683 34.2456 12.1669 33.5314C13.1655 32.8171 13.9262 31.819 14.35 30.6667C14.8436 29.5482 14.9909 28.3074 14.7728 27.1045C14.5546 25.9015 13.9812 24.7915 13.1262 23.9175L12.9037 23.695C12.2142 23.0062 11.6671 22.1882 11.2939 21.2878C10.9207 20.3875 10.7285 19.4224 10.7285 18.4477C10.7285 17.473 10.9207 16.5079 11.2939 15.6076C11.6671 14.7072 12.2142 13.8892 12.9037 13.2004C13.5926 12.5108 14.4105 11.9638 15.3109 11.5906C16.2113 11.2173 17.1764 11.0252 18.151 11.0252C19.1257 11.0252 20.0908 11.2173 20.9912 11.5906C21.8915 11.9638 22.7095 12.5108 23.3983 13.2004L23.6208 13.4229C24.4948 14.2778 25.6048 14.8513 26.8078 15.0694C28.0108 15.2876 29.2515 15.1403 30.37 14.6467H30.6667C31.7635 14.1766 32.6989 13.3961 33.3578 12.4011C34.0167 11.4062 34.3702 10.2404 34.375 9.04708V8.41667C34.375 6.44964 35.1564 4.56319 36.5473 3.17229C37.9382 1.7814 39.8246 1 41.7917 1C43.7587 1 45.6451 1.7814 47.036 3.17229C48.4269 4.56319 49.2083 6.44964 49.2083 8.41667V8.75042C49.2131 9.94371 49.5667 11.1096 50.2256 12.1045C50.8844 13.0994 51.8199 13.8799 52.9167 14.35C54.0352 14.8436 55.2759 14.9909 56.4788 14.7728C57.6818 14.5546 58.7919 13.9812 59.6658 13.1262L59.8883 12.9037C60.5771 12.2142 61.3951 11.6671 62.2955 11.2939C63.1958 10.9207 64.161 10.7285 65.1356 10.7285C66.1103 10.7285 67.0754 10.9207 67.9758 11.2939C68.8761 11.6671 69.6941 12.2142 70.3829 12.9037C71.0725 13.5926 71.6195 14.4105 71.9928 15.3109C72.366 16.2113 72.5581 17.1764 72.5581 18.151C72.5581 19.1257 72.366 20.0908 71.9928 20.9912C71.6195 21.8915 71.0725 22.7095 70.3829 23.3983L70.1604 23.6208C69.3055 24.4948 68.732 25.6048 68.5139 26.8078C68.2958 28.0108 68.443 29.2515 68.9367 30.37V30.6667C69.4067 31.7635 70.1873 32.6989 71.1822 33.3578C72.1771 34.0167 73.343 34.3702 74.5362 34.375H75.1667C77.1337 34.375 79.0201 35.1564 80.411 36.5473C81.8019 37.9382 82.5833 39.8246 82.5833 41.7917C82.5833 43.7587 81.8019 45.6451 80.411 47.036C79.0201 48.4269 77.1337 49.2083 75.1667 49.2083H74.8329C73.6396 49.2131 72.4738 49.5667 71.4789 50.2256C70.4839 50.8844 69.7034 51.8199 69.2333 52.9167Z" stroke="white" stroke-width="2" stroke-linecap="round" stroke-linejoin="round"/>
<path d="M39.5 47.0703V36.9297L47.1846 42L39.5 47.0703Z" stroke="white" stroke-width="2"/>
</svg>
