<svg width="80" height="73" viewBox="0 0 80 73" fill="none" xmlns="http://www.w3.org/2000/svg">
<path d="M30.9277 22.2168V30.7656H29.2402V24.1621L27.2129 24.8066V23.4766L30.7461 22.2168H30.9277ZM39.4473 25.75V27.2266C39.4473 27.8672 39.3789 28.4199 39.2422 28.8848C39.1055 29.3457 38.9082 29.7246 38.6504 30.0215C38.3965 30.3145 38.0938 30.5312 37.7422 30.6719C37.3906 30.8125 37 30.8828 36.5703 30.8828C36.2266 30.8828 35.9062 30.8398 35.6094 30.7539C35.3125 30.6641 35.0449 30.5254 34.8066 30.3379C34.5723 30.1504 34.3691 29.9141 34.1973 29.6289C34.0293 29.3398 33.9004 28.9961 33.8105 28.5977C33.7207 28.1992 33.6758 27.7422 33.6758 27.2266V25.75C33.6758 25.1094 33.7441 24.5605 33.8809 24.1035C34.0215 23.6426 34.2188 23.2656 34.4727 22.9727C34.7305 22.6797 35.0352 22.4648 35.3867 22.3281C35.7383 22.1875 36.1289 22.1172 36.5586 22.1172C36.9023 22.1172 37.2207 22.1621 37.5137 22.252C37.8105 22.3379 38.0781 22.4727 38.3164 22.6562C38.5547 22.8398 38.7578 23.0762 38.9258 23.3652C39.0938 23.6504 39.2227 23.9922 39.3125 24.3906C39.4023 24.7852 39.4473 25.2383 39.4473 25.75ZM37.7539 27.4492V25.5215C37.7539 25.2129 37.7363 24.9434 37.7012 24.7129C37.6699 24.4824 37.6211 24.2871 37.5547 24.127C37.4883 23.9629 37.4062 23.8301 37.3086 23.7285C37.2109 23.627 37.0996 23.5527 36.9746 23.5059C36.8496 23.459 36.7109 23.4355 36.5586 23.4355C36.3672 23.4355 36.1973 23.4727 36.0488 23.5469C35.9043 23.6211 35.7812 23.7402 35.6797 23.9043C35.5781 24.0645 35.5 24.2793 35.4453 24.5488C35.3945 24.8145 35.3691 25.1387 35.3691 25.5215V27.4492C35.3691 27.7578 35.3848 28.0293 35.416 28.2637C35.4512 28.498 35.502 28.6992 35.5684 28.8672C35.6387 29.0312 35.7207 29.166 35.8145 29.2715C35.9121 29.373 36.0234 29.4473 36.1484 29.4941C36.2773 29.541 36.418 29.5645 36.5703 29.5645C36.7578 29.5645 36.9238 29.5273 37.0684 29.4531C37.2168 29.375 37.3418 29.2539 37.4434 29.0898C37.5488 28.9219 37.627 28.7031 37.6777 28.4336C37.7285 28.1641 37.7539 27.8359 37.7539 27.4492ZM46.3379 25.75V27.2266C46.3379 27.8672 46.2695 28.4199 46.1328 28.8848C45.9961 29.3457 45.7988 29.7246 45.541 30.0215C45.2871 30.3145 44.9844 30.5312 44.6328 30.6719C44.2812 30.8125 43.8906 30.8828 43.4609 30.8828C43.1172 30.8828 42.7969 30.8398 42.5 30.7539C42.2031 30.6641 41.9355 30.5254 41.6973 30.3379C41.4629 30.1504 41.2598 29.9141 41.0879 29.6289C40.9199 29.3398 40.791 28.9961 40.7012 28.5977C40.6113 28.1992 40.5664 27.7422 40.5664 27.2266V25.75C40.5664 25.1094 40.6348 24.5605 40.7715 24.1035C40.9121 23.6426 41.1094 23.2656 41.3633 22.9727C41.6211 22.6797 41.9258 22.4648 42.2773 22.3281C42.6289 22.1875 43.0195 22.1172 43.4492 22.1172C43.793 22.1172 44.1113 22.1621 44.4043 22.252C44.7012 22.3379 44.9688 22.4727 45.207 22.6562C45.4453 22.8398 45.6484 23.0762 45.8164 23.3652C45.9844 23.6504 46.1133 23.9922 46.2031 24.3906C46.293 24.7852 46.3379 25.2383 46.3379 25.75ZM44.6445 27.4492V25.5215C44.6445 25.2129 44.627 24.9434 44.5918 24.7129C44.5605 24.4824 44.5117 24.2871 44.4453 24.127C44.3789 23.9629 44.2969 23.8301 44.1992 23.7285C44.1016 23.627 43.9902 23.5527 43.8652 23.5059C43.7402 23.459 43.6016 23.4355 43.4492 23.4355C43.2578 23.4355 43.0879 23.4727 42.9395 23.5469C42.7949 23.6211 42.6719 23.7402 42.5703 23.9043C42.4688 24.0645 42.3906 24.2793 42.3359 24.5488C42.2852 24.8145 42.2598 25.1387 42.2598 25.5215V27.4492C42.2598 27.7578 42.2754 28.0293 42.3066 28.2637C42.3418 28.498 42.3926 28.6992 42.459 28.8672C42.5293 29.0312 42.6113 29.166 42.7051 29.2715C42.8027 29.373 42.9141 29.4473 43.0391 29.4941C43.168 29.541 43.3086 29.5645 43.4609 29.5645C43.6484 29.5645 43.8145 29.5273 43.959 29.4531C44.1074 29.375 44.2324 29.2539 44.334 29.0898C44.4395 28.9219 44.5176 28.7031 44.5684 28.4336C44.6191 28.1641 44.6445 27.8359 44.6445 27.4492ZM47.4629 24.3262V23.875C47.4629 23.5508 47.5332 23.2559 47.6738 22.9902C47.8145 22.7246 48.0215 22.5117 48.2949 22.3516C48.5684 22.1914 48.9043 22.1113 49.3027 22.1113C49.7129 22.1113 50.0547 22.1914 50.3281 22.3516C50.6055 22.5117 50.8125 22.7246 50.9492 22.9902C51.0898 23.2559 51.1602 23.5508 51.1602 23.875V24.3262C51.1602 24.6426 51.0898 24.9336 50.9492 25.1992C50.8125 25.4648 50.6074 25.6777 50.334 25.8379C50.0605 25.998 49.7207 26.0781 49.3145 26.0781C48.9121 26.0781 48.5723 25.998 48.2949 25.8379C48.0215 25.6777 47.8145 25.4648 47.6738 25.1992C47.5332 24.9336 47.4629 24.6426 47.4629 24.3262ZM48.582 23.875V24.3262C48.582 24.4629 48.6074 24.5938 48.6582 24.7188C48.7129 24.8398 48.7949 24.9395 48.9043 25.0176C49.0176 25.0918 49.1543 25.1289 49.3145 25.1289C49.4824 25.1289 49.6191 25.0918 49.7246 25.0176C49.8301 24.9395 49.9082 24.8398 49.959 24.7188C50.0098 24.5938 50.0352 24.4629 50.0352 24.3262V23.875C50.0352 23.7305 50.0078 23.5977 49.9531 23.4766C49.9023 23.3516 49.8223 23.252 49.7129 23.1777C49.6074 23.0996 49.4707 23.0605 49.3027 23.0605C49.1465 23.0605 49.0137 23.0996 48.9043 23.1777C48.7949 23.252 48.7129 23.3516 48.6582 23.4766C48.6074 23.5977 48.582 23.7305 48.582 23.875ZM51.541 29.125V28.6738C51.541 28.3535 51.6113 28.0605 51.752 27.7949C51.8965 27.5293 52.1055 27.3164 52.3789 27.1562C52.6562 26.9961 52.9961 26.916 53.3984 26.916C53.8047 26.916 54.1445 26.9961 54.418 27.1562C54.6914 27.3164 54.8984 27.5293 55.0391 27.7949C55.1797 28.0605 55.25 28.3535 55.25 28.6738V29.125C55.25 29.4453 55.1797 29.7383 55.0391 30.0039C54.9023 30.2695 54.6973 30.4824 54.4238 30.6426C54.1504 30.8027 53.8125 30.8828 53.4102 30.8828C53.0039 30.8828 52.6621 30.8027 52.3848 30.6426C52.1074 30.4824 51.8965 30.2695 51.752 30.0039C51.6113 29.7383 51.541 29.4453 51.541 29.125ZM52.666 28.6738V29.125C52.666 29.2656 52.6973 29.3984 52.7598 29.5234C52.8223 29.6484 52.9082 29.748 53.0176 29.8223C53.1309 29.8965 53.2617 29.9336 53.4102 29.9336C53.5977 29.9336 53.7441 29.8965 53.8496 29.8223C53.9551 29.748 54.0273 29.6484 54.0664 29.5234C54.1094 29.3984 54.1309 29.2656 54.1309 29.125V28.6738C54.1309 28.5332 54.1035 28.4023 54.0488 28.2812C53.9941 28.1562 53.9121 28.0566 53.8027 27.9824C53.6973 27.9043 53.5625 27.8652 53.3984 27.8652C53.2344 27.8652 53.0977 27.9043 52.9883 27.9824C52.8828 28.0566 52.8027 28.1562 52.748 28.2812C52.6934 28.4023 52.666 28.5332 52.666 28.6738ZM53.8145 23.4531L49.6484 30.1211L48.8281 29.6875L52.9941 23.0195L53.8145 23.4531Z" fill="white"/>
<circle cx="40.2353" cy="36.2353" r="35.2353" stroke="white" stroke-width="2"/>
<circle cx="40.4706" cy="36.705" r="23.4706" stroke="white" stroke-width="2"/>
<path d="M0 34.8242H80M80 49.883H0" stroke="white" stroke-width="2"/>
<rect y="35.7656" width="80" height="13.1765" fill="#319ACE"/>
<path d="M13.0176 42.3652V45.7461C12.8848 45.9062 12.6797 46.0801 12.4023 46.2676C12.125 46.4512 11.7676 46.6094 11.3301 46.7422C10.8926 46.875 10.3633 46.9414 9.74219 46.9414C9.19141 46.9414 8.68945 46.8516 8.23633 46.6719C7.7832 46.4883 7.39258 46.2207 7.06445 45.8691C6.74023 45.5176 6.49023 45.0879 6.31445 44.5801C6.13867 44.0684 6.05078 43.4844 6.05078 42.8281V42.2949C6.05078 41.6387 6.13477 41.0547 6.30273 40.543C6.47461 40.0312 6.71875 39.5996 7.03516 39.248C7.35156 38.8965 7.72852 38.6289 8.16602 38.4453C8.60352 38.2617 9.08984 38.1699 9.625 38.1699C10.3672 38.1699 10.9766 38.291 11.4531 38.5332C11.9297 38.7715 12.293 39.1035 12.543 39.5293C12.7969 39.9512 12.9531 40.4355 13.0117 40.9824H11.3066C11.2637 40.6934 11.1816 40.4414 11.0605 40.2266C10.9395 40.0117 10.7656 39.8438 10.5391 39.7227C10.3164 39.6016 10.0273 39.541 9.67188 39.541C9.37891 39.541 9.11719 39.6016 8.88672 39.7227C8.66016 39.8398 8.46875 40.0137 8.3125 40.2441C8.15625 40.4746 8.03711 40.7598 7.95508 41.0996C7.87305 41.4395 7.83203 41.834 7.83203 42.2832V42.8281C7.83203 43.2734 7.875 43.668 7.96094 44.0117C8.04688 44.3516 8.17383 44.6387 8.3418 44.873C8.51367 45.1035 8.72461 45.2773 8.97461 45.3945C9.22461 45.5117 9.51562 45.5703 9.84766 45.5703C10.125 45.5703 10.3555 45.5469 10.5391 45.5C10.7266 45.4531 10.877 45.3965 10.9902 45.3301C11.1074 45.2598 11.1973 45.1934 11.2598 45.1309V43.6191H9.6543V42.3652H13.0176ZM19.1465 38.293H20.8984V43.9297C20.8984 44.5859 20.7578 45.1387 20.4766 45.5879C20.1992 46.0371 19.8145 46.375 19.3223 46.6016C18.834 46.8281 18.2715 46.9414 17.6348 46.9414C16.998 46.9414 16.4316 46.8281 15.9355 46.6016C15.4434 46.375 15.0566 46.0371 14.7754 45.5879C14.498 45.1387 14.3594 44.5859 14.3594 43.9297V38.293H16.1172V43.9297C16.1172 44.3125 16.1777 44.625 16.2988 44.8672C16.4199 45.1094 16.5938 45.2871 16.8203 45.4004C17.0508 45.5137 17.3223 45.5703 17.6348 45.5703C17.9551 45.5703 18.2266 45.5137 18.4492 45.4004C18.6758 45.2871 18.8477 45.1094 18.9648 44.8672C19.0859 44.625 19.1465 44.3125 19.1465 43.9297V38.293ZM25.6855 39.752L23.3652 46.8242H21.4961L24.666 38.293H25.8555L25.6855 39.752ZM27.6133 46.8242L25.2871 39.752L25.0996 38.293H26.3008L29.4883 46.8242H27.6133ZM27.5078 43.6484V45.0254H23.002V43.6484H27.5078ZM30.2793 38.293H33.4609C34.1133 38.293 34.6738 38.3906 35.1426 38.5859C35.6152 38.7812 35.9785 39.0703 36.2324 39.4531C36.4863 39.8359 36.6133 40.3066 36.6133 40.8652C36.6133 41.3223 36.5352 41.7148 36.3789 42.043C36.2266 42.3672 36.0098 42.6387 35.7285 42.8574C35.4512 43.0723 35.125 43.2441 34.75 43.373L34.1934 43.666H31.4277L31.416 42.2949H33.4727C33.7812 42.2949 34.0371 42.2402 34.2402 42.1309C34.4434 42.0215 34.5957 41.8691 34.6973 41.6738C34.8027 41.4785 34.8555 41.252 34.8555 40.9941C34.8555 40.7207 34.8047 40.4844 34.7031 40.2852C34.6016 40.0859 34.4473 39.9336 34.2402 39.8281C34.0332 39.7227 33.7734 39.6699 33.4609 39.6699H32.0371V46.8242H30.2793V38.293ZM35.0488 46.8242L33.1035 43.0215L34.9609 43.0098L36.9297 46.7422V46.8242H35.0488ZM41.4355 39.752L39.1152 46.8242H37.2461L40.416 38.293H41.6055L41.4355 39.752ZM43.3633 46.8242L41.0371 39.752L40.8496 38.293H42.0508L45.2383 46.8242H43.3633ZM43.2578 43.6484V45.0254H38.752V43.6484H43.2578ZM52.9727 38.293V46.8242H51.2148L47.7871 41.1055V46.8242H46.0293V38.293H47.7871L51.2207 44.0176V38.293H52.9727ZM58.1406 38.293V46.8242H56.3887V38.293H58.1406ZM60.7656 38.293V39.6699H53.8047V38.293H60.7656ZM67.4922 45.4531V46.8242H62.9512V45.4531H67.4922ZM63.5254 38.293V46.8242H61.7676V38.293H63.5254ZM66.9004 41.7676V43.1035H62.9512V41.7676H66.9004ZM67.4863 38.293V39.6699H62.9512V38.293H67.4863ZM74.2422 45.4531V46.8242H69.7012V45.4531H74.2422ZM70.2754 38.293V46.8242H68.5176V38.293H70.2754ZM73.6504 41.7676V43.1035H69.7012V41.7676H73.6504ZM74.2363 38.293V39.6699H69.7012V38.293H74.2363Z" fill="white"/>
</svg>
