<svg width="80" height="64" viewBox="0 0 80 64" fill="none" xmlns="http://www.w3.org/2000/svg">
<path d="M33.5 1H9C8.44772 1 8 1.44771 8 2V55C8 55.5523 8.44772 56 9 56H33.5M33.5 1V8.58579C33.5 9.47669 34.5771 9.92286 35.2071 9.29289L36.5785 7.92152C37.0434 7.45658 37.8228 7.55919 38.1516 8.12863L38.9434 9.5C39.3283 10.1667 40.2905 10.1667 40.6754 9.5L41.4672 8.12863C41.796 7.55919 42.5754 7.45658 43.0403 7.92152L44.4117 9.29289C45.0417 9.92286 46.1188 9.47669 46.1188 8.58579V1M33.5 1H46.1188M46.1188 1H69.5C70.0523 1 70.5 1.44772 70.5 2V55C70.5 55.5523 70.0523 56 69.5 56H46.1188M33.5 56V49.5C33.5 48.676 34.4408 48.2056 35.1 48.7L36.71 49.9075C37.1479 50.2359 37.7685 50.1512 38.1024 49.7175L39.017 48.5294C39.4173 48.0094 40.2015 48.0094 40.6018 48.5294L41.5164 49.7175C41.8503 50.1512 42.4709 50.2359 42.9088 49.9075L44.5188 48.7C45.178 48.2056 46.1188 48.676 46.1188 49.5V56M33.5 56H46.1188" stroke="white" stroke-width="2"/>
<path d="M50.5 19.5H30C28.8954 19.5 28 20.3954 28 21.5V35.5C28 36.6046 28.8954 37.5 30 37.5H50.5C51.6046 37.5 52.5 36.6046 52.5 35.5V21.5C52.5 20.3954 51.6046 19.5 50.5 19.5Z" stroke="white" stroke-width="2"/>
<path d="M33 26H47M33 31H37.5M40 31H47" stroke="white" stroke-width="2" stroke-linecap="round"/>
<path d="M69.8972 40.6028L75.5858 34.9142C76.8457 33.6543 79 34.5466 79 36.3284V46C79 46.6295 78.7036 47.2223 78.2 47.6L77.8 47.9C77.2964 48.2777 77 48.8705 77 49.5V53.6019C77 54.1731 76.7557 54.7172 76.3287 55.0967L68.5683 61.9948C68.2022 62.3202 67.7294 62.5 67.2396 62.5H51.8284C50.0466 62.5 49.1543 60.3457 50.4142 59.0858L57.5858 51.9142C58.8457 50.6543 57.9534 48.5 56.1716 48.5H54.9591C53.8771 48.5 53 47.6229 53 46.5409C53 45.6367 53.6188 44.85 54.4975 44.637L68.9541 41.1323C69.3111 41.0458 69.6374 40.8626 69.8972 40.6028Z" stroke="white" stroke-width="2"/>
<path d="M10.1028 40.6028L4.41421 34.9142C3.15428 33.6543 1 34.5466 1 36.3284V46C1 46.6295 1.29639 47.2223 1.8 47.6L2.2 47.9C2.70361 48.2777 3 48.8705 3 49.5V53.6019C3 54.1731 3.2443 54.7172 3.67127 55.0967L11.4317 61.9948C11.7978 62.3202 12.2706 62.5 12.7604 62.5H28.1716C29.9534 62.5 30.8457 60.3457 29.5858 59.0858L22.4142 51.9142C21.1543 50.6543 22.0466 48.5 23.8284 48.5H25.0409C26.1229 48.5 27 47.6229 27 46.5409C27 45.6367 26.3812 44.85 25.5025 44.637L11.0459 41.1323C10.6889 41.0458 10.3626 40.8626 10.1028 40.6028Z" stroke="white" stroke-width="2"/>
<path d="M70.5 40L77.5 48" stroke="white" stroke-width="2"/>
<path d="M9 40L2 48" stroke="white" stroke-width="2"/>
</svg>
