<svg width="82" height="81" viewBox="0 0 82 81" fill="none" xmlns="http://www.w3.org/2000/svg">
<path d="M13.25 15.75H11.75C11.1977 15.75 10.75 15.3023 10.75 14.75V9.75C10.75 9.19772 11.1977 8.75 11.75 8.75H36.75C37.3023 8.75 37.75 9.19772 37.75 9.75V14.75C37.75 15.3023 37.3023 15.75 36.75 15.75H35.25M13.25 15.75V30.75M13.25 15.75H21.75M35.25 30.75V15.75M35.25 15.75H26.25M21.75 15.75V20.1694C21.75 21.0079 22.7199 21.4741 23.3747 20.9502L23.6526 20.7279C23.9927 20.4558 24.483 20.483 24.7909 20.7909C25.3294 21.3294 26.25 20.948 26.25 20.1866V15.75M21.75 15.75H26.25" stroke="white" stroke-width="1.5"/>
<path d="M13.25 50.75H11.75C11.1977 50.75 10.75 50.3023 10.75 49.75V44.75C10.75 44.1977 11.1977 43.75 11.75 43.75H36.75C37.3023 43.75 37.75 44.1977 37.75 44.75V49.75C37.75 50.3023 37.3023 50.75 36.75 50.75H35.25M13.25 50.75V65.75M13.25 50.75H21.75M35.25 65.75V50.75M35.25 50.75H26.25M21.75 50.75V55.1694C21.75 56.0079 22.7199 56.4741 23.3747 55.9502L23.6526 55.7279C23.9927 55.4558 24.483 55.483 24.7909 55.7909C25.3294 56.3294 26.25 55.948 26.25 55.1866V50.75M21.75 50.75H26.25" stroke="white" stroke-width="1.5"/>
<path d="M45.25 15.75H43.75C43.1977 15.75 42.75 15.3023 42.75 14.75V9.75C42.75 9.19772 43.1977 8.75 43.75 8.75H68.75C69.3023 8.75 69.75 9.19772 69.75 9.75V14.75C69.75 15.3023 69.3023 15.75 68.75 15.75H67.25M45.25 15.75V30.75M45.25 15.75H53.75M67.25 30.75V15.75M67.25 15.75H58.25M53.75 15.75V20.1694C53.75 21.0079 54.7199 21.4741 55.3747 20.9502L55.6526 20.7279C55.9927 20.4558 56.483 20.483 56.7909 20.7909C57.3294 21.3294 58.25 20.948 58.25 20.1866V15.75M53.75 15.75H58.25" stroke="white" stroke-width="1.5"/>
<path d="M45.25 50.75H43.75C43.1977 50.75 42.75 50.3023 42.75 49.75V44.75C42.75 44.1977 43.1977 43.75 43.75 43.75H68.75C69.3023 43.75 69.75 44.1977 69.75 44.75V49.75C69.75 50.3023 69.3023 50.75 68.75 50.75H67.25M45.25 50.75V65.75M45.25 50.75H53.75M67.25 65.75V50.75M67.25 50.75H58.25M53.75 50.75V55.1694C53.75 56.0079 54.7199 56.4741 55.3747 55.9502L55.6526 55.7279C55.9927 55.4558 56.483 55.483 56.7909 55.7909C57.3294 56.3294 58.25 55.948 58.25 55.1866V50.75M53.75 50.75H58.25" stroke="white" stroke-width="1.5"/>
<path d="M5.75 80.25H1.75C1.19772 80.25 0.75 79.8023 0.75 79.25V1.75C0.75 1.19772 1.19772 0.75 1.75 0.75H5.75C6.30228 0.75 6.75 1.19771 6.75 1.75V79.25C6.75 79.8023 6.30228 80.25 5.75 80.25Z" stroke="white" stroke-width="1.5"/>
<path d="M79.75 80.25H75.75C75.1977 80.25 74.75 79.8023 74.75 79.25V1.75C74.75 1.19772 75.1977 0.75 75.75 0.75H79.75C80.3023 0.75 80.75 1.19771 80.75 1.75V79.25C80.75 79.8023 80.3023 80.25 79.75 80.25Z" stroke="white" stroke-width="1.5"/>
<path d="M74.75 30.25L7.25 30.75V36.25H74.75V30.25Z" stroke="white" stroke-width="1.5"/>
<path d="M74.75 65.75L7.25 66.25V71.75H74.75V65.75Z" stroke="white" stroke-width="1.5"/>
</svg>
