<svg width="80" height="80" viewBox="0 0 80 80" fill="none" xmlns="http://www.w3.org/2000/svg">
<g clip-path="url(#clip0_2927_48865)">
<path d="M39.7777 39.3828C46.486 39.3828 52.5595 42.1019 56.9556 46.4982C61.3519 50.8945 64.0712 56.968 64.0712 63.6763C64.0712 64.6295 64.0149 65.5753 63.9059 66.5103C63.7946 67.4636 63.6296 68.3956 63.4142 69.3032C63.3301 69.6581 63.0112 69.8962 62.6611 69.8916H16.8849C16.514 69.8916 16.2047 69.6273 16.1349 69.2768C15.9227 68.3775 15.7597 67.4544 15.6497 66.5103C15.5407 65.5753 15.4844 64.6295 15.4844 63.6763C15.4844 56.968 18.2035 50.8946 22.5998 46.4982C26.9959 42.1021 33.0693 39.3828 39.7777 39.3828ZM55.8744 47.5795C51.7551 43.4602 46.064 40.9122 39.7777 40.9122C33.4916 40.9122 27.8005 43.4602 23.681 47.5795C19.5616 51.699 17.0137 57.3901 17.0137 63.6763C17.0137 64.5819 17.0659 65.4698 17.1671 66.337C17.2466 67.0191 17.3572 67.6947 17.4972 68.3622H62.0582C62.1982 67.6947 62.3088 67.0191 62.3883 66.3372C62.4897 65.4698 62.5417 64.5819 62.5417 63.6763C62.5417 57.3901 59.9938 51.699 55.8744 47.5795Z" fill="#319ACE"/>
<path d="M63.4142 69.3032C63.6296 68.3956 63.7946 67.4636 63.9059 66.5103C64.0149 65.5753 64.0712 64.6295 64.0712 63.6764C64.0712 56.968 61.3519 50.8945 56.9556 46.4982C52.5595 42.1019 46.486 39.3828 39.7777 39.3828C33.0693 39.3828 26.9959 42.1021 22.5998 46.4982C18.2035 50.8946 15.4844 56.968 15.4844 63.6763C15.4844 64.6295 15.5407 65.5753 15.6497 66.5103C15.7597 67.4544 15.9227 68.3775 16.1349 69.2768C16.2047 69.6273 16.514 69.8916 16.8849 69.8916H62.6611C63.0112 69.8962 63.3301 69.6581 63.4142 69.3032ZM63.4142 69.3032L62.6705 69.127M55.8744 47.5795C51.7551 43.4602 46.064 40.9122 39.7777 40.9122C33.4916 40.9122 27.8005 43.4602 23.681 47.5795C19.5616 51.699 17.0137 57.3901 17.0137 63.6764C17.0137 64.5819 17.0659 65.4698 17.1671 66.337C17.2466 67.0191 17.3572 67.6947 17.4972 68.3622H62.0582C62.1982 67.6947 62.3088 67.0191 62.3883 66.3372C62.4896 65.4698 62.5417 64.5819 62.5417 63.6763C62.5417 57.3901 59.9938 51.699 55.8744 47.5795Z" stroke="#319ACE"/>
<path d="M39.7781 39.3828C40.5076 39.3828 41.2504 39.4182 42.0043 39.4871C42.7532 39.5554 43.489 39.6571 44.21 39.7901C44.6254 39.8667 44.9011 40.2633 44.8245 40.6785C44.8039 40.7905 44.7597 40.8924 44.6981 40.9799L43.319 43.1494L40.4232 47.7046C40.1966 48.061 39.7242 48.1673 39.3678 47.9407C39.2598 47.872 39.175 47.7805 39.1152 47.6768L36.2371 43.1494L34.8388 40.9496C34.6122 40.5933 34.7168 40.121 35.0732 39.8946C35.178 39.8279 35.2926 39.7901 35.4081 39.7787C36.1096 39.6513 36.8246 39.5535 37.5519 39.4871C38.3057 39.4183 39.0487 39.3828 39.7781 39.3828ZM41.8668 41.0044C41.1996 40.9435 40.5033 40.9122 39.7781 40.9122C39.0528 40.9122 38.3565 40.9435 37.6893 41.0044C37.3754 41.033 37.0626 41.0683 36.7511 41.1098L37.5275 42.331L39.7781 45.8713L42.0286 42.331L42.8048 41.1098C42.4935 41.0683 42.1807 41.033 41.8668 41.0044Z" fill="#D64923"/>
<path d="M39.7764 10.1133C43.7575 10.1133 47.3619 11.7272 49.9708 14.3361C52.5798 16.9451 54.1937 20.5493 54.1937 24.5305C54.1937 28.5116 52.5798 32.116 49.9708 34.7249C47.3619 37.3339 43.7575 38.9476 39.7764 38.9476C35.7954 38.9476 32.191 37.3339 29.582 34.7249C26.9731 32.116 25.3594 28.5116 25.3594 24.5305C25.3594 20.5493 26.9731 16.945 29.582 14.3361C32.191 11.7272 35.7954 10.1133 39.7764 10.1133ZM48.8896 15.4174C46.5574 13.0853 43.3354 11.6427 39.7764 11.6427C36.2176 11.6427 32.9954 13.0853 30.6633 15.4174C28.3312 17.7495 26.8887 20.9715 26.8887 24.5305C26.8887 28.0894 28.3312 31.3114 30.6633 33.6437C32.9954 35.9758 36.2176 37.4182 39.7764 37.4182C43.3354 37.4182 46.5574 35.9758 48.8896 33.6437C51.2217 31.3114 52.6643 28.0894 52.6643 24.5305C52.6643 20.9715 51.2217 17.7495 48.8896 15.4174Z" fill="#319ACE" stroke="#319ACE"/>
<path d="M59.396 42.8404C58.9754 42.824 58.6209 43.1516 58.6045 43.5724C58.588 43.9929 58.9156 44.3475 59.3362 44.3639C64.6674 44.5839 69.4605 46.8951 72.9167 50.4994C76.3554 54.0853 78.4689 58.9546 78.4689 64.32C78.4689 65.1154 78.4231 65.8944 78.3343 66.6547C78.2675 67.2283 78.1754 67.7967 78.0595 68.3592H59.3661C58.9439 68.3592 58.6016 68.7017 58.6016 69.124C58.6016 69.5462 58.9439 69.8886 59.3661 69.8886H78.6636C79.0138 69.8932 79.3327 69.6553 79.4171 69.3004C79.6075 68.4974 79.7531 67.6723 79.8517 66.828C79.9484 65.9999 79.9982 65.1628 79.9982 64.32C79.9982 58.5481 77.7211 53.3058 74.0159 49.4419C70.2973 45.5642 65.1376 43.0776 59.396 42.8404Z" fill="#319ACE"/>
<path d="M79.4171 69.3004C79.3327 69.6553 79.0138 69.8932 78.6636 69.8886H59.3661C58.9439 69.8886 58.6016 69.5462 58.6016 69.124C58.6016 68.7017 58.9439 68.3592 59.3661 68.3592H78.0595C78.1754 67.7967 78.2675 67.2283 78.3343 66.6547C78.4231 65.8944 78.4689 65.1154 78.4689 64.32C78.4689 58.9546 76.3554 54.0853 72.9167 50.4994C69.4605 46.8951 64.6674 44.5839 59.3362 44.3639C58.9156 44.3475 58.588 43.9929 58.6045 43.5724C58.6209 43.1516 58.9754 42.824 59.396 42.8404C65.1376 43.0776 70.2973 45.5642 74.0159 49.4419C77.7211 53.3058 79.9982 58.5481 79.9982 64.32C79.9982 65.1628 79.9484 65.9999 79.8517 66.828C79.7531 67.6723 79.6075 68.4974 79.4171 69.3004ZM79.4171 69.3004L78.673 69.124" stroke="#319ACE"/>
<path d="M59.4268 18.7402C59.0061 18.7105 58.641 19.0274 58.6113 19.448C58.5816 19.8687 58.8986 20.2338 59.3192 20.2635C62.251 20.4729 64.8728 21.8041 66.7572 23.8302C68.6273 25.8407 69.7711 28.5375 69.7711 31.503C69.7711 34.4685 68.6273 37.1653 66.7572 39.1758C64.8728 41.2019 62.2511 42.5331 59.3192 42.7425C58.8986 42.7722 58.5816 43.1373 58.6113 43.558C58.641 43.9786 59.0061 44.2955 59.4268 44.266C62.7566 44.0279 65.7343 42.5163 67.8743 40.2153C70.0001 37.9299 71.3005 34.8675 71.3005 31.503C71.3005 28.1385 70.0003 25.0763 67.8743 22.7907C65.7343 20.4897 62.7566 18.9781 59.4268 18.7402Z" fill="#319ACE" stroke="#319ACE"/>
<path d="M20.6618 44.3639C21.0824 44.3475 21.41 43.9929 21.3935 43.5724C21.3771 43.1516 21.0226 42.824 20.602 42.8404C14.8604 43.0776 9.70077 45.5642 5.98212 49.4419C2.27695 53.3058 0 58.5481 0 64.32C0 65.1628 0.0498279 65.9999 0.146347 66.828C0.244895 67.6723 0.390873 68.4972 0.581326 69.3002C0.66548 69.6551 0.984376 69.8932 1.33447 69.8886H20.6319C21.0541 69.8886 21.3965 69.5462 21.3965 69.124C21.3965 68.7017 21.0541 68.3592 20.6319 68.3592H1.9385C1.8226 67.7967 1.7307 67.2283 1.66371 66.6547C1.57512 65.8944 1.52936 65.1154 1.52936 64.32C1.52936 58.9546 3.64262 54.0853 7.0813 50.4994C10.5375 46.8951 15.3306 44.5839 20.6618 44.3639Z" fill="#319ACE"/>
<path d="M0.581326 69.3002C0.390873 68.4972 0.244895 67.6723 0.146347 66.828C0.0498279 65.9999 0 65.1628 0 64.32C0 58.5481 2.27695 53.3058 5.98212 49.4419C9.70077 45.5642 14.8604 43.0776 20.602 42.8404C21.0226 42.824 21.3771 43.1516 21.3935 43.5724C21.41 43.9929 21.0824 44.3475 20.6618 44.3639C15.3306 44.5839 10.5375 46.8951 7.0813 50.4994C3.64262 54.0853 1.52936 58.9546 1.52936 64.32C1.52936 65.1154 1.57512 65.8944 1.66371 66.6547C1.7307 67.2283 1.8226 67.7967 1.9385 68.3592H20.6319C21.0541 68.3592 21.3965 68.7017 21.3965 69.124C21.3965 69.5462 21.0541 69.8886 20.6319 69.8886H1.33447C0.984376 69.8932 0.66548 69.6551 0.581326 69.3002ZM0.581326 69.3002L1.32505 69.124" stroke="#319ACE"/>
<path d="M20.6844 20.2635C21.1051 20.2338 21.422 19.8687 21.3923 19.448C21.3626 19.0274 20.9976 18.7105 20.577 18.7402C17.247 18.9781 14.2695 20.4897 12.1293 22.7907C10.0035 25.0763 8.70312 28.1385 8.70312 31.503C8.70312 34.8675 10.0035 37.9299 12.1293 40.2153C14.2695 42.5162 17.247 44.0279 20.577 44.2659C20.9976 44.2955 21.3626 43.9786 21.3923 43.558C21.422 43.1372 21.1051 42.7722 20.6844 42.7425C17.7526 42.533 15.131 41.2019 13.2464 39.1757C11.3763 37.1653 10.2325 34.4685 10.2325 31.503C10.2325 28.5375 11.3763 25.8407 13.2464 23.8302C15.131 21.8041 17.7527 20.4729 20.6844 20.2635Z" fill="#319ACE" stroke="#319ACE"/>
<path d="M40.5232 47.0914L45.6375 62.0588C45.7317 62.3344 45.661 62.6261 45.4761 62.8258L40.3467 69.5838C40.0913 69.9202 39.6145 69.9883 39.278 69.7329C39.2096 69.681 39.1522 69.6197 39.1066 69.5522L34.0429 62.7627C33.8761 62.539 33.8493 62.2539 33.9486 62.0134L39.0624 47.0473C39.199 46.6475 39.6331 46.4322 40.0326 46.5686C40.2819 46.6538 40.4588 46.855 40.5232 47.0914ZM44.0626 62.1703L39.7854 49.6526L35.5079 62.1709L39.7475 67.8555L44.0626 62.1703Z" fill="#D64923"/>
</g>
<defs>
<clipPath id="clip0_2927_48865">
<rect width="80" height="80" fill="white"/>
</clipPath>
</defs>
</svg>
