<svg width="81" height="75" viewBox="0 0 81 75" fill="none" xmlns="http://www.w3.org/2000/svg">
<path d="M39.9085 41.3359C47.0909 41.3359 53.5936 44.2472 58.3004 48.9542C63.0073 53.6612 65.9188 60.1638 65.9188 67.3462C65.9188 68.3668 65.8586 69.3794 65.7418 70.3804C65.6226 71.4012 65.446 72.399 65.2154 73.3707C65.1253 73.7507 64.7839 74.0056 64.409 74.0007H15.3979C15.0008 74.0007 14.6696 73.7177 14.5949 73.3425C14.3677 72.3796 14.1932 71.3913 14.0755 70.3804C13.9587 69.3794 13.8984 68.3668 13.8984 67.3462C13.8984 60.1639 16.8097 53.6612 21.5167 48.9542C26.2235 44.2474 32.7261 41.3359 39.9085 41.3359ZM57.1427 50.1119C52.7323 45.7015 46.639 42.9734 39.9085 42.9734C33.1782 42.9734 27.0849 45.7015 22.6743 50.1119C18.2638 54.5225 15.5358 60.6157 15.5358 67.3462C15.5358 68.3158 15.5918 69.2664 15.7 70.1949C15.7852 70.9252 15.9036 71.6486 16.0535 72.3632H63.7635C63.9135 71.6486 64.0318 70.9252 64.117 70.1951C64.2255 69.2664 64.2812 68.3158 64.2812 67.3462C64.2812 60.6158 61.5533 54.5225 57.1427 50.1119Z" fill="#319ACE"/>
<path d="M65.2154 73.3707C65.446 72.399 65.6226 71.4012 65.7418 70.3804C65.8585 69.3794 65.9188 68.3668 65.9188 67.3462C65.9188 60.1638 63.0073 53.6612 58.3004 48.9542C53.5936 44.2472 47.0909 41.3359 39.9085 41.3359C32.7261 41.3359 26.2235 44.2474 21.5167 48.9542C16.8097 53.6612 13.8984 60.1639 13.8984 67.3462C13.8984 68.3668 13.9587 69.3794 14.0755 70.3804C14.1932 71.3913 14.3677 72.3796 14.5949 73.3425C14.6696 73.7177 15.0008 74.0007 15.3979 74.0007H64.409C64.7839 74.0056 65.1253 73.7507 65.2154 73.3707ZM65.2154 73.3707L64.4191 73.182M57.1427 50.1119C52.7323 45.7015 46.639 42.9734 39.9085 42.9734C33.1782 42.9734 27.0849 45.7015 22.6743 50.1119C18.2638 54.5225 15.5358 60.6157 15.5358 67.3462C15.5358 68.3158 15.5918 69.2664 15.7 70.1949C15.7852 70.9252 15.9036 71.6486 16.0535 72.3632H63.7635C63.9135 71.6486 64.0318 70.9252 64.117 70.1951C64.2255 69.2664 64.2812 68.3158 64.2812 67.3462C64.2812 60.6158 61.5533 54.5225 57.1427 50.1119Z" stroke="#319ACE"/>
<path d="M39.9046 10C44.167 10 48.0262 11.7279 50.8195 14.5212C53.6128 17.3146 55.3407 21.1735 55.3407 25.4361C55.3407 29.6985 53.6128 33.5576 50.8195 36.3509C48.0261 39.1442 44.167 40.872 39.9046 40.872C35.6422 40.872 31.7831 39.1442 28.9898 36.3509C26.1965 33.5576 24.4688 29.6985 24.4688 25.4361C24.4688 21.1735 26.1965 17.3145 28.9898 14.5212C31.7831 11.7279 35.6422 10 39.9046 10ZM49.6618 15.6789C47.1648 13.182 43.7151 11.6374 39.9046 11.6374C36.0943 11.6374 32.6444 13.182 30.1475 15.6789C27.6505 18.1759 26.1062 21.6256 26.1062 25.4361C26.1062 29.2464 27.6505 32.6961 30.1475 35.1932C32.6444 37.6902 36.0943 39.2345 39.9046 39.2345C43.7151 39.2345 47.1648 37.6902 49.6618 35.1932C52.1587 32.6961 53.7033 29.2464 53.7033 25.4361C53.7033 21.6256 52.1587 18.1759 49.6618 15.6789Z" fill="#319ACE" stroke="#319ACE"/>
<path d="M7.625 20.9287C7.82756 21.4761 8.25927 21.9078 8.80664 22.1104L10.8535 22.8682L8.80664 23.625C8.25928 23.8276 7.82757 24.2593 7.625 24.8066L6.86816 26.8535L6.11035 24.8066C5.90777 24.2593 5.47609 23.8276 4.92871 23.625L2.88184 22.8682L4.92871 22.1104C5.4761 21.9078 5.90778 21.4761 6.11035 20.9287L6.86816 18.8818L7.625 20.9287Z" stroke="#D64923" stroke-width="2"/>
<path d="M67.625 4.92871C67.8276 5.47609 68.2593 5.90777 68.8066 6.11035L70.8535 6.86816L68.8066 7.625C68.2593 7.82757 67.8276 8.25928 67.625 8.80664L66.8682 10.8535L66.1104 8.80664C65.9078 8.25927 65.4761 7.82756 64.9287 7.625L62.8818 6.86816L64.9287 6.11035C65.4761 5.90778 65.9078 5.4761 66.1104 4.92871L66.8682 2.88184L67.625 4.92871Z" stroke="#D64923" stroke-width="2"/>
<path d="M74.625 45.9287C74.8276 46.4761 75.2593 46.9078 75.8066 47.1104L77.8535 47.8682L75.8066 48.625C75.2593 48.8276 74.8276 49.2593 74.625 49.8066L73.8682 51.8535L73.1104 49.8066C72.9078 49.2593 72.4761 48.8276 71.9287 48.625L69.8818 47.8682L71.9287 47.1104C72.4761 46.9078 72.9078 46.4761 73.1104 45.9287L73.8682 43.8818L74.625 45.9287Z" stroke="#D64923" stroke-width="2"/>
</svg>
