<svg width="37" height="55" viewBox="0 0 37 55" fill="none" xmlns="http://www.w3.org/2000/svg">
<path d="M18.5703 41.4297C22.5948 41.4297 26.1893 42.2239 28.7402 43.4629C31.3595 44.7351 32.5703 46.3021 32.5703 47.7158C32.5701 49.1295 31.3592 50.6957 28.7402 51.9678C26.1893 53.2068 22.5948 54.001 18.5703 54.001C14.5458 54.001 10.9513 53.2068 8.40039 51.9678C5.78145 50.6957 4.57055 49.1295 4.57031 47.7158C4.57031 46.3021 5.78115 44.7351 8.40039 43.4629C10.9513 42.2239 14.5458 41.4297 18.5703 41.4297Z" stroke="#319ACE" stroke-width="2"/>
<path d="M17.9222 48.1429C3.33662 39.8659 -11.4387 4.59869 17.9222 1C32.1668 1 48.5694 21.1527 17.9222 48.1429Z" fill="white" stroke="#319ACE" stroke-width="2"/>
<path d="M7.85938 13.4674L9.35006 14.9939V18.6573L8.15751 20.489L10.0971 24.7629L12.6296 24.1524L15.6109 25.9841L15.9091 28.4263H20.3811L21.2755 25.9841L24.2569 24.1524H26.3653L28.4308 20.489L26.9401 18.352V15.2991L28.4308 14.078L26.0457 9.49875L23.9588 10.4146L21.2755 8.88818L20.3811 6.14062H15.9091L14.8377 8.88818L12.6296 10.1936L10.0971 9.49875L7.85938 13.4674Z" stroke="#D64923" stroke-width="2"/>
<circle cx="17.7121" cy="17.7121" r="4.57143" stroke="#D64923" stroke-width="2"/>
</svg>
