<svg width="38" height="54" viewBox="0 0 38 54" fill="none" xmlns="http://www.w3.org/2000/svg">
<mask id="mask0_6178_99829" style="mask-type:alpha" maskUnits="userSpaceOnUse" x="0" y="0" width="38" height="54">
<rect width="38" height="54" fill="#D9D9D9"/>
</mask>
<g mask="url(#mask0_6178_99829)">
<path d="M3.31968 7.38112C8.85571 8.2836 15.0672 4.62547 18.2866 1.80094C18.7498 1.39454 19.4701 1.45585 19.8884 1.90832C23.7851 6.12304 31.1471 6.95418 35.2888 7.0597C35.8409 7.07377 36.2857 7.52023 36.2857 8.07252V29.0746C36.2857 29.1646 36.2733 29.2557 36.2488 29.3424C33.2346 39.9979 23.7772 44.5308 19.5101 46.2797C19.2739 46.3765 19.0078 46.3761 18.7714 46.2799C7.88447 41.8509 3.10811 33.2419 2.03246 29.3312C2.00978 29.2487 2 29.167 2 29.0815L2.00042 8.42821C2.00043 7.75489 2.65514 7.27278 3.31968 7.38112Z" stroke="#319ACE" stroke-width="2"/>
<path d="M10.5703 24.6321L15.2561 29.4135C15.6482 29.8136 16.2924 29.8136 16.6845 29.4135L28.5703 17.2852" stroke="#D64923" stroke-width="2"/>
</g>
</svg>
