<svg width="38" height="54" viewBox="0 0 38 54" fill="none" xmlns="http://www.w3.org/2000/svg">
<mask id="mask0_6178_99831" style="mask-type:alpha" maskUnits="userSpaceOnUse" x="0" y="0" width="38" height="54">
<rect width="38" height="54" fill="#D9D9D9"/>
</mask>
<g mask="url(#mask0_6178_99831)">
<path d="M36.2857 9.65672L28.1459 1H4C2.89543 1 2 1.89543 2 3V48.7143C2 49.8189 2.89543 50.7143 4 50.7143H34.2857C35.3903 50.7143 36.2857 49.8189 36.2857 48.7143V9.65672ZM28.1459 1V7.65672C28.1459 8.76129 29.0414 9.65672 30.1459 9.65672H36.2857" stroke="#319ACE" stroke-width="2"/>
<path d="M13.637 14.2107C15.3329 14.1194 17.0802 13.0531 18.2578 12.0919C18.7419 11.6968 19.4841 11.7602 19.9641 12.1603C21.3905 13.3497 23.5043 13.8453 25.0062 13.9966C25.5557 14.0519 26.0033 14.4986 26.0033 15.0509V22.9694C26.0033 23.0576 25.9917 23.1466 25.9675 23.2314C24.7914 27.352 21.3032 29.2105 19.5195 29.9849C19.2805 30.0886 19.0098 30.0897 18.7718 29.984C14.638 28.148 12.7795 24.3433 12.3215 22.7199C12.2988 22.6393 12.2891 22.5571 12.2891 22.4733L12.2892 15.4155C12.2892 14.7395 12.9621 14.247 13.637 14.2107Z" stroke="#D64923" stroke-width="2"/>
<path d="M15.7188 21.0794L17.3434 22.6267C17.7296 22.9945 18.3365 22.9945 18.7227 22.6267L23.433 18.1406" stroke="#D64923" stroke-width="2"/>
<path d="M9.71875 34.4297H28.5759" stroke="#319ACE" stroke-width="2" stroke-linecap="round"/>
<path d="M9.71875 37.8594H28.5759" stroke="#319ACE" stroke-width="2" stroke-linecap="round"/>
<path d="M9.71875 41.2891H23.433" stroke="#319ACE" stroke-width="2" stroke-linecap="round"/>
</g>
</svg>
