<svg width="36" height="36" viewBox="0 0 36 36" fill="none" xmlns="http://www.w3.org/2000/svg">
<path d="M35 29C35 29.7956 34.6839 30.5587 34.1213 31.1213C33.5587 31.6839 32.7956 32 32 32H5C4.20435 32 3.44129 31.6839 2.87868 31.1213C2.31607 30.5587 2 29.7956 2 29V12.5C2 11.7044 2.31607 10.9413 2.87868 10.3787C3.44129 9.81607 4.20435 9.5 5 9.5H11L14 5H23L26 9.5H32C32.7956 9.5 33.5587 9.81607 34.1213 10.3787C34.6839 10.9413 35 11.7044 35 12.5V29Z" stroke="#319ACE" stroke-width="2" stroke-linecap="round" stroke-linejoin="round"/>
<path d="M18 26C21.3137 26 24 23.3137 24 20C24 16.6863 21.3137 14 18 14C14.6863 14 12 16.6863 12 20C12 23.3137 14.6863 26 18 26Z" stroke="#319ACE" stroke-width="2" stroke-linecap="round" stroke-linejoin="round"/>
</svg>
