<svg width="389" height="222" viewBox="0 0 389 222" fill="none" xmlns="http://www.w3.org/2000/svg">
<path d="M247.389 3H80.5273L80.2549 3.01074C79.6211 3.05688 79.0062 3.25562 78.4639 3.59277C77.8439 3.97818 77.3433 4.52928 77.0176 5.18359L77.0098 5.19922L77.001 5.21582L33.6953 89.6436L32.8672 91.2578L31.0527 91.2744C23.6916 91.339 16.6448 94.2709 11.4072 99.4492C6.17651 104.621 3.16129 111.626 3 118.983V159.287C3 166.752 5.96353 173.912 11.2373 179.189C16.511 184.467 23.6631 187.432 31.1201 187.432H57.0625L57.6455 189.679C59.7571 197.825 64.5115 205.04 71.1621 210.189C77.8126 215.339 85.9827 218.133 94.3906 218.133C102.799 218.133 110.97 215.339 117.62 210.189C124.271 205.04 129.025 197.825 131.137 189.679L131.72 187.432H257.271L257.86 189.667C260.005 197.798 264.777 204.99 271.433 210.121C278.089 215.252 286.255 218.035 294.656 218.035C303.057 218.035 311.223 215.252 317.879 210.121C324.535 204.99 329.308 197.798 331.452 189.667L332.019 187.519L334.238 187.434L334.886 187.405C348.467 186.726 361.298 180.923 370.786 171.15C380.274 161.378 385.702 148.375 385.99 134.768L386 134.119V109.381C386 104.578 384.093 99.9726 380.7 96.5771C377.307 93.1817 372.706 91.2744 367.909 91.2744H306.09L305.205 89.8906L250.838 4.90039L250.833 4.8916L250.827 4.88281C250.461 4.30173 249.953 3.82345 249.352 3.49414C248.75 3.16484 248.074 2.99492 247.389 3ZM283.14 152.205C288.678 149.915 294.772 149.32 300.648 150.498C306.525 151.676 311.919 154.572 316.149 158.82C320.379 163.068 323.254 168.477 324.41 174.36C325.566 180.244 324.953 186.339 322.646 191.873C320.338 197.407 316.441 202.132 311.448 205.449C306.456 208.766 300.592 210.525 294.599 210.505C286.586 210.477 278.911 207.272 273.256 201.593C267.601 195.914 264.426 188.224 264.426 180.207C264.426 174.211 266.204 168.349 269.535 163.364C272.866 158.38 277.601 154.495 283.14 152.205ZM82.8037 152.215C88.3362 149.921 94.4244 149.321 100.298 150.49C106.171 151.659 111.567 154.546 115.801 158.783C120.035 163.021 122.918 168.419 124.086 174.296C125.254 180.173 124.655 186.265 122.363 191.801C120.072 197.337 116.192 202.069 111.213 205.398C106.237 208.726 100.386 210.502 94.4014 210.504V210.505C94.3997 210.505 94.3981 210.504 94.3965 210.504C94.3947 210.504 94.3924 210.505 94.3906 210.505V210.504C90.4127 210.516 86.4716 209.743 82.7939 208.226C79.113 206.707 75.7692 204.474 72.9541 201.657C70.1391 198.84 67.9086 195.494 66.3916 191.811C64.9693 188.357 64.2003 184.672 64.1211 180.942L64.1143 180.196C64.1163 174.208 65.8913 168.355 69.2158 163.375C72.5424 158.393 77.2711 154.508 82.8037 152.215ZM367.441 99.3457C370.102 99.3458 372.653 100.403 374.534 102.285C376.415 104.167 377.471 106.72 377.471 109.381V133.97C377.431 145.457 373.078 156.509 365.273 164.934C357.469 173.358 346.784 178.538 335.34 179.445L332.503 179.67L332.129 176.85C330.909 167.66 326.381 159.23 319.396 153.143C312.41 147.055 303.447 143.726 294.186 143.779C284.924 143.833 276 147.265 269.085 153.433C262.17 159.6 257.74 168.081 256.625 177.284L256.306 179.923H132.549L132.36 177.126C131.709 167.491 127.424 158.463 120.375 151.87C113.326 145.277 104.038 141.61 94.3906 141.61C84.7435 141.61 75.4561 145.277 68.4072 151.87C61.3581 158.463 57.0735 167.491 56.4219 177.126L56.2324 179.923H31.1201C25.7992 179.923 20.6963 177.808 16.9346 174.043C13.1731 170.278 11.0607 165.173 11.0605 159.851V119.513C11.0605 114.184 13.1675 109.071 16.9229 105.292C20.6784 101.513 25.7768 99.3749 31.1035 99.3457H367.441ZM246.24 12.458L293.576 86.6611L296.52 91.2744H173.69V11.0713H245.355L246.24 12.458ZM165.63 91.2744H41.9629L44.1963 86.9082L82.1592 12.7051L82.9951 11.0713H165.63V91.2744Z" fill="white" stroke="#1B2745" stroke-width="6"/>
</svg>
