<svg width="9" height="6" viewBox="0 0 9 6" fill="none" xmlns="http://www.w3.org/2000/svg">
<path d="M8.82213 0.178082C8.76779 0.121247 8.70239 0.0761445 8.62995 0.0455541C8.55751 0.0149638 8.47958 -0.000466032 8.40095 0.000216081C8.23874 0.000216081 8.09881 0.0595046 7.98024 0.178082L4.50593 3.65239L1.01976 0.166224C0.965585 0.111685 0.900811 0.0688187 0.829434 0.0402679C0.758057 0.0117171 0.681589 -0.00191352 0.604743 0.000216081C0.438735 0.000216081 0.296443 0.0595046 0.177866 0.178082C0.0592885 0.296659 0 0.437054 0 0.598793C0 0.760058 0.0592885 0.900928 0.177866 1.0195L4.17391 5.00369C4.22134 5.05112 4.27257 5.08433 4.32759 5.10472C4.44299 5.14451 4.56839 5.14451 4.68379 5.10472C4.74204 5.08291 4.7947 5.0484 4.83794 5.00369L8.83399 1.00765C8.94451 0.896659 9 0.760532 9 0.598793C9 0.43658 8.94071 0.296659 8.82213 0.178082Z" fill="#1B2745"/>
</svg>
