<svg width="18" height="18" viewBox="0 0 18 18" fill="none" xmlns="http://www.w3.org/2000/svg">
<path d="M5.11111 9H4.80467C4.49739 8.99993 4.19698 9.09087 3.94133 9.26133L2 10.5556V3.55556C2 3.143 2.16389 2.74733 2.45561 2.45561C2.74733 2.16389 3.143 2 3.55556 2H9C9.41256 2 9.80822 2.16389 10.0999 2.45561C10.3917 2.74733 10.5556 3.143 10.5556 3.55556V5.11111M9 7.44444H14.4444C14.857 7.44444 15.2527 7.60833 15.5444 7.90006C15.8361 8.19178 16 8.58744 16 9V16L14.0587 14.7058C13.803 14.5353 13.5026 14.4444 13.1953 14.4444H9C8.58744 14.4444 8.19178 14.2806 7.90006 13.9888C7.60833 13.6971 7.44444 13.3014 7.44444 12.8889V9C7.44444 8.58744 7.60833 8.19178 7.90006 7.90006C8.19178 7.60833 8.58744 7.44444 9 7.44444Z" stroke="#D64923" stroke-width="1.2" stroke-linecap="round" stroke-linejoin="round"/>
</svg>
