<svg width="5" height="9" viewBox="0 0 5 9" fill="none" xmlns="http://www.w3.org/2000/svg">
<path d="M0.173415 0.177866C0.118069 0.232205 0.0741489 0.297611 0.0443603 0.370049C0.0145716 0.442487 -0.000453818 0.520423 0.000210418 0.599051C0.000210418 0.761265 0.0579451 0.901186 0.173415 1.01976L3.55667 4.49407L0.161868 7.98024C0.108758 8.03442 0.0670151 8.09919 0.0392126 8.17057C0.01141 8.24194 -0.00186337 8.31841 0.000210418 8.39526C0.000210418 8.56126 0.0579451 8.70356 0.173415 8.82213C0.288884 8.94071 0.4256 9 0.5831 9C0.740139 9 0.877317 8.94071 0.992786 8.82213L4.87256 4.82609C4.91875 4.77866 4.95108 4.72743 4.97094 4.67241C5.00969 4.55701 5.00969 4.43161 4.97094 4.31621C4.9497 4.25796 4.91609 4.2053 4.87256 4.16206L0.981239 0.166008C0.87316 0.0554943 0.740601 0 0.5831 0C0.425138 0 0.288884 0.059289 0.173415 0.177866Z" fill="#1B2745"/>
</svg>
