<svg width="6" height="3" viewBox="0 0 6 3" fill="none" xmlns="http://www.w3.org/2000/svg">
<path d="M5.88142 0.0780366C5.8452 0.0531312 5.80159 0.033367 5.7533 0.0199621C5.70501 0.00655724 5.65305 -0.000204218 5.60063 9.4688e-05C5.49249 9.4688e-05 5.39921 0.0260753 5.32016 0.0780366L3.00395 1.6005L0.679842 0.0728405C0.643723 0.0489411 0.600541 0.0301568 0.552956 0.0176457C0.505371 0.00513452 0.454393 -0.000838516 0.403162 9.4688e-05C0.29249 9.4688e-05 0.197628 0.0260753 0.118577 0.0780366C0.0395257 0.129998 0 0.19152 0 0.262395C0 0.333062 0.0395257 0.394793 0.118577 0.446754L2.78261 2.19265C2.81423 2.21344 2.84838 2.22799 2.88506 2.23692C2.96199 2.25436 3.0456 2.25436 3.12253 2.23692C3.16136 2.22736 3.19647 2.21224 3.2253 2.19265L5.88933 0.441558C5.963 0.392922 6 0.33327 6 0.262395C6 0.191312 5.96047 0.129998 5.88142 0.0780366Z" fill="#D64923"/>
</svg>
