<svg width="32" height="32" viewBox="0 0 32 32" fill="none" xmlns="http://www.w3.org/2000/svg">
<path d="M15.9783 0C7.15827 0 0 7.15827 0 15.9783C0 24.7983 7.15827 31.9565 15.9783 31.9565C24.7983 31.9565 31.9565 24.7983 31.9565 15.9783C31.9565 7.15827 24.7983 0 15.9783 0ZM23.3922 10.8652C23.1525 13.3898 22.1139 19.5254 21.5866 22.3536C21.3629 23.552 20.9156 23.9514 20.5001 23.9994C19.5734 24.0793 18.8703 23.3922 17.9756 22.801C16.5695 21.8743 15.7706 21.299 14.4124 20.4043C12.8306 19.3657 13.8532 18.7904 14.7639 17.8637C15.0036 17.624 19.094 13.9011 19.1739 13.5656C19.185 13.5147 19.1835 13.462 19.1696 13.4118C19.1557 13.3617 19.1298 13.3158 19.094 13.2779C18.9982 13.1981 18.8703 13.23 18.7585 13.246C18.6147 13.2779 16.3777 14.7639 12.0157 17.7039C11.3765 18.1353 10.8013 18.359 10.29 18.3431C9.71479 18.3271 8.62827 18.0235 7.81337 17.7519C6.80674 17.4323 6.02381 17.2565 6.08772 16.6973C6.11968 16.4097 6.51913 16.1221 7.27011 15.8185C11.9358 13.7892 15.0356 12.4471 16.5854 11.8079C21.0274 9.95446 21.9382 9.6349 22.5453 9.6349C22.6732 9.6349 22.9768 9.66685 23.1685 9.82664C23.3283 9.95446 23.3762 10.1302 23.3922 10.258C23.3762 10.3539 23.4082 10.6415 23.3922 10.8652Z" fill="#279EDA"/>
</svg>
