<svg width="32" height="32" viewBox="0 0 32 32" fill="none" xmlns="http://www.w3.org/2000/svg">
<g clip-path="url(#clip0_2927_55214)">
<path d="M15.9783 31.9565C24.8028 31.9565 31.9565 24.8028 31.9565 15.9783C31.9565 7.15372 24.8028 0 15.9783 0C7.15372 0 0 7.15372 0 15.9783C0 24.8028 7.15372 31.9565 15.9783 31.9565Z" fill="#33CF6A"/>
<path d="M15.9747 7.60938C14.433 7.60996 12.9214 8.03649 11.6067 8.84189C10.292 9.64729 9.22535 10.8003 8.52438 12.1736C7.82341 13.5469 7.51539 15.0872 7.63431 16.6245C7.75323 18.1619 8.29447 19.6365 9.19831 20.8856L8.15224 23.9949L11.372 22.9654C12.4613 23.684 13.7035 24.1379 14.9994 24.2909C16.2953 24.4438 17.6089 24.2915 18.8355 23.8462C20.0621 23.4009 21.1675 22.6749 22.0636 21.7262C22.9596 20.7774 23.6214 19.6323 23.9961 18.3822C24.3708 17.1321 24.448 15.8117 24.2215 14.5265C23.9951 13.2412 23.4713 12.0268 22.6919 10.9801C21.9125 9.93337 20.8992 9.08345 19.7329 8.49819C18.5666 7.91293 17.2796 7.60856 15.9747 7.60938ZM20.4226 19.446L19.5313 20.3374C18.5941 21.2748 16.1086 20.2432 13.9056 18.0358C11.7026 15.8283 10.7151 13.3488 11.6064 12.4219L12.4976 11.5305C12.6702 11.3719 12.8961 11.2838 13.1305 11.2838C13.3649 11.2838 13.5908 11.3719 13.7633 11.5305L15.0772 12.8404C15.1843 12.9445 15.2629 13.0745 15.3054 13.2177C15.348 13.361 15.353 13.5128 15.32 13.6585C15.287 13.8043 15.2172 13.9391 15.1172 14.0501C15.0171 14.1611 14.8903 14.2446 14.7487 14.2925C14.5399 14.3592 14.3649 14.5039 14.2601 14.6964C14.1552 14.889 14.1287 15.1145 14.186 15.3261C14.4203 16.3095 15.686 17.5294 16.6254 17.7638C16.8358 17.8079 17.0552 17.7747 17.2431 17.6701C17.431 17.5656 17.575 17.3968 17.6484 17.1946C17.6958 17.051 17.7796 16.9221 17.8916 16.8206C18.0036 16.719 18.14 16.6482 18.2876 16.6151C18.4351 16.582 18.5887 16.5878 18.7333 16.6318C18.878 16.6757 19.0088 16.7565 19.1129 16.8661L20.4247 18.1801C20.583 18.353 20.6707 18.5791 20.6703 18.8135C20.6699 19.0479 20.5815 19.2737 20.4226 19.446Z" fill="white"/>
</g>
<defs>
<clipPath id="clip0_2927_55214">
<rect width="31.9565" height="31.9565" fill="white"/>
</clipPath>
</defs>
</svg>
