<svg width="17" height="18" viewBox="0 0 17 18" fill="none" xmlns="http://www.w3.org/2000/svg">
<path d="M6.35286 2.20972C6.35286 0.991349 5.36151 0 4.14314 0C2.92476 0 1.93359 0.991349 1.93359 2.20972C1.93359 3.42809 2.92476 4.41944 4.14314 4.41944C5.36151 4.41944 6.35286 3.42809 6.35286 2.20972ZM2.66694 2.20972C2.66694 1.39562 3.32922 0.733351 4.14314 0.733351C4.95723 0.733351 5.61951 1.39562 5.61951 2.20972C5.61951 3.02382 4.95723 3.68609 4.14314 3.68609C3.32922 3.68609 2.66694 3.02382 2.66694 2.20972Z" fill="#D64923"/>
<path d="M1.98896 17.6021H6.29704C6.49954 17.6021 6.66372 17.4379 6.66372 17.2354V6.69922H10.4925C11.0071 6.69922 11.4545 6.33415 11.5333 5.85021C11.582 5.55264 11.4985 5.25132 11.3048 5.02322C11.1107 4.79494 10.8282 4.66406 10.5297 4.66406H1.53742C0.689665 4.66406 0 5.35373 0 6.20149V9.95722C0 10.5414 0.474279 11.0168 1.05706 11.0168C1.23932 11.0168 1.43716 10.9631 1.62229 10.8703V17.2354C1.62229 17.4379 1.78647 17.6021 1.98896 17.6021ZM1.05706 10.2834C0.878553 10.2834 0.733351 10.1372 0.733351 9.95722V6.20149C0.733351 5.75818 1.09412 5.39741 1.53742 5.39741H10.5297C10.6128 5.39741 10.6916 5.43412 10.746 5.49821C10.7779 5.53563 10.8286 5.61584 10.8096 5.73222C10.7885 5.86113 10.6463 5.96587 10.4925 5.96587H6.29704C6.09455 5.96587 5.93037 6.13005 5.93037 6.33254V16.8687H4.50968V11.7168C4.50968 11.5143 4.3455 11.3502 4.143 11.3502C3.94051 11.3502 3.77633 11.5143 3.77633 11.7168V16.8687H2.35564V10.0541V9.89026V7.46086C2.35564 7.25836 2.19146 7.09418 1.98896 7.09418C1.78647 7.09418 1.62229 7.25836 1.62229 7.46086V9.89026C1.62229 10.0136 1.29984 10.2834 1.05706 10.2834Z" fill="#D64923"/>
<path d="M7.87839 17.5997H16.2142C16.4167 17.5997 16.5808 17.4356 16.5808 17.2331V9.61668C16.5808 9.41418 16.4167 9.25 16.2142 9.25H13.178H10.9147H7.87839C7.6759 9.25 7.51172 9.41418 7.51172 9.61668V17.2331C7.51172 17.4356 7.6759 17.5997 7.87839 17.5997ZM12.8113 9.98335V11.652L12.22 11.3339C12.1657 11.3047 12.1061 11.2902 12.0463 11.2902C11.9865 11.2902 11.9267 11.3049 11.8726 11.334L11.2814 11.652V9.98335H12.8113ZM8.24507 9.98335H10.5481V12.2658C10.5481 12.3949 10.6159 12.5143 10.7268 12.5805C10.7846 12.6151 10.8496 12.6324 10.9147 12.6324C10.9744 12.6324 11.0342 12.6179 11.0884 12.5886L12.0463 12.0733L13.0043 12.5888C13.1178 12.6494 13.2548 12.6464 13.366 12.5805C13.4768 12.5143 13.5447 12.3949 13.5447 12.2658V9.98335H15.8475V16.8664H8.24507V9.98335Z" fill="#D64923"/>
<path d="M14.9372 15.6328H12.9253C12.7228 15.6328 12.5586 15.797 12.5586 15.9995C12.5586 16.202 12.7228 16.3662 12.9253 16.3662H14.9372C15.1396 16.3662 15.3038 16.202 15.3038 15.9995C15.3038 15.797 15.1396 15.6328 14.9372 15.6328Z" fill="#D64923"/>
</svg>
