<svg width="13" height="18" viewBox="0 0 13 18" fill="none" xmlns="http://www.w3.org/2000/svg">
<path d="M12.3 0.6H9V0.3C9 0.134325 8.86567 0 8.7 0H4.2C4.03433 0 3.9 0.134325 3.9 0.3V0.6H0.3C0.134325 0.6 0 0.734325 0 0.9V12.9C0 13.0657 0.134325 13.2 0.3 13.2H1.8021C1.60706 13.4556 1.50098 13.768 1.5 14.0895V17.7C1.5 17.8657 1.63433 18 1.8 18H5.4C5.56568 18 5.7 17.8657 5.7 17.7V15.6H6.9327C8.14444 15.6033 9.30713 15.1218 10.1616 14.2626L11.2242 13.2H12.3C12.4657 13.2 12.6 13.0657 12.6 12.9V0.9C12.6 0.734325 12.4657 0.6 12.3 0.6ZM4.5 0.6H8.4V3.4758L7.2 4.6758L5.9121 3.3879C5.79495 3.27079 5.60505 3.27079 5.4879 3.3879L4.5 4.3758V0.6ZM0.6 1.2H3.9V3H0.6V1.2ZM5.1 17.4H2.1V16.2H5.1V17.4ZM9.7374 13.8384C8.99516 14.5847 7.98521 15.003 6.9327 15H5.4C5.23433 15 5.1 15.1343 5.1 15.3V15.6H2.1V14.0895C2.10049 13.5984 2.49844 13.2005 2.9895 13.2H3.3V13.1928C3.36596 13.1862 3.42784 13.1578 3.4758 13.1121L5.4258 11.1621C5.55904 11.0352 5.76836 11.0352 5.9016 11.1621C6.0324 11.2937 6.0324 11.5063 5.9016 11.6379L4.8516 12.6879C4.73445 12.8051 4.73449 12.995 4.85168 13.1122C4.90793 13.1684 4.9842 13.2 5.0637 13.2H10.3758L9.7374 13.8384ZM12 12.6H11.1H5.7879L6.3258 12.0621C6.69086 11.6961 6.69086 11.1036 6.3258 10.7376C5.95504 10.3845 5.37236 10.3845 5.0016 10.7376L3.1395 12.6H0.6V3.6H3.9V5.1C3.90004 5.26568 4.03436 5.39996 4.20008 5.39993C4.27961 5.39993 4.35585 5.36831 4.4121 5.3121L5.7 4.0242L6.9879 5.3121C7.10505 5.42921 7.29495 5.42921 7.4121 5.3121L8.9121 3.8121C8.96835 3.75585 9 3.67958 9 3.6H12V12.6ZM12 3H9V1.2H12V3Z" fill="#D64923"/>
<path d="M8.10156 6.60156H4.50156C4.0045 6.60156 3.60156 7.0045 3.60156 7.50156C3.60156 7.99862 4.0045 8.40156 4.50156 8.40156H8.10156C8.59863 8.40156 9.00156 7.99862 9.00156 7.50156C9.00156 7.0045 8.59863 6.60156 8.10156 6.60156ZM8.10156 7.80156H4.50156C4.33589 7.80156 4.20156 7.66724 4.20156 7.50156C4.20156 7.33589 4.33589 7.20156 4.50156 7.20156H8.10156C8.26724 7.20156 8.40156 7.33589 8.40156 7.50156C8.40156 7.66724 8.26724 7.80156 8.10156 7.80156Z" fill="#D64923"/>
</svg>
