<svg width="17" height="17" viewBox="0 0 17 17" fill="none" xmlns="http://www.w3.org/2000/svg">
<g clip-path="url(#clip0_3315_79103)">
<path d="M6.10938 14.3438C5.66996 14.3438 5.3125 14.7012 5.3125 15.1406C5.3125 15.58 5.66996 15.9375 6.10938 15.9375C6.54879 15.9375 6.90625 15.58 6.90625 15.1406C6.90625 14.7012 6.54879 14.3438 6.10938 14.3438ZM6.10938 15.4062C5.96292 15.4062 5.84375 15.2871 5.84375 15.1406C5.84375 14.9942 5.96292 14.875 6.10938 14.875C6.25583 14.875 6.375 14.9942 6.375 15.1406C6.375 15.2871 6.25583 15.4062 6.10938 15.4062Z" fill="#D64923"/>
<path d="M14.3431 15.1142C14.329 14.687 13.9774 14.3438 13.5469 14.3438C13.1075 14.3438 12.75 14.7012 12.75 15.1406C12.75 15.58 13.1075 15.9375 13.5469 15.9375C13.9774 15.9375 14.329 15.5942 14.3431 15.1671C14.3448 15.1491 14.3448 15.1322 14.3431 15.1142ZM13.5469 15.4062C13.4004 15.4062 13.2812 15.2871 13.2812 15.1406C13.2812 14.9942 13.4004 14.875 13.5469 14.875C13.6933 14.875 13.8125 14.9942 13.8125 15.1406C13.8125 15.2871 13.6933 15.4062 13.5469 15.4062Z" fill="#D64923"/>
<path d="M16.1574 13.2812C16.2227 13.0972 16.2031 13.4445 16.2031 8.23438C16.2031 7.795 15.8456 7.4375 15.4062 7.4375C15.1733 7.4375 13.7128 7.4375 13.5012 7.4375C13.5665 7.25349 13.5469 7.60079 13.5469 2.39062C13.5469 1.95125 13.1894 1.59375 12.75 1.59375C11.3941 1.59375 9.83978 1.59375 8.5 1.59375C8.06062 1.59375 7.70312 1.95125 7.70312 2.39062C7.70312 7.60152 7.68367 7.25385 7.74881 7.4375C7.53631 7.4375 6.07929 7.4375 5.84375 7.4375C5.40437 7.4375 5.04688 7.795 5.04688 8.23438C5.04688 13.4453 5.02742 13.0976 5.09256 13.2812H4.25V1.59375C4.25 0.71493 3.53504 0 2.65625 0H0.796875C0.357465 0 0 0.357498 0 0.796875C0 1.23625 0.357465 1.59375 0.796875 1.59375H2.45703C2.5669 1.59375 2.65625 1.6831 2.65625 1.79297V14.6094C2.65625 15.0488 3.01371 15.4062 3.45312 15.4062H4.26929C4.39862 16.3061 5.17434 17 6.10938 17C7.04441 17 7.82017 16.3061 7.94946 15.4062H11.7068C11.8361 16.3061 12.6118 17 13.5468 17C14.4819 17 15.2576 16.3061 15.3869 15.4062H16.2031C16.6425 15.4062 17 15.0488 17 14.6094V14.0781C17 13.6744 16.6935 13.2812 16.1574 13.2812ZM15.6719 8.23438V13.0156C15.6719 13.1621 15.5527 13.2812 15.4062 13.2812H11.1562C11.0098 13.2812 10.8906 13.1621 10.8906 13.0156V8.23438C10.8906 8.08792 11.0098 7.96875 11.1562 7.96875H12.2188V9.29688C12.2188 9.44357 12.3377 9.5625 12.4844 9.5625H14.0781C14.2248 9.5625 14.3438 9.44357 14.3438 9.29688V7.96875H15.4062C15.5527 7.96875 15.6719 8.08792 15.6719 8.23438ZM11.7068 14.875H7.94946C7.89003 14.4615 7.69413 14.0916 7.40888 13.8125H12.2473C11.9621 14.0916 11.7662 14.4615 11.7068 14.875ZM13.8125 9.03125H12.75V7.96875H13.8125V9.03125ZM11.1562 2.125V3.1875H10.0938V2.125H11.1562ZM8.23438 7.17188V2.39062C8.23438 2.24417 8.35354 2.125 8.5 2.125H9.5625V3.45312C9.5625 3.59982 9.68143 3.71875 9.82812 3.71875H11.4219C11.5686 3.71875 11.6875 3.59982 11.6875 3.45312V2.125H12.75C12.8965 2.125 13.0156 2.24417 13.0156 2.39062V7.17188C13.0156 7.31833 12.8965 7.4375 12.75 7.4375C10.6567 7.4375 9.73283 7.4375 8.5 7.4375C8.35354 7.4375 8.23438 7.31833 8.23438 7.17188ZM8.5 7.96875V9.03125H7.4375V7.96875H8.5ZM5.57812 13.0156V8.23438C5.57812 8.08792 5.69729 7.96875 5.84375 7.96875H6.90625V9.29688C6.90625 9.44357 7.02518 9.5625 7.17188 9.5625H8.76562C8.91232 9.5625 9.03125 9.44357 9.03125 9.29688V7.96875H10.0938C10.2402 7.96875 10.3594 8.08792 10.3594 8.23438V13.0156C10.3594 13.1621 10.2402 13.2812 10.0938 13.2812H5.84375C5.69729 13.2812 5.57812 13.1621 5.57812 13.0156ZM3.1875 3.45312H3.71875V13.2812H3.1875V3.45312ZM2.45703 1.0625H0.796875C0.650416 1.0625 0.53125 0.943334 0.53125 0.796875C0.53125 0.650416 0.650416 0.53125 0.796875 0.53125H2.65625C3.24212 0.53125 3.71875 1.00788 3.71875 1.59375V2.92188H3.1875V1.79297C3.1875 1.39018 2.85982 1.0625 2.45703 1.0625ZM3.1875 14.6094V13.8125H4.80987C4.52462 14.0916 4.32872 14.4615 4.26929 14.875H3.45312C3.30667 14.875 3.1875 14.7558 3.1875 14.6094ZM6.10938 16.4688C5.37705 16.4688 4.78125 15.873 4.78125 15.1406C4.78125 14.4083 5.37705 13.8125 6.10938 13.8125C6.8417 13.8125 7.4375 14.4083 7.4375 15.1406C7.4375 15.873 6.8417 16.4688 6.10938 16.4688ZM13.5469 16.4688C12.8145 16.4688 12.2188 15.873 12.2188 15.1406C12.2188 14.4083 12.8145 13.8125 13.5469 13.8125C14.2792 13.8125 14.875 14.4083 14.875 15.1406C14.875 15.873 14.2792 16.4688 13.5469 16.4688ZM16.4688 14.6094C16.4688 14.7558 16.3496 14.875 16.2031 14.875H15.387C15.3275 14.4615 15.1316 14.0916 14.8464 13.8125H16.2031C16.3496 13.8125 16.4688 13.9317 16.4688 14.0781V14.6094Z" fill="#D64923"/>
<path d="M9.03125 12.75H9.5625C9.70919 12.75 9.82812 12.6311 9.82812 12.4844C9.82812 12.3377 9.70919 12.2188 9.5625 12.2188H9.03125C8.88456 12.2188 8.76562 12.3377 8.76562 12.4844C8.76562 12.6311 8.88456 12.75 9.03125 12.75Z" fill="#D64923"/>
<path d="M14.3438 12.2188C14.1971 12.2188 14.0781 12.3377 14.0781 12.4844C14.0781 12.6311 14.1971 12.75 14.3438 12.75H14.875C15.0217 12.75 15.1406 12.6311 15.1406 12.4844C15.1406 12.3377 15.0217 12.2188 14.875 12.2188H14.3438Z" fill="#D64923"/>
<path d="M11.6875 6.90625H12.2188C12.3654 6.90625 12.4844 6.78732 12.4844 6.64062C12.4844 6.49393 12.3654 6.375 12.2188 6.375H11.6875C11.5408 6.375 11.4219 6.49393 11.4219 6.64062C11.4219 6.78732 11.5408 6.90625 11.6875 6.90625Z" fill="#D64923"/>
</g>
<defs>
<clipPath id="clip0_3315_79103">
<rect width="17" height="17" fill="white"/>
</clipPath>
</defs>
</svg>
