<svg width="20" height="13" viewBox="0 0 20 13" fill="none" xmlns="http://www.w3.org/2000/svg">
<path fill-rule="evenodd" clip-rule="evenodd" d="M13.876 11.0132H7.01702C6.88156 12.1285 5.91525 13 4.74123 13C3.56721 13 2.59639 12.1285 2.46092 11.0132H0.266412C0.117402 11.0132 0 10.8913 0 10.7423V9.02188V7.9156V0.266412C0 0.117402 0.117402 0 0.266412 0H13.876C14.025 0 14.1469 0.117402 14.1469 0.266412V1.83779H17.4342C17.9625 1.83779 18.3869 2.26224 18.3869 2.79055V3.48142C18.3869 3.63043 18.2695 3.74783 18.1205 3.74783H17.5832L17.827 5.92879C18.7843 5.97846 19.5745 6.81382 19.5745 7.79819V7.91108V7.9156V9.02188V9.0264V10.7423C19.5745 10.8913 19.4571 11.0132 19.3081 11.0132H18.3328C18.2018 11.9163 17.4206 12.6162 16.4769 12.6162C15.5377 12.6162 14.752 11.9163 14.6256 11.0132H13.876ZM7.02153 10.4759H13.6096V8.71935H9.13928C8.99027 8.71935 8.86836 8.59743 8.86836 8.44842C8.86836 8.29941 8.99027 8.18201 9.13928 8.18201H13.6096V6.19521V3.48142V2.1042V0.537339H0.537339V7.64467H1.41334C1.56235 7.64467 1.68427 7.76659 1.68427 7.9156V9.02188C1.68427 9.17089 1.56235 9.29281 1.41334 9.29281H0.537339V10.4759H2.46092C2.46544 10.4352 2.46995 10.3946 2.47899 10.3585V10.3539V10.3404L2.4835 10.3359C2.49705 10.2546 2.51511 10.1733 2.53769 10.0966V10.092L2.5422 10.0695L2.54672 10.065L2.55123 10.0469C2.6596 9.70372 2.84925 9.38763 3.10663 9.13025L3.1247 9.11219L3.14276 9.08961L3.16533 9.07155L3.1834 9.05349L3.20597 9.03091L3.22855 9.01285L3.24661 8.99479L3.26919 8.97673L3.29177 8.95867L3.31434 8.9406L3.33692 8.92254L3.3595 8.909L3.38208 8.89093L3.40465 8.87287L3.42723 8.85933L3.44981 8.84126L3.47239 8.82772L3.49496 8.80966L3.51754 8.79611L3.54463 8.78256L3.56721 8.76902L3.58979 8.75547L3.61688 8.74193L3.63946 8.72838L3.66204 8.71483L3.68913 8.70129L3.7117 8.68774L3.7388 8.67419L3.76138 8.66516L3.78847 8.65162L3.81556 8.64258L3.83814 8.62904L3.86523 8.62001L3.89232 8.61098L3.9149 8.59743L3.94199 8.5884L3.96909 8.57937L3.99618 8.57034L4.01876 8.56131L4.04585 8.55228L4.07294 8.54776L4.10003 8.53873L4.12713 8.5297L4.15422 8.52518L4.18131 8.51615L4.20841 8.51164L4.2355 8.50261L4.26259 8.49809L4.28968 8.49357L4.31678 8.48906L4.34387 8.48454L4.37548 8.48003L4.40257 8.47551L4.42966 8.471L4.45676 8.46648L4.48385 8.46197H4.51546L4.54255 8.45745H4.56964L4.59674 8.45294H4.62834H4.65544L4.68253 8.44842H4.71414H4.74123C5.35082 8.44842 5.92428 8.68322 6.35776 9.11219C6.70545 9.45085 6.93123 9.88885 7.00347 10.3675V10.372L7.00799 10.381V10.3856C7.0125 10.4126 7.01702 10.4443 7.02153 10.4759ZM14.1469 5.92428H17.2897L17.0413 3.74783H14.1469V5.92428ZM18.3328 10.4759H19.0372V9.29281H18.1612C18.0122 9.29281 17.8902 9.17089 17.8902 9.02188V7.9156C17.8902 7.76659 18.0122 7.64467 18.1612 7.64467H19.0281C18.9514 6.98993 18.3915 6.46162 17.7412 6.46162H14.1469V8.44842V10.4759H14.621C14.6436 10.3314 14.6797 10.1914 14.7294 10.0604V10.0559L14.743 10.0243L14.7475 10.0108L14.7565 9.98819L14.7655 9.96561L14.7746 9.95207C14.7791 9.93852 14.7836 9.92949 14.7881 9.92046V9.91143C15.0455 9.36957 15.5467 8.97221 16.1428 8.86384L16.1518 8.85933L16.1879 8.85481H16.2015L16.2331 8.8503L16.2466 8.84578L16.2782 8.84126H16.2918L16.3234 8.83675H16.3369H16.3685L16.3866 8.83223H16.4137H16.4317H16.4769H16.5221H16.5401H16.5717L16.5853 8.83675H16.6169H16.6304L16.662 8.84126H16.6801L16.7072 8.84578L16.7253 8.8503L16.7569 8.85481H16.7659L16.802 8.85933L16.811 8.86384C17.4251 8.97673 17.9354 9.39215 18.1837 9.95207L18.1883 9.9611L18.2018 9.99271L18.2063 10.0063L18.2154 10.0288L18.2244 10.0559L18.2289 10.065C18.2786 10.1959 18.3147 10.3314 18.3328 10.4759ZM14.1469 3.21049H17.2807H17.8541V2.79055C17.8541 2.55575 17.669 2.37061 17.4342 2.37061H14.1469V3.21049ZM4.74123 8.98576C3.75234 8.98576 2.9802 9.7579 2.9802 10.7423C2.9802 11.6905 3.77041 12.4627 4.74123 12.4627C5.71205 12.4627 6.49774 11.6905 6.49774 10.7468V10.7423C6.49774 10.7287 6.49774 10.7107 6.49774 10.6971C6.49774 10.6836 6.49774 10.6655 6.49774 10.652C6.49774 10.6384 6.49323 10.6204 6.49323 10.6068C6.49323 10.5933 6.49323 10.5752 6.48871 10.5617C6.48871 10.5481 6.48871 10.53 6.4842 10.5165C6.4842 10.503 6.47968 10.4849 6.47968 10.4713C6.47516 10.4578 6.47516 10.4443 6.47065 10.4262C6.47065 10.4126 6.46613 10.3991 6.46613 10.3856C6.46162 10.372 6.4571 10.3539 6.4571 10.3404C6.45259 10.3269 6.44807 10.3133 6.44356 10.2998C6.43904 10.2862 6.43904 10.2727 6.43453 10.2546C6.43001 10.2411 6.42549 10.2275 6.42098 10.214C6.41646 10.2004 6.41195 10.1869 6.40743 10.1733C6.40292 10.1598 6.3984 10.1462 6.39389 10.1327C6.38937 10.1191 6.38486 10.1056 6.38034 10.092C6.37582 10.0785 6.36679 10.065 6.36228 10.0514C6.35776 10.0379 6.35325 10.0243 6.34422 10.0153C6.3397 10.0017 6.33519 9.98819 6.33067 9.97464H6.32615C6.32164 9.9611 6.31712 9.94755 6.30809 9.934C6.30358 9.92497 6.29455 9.91143 6.29003 9.89788C6.28552 9.88434 6.27648 9.8753 6.26745 9.86176C6.26294 9.84821 6.25391 9.83466 6.24939 9.82563C6.24036 9.81209 6.23133 9.79854 6.22681 9.78951C6.21778 9.77596 6.20875 9.76693 6.20424 9.75339C6.19521 9.73984 6.18618 9.73081 6.17714 9.71726C6.17263 9.70823 6.1636 9.69469 6.15457 9.68565C6.14554 9.67211 6.13651 9.66308 6.12747 9.64953C6.11844 9.6405 6.10941 9.63147 6.10038 9.61792C6.09587 9.60889 6.08684 9.59535 6.07329 9.58632C6.06426 9.57728 6.05523 9.56374 6.0462 9.55471C6.03717 9.54568 6.02813 9.53213 6.0191 9.5231C6.01007 9.51407 6.00104 9.50504 5.99201 9.49601C5.97846 9.48246 5.96943 9.47343 5.9604 9.4644C5.95137 9.45537 5.93783 9.44634 5.92879 9.43731C5.91976 9.42827 5.90622 9.41924 5.89719 9.41021C5.88815 9.40118 5.87461 9.39215 5.86558 9.38312C5.85655 9.37409 5.843 9.36506 5.83397 9.35603C5.82042 9.347 5.81139 9.33797 5.79785 9.32893C5.78882 9.3199 5.77527 9.31087 5.76624 9.30636C5.75269 9.29733 5.74366 9.2883 5.73011 9.27926C5.72108 9.27475 5.70754 9.26572 5.69399 9.25669C5.68496 9.25217 5.67141 9.24314 5.65787 9.23411C5.64884 9.22959 5.63529 9.22056 5.62174 9.21605C5.6082 9.20702 5.59917 9.2025 5.58562 9.19347C5.57207 9.18896 5.55853 9.17992 5.5495 9.17541C5.53595 9.16638 5.5224 9.16186 5.50886 9.15735C5.49531 9.14832 5.48176 9.1438 5.47273 9.13928C5.45919 9.13025 5.44564 9.12574 5.43209 9.12122C5.41855 9.11671 5.405 9.11219 5.39146 9.10316C5.37791 9.09865 5.36436 9.09413 5.35082 9.08961C5.33727 9.0851 5.32372 9.08058 5.31018 9.07607C5.29663 9.07155 5.28308 9.06704 5.26954 9.06252C5.25599 9.05801 5.24244 9.05349 5.2289 9.04897C5.21535 9.04446 5.19729 9.04446 5.18374 9.03994C5.1702 9.03543 5.15665 9.03091 5.1431 9.03091C5.12956 9.0264 5.11601 9.02188 5.09795 9.02188C5.0844 9.01737 5.07086 9.01285 5.05731 9.01285C5.03925 9.00834 5.0257 9.00834 5.01216 9.00382C4.99861 9.00382 4.98055 8.99931 4.967 8.99931C4.95346 8.99479 4.93991 8.99479 4.92185 8.99479C4.9083 8.99027 4.89475 8.99027 4.87669 8.99027C4.86315 8.99027 4.8496 8.98576 4.83154 8.98576C4.81799 8.98576 4.79993 8.98576 4.78638 8.98576C4.77284 8.98576 4.75478 8.98576 4.74123 8.98576ZM16.4769 9.36506C16.4679 9.36506 16.4543 9.36506 16.4408 9.36957C16.4317 9.36957 16.4182 9.36957 16.4092 9.36957C16.3956 9.36957 16.3866 9.36957 16.373 9.36957C16.364 9.37409 16.3505 9.37409 16.3414 9.37409C16.3279 9.37409 16.3189 9.3786 16.3053 9.3786C16.2963 9.3786 16.2827 9.38312 16.2737 9.38312C16.2647 9.38312 16.2511 9.38763 16.2421 9.38763C16.2285 9.39215 16.2195 9.39215 16.206 9.39667C16.1969 9.39667 16.1879 9.40118 16.1744 9.40118C16.1653 9.4057 16.1563 9.4057 16.1428 9.41021C16.1337 9.41473 16.1202 9.41473 16.1111 9.41924C16.1021 9.42376 16.0886 9.42376 16.0795 9.42827C16.0705 9.43279 16.057 9.43731 16.0479 9.43731C16.0389 9.44182 16.0299 9.44634 16.0163 9.45085C16.0073 9.45537 15.9983 9.45988 15.9892 9.4644C15.9757 9.4644 15.9667 9.46891 15.9576 9.47343C15.9486 9.47794 15.935 9.48246 15.926 9.48697C15.917 9.49149 15.908 9.49601 15.8989 9.50052C15.8899 9.50955 15.8763 9.51407 15.8673 9.51858C15.8583 9.5231 15.8493 9.52761 15.8402 9.53213L15.8131 9.55019C15.8041 9.55471 15.7951 9.55922 15.786 9.56825C15.777 9.57277 15.768 9.57728 15.7589 9.5818C15.7499 9.59083 15.7409 9.59535 15.7318 9.59986L15.7048 9.62244C15.6957 9.62695 15.6867 9.63147 15.6777 9.6405C15.6686 9.64502 15.6596 9.65405 15.6506 9.65856L15.628 9.68114C15.619 9.69017 15.6099 9.69469 15.6009 9.70372C15.5964 9.70823 15.5874 9.71726 15.5783 9.72629C15.5693 9.73081 15.5603 9.73984 15.5557 9.74887C15.5467 9.75339 15.5377 9.76242 15.5332 9.77145C15.5241 9.77596 15.5151 9.785 15.5106 9.79403C15.5016 9.80306 15.4925 9.80757 15.488 9.8166C15.479 9.82563 15.4745 9.83467 15.4654 9.8437L15.4474 9.86627C15.4383 9.8753 15.4338 9.88434 15.4248 9.89337C15.4203 9.9024 15.4113 9.91143 15.4067 9.92046L15.3887 9.94755C15.3796 9.95658 15.3751 9.96561 15.3661 9.97464C15.3616 9.98368 15.3571 9.99271 15.3526 10.0017C15.3435 10.0108 15.339 10.0198 15.3345 10.0288C15.33 10.0379 15.3209 10.0469 15.3164 10.0559C15.3119 10.0695 15.3074 10.0785 15.3029 10.0875L15.2848 10.1146L15.2713 10.1462L15.2577 10.1778C15.2532 10.1869 15.2487 10.1959 15.2442 10.2094C15.2397 10.2185 15.2352 10.2275 15.2306 10.2365C15.2261 10.2501 15.2261 10.2591 15.2216 10.2681C15.2171 10.2817 15.2126 10.2907 15.2081 10.2998C15.2081 10.3133 15.2035 10.3223 15.199 10.3359C15.1945 10.3449 15.1945 10.3539 15.19 10.3675C15.1855 10.3765 15.1855 10.3901 15.181 10.3991C15.181 10.4081 15.1764 10.4217 15.1719 10.4307C15.1719 10.4443 15.1674 10.4533 15.1674 10.4668C15.1629 10.4759 15.1629 10.4894 15.1584 10.4984C15.1584 10.512 15.1584 10.521 15.1539 10.5346C15.1539 10.5436 15.1494 10.5571 15.1494 10.5662C15.1494 10.5797 15.1494 10.5933 15.1448 10.6023V10.6384C15.1403 10.6474 15.1403 10.661 15.1403 10.6745V10.7061V10.7423C15.1403 11.4693 15.7499 12.0834 16.4769 12.0834C17.2039 12.0834 17.8135 11.4693 17.8135 10.7423C17.8135 10.7332 17.8135 10.7197 17.8135 10.7061C17.8135 10.6971 17.8135 10.6836 17.8135 10.6745C17.8135 10.661 17.8135 10.6474 17.8135 10.6384C17.809 10.6249 17.809 10.6158 17.809 10.6023C17.809 10.5887 17.8044 10.5797 17.8044 10.5662C17.8044 10.5571 17.7999 10.5436 17.7999 10.5346C17.7999 10.521 17.7954 10.512 17.7954 10.4984C17.7909 10.4894 17.7909 10.4759 17.7864 10.4668C17.7864 10.4533 17.7819 10.4443 17.7819 10.4307C17.7774 10.4217 17.7774 10.4081 17.7728 10.3991L17.7638 10.3675C17.7638 10.3539 17.7593 10.3449 17.7548 10.3359C17.7503 10.3223 17.7503 10.3133 17.7457 10.2998L17.7322 10.2681C17.7322 10.2591 17.7277 10.2501 17.7232 10.2365L17.7096 10.2094L17.6961 10.1778L17.6825 10.1462L17.669 10.1146C17.6645 10.1056 17.66 10.0966 17.6554 10.0875C17.6464 10.0785 17.6419 10.0695 17.6374 10.0559C17.6329 10.0469 17.6283 10.0379 17.6193 10.0288L17.6058 10.0017C17.5967 9.99271 17.5922 9.98368 17.5877 9.97464C17.5787 9.96561 17.5742 9.95658 17.5696 9.94755L17.5516 9.92046H17.5471C17.5425 9.91143 17.538 9.9024 17.529 9.89337L17.5109 9.86627L17.4884 9.8437L17.4658 9.8166C17.4613 9.80757 17.4522 9.80306 17.4477 9.79403C17.4387 9.785 17.4297 9.77596 17.4251 9.77145C17.4161 9.76242 17.4071 9.75339 17.3981 9.74887C17.3935 9.73984 17.3845 9.73081 17.3755 9.72629C17.371 9.71726 17.3619 9.70823 17.3529 9.70372L17.3303 9.68114C17.3213 9.67211 17.3123 9.66759 17.3032 9.65856C17.2942 9.65405 17.2852 9.64502 17.2761 9.6405L17.2536 9.62244L17.2265 9.59986C17.2174 9.59535 17.2084 9.59083 17.1994 9.5818C17.1903 9.57728 17.1813 9.57277 17.1723 9.56825C17.1632 9.55922 17.1542 9.55471 17.1452 9.55019L17.1136 9.53213C17.1045 9.52761 17.0955 9.5231 17.0865 9.51858C17.0775 9.51407 17.0684 9.50955 17.0549 9.50052C17.0458 9.49601 17.0368 9.49149 17.0278 9.48697L16.9962 9.47343C16.9871 9.46891 16.9781 9.4644 16.9691 9.4644C16.9555 9.45988 16.9465 9.45537 16.9375 9.45085C16.9284 9.44634 16.9149 9.44182 16.9059 9.43731C16.8968 9.43731 16.8833 9.43279 16.8743 9.42827C16.8652 9.42376 16.8517 9.42376 16.8427 9.41924C16.8336 9.41473 16.8201 9.41473 16.811 9.41021C16.802 9.4057 16.7885 9.4057 16.7794 9.40118C16.7704 9.40118 16.7569 9.39667 16.7478 9.39667C16.7343 9.39215 16.7253 9.39215 16.7162 9.38763C16.7027 9.38763 16.6936 9.38312 16.6801 9.38312C16.6711 9.38312 16.6575 9.3786 16.6485 9.3786C16.6349 9.3786 16.6259 9.37409 16.6124 9.37409C16.6033 9.37409 16.5898 9.37409 16.5808 9.36957C16.5672 9.36957 16.5582 9.36957 16.5446 9.36957C16.5356 9.36957 16.5221 9.36957 16.513 9.36957C16.4995 9.36506 16.4904 9.36506 16.4769 9.36506ZM4.74123 12.0427C4.00069 12.0427 3.40465 11.4602 3.40465 10.7423C3.40465 10.0063 4.00069 9.4057 4.74123 9.4057C5.50434 9.4057 6.0778 9.97916 6.0778 10.7423C6.0778 11.4738 5.49079 12.0427 4.74123 12.0427ZM4.74123 9.93852C4.29871 9.93852 3.93748 10.2998 3.93748 10.7423C3.93748 11.1577 4.30323 11.5099 4.74123 11.5099C5.19729 11.5099 5.54498 11.1803 5.54498 10.7423C5.54498 10.2772 5.20632 9.93852 4.74123 9.93852ZM18.4276 8.75547H19.0372V8.18201H18.4276V8.75547ZM16.4769 11.6995C15.9396 11.6995 15.4835 11.2615 15.4835 10.7423C15.4835 10.1959 15.9305 9.74887 16.4769 9.74887C17.0233 9.74887 17.4703 10.1959 17.4703 10.7423C17.4703 11.2615 17.0142 11.6995 16.4769 11.6995ZM16.4769 10.2862C16.2556 10.2862 16.0208 10.4623 16.0208 10.7423C16.0208 10.968 16.2331 11.1622 16.4769 11.1622C16.7207 11.1622 16.9375 10.968 16.9375 10.7423C16.9375 10.4623 16.6982 10.2862 16.4769 10.2862ZM0.537339 8.75547H1.14693V8.18201H0.537339V8.75547Z" fill="#D64923"/>
</svg>
