<svg width="17" height="11" viewBox="0 0 17 11" fill="none" xmlns="http://www.w3.org/2000/svg">
<path d="M16.5 8.24609L1.01621 8.24609" stroke="#319ACE" stroke-linecap="round" stroke-linejoin="round"/>
<path d="M12.371 10.3087C11.2308 10.3087 10.3065 9.38439 10.3065 8.24419C10.3065 7.104 11.2308 6.17969 12.371 6.17969C13.5112 6.17969 14.4355 7.104 14.4355 8.24419C14.4355 9.38439 13.5112 10.3087 12.371 10.3087Z" fill="white" stroke="#319ACE" stroke-linecap="round" stroke-linejoin="round"/>
<path d="M16.5 2.56641L1.01621 2.5664" stroke="#319ACE" stroke-linecap="round" stroke-linejoin="round"/>
<path d="M2.5644 4.62901C1.42421 4.62901 0.499896 3.7047 0.499896 2.56451C0.499896 1.42431 1.42421 0.5 2.5644 0.5C3.7046 0.5 4.62891 1.42431 4.62891 2.56451C4.62891 3.7047 3.7046 4.62901 2.5644 4.62901Z" fill="white" stroke="#319ACE" stroke-linecap="round" stroke-linejoin="round"/>
</svg>
