<svg width="20" height="17" viewBox="0 0 20 17" fill="none" xmlns="http://www.w3.org/2000/svg">
<path fill-rule="evenodd" clip-rule="evenodd" d="M0 6.03044C0 2.77953 2.46941 0 5.69154 0C7.43501 0 8.96825 0.823963 10 2.08777C11.0317 0.824012 12.5647 0 14.3073 0C17.5306 0 20 2.78078 20 6.03044C20 7.33742 19.4861 8.59489 18.7437 9.73523C17.9997 10.8783 16.9978 11.9476 15.9503 12.893C13.8556 14.7834 11.4963 16.2507 10.4001 16.8922C10.1543 17.036 9.84541 17.036 9.59964 16.892C8.50368 16.2501 6.1444 14.7827 4.04975 12.8926C3.00214 11.9472 2.00034 10.878 1.25629 9.73514C0.513988 8.59484 0 7.33743 0 6.03044Z" fill="#D64923"/>
</svg>
