<svg width="20" height="20" viewBox="0 0 20 20" fill="none" xmlns="http://www.w3.org/2000/svg">
<g clip-path="url(#clip0_2927_54865)">
<path d="M15.6079 10.0012C15.6079 6.90964 13.0928 4.39453 10.0012 4.39453C6.90964 4.39453 4.39453 6.90964 4.39453 10.0012V10.7776C4.39453 11.6235 4.68552 12.4533 5.21408 13.114L6.32843 14.507C6.70013 14.9716 6.90491 15.5553 6.90491 16.1502V18.1599C6.90491 18.3154 6.96655 18.4644 7.07657 18.5744L8.33176 19.8296C8.44162 19.9394 8.59055 20.0012 8.74603 20.0012H11.2564C11.4119 20.0012 11.561 19.9394 11.6707 19.8296L12.9259 18.5744C13.0359 18.4644 13.0975 18.3154 13.0975 18.1599V16.1502C13.0975 15.5553 13.3023 14.9716 13.674 14.507L14.7884 13.114C15.3169 12.4533 15.6079 11.6235 15.6079 10.7776V10.0012ZM11.0138 18.8293H8.98865L8.07678 17.9173V17.4908H11.9257V17.9173L11.0138 18.8293ZM14.436 10.7776C14.436 11.3585 14.2361 11.9284 13.8733 12.382L12.7589 13.775C12.2217 14.4466 11.9257 15.2902 11.9257 16.1504V16.319H10.5872V12.5116C10.5872 12.188 10.3249 11.9257 10.0012 11.9257C9.67758 11.9257 9.41528 12.188 9.41528 12.5116V16.319H8.07678V16.1504C8.07678 15.2902 7.78076 14.4466 7.2435 13.775L6.12915 12.382C5.7663 11.9284 5.56641 11.3585 5.56641 10.7776V10.0012C5.56641 7.55585 7.55585 5.56641 10.0012 5.56641C12.4466 5.56641 14.436 7.55585 14.436 10.0012V10.7776Z" fill="#D64923"/>
<path d="M19.4153 9.41406H18.1602C17.8365 9.41406 17.5742 9.67636 17.5742 10C17.5742 10.3236 17.8365 10.5859 18.1602 10.5859H19.4153C19.739 10.5859 20.0013 10.3236 20.0013 10C20.0013 9.67636 19.739 9.41406 19.4153 9.41406Z" fill="#D64923"/>
<path d="M1.84113 9.41406H0.585938C0.262299 9.41406 0 9.67636 0 10C0 10.3236 0.262299 10.5859 0.585938 10.5859H1.84113C2.16476 10.5859 2.42706 10.3236 2.42706 10C2.42706 9.67636 2.16476 9.41406 1.84113 9.41406Z" fill="#D64923"/>
<path d="M16.1838 15.3553C15.9551 15.1264 15.584 15.1264 15.3553 15.3553C15.1264 15.584 15.1264 15.9551 15.3553 16.1838L16.2429 17.0714C16.3571 17.1859 16.5071 17.2431 16.6571 17.2431C16.807 17.2431 16.957 17.1859 17.0714 17.0714C17.3003 16.8427 17.3003 16.4716 17.0714 16.2429L16.1838 15.3553Z" fill="#D64923"/>
<path d="M3.81708 4.64563C3.93152 4.76007 4.08136 4.81729 4.23135 4.81729C4.3812 4.81729 4.53119 4.76007 4.64563 4.64563C4.87451 4.4169 4.87451 4.04581 4.64563 3.81708L3.75803 2.92947C3.5293 2.70059 3.15836 2.70059 2.92947 2.92947C2.70059 3.1582 2.70059 3.5293 2.92947 3.75803L3.81708 4.64563Z" fill="#D64923"/>
<path d="M3.81708 15.3553L2.92947 16.2429C2.70059 16.4716 2.70059 16.8425 2.92947 17.0714C3.04391 17.1859 3.19376 17.2431 3.34375 17.2431C3.49374 17.2431 3.64374 17.1859 3.75803 17.0714L4.64563 16.1838C4.87451 15.9551 4.87451 15.584 4.64563 15.3553C4.4169 15.1264 4.04581 15.1264 3.81708 15.3553Z" fill="#D64923"/>
<path d="M16.2429 2.92947L15.3553 3.81708C15.1264 4.04581 15.1264 4.4169 15.3553 4.64563C15.4697 4.76007 15.6195 4.81729 15.7695 4.81729C15.9194 4.81729 16.0694 4.76007 16.1838 4.64563L17.0714 3.75803C17.3003 3.5293 17.3003 3.15836 17.0714 2.92947C16.8425 2.70059 16.4716 2.70059 16.2429 2.92947Z" fill="#D64923"/>
<path d="M10 2.42706C10.3236 2.42706 10.5859 2.16476 10.5859 1.84113V0.585938C10.5859 0.262299 10.3236 0 10 0C9.67636 0 9.41406 0.262299 9.41406 0.585938V1.84113C9.41406 2.16476 9.67636 2.42706 10 2.42706Z" fill="#D64923"/>
</g>
<defs>
<clipPath id="clip0_2927_54865">
<rect width="20" height="20" fill="white"/>
</clipPath>
</defs>
</svg>
