<svg width="29" height="23" viewBox="0 0 29 23" fill="none" xmlns="http://www.w3.org/2000/svg">
<path d="M2.8336 22.667C2.05444 22.667 1.3886 22.3893 0.833269 21.8354C0.565066 21.5763 0.352785 21.265 0.209519 20.9207C0.0662523 20.5765 -0.00496186 20.2065 0.000268581 19.8336V2.83362C0.000268581 2.05445 0.277935 1.38862 0.833269 0.833283C1.09198 0.564986 1.40298 0.352628 1.74705 0.209347C2.09112 0.0660661 2.46093 -0.00508913 2.8336 0.000283032H25.5003C26.2794 0.000283032 26.9467 0.277949 27.502 0.833283C28.0559 1.3872 28.3336 2.05445 28.3336 2.83362V19.8336C28.3388 20.2063 28.2677 20.5762 28.1247 20.9204C27.9816 21.2647 27.7698 21.576 27.502 21.8354C27.2428 22.1032 26.9314 22.3152 26.5872 22.4582C26.2429 22.6012 25.873 22.6723 25.5003 22.667H2.8336ZM14.1669 12.5024C14.4294 12.4996 14.6863 12.4262 14.9107 12.2899L24.9336 6.02112C25.112 5.91407 25.2586 5.76153 25.3586 5.57912C25.4537 5.39888 25.5024 5.1978 25.5003 4.99403C25.5093 4.77835 25.4576 4.56447 25.3512 4.37666C25.2448 4.18885 25.0878 4.03464 24.8982 3.93153C24.4973 3.69495 24.0836 3.7077 23.6586 3.96695L14.1669 9.91695L4.67527 3.96695C4.25027 3.7077 3.8366 3.70062 3.43569 3.94853C3.03477 4.19645 2.8336 4.54495 2.8336 4.99403C2.82846 5.20898 2.87716 5.4218 2.97527 5.61312C3.06991 5.79087 3.2188 5.9338 3.40027 6.02112L13.4232 12.2899C13.5408 12.3607 13.6654 12.4131 13.7958 12.4485C13.9165 12.4832 14.0413 12.5013 14.1669 12.5024Z" fill="#D64923"/>
</svg>
