<svg width="21" height="21" viewBox="0 0 21 21" fill="none" xmlns="http://www.w3.org/2000/svg">
<g clip-path="url(#clip0_6006_54056)">
<path d="M10.5 21C16.299 21 21 16.299 21 10.5C21 4.70101 16.299 0 10.5 0C4.70101 0 0 4.70101 0 10.5C0 16.299 4.70101 21 10.5 21Z" fill="#33CF6A"/>
<path d="M10.4972 5C9.48409 5.00039 8.49076 5.28067 7.62682 5.80994C6.76288 6.3392 6.06192 7.09687 5.60129 7.99934C5.14065 8.90181 4.93824 9.91401 5.01639 10.9242C5.09454 11.9345 5.45021 12.9035 6.04416 13.7244L5.35674 15.7676L7.4726 15.0911C8.1884 15.5633 9.00469 15.8616 9.85627 15.9621C10.7079 16.0626 11.5711 15.9625 12.3772 15.6699C13.1832 15.3773 13.9096 14.9002 14.4985 14.2767C15.0873 13.6533 15.5222 12.9008 15.7684 12.0793C16.0146 11.2578 16.0654 10.3901 15.9166 9.54553C15.7677 8.70094 15.4235 7.90286 14.9114 7.21503C14.3992 6.52719 13.7333 5.96867 12.9669 5.58408C12.2005 5.19948 11.3547 4.99946 10.4972 5ZM13.4201 12.7784L12.8344 13.3641C12.2185 13.9801 10.5852 13.3023 9.13752 11.8516C7.68983 10.401 7.04091 8.77163 7.62658 8.1625L8.21226 7.57675C8.32567 7.47249 8.4741 7.41463 8.62815 7.41463C8.78219 7.41463 8.93062 7.47249 9.04403 7.57675L9.90743 8.4375C9.97783 8.50595 10.0295 8.59134 10.0574 8.68548C10.0854 8.77962 10.0886 8.87936 10.067 8.97514C10.0453 9.07093 9.99942 9.15954 9.93369 9.23248C9.86795 9.30543 9.78459 9.36027 9.69158 9.39175C9.55436 9.4356 9.43934 9.53068 9.37046 9.6572C9.30157 9.78372 9.28412 9.93194 9.32175 10.071C9.47573 10.7173 10.3075 11.5189 10.9248 11.6729C11.0631 11.7019 11.2072 11.6801 11.3307 11.6114C11.4542 11.5427 11.5488 11.4317 11.5971 11.2989C11.6282 11.2045 11.6833 11.1198 11.7569 11.0531C11.8305 10.9863 11.9201 10.9398 12.0171 10.9181C12.114 10.8963 12.215 10.9001 12.31 10.929C12.4051 10.9579 12.491 11.011 12.5595 11.083L13.4215 11.9465C13.5255 12.0601 13.5832 12.2086 13.5829 12.3627C13.5826 12.5168 13.5245 12.6651 13.4201 12.7784Z" fill="white"/>
</g>
<defs>
<clipPath id="clip0_6006_54056">
<rect width="21" height="21" fill="white"/>
</clipPath>
</defs>
</svg>
