<svg width="18" height="13" viewBox="0 0 18 13" fill="none" xmlns="http://www.w3.org/2000/svg">
<path fill-rule="evenodd" clip-rule="evenodd" d="M0 2.20994V10.4369C0 11.023 0.23275 11.5852 0.647188 11.9997C1.06163 12.4141 1.62331 12.6469 2.20994 12.6469H15.1863C15.773 12.6469 16.3347 12.4141 16.7491 11.9997C17.1635 11.5852 17.3969 11.023 17.3969 10.4369V6.83703C17.3969 7.01726 17.2235 7.22297 17.0109 7.22297C16.7978 7.22297 16.625 7.0695 16.625 6.83703V10.4369C16.625 10.8181 16.473 11.1839 16.2034 11.454C15.9339 11.7236 15.5681 11.875 15.1863 11.875C11.989 11.875 5.40728 11.875 2.20994 11.875C1.82816 11.875 1.46241 11.7236 1.19284 11.454C0.923281 11.1839 0.771875 10.8181 0.771875 10.4369V6.30325H16.625V6.83703C16.625 7.05019 16.7978 7.22297 17.0109 7.22297C17.2235 7.22297 17.3969 7.05019 17.3969 6.83703V2.20994C17.3969 1.62391 17.1635 1.06163 16.7491 0.647188C16.3347 0.23275 15.773 0 15.1863 0C11.989 0 5.40728 0 2.20994 0C1.62331 0 1.06163 0.23275 0.647188 0.647188C0.23275 1.06163 0 1.62391 0 2.20994ZM2.82684 10.4732H7.88619C8.09934 10.4732 8.27212 10.3004 8.27212 10.0872C8.27212 9.87466 8.09934 9.70128 7.88619 9.70128H2.82684C2.61369 9.70128 2.44091 9.87466 2.44091 10.0872C2.44091 10.3004 2.61369 10.4732 2.82684 10.4732ZM0.771875 3.58091V5.53137H16.625V3.58091H0.771875ZM16.625 2.80903V2.20994C16.625 1.82875 16.473 1.463 16.2034 1.19284C15.9339 0.923281 15.5681 0.771875 15.1863 0.771875C11.989 0.771875 5.40728 0.771875 2.20994 0.771875C1.82816 0.771875 1.46241 0.923281 1.19284 1.19284C0.923281 1.463 0.771875 1.82875 0.771875 2.20994V2.80903H16.625Z" fill="#D64923"/>
</svg>
