<svg width="15" height="20" viewBox="0 0 15 20" fill="none" xmlns="http://www.w3.org/2000/svg">
<path d="M13.058 0H1.04015C0.764405 0.000303811 0.500041 0.109965 0.305047 0.304928C0.110052 0.499891 0.000348467 0.764236 0 1.03998V18.21C0.000348467 18.4858 0.110052 18.7501 0.305047 18.9451C0.500041 19.14 0.764405 19.2497 1.04015 19.25H13.058C13.3337 19.2497 13.5981 19.14 13.7931 18.9451C13.9881 18.7501 14.0978 18.4858 14.0981 18.21V1.03998C14.0978 0.764236 13.9881 0.499891 13.7931 0.304928C13.5981 0.109965 13.3337 0.000303811 13.058 0ZM13.4106 18.21C13.4105 18.3035 13.3733 18.3931 13.3072 18.4592C13.2411 18.5252 13.1514 18.5624 13.058 18.5625H1.04015C0.946677 18.5624 0.857061 18.5252 0.790953 18.4592C0.724844 18.3931 0.68764 18.3035 0.6875 18.21V1.03998C0.68764 0.946509 0.724844 0.85691 0.790953 0.790834C0.857061 0.724757 0.946677 0.687595 1.04015 0.6875H13.058C13.1514 0.687595 13.2411 0.724757 13.3072 0.790834C13.3733 0.85691 13.4105 0.946509 13.4106 1.03998V18.21Z" fill="#D64923"/>
<path d="M6.96885 9.87109H2.73945C2.64944 9.87285 2.56371 9.90984 2.50068 9.97412C2.43765 10.0384 2.40234 10.1248 2.40234 10.2149C2.40235 10.3049 2.43766 10.3913 2.5007 10.4556C2.56373 10.5199 2.64946 10.5568 2.73947 10.5586H6.96885C7.05885 10.5568 7.14458 10.5199 7.20762 10.4556C7.27065 10.3913 7.30596 10.3049 7.30596 10.2148C7.30596 10.1248 7.27065 10.0384 7.20762 9.97411C7.14458 9.90984 7.05885 9.87285 6.96885 9.87109Z" fill="#D64923"/>
<path d="M2.73946 11.8867H5.64203C5.73204 11.885 5.81777 11.848 5.8808 11.7837C5.94383 11.7194 5.97914 11.633 5.97913 11.543C5.97913 11.4529 5.94382 11.3665 5.88078 11.3022C5.81775 11.238 5.73202 11.201 5.64201 11.1992H2.73946C2.64945 11.201 2.56372 11.238 2.50069 11.3022C2.43765 11.3665 2.40234 11.4529 2.40234 11.543C2.40234 11.633 2.43765 11.7194 2.50069 11.7837C2.56372 11.848 2.64945 11.885 2.73946 11.8867Z" fill="#D64923"/>
<path d="M6.96885 14.5859H2.73945C2.64944 14.5877 2.56371 14.6247 2.50068 14.689C2.43765 14.7532 2.40234 14.8397 2.40234 14.9297C2.40235 15.0197 2.43766 15.1062 2.5007 15.1704C2.56373 15.2347 2.64946 15.2717 2.73947 15.2734H6.96885C7.05885 15.2717 7.14458 15.2347 7.20762 15.1704C7.27065 15.1061 7.30596 15.0197 7.30596 14.9297C7.30596 14.8397 7.27065 14.7532 7.20762 14.689C7.14458 14.6247 7.05885 14.5877 6.96885 14.5859Z" fill="#D64923"/>
<path d="M5.64202 15.9141H2.73945C2.64944 15.9158 2.56371 15.9528 2.50068 16.0171C2.43765 16.0814 2.40234 16.1678 2.40234 16.2578C2.40235 16.3478 2.43766 16.4343 2.5007 16.4986C2.56373 16.5628 2.64946 16.5998 2.73947 16.6016H5.64202C5.73203 16.5998 5.81776 16.5628 5.88079 16.4985C5.94382 16.4343 5.97913 16.3478 5.97913 16.2578C5.97913 16.1678 5.94382 16.0814 5.88079 16.0171C5.81776 15.9528 5.73203 15.9158 5.64202 15.9141Z" fill="#D64923"/>
<path d="M11.1418 9.55444L9.8279 10.634L9.73155 10.1026C9.71382 10.0144 9.66219 9.93661 9.58775 9.88601C9.51331 9.83542 9.42199 9.81605 9.33341 9.83205C9.24484 9.84805 9.16608 9.89816 9.11404 9.9716C9.06201 10.045 9.04086 10.136 9.05513 10.2248L9.25571 11.3323C9.26696 11.3909 9.29317 11.4455 9.33179 11.491C9.37042 11.5365 9.42014 11.5712 9.47614 11.5917C9.53213 11.6123 9.5925 11.6181 9.65137 11.6084C9.71024 11.5988 9.76562 11.5741 9.81212 11.5367L11.5782 10.0855C11.6466 10.027 11.6894 9.94403 11.6973 9.85436C11.7051 9.7647 11.6776 9.67552 11.6204 9.60598C11.5633 9.53644 11.4811 9.49208 11.3916 9.48245C11.3021 9.47281 11.2124 9.49866 11.1418 9.55444Z" fill="#D64923"/>
<path d="M11.1418 14.6677L9.8279 15.7473L9.73155 15.2159C9.71382 15.1276 9.66219 15.0498 9.58775 14.9993C9.51331 14.9487 9.42199 14.9293 9.33341 14.9453C9.24484 14.9613 9.16608 15.0114 9.11404 15.0848C9.06201 15.1583 9.04086 15.2492 9.05513 15.3381L9.25571 16.4455C9.26696 16.5041 9.29317 16.5588 9.3318 16.6042C9.37042 16.6497 9.42014 16.6844 9.47614 16.705C9.53214 16.7255 9.5925 16.7313 9.65137 16.7216C9.71024 16.712 9.76562 16.6873 9.81212 16.6499L11.5782 15.1987C11.6466 15.1402 11.6893 15.0573 11.6972 14.9676C11.7051 14.878 11.6775 14.7888 11.6204 14.7193C11.5632 14.6497 11.4811 14.6054 11.3916 14.5957C11.3021 14.5861 11.2124 14.6119 11.1418 14.6677Z" fill="#D64923"/>
<path d="M7.05266 8.51804C7.92209 8.51707 8.75563 8.17124 9.3704 7.55645C9.98516 6.94165 10.3309 6.1081 10.3319 5.23867C10.1518 0.888557 3.95292 0.889822 3.77344 5.23869C3.77438 6.10812 4.12017 6.94167 4.73494 7.55646C5.3497 8.17125 6.18324 8.51707 7.05266 8.51804ZM7.05266 2.6471C7.73977 2.64785 8.39853 2.92113 8.8844 3.40697C9.37027 3.89281 9.64359 4.55155 9.64439 5.23865C9.52256 8.66903 4.58225 8.66815 4.46094 5.23861C4.46175 4.55151 4.73507 3.89279 5.22094 3.40695C5.70682 2.92112 6.36556 2.64785 7.05266 2.6471Z" fill="#D64923"/>
<path d="M7.04886 6.31963C6.68547 6.31963 6.41406 6.12492 6.41406 5.9507C6.41406 5.85953 6.37785 5.77209 6.31338 5.70763C6.24891 5.64316 6.16148 5.60695 6.07031 5.60695C5.97914 5.60695 5.89171 5.64316 5.82724 5.70763C5.76278 5.77209 5.72656 5.85953 5.72656 5.9507C5.74663 6.20735 5.85516 6.44909 6.03363 6.63463C6.21209 6.82018 6.44942 6.93803 6.70511 6.96806V7.19511C6.70511 7.28628 6.74132 7.37371 6.80579 7.43818C6.87026 7.50265 6.95769 7.53886 7.04886 7.53886C7.14003 7.53886 7.22746 7.50265 7.29193 7.43818C7.35639 7.37371 7.39261 7.28628 7.39261 7.19511V6.96806C8.88423 6.64813 8.56105 4.88053 7.04882 4.89428C6.21569 4.86547 6.21599 4.18558 7.04887 4.15675C7.41225 4.15675 7.68365 4.35145 7.68365 4.52568C7.68365 4.61685 7.71987 4.70428 7.78434 4.76875C7.8488 4.83321 7.93624 4.86943 8.0274 4.86943C8.11857 4.86943 8.20601 4.83321 8.27047 4.76875C8.33494 4.70428 8.37115 4.61685 8.37115 4.52568C8.35109 4.26902 8.24256 4.02729 8.06409 3.84174C7.88563 3.6562 7.64829 3.53835 7.39261 3.50832V3.28125C7.39261 3.19008 7.35639 3.10265 7.29193 3.03818C7.22746 2.97372 7.14003 2.9375 7.04886 2.9375C6.95769 2.9375 6.87026 2.97372 6.80579 3.03818C6.74132 3.10265 6.70511 3.19008 6.70511 3.28125V3.5083C5.21363 3.82824 5.53652 5.5954 7.0489 5.58174C7.88185 5.6105 7.88192 6.29085 7.04886 6.31963Z" fill="#D64923"/>
</svg>
