<svg width="35" height="34" viewBox="0 0 35 34" fill="none" xmlns="http://www.w3.org/2000/svg">
<path opacity="0.5" d="M16.8005 0.449646C17.0798 -0.149882 17.9177 -0.149882 18.2007 0.449646L22.9003 10.4917C23.012 10.7327 23.2392 10.8996 23.4998 10.9338L34.3252 12.389C34.4706 12.4082 34.6076 12.4691 34.7203 12.5645C34.8331 12.6599 34.917 12.786 34.9622 12.9281C35.0074 13.0701 35.0122 13.2223 34.9759 13.367C34.9396 13.5117 34.8638 13.643 34.7572 13.7455L26.8383 21.4047C26.7444 21.4952 26.6743 21.6083 26.6343 21.7336C26.5943 21.8588 26.5857 21.9923 26.6093 22.1218L28.5979 33.0632C28.6249 33.21 28.6105 33.3616 28.5564 33.5004C28.5023 33.6391 28.4106 33.7594 28.2921 33.8472C28.1735 33.9351 28.0329 33.9868 27.8867 33.9965C27.7404 34.0061 27.5945 33.9733 27.4658 33.9018L17.8674 28.5933C17.754 28.5305 17.6269 28.4977 17.4978 28.4977C17.3687 28.4977 17.2417 28.5305 17.1282 28.5933L7.53359 33.9037C7.40491 33.9752 7.25896 34.008 7.11271 33.9983C6.96645 33.9887 6.82588 33.937 6.70733 33.8491C6.58878 33.7613 6.49712 33.641 6.44299 33.5023C6.38885 33.3635 6.37447 33.2119 6.40152 33.0651L8.38822 22.1218C8.41165 21.9923 8.40297 21.8589 8.36297 21.7337C8.32298 21.6084 8.25294 21.4953 8.1592 21.4047L0.240316 13.7455C0.134439 13.6425 0.059287 13.5111 0.0235275 13.3665C-0.012232 13.2219 -0.00714235 13.0699 0.038209 12.9281C0.0835603 12.7863 0.167326 12.6604 0.279845 12.5651C0.392365 12.4697 0.529055 12.4086 0.674151 12.389L11.4995 10.9338C11.6274 10.9166 11.7491 10.8672 11.8534 10.79C11.9578 10.7128 12.0416 10.6103 12.0972 10.4917L16.8005 0.449646Z" fill="#737D87"/>
</svg>
