<svg width="16" height="20" viewBox="0 0 16 20" fill="none" xmlns="http://www.w3.org/2000/svg">
<path d="M6.95 10.67L5.575 9.25408C5.375 9.05181 5.138 8.95067 4.863 8.95067C4.588 8.95067 4.35 9.05181 4.15 9.25408C3.95 9.45636 3.846 9.69605 3.838 9.97418C3.83226 10.1081 3.8549 10.2418 3.9044 10.3661C3.9539 10.4905 4.02911 10.6027 4.125 10.6953L6.25 12.8445C6.45 13.0467 6.683 13.1479 6.95 13.1479C7.217 13.1479 7.45 13.0467 7.65 12.8445L11.9 8.54612C12.1 8.34384 12.2 8.10314 12.2 7.82501C12.2 7.54688 12.1 7.30718 11.9 7.10491C11.7 6.90263 11.463 6.8015 11.188 6.8015C10.913 6.8015 10.675 6.90263 10.475 7.10491L6.95 10.67ZM8 19.9999H7.75C7.67212 20.0012 7.59505 19.9838 7.525 19.9494C5.342 19.2576 3.542 17.8882 2.125 15.8402C0.708 13.7921 0 11.5297 0 9.05181V4.27306C0 3.85132 0.121 3.47205 0.363 3.13526C0.604 2.79746 0.917 2.55372 1.3 2.40202L7.3 0.126422C7.52438 0.0437608 7.7612 0.000989283 8 0C8.233 0 8.467 0.0414664 8.7 0.126422L14.7 2.40202C15.083 2.55372 15.396 2.79746 15.638 3.13526C15.879 3.47205 16 3.85132 16 4.27306V9.05181C16 11.5297 15.292 13.7921 13.875 15.8402C12.458 17.8882 10.658 19.2586 8.475 19.9494C8.392 19.9827 8.233 19.9999 8 19.9999Z" fill="#D64923"/>
</svg>
