<svg width="11" height="11" viewBox="0 0 11 11" fill="none" xmlns="http://www.w3.org/2000/svg">
<path d="M5.28017 0.145474C5.36794 -0.0484912 5.63128 -0.0484912 5.72023 0.145474L7.19723 3.39439C7.23234 3.47234 7.30374 3.52636 7.38566 3.53741L10.7879 4.0082C10.8336 4.01443 10.8767 4.03412 10.9121 4.06499C10.9475 4.09586 10.9739 4.13665 10.9881 4.18261C11.0023 4.22857 11.0038 4.27782 10.9924 4.32463C10.981 4.37144 10.9572 4.4139 10.9237 4.44708L8.4349 6.92504C8.4054 6.95434 8.38335 6.99092 8.37078 7.03145C8.35821 7.07198 8.35551 7.11516 8.36292 7.15706L8.9879 10.6969C8.9964 10.7444 8.99188 10.7935 8.97487 10.8384C8.95786 10.8833 8.92905 10.9222 8.89179 10.9506C8.85453 10.979 8.81035 10.9957 8.76438 10.9989C8.71842 11.002 8.67255 10.9914 8.63211 10.9682L5.61548 9.25078C5.57982 9.23047 5.53989 9.21983 5.49932 9.21983C5.45875 9.21983 5.41882 9.23047 5.38316 9.25078L2.3677 10.9688C2.32726 10.992 2.28139 11.0026 2.23542 10.9995C2.18945 10.9963 2.14528 10.9796 2.10802 10.9512C2.07076 10.9228 2.04195 10.8839 2.02494 10.839C2.00793 10.7941 2.00341 10.745 2.01191 10.6975L2.6363 7.15706C2.64366 7.11516 2.64093 7.07199 2.62836 7.03148C2.61579 6.99096 2.59378 6.95437 2.56432 6.92504L0.0755278 4.44708C0.0422523 4.41376 0.0186331 4.37125 0.00739436 4.32446C-0.00384434 4.27767 -0.00224474 4.2285 0.0120085 4.18262C0.0262618 4.13674 0.0525881 4.09603 0.0879514 4.06517C0.123315 4.0343 0.166274 4.01456 0.211876 4.0082L3.61414 3.53741C3.65433 3.53185 3.69256 3.51587 3.72536 3.49089C3.75817 3.46592 3.7845 3.43274 3.80199 3.39439L5.28017 0.145474Z" fill="#D64923"/>
</svg>
