<svg width="15" height="14" viewBox="0 0 15 14" fill="none" xmlns="http://www.w3.org/2000/svg">
<path d="M5.83617 1.76315C6.29867 0.760456 6.52991 0.259111 6.8492 0.102729C7.12669 -0.0331864 7.45143 -0.0331864 7.72893 0.102729C8.04821 0.259111 8.27946 0.760455 8.74195 1.76314L9.45317 3.30506C9.59004 3.60179 9.65847 3.75015 9.76232 3.86426C9.85424 3.96526 9.96586 4.04636 10.0903 4.10256C10.2309 4.16607 10.3932 4.1853 10.7177 4.22378L12.4039 4.42371C13.5004 4.55372 14.0487 4.61873 14.2961 4.87406C14.5111 5.09597 14.6115 5.40482 14.5679 5.71073C14.5179 6.06271 14.1125 6.43756 13.3018 7.18727L12.0552 8.34016C11.8153 8.56202 11.6953 8.67295 11.6189 8.80698C11.5512 8.9256 11.5086 9.05682 11.4936 9.19255C11.4766 9.34592 11.5085 9.50617 11.5722 9.82667L11.9031 11.4922C12.1183 12.5752 12.2259 13.1167 12.0595 13.4309C11.9149 13.704 11.6522 13.8948 11.3478 13.948C10.9976 14.0091 10.5158 13.7395 9.55227 13.2001L8.07057 12.3707C7.78543 12.2111 7.64286 12.1313 7.49177 12.1C7.35805 12.0724 7.22008 12.0724 7.08636 12.1C6.93526 12.1313 6.79269 12.2111 6.50756 12.3707L5.02585 13.2001C4.06232 13.7395 3.58055 14.0091 3.23033 13.948C2.92594 13.8948 2.66322 13.704 2.51861 13.4309C2.35223 13.1167 2.45983 12.5752 2.67502 11.4922L3.00595 9.82667C3.06964 9.50617 3.10148 9.34592 3.08453 9.19255C3.06954 9.05682 3.0269 8.9256 2.95926 8.80698C2.88282 8.67295 2.76286 8.56202 2.52296 8.34016L1.27629 7.18727C0.46559 6.43756 0.0602416 6.06271 0.0101769 5.71073C-0.0333354 5.40482 0.0670151 5.09597 0.282029 4.87406C0.529421 4.61873 1.07769 4.55372 2.17422 4.42371L3.86045 4.22378C4.18494 4.1853 4.34719 4.16607 4.48781 4.10256C4.61227 4.04636 4.72389 3.96526 4.8158 3.86426C4.91966 3.75015 4.98809 3.60179 5.12495 3.30506L5.83617 1.76315Z" fill="#737D87"/>
</svg>
