<svg width="26" height="27" viewBox="0 0 26 27" fill="none" xmlns="http://www.w3.org/2000/svg">
<path d="M24.7453 19.4634V23.2269C24.7467 23.5763 24.6779 23.9221 24.5432 24.2422C24.4086 24.5624 24.2111 24.8497 23.9635 25.0859C23.7158 25.3221 23.4235 25.5019 23.1051 25.6139C22.7868 25.7258 22.4494 25.7674 22.1147 25.7359C18.4015 25.3165 14.8346 23.9974 11.7008 21.8846C8.78515 19.9585 6.31321 17.3887 4.4605 14.3576C2.42113 11.0848 1.15198 7.35869 0.755888 3.48103C0.725733 3.13412 0.765391 2.78448 0.872337 2.45438C0.979282 2.12427 1.15117 1.82093 1.37706 1.56368C1.60295 1.30642 1.8779 1.10088 2.18438 0.960136C2.49087 0.819396 2.82219 0.746543 3.15725 0.746215H6.77739C7.36301 0.740223 7.93075 0.955816 8.37479 1.35281C8.81882 1.7498 9.10885 2.3011 9.19081 2.90396C9.34361 4.10837 9.62698 5.29094 10.0355 6.42911C10.1979 6.87813 10.233 7.36612 10.1368 7.83526C10.0405 8.3044 9.81693 8.73503 9.49249 9.07611L7.95997 10.6693C9.67779 13.81 12.1792 16.4105 15.2002 18.1963L16.7328 16.6031C17.0609 16.2658 17.4751 16.0334 17.9264 15.9333C18.3776 15.8333 18.847 15.8698 19.2789 16.0386C20.3738 16.4633 21.5113 16.7579 22.6698 16.9168C23.256 17.0027 23.7913 17.3097 24.174 17.7792C24.5567 18.2488 24.76 18.8482 24.7453 19.4634Z" stroke="#D64923" stroke-width="1.49239" stroke-linecap="round" stroke-linejoin="round"/>
</svg>
