<svg width="18" height="18" viewBox="0 0 18 18" fill="none" xmlns="http://www.w3.org/2000/svg">
<path d="M9 0.5C13.6919 0.5 17.5 4.30814 17.5 9C17.5 13.6919 13.6919 17.5 9 17.5C4.30814 17.5 0.5 13.6919 0.5 9C0.5 4.30814 4.30814 0.5 9 0.5ZM12.6992 4.92676C12.4336 4.92676 12.1482 5.00068 11.6602 5.17773C11.1636 5.35788 10.399 5.66788 9.15137 6.18848C8.27411 6.55023 6.52646 7.30711 3.90723 8.44629C3.6802 8.53808 3.47404 8.6404 3.31348 8.75879C3.1671 8.86674 2.96418 9.05726 2.93164 9.34961C2.90761 9.56312 2.96949 9.7603 3.0957 9.91797C3.20741 10.0575 3.35237 10.1441 3.46875 10.2012C3.68755 10.3085 3.99644 10.3945 4.24316 10.4727V10.4736C4.48144 10.5531 4.76157 10.6374 5.02734 10.7041C5.28203 10.7681 5.56024 10.8247 5.78027 10.8311V10.832L5.78125 10.8311L5.78223 10.832V10.8311C6.22226 10.8442 6.65173 10.6541 7.04785 10.3867C7.29226 10.222 7.52546 10.0664 7.74609 9.91797C7.69437 9.96712 7.64017 10.0197 7.58887 10.0713C7.47222 10.1887 7.3218 10.3516 7.2334 10.5518C7.12988 10.7865 7.11698 11.0593 7.25781 11.3281C7.34912 11.5024 7.49306 11.6508 7.66406 11.7832L7.84375 11.9111C8.22225 12.1605 8.52314 12.3651 8.83008 12.5742C9.13715 12.7834 9.45036 12.9966 9.84961 13.2598C9.96653 13.337 10.0751 13.4163 10.1973 13.5029C10.3144 13.586 10.4429 13.6755 10.5771 13.7539C10.8486 13.9125 11.1842 14.0515 11.5898 14.0166L11.5967 14.0156L11.6045 14.0146C12.1836 13.9477 12.5141 13.4128 12.6504 12.6826C12.9099 11.2904 13.3936 8.45478 13.6025 6.79785L13.6738 6.16699L13.6748 6.15527C13.6815 6.06151 13.6779 5.96337 13.6758 5.9043L13.6738 5.83105L13.6816 5.78809L13.6719 5.71582C13.6556 5.58543 13.5986 5.33356 13.3623 5.14453H13.3613C13.2279 5.03628 13.0806 4.98559 12.9785 4.96094C12.8701 4.93476 12.7693 4.92677 12.6992 4.92676Z" stroke="#737D87"/>
</svg>
