<svg width="30" height="30" viewBox="0 0 30 30" fill="none" xmlns="http://www.w3.org/2000/svg">
<g clip-path="url(#clip0_2927_53244)">
<path d="M22 14C21.6655 14.0021 21.3315 14.0253 21 14.0695V4.415C20.9994 4.20839 20.9562 4.00412 20.873 3.815C20.868 3.803 20.8605 3.793 20.855 3.782C20.782 3.62231 20.6817 3.47661 20.5585 3.3515L17.65 0.4415C17.5244 0.318175 17.3782 0.217823 17.218 0.145C17.207 0.1395 17.197 0.132 17.185 0.127C16.9959 0.0437959 16.7916 0.000558955 16.585 0H2C0.89543 0 0 0.89543 0 2V23.5C0 24.6046 0.89543 25.5 2 25.5H14.8175C16.5493 29.0514 20.6155 30.8052 24.3871 29.6276C28.1586 28.45 30.5045 24.694 29.9079 20.7882C29.3113 16.8824 25.9511 13.998 22 14ZM19.293 3.5H18.5C17.9477 3.5 17.5 3.05228 17.5 2.5V1.707L19.293 3.5ZM2 24.5C1.44772 24.5 1 24.0523 1 23.5V2C1 1.44772 1.44772 1 2 1H16.5V2.5C16.5 3.60457 17.3954 4.5 18.5 4.5H20V14.2635C17.8569 14.8111 16.0375 16.2242 14.9767 18.1652C13.9159 20.1062 13.7091 22.4006 14.4055 24.5H2ZM22 29C19.1688 29 16.6163 27.2945 15.5328 24.6788C14.4494 22.0631 15.0483 19.0522 17.0503 17.0503C19.0522 15.0483 22.0631 14.4494 24.6788 15.5328C27.2945 16.6163 29 19.1688 29 22C28.9959 25.8643 25.8643 28.9959 22 29Z" fill="#319ACE"/>
<path d="M9.1465 2.6468L8.1925 3.6003C7.91158 3.22377 7.46978 3.00148 7 3.0003H4C3.17157 3.0003 2.5 3.67187 2.5 4.5003V7.5003C2.5 8.32872 3.17157 9.0003 4 9.0003H7C7.82843 9.0003 8.5 8.32872 8.5 7.5003V4.7073L9.8535 3.3538C9.98348 3.22826 10.0356 3.04236 9.98985 2.86754C9.94409 2.69273 9.80757 2.55621 9.63275 2.51045C9.45794 2.46469 9.27204 2.51682 9.1465 2.6468ZM7.5 7.5003C7.5 7.77644 7.27614 8.0003 7 8.0003H4C3.72386 8.0003 3.5 7.77644 3.5 7.5003V4.5003C3.5 4.22415 3.72386 4.0003 4 4.0003H7C7.20845 4.0013 7.39412 4.13227 7.465 4.3283L6 5.7933L5.3535 5.1468C5.15731 4.95731 4.84546 4.96002 4.65259 5.15289C4.45972 5.34575 4.45701 5.65761 4.6465 5.8538L5.6465 6.8538C5.84175 7.04899 6.15825 7.04899 6.3535 6.8538L7.5 5.7073V7.5003Z" fill="#D64923"/>
<path d="M9.1465 9.64622L8.1925 10.5997C7.91158 10.2232 7.46978 10.0009 7 9.99972H4C3.17157 9.99972 2.5 10.6713 2.5 11.4997V14.4997C2.5 15.3281 3.17157 15.9997 4 15.9997H7C7.82843 15.9997 8.5 15.3281 8.5 14.4997V11.7067L9.8535 10.3532C10.043 10.157 10.0403 9.84517 9.84741 9.65231C9.65454 9.45944 9.34269 9.45673 9.1465 9.64622ZM7.5 14.4997C7.5 14.7759 7.27614 14.9997 7 14.9997H4C3.72386 14.9997 3.5 14.7759 3.5 14.4997V11.4997C3.5 11.2236 3.72386 10.9997 4 10.9997H7C7.20845 11.0007 7.39412 11.1317 7.465 11.3277L6 12.7927L5.3535 12.1462C5.15731 11.9567 4.84546 11.9594 4.65259 12.1523C4.45972 12.3452 4.45701 12.657 4.6465 12.8532L5.6465 13.8532C5.84175 14.0484 6.15825 14.0484 6.3535 13.8532L7.5 12.7067V14.4997Z" fill="#D64923"/>
<path d="M9.1465 16.6462L8.1925 17.5997C7.91158 17.2232 7.46978 17.0009 7 16.9997H4C3.17157 16.9997 2.5 17.6713 2.5 18.4997V21.4997C2.5 22.3281 3.17157 22.9997 4 22.9997H7C7.82843 22.9997 8.5 22.3281 8.5 21.4997V18.7067L9.8535 17.3532C10.043 17.157 10.0403 16.8452 9.84741 16.6523C9.65454 16.4594 9.34269 16.4567 9.1465 16.6462ZM7.5 21.4997C7.5 21.7759 7.27614 21.9997 7 21.9997H4C3.72386 21.9997 3.5 21.7759 3.5 21.4997V18.4997C3.5 18.2236 3.72386 17.9997 4 17.9997H7C7.20845 18.0007 7.39412 18.1317 7.465 18.3277L6 19.7927L5.3535 19.1462C5.15731 18.9567 4.84546 18.9594 4.65259 19.1523C4.45972 19.3452 4.45701 19.657 4.6465 19.8532L5.6465 20.8532C5.84175 21.0484 6.15825 21.0484 6.3535 20.8532L7.5 19.7067V21.4997Z" fill="#D64923"/>
<path d="M25.2722 18.0795C25.0399 17.9302 24.7306 17.9973 24.5812 18.2295L20.4167 24.708L19.3552 23.6465C19.159 23.4571 18.8471 23.4598 18.6543 23.6526C18.4614 23.8455 18.4587 24.1574 18.6482 24.3535L20.1482 25.8535C20.2419 25.9473 20.3691 26 20.5017 26C20.5194 26 20.5371 25.999 20.5547 25.997C20.7051 25.981 20.8403 25.8978 20.9222 25.7705L25.4222 18.7705C25.5716 18.5383 25.5044 18.2289 25.2722 18.0795Z" fill="#319ACE"/>
<path d="M11.5 5H15C15.2761 5 15.5 4.77614 15.5 4.5C15.5 4.22386 15.2761 4 15 4H11.5C11.2239 4 11 4.22386 11 4.5C11 4.77614 11.2239 5 11.5 5Z" fill="#319ACE"/>
<path d="M11.5 7.5H14.5C14.7761 7.5 15 7.27614 15 7C15 6.72386 14.7761 6.5 14.5 6.5H11.5C11.2239 6.5 11 6.72386 11 7C11 7.27614 11.2239 7.5 11.5 7.5Z" fill="#319ACE"/>
<path d="M11.5 12H18C18.2761 12 18.5 11.7761 18.5 11.5C18.5 11.2239 18.2761 11 18 11H11.5C11.2239 11 11 11.2239 11 11.5C11 11.7761 11.2239 12 11.5 12Z" fill="#319ACE"/>
<path d="M11.5 14.5H14.5C14.7761 14.5 15 14.2761 15 14C15 13.7239 14.7761 13.5 14.5 13.5H11.5C11.2239 13.5 11 13.7239 11 14C11 14.2761 11.2239 14.5 11.5 14.5Z" fill="#319ACE"/>
<path d="M13 18H11.5C11.2239 18 11 18.2239 11 18.5C11 18.7761 11.2239 19 11.5 19H13C13.2761 19 13.5 18.7761 13.5 18.5C13.5 18.2239 13.2761 18 13 18Z" fill="#319ACE"/>
<path d="M12.5 20.5H11.5C11.2239 20.5 11 20.7239 11 21C11 21.2761 11.2239 21.5 11.5 21.5H12.5C12.7761 21.5 13 21.2761 13 21C13 20.7239 12.7761 20.5 12.5 20.5Z" fill="#319ACE"/>
</g>
<defs>
<clipPath id="clip0_2927_53244">
<rect width="30" height="30" fill="white"/>
</clipPath>
</defs>
</svg>
