<svg width="30" height="30" viewBox="0 0 30 30" fill="none" xmlns="http://www.w3.org/2000/svg">
<path d="M15.3779 5.17969C20.9527 5.17974 25.451 9.58536 25.4512 14.9941C25.4512 20.4031 20.9529 24.8095 15.3779 24.8096C9.80296 24.8096 5.30469 20.4031 5.30469 14.9941C5.30487 9.58532 9.80307 5.17969 15.3779 5.17969Z" stroke="#319ACE"/>
<path d="M13.7494 28.3325C11.1867 28.0352 8.75993 27.0475 6.74287 25.4807C4.7258 23.9139 3.19873 21.8304 2.33396 19.4654C1.46919 17.1004 1.30114 14.548 1.84877 12.0961C2.3964 9.64419 3.63792 7.39046 5.43323 5.58919C7.22854 3.78791 9.5062 2.51078 12.0092 1.90191C14.5122 1.29303 17.1409 1.37664 19.5988 2.1433C22.0566 2.90997 24.2457 4.32917 25.9191 6.24077C27.5925 8.15238 28.4504 10.1701 28.8361 12.6517L28.1175 12.7568C27.7521 10.4054 26.9515 8.50986 25.3659 6.69859C23.7803 4.88731 21.7061 3.5426 19.3773 2.81617C17.0485 2.08975 14.5577 2.01053 12.1861 2.58745C9.81444 3.16437 7.65632 4.37446 5.95524 6.0812C4.25415 7.78794 3.0778 9.92338 2.55891 12.2466C2.04002 14.5698 2.19925 16.9883 3.01863 19.2291C3.83802 21.47 5.28494 23.4441 7.19614 24.9287C9.10734 26.4132 11.4067 27.3492 13.8349 27.6309L13.7494 28.3325Z" fill="#319ACE"/>
<rect x="13.9531" y="26.748" width="2.84478" height="2.75083" rx="1.37541" stroke="#319ACE"/>
<rect x="29.2969" y="12.6816" width="2.75083" height="1.88358" rx="0.941792" transform="rotate(90 29.2969 12.6816)" stroke="#319ACE"/>
<rect x="2.40222" y="13.5997" width="2.78964" height="0.961194" rx="0.480597" transform="rotate(90 2.40222 13.5997)" fill="white" stroke="#319ACE" stroke-width="0.961194"/>
<path d="M17.3611 19.3189H12.5703C11.4657 19.3189 10.5097 18.3856 10.926 17.3625C11.756 15.3225 13.8299 14.6708 14.8823 14.5918C17.2089 14.7431 18.3964 15.9817 18.9826 17.2535C19.4674 18.3054 18.5193 19.3189 17.3611 19.3189Z" stroke="#D64923"/>
<path d="M14.9189 10.8066C16.5257 10.8066 17.8076 12.0746 17.8076 13.6123C17.8074 15.1498 16.5255 16.417 14.9189 16.417C13.3125 16.4168 12.0315 15.1497 12.0312 13.6123C12.0312 12.0747 13.3124 10.8068 14.9189 10.8066Z" fill="white" stroke="#D64923"/>
</svg>
