<svg width="30" height="30" viewBox="0 0 30 30" fill="none" xmlns="http://www.w3.org/2000/svg">
<g clip-path="url(#clip0_2927_53196)">
<path d="M16.4844 0.484375H17.4541V3.33996H16.4844V0.484375Z" fill="#319ACE"/>
<path d="M25.7969 12.0703H29.1132V13.0382H25.7969V12.0703Z" fill="#319ACE"/>
<path d="M18.8147 29.9999C12.4274 29.9999 8.13547 25.7388 5.62103 22.0803C1.22306 15.7167 0.0234875 12.5195 0.685183 8.92523C1.52751 4.05644 5.7491 1.99787 5.92832 1.9128C7.21998 1.27387 8.34143 1.42651 8.99745 2.33222C9.41885 2.86175 10.5093 4.56754 10.5557 4.64055C11.6599 6.35414 12.0597 7.83947 11.7427 9.05448C11.509 9.95121 10.8928 10.6698 9.91198 11.1915L9.71406 11.2926C9.00384 11.6523 8.0313 12.1454 7.88902 13.1544C7.52159 15.2666 11.0756 19.543 13.0834 21.2481C14.6357 22.5517 15.3679 21.8442 16.1428 21.0966C16.3294 20.9166 16.5048 20.7462 16.6892 20.6146C19.8052 18.0957 21.4629 19.7876 23.0663 21.4232L23.3708 21.7334L25.1894 23.6443C25.6248 24.179 25.8218 24.9543 25.7271 25.6953C25.6456 26.3364 25.3639 26.865 24.934 27.1833L24.9312 27.1859C21.8867 29.403 21.1913 29.7685 19.6191 29.9781C19.3481 29.993 19.0789 29.9999 18.8147 29.9999ZM7.38049 2.49597C7.03248 2.49597 6.6634 2.629 6.35161 2.7833C6.30663 2.80504 2.39541 4.72633 1.63996 9.09513C1.03248 12.3961 2.19418 15.4166 6.41956 21.5321C8.89754 25.1389 13.1852 29.3543 19.5285 29.015C20.7988 28.8437 21.3199 28.6173 24.3571 26.4052C24.5694 26.2473 24.7176 25.9444 24.7647 25.5734C24.8263 25.0918 24.7065 24.5848 24.4608 24.2811L22.372 22.0992C20.7245 20.417 19.7302 19.4003 17.2763 21.383C17.1274 21.491 16.9761 21.6365 16.8161 21.792C16.0171 22.5628 14.68 23.8525 12.4565 21.9865C10.8059 20.5851 6.434 15.8561 6.93116 13.0039C7.14091 11.51 8.47685 10.8335 9.27491 10.4292L9.46004 10.3349C10.198 9.942 10.6393 9.44318 10.804 8.81063C11.0465 7.88153 10.6781 6.61997 9.73892 5.16229C9.72661 5.14338 8.62813 3.42412 8.22472 2.91633C8.00076 2.60773 7.69915 2.49597 7.38049 2.49597Z" fill="#D64923"/>
<path d="M23.7711 22.9924L23.2521 22.175C26.6219 20.0437 28.6335 16.4192 28.6335 12.4781C28.6335 6.1313 23.402 0.967851 16.9721 0.967851C14.2116 0.967851 11.5324 1.93948 9.42874 3.7034L8.80469 2.96263C11.0836 1.05197 13.9839 0 16.9721 0C23.9368 0 29.6032 5.59752 29.6032 12.4781C29.6032 16.7526 27.4228 20.6831 23.7711 22.9924Z" fill="#319ACE"/>
<path d="M16.3942 10.7271C16.3942 10.8795 16.3556 11.0314 16.2784 11.1838C16.2012 11.3362 16.1243 11.4882 16.0083 11.603C15.8925 11.7554 15.777 11.8695 15.6612 12.0219C15.5452 12.1363 15.3911 12.2887 15.2758 12.4028C15.1986 12.4789 15.1214 12.5553 15.0445 12.6313C14.9673 12.7072 14.8902 12.8216 14.8132 12.8979C14.736 12.974 14.6591 13.0881 14.6203 13.1647C14.5814 13.2405 14.5431 13.3171 14.5431 13.3929H16.5485V14.0406H13.6562C13.6562 14.0023 13.6562 13.9645 13.6562 13.9262C13.6562 13.8882 13.6562 13.8504 13.6562 13.8121C13.6562 13.6219 13.6951 13.4312 13.7723 13.241C13.8492 13.0508 13.9264 12.8984 14.0424 12.7459C14.1581 12.5935 14.2734 12.4416 14.4278 12.327C14.5819 12.1746 14.6977 12.0602 14.852 11.9461C14.9678 11.832 15.045 11.7559 15.1603 11.6418C15.2375 11.5657 15.3532 11.4515 15.4304 11.375C15.5076 11.2991 15.5462 11.1848 15.6233 11.1084C15.6622 10.9941 15.7005 10.9182 15.7005 10.8041C15.7005 10.5756 15.6233 10.4232 15.5076 10.3088C15.3916 10.233 15.1991 10.1564 15.045 10.1564C14.929 10.1564 14.8137 10.1564 14.6977 10.1947C14.5819 10.233 14.5047 10.2708 14.4278 10.3088C14.3506 10.3471 14.2734 10.4232 14.1965 10.4615C14.1193 10.4995 14.0805 10.5373 14.0424 10.5756L13.6567 10.0423C13.8497 9.85208 14.0424 9.73795 14.3123 9.62311C14.5436 9.50898 14.8137 9.4707 15.1219 9.4707C15.6233 9.4707 15.9704 9.58507 16.2017 9.81333C16.2789 10.0035 16.3942 10.3079 16.3942 10.7271Z" fill="#319ACE"/>
<path d="M19.9408 9.54688V12.3266H20.442V12.9741H19.9408V14.0402H19.1693V12.9741H17.1641V12.4029C17.241 12.2127 17.357 11.984 17.5111 11.7555C17.6652 11.527 17.8196 11.2605 18.0125 10.9937C18.2055 10.7272 18.398 10.4987 18.5909 10.2321C18.7839 9.96535 18.9763 9.73709 19.2076 9.54688H19.9408ZM19.1693 10.4987C19.0535 10.613 18.938 10.7654 18.861 10.9178C18.745 11.0702 18.6297 11.2222 18.5526 11.3746C18.4368 11.527 18.3596 11.6789 18.2443 11.8316C18.1671 11.984 18.0514 12.1359 17.9742 12.3266H19.1693V10.4987Z" fill="#319ACE"/>
</g>
<defs>
<clipPath id="clip0_2927_53196">
<rect width="30" height="30" fill="white"/>
</clipPath>
</defs>
</svg>
