<svg width="30" height="30" viewBox="0 0 30 30" fill="none" xmlns="http://www.w3.org/2000/svg">
<path fill-rule="evenodd" clip-rule="evenodd" d="M28.1255 4.375V10.6255H21.875V9.37452H26.8745V4.375H28.1255Z" fill="#319ACE"/>
<path fill-rule="evenodd" clip-rule="evenodd" d="M7.83086 4.00228C10.3813 2.33909 13.4306 1.61434 16.4567 1.95214C19.4827 2.28994 22.2971 3.66928 24.418 5.85392L24.4224 5.85842L27.9536 9.56937L27.0474 10.4317L23.5183 6.72307C21.5998 4.74789 19.0545 3.50084 16.3179 3.19535C13.5803 2.88974 10.8216 3.54542 8.51416 5.05007C6.20681 6.55477 4.49435 8.81482 3.67005 11.4432C2.84575 14.0716 2.9609 16.9048 3.99577 19.4577C5.03066 22.0105 6.92086 24.1242 9.34271 25.4366C11.7646 26.7491 14.5674 27.1787 17.2712 26.652C19.975 26.1252 22.4115 24.6749 24.1636 22.5492C25.9156 20.4236 26.8742 17.755 26.875 15.0003L28.1259 15.0007C28.125 18.0456 27.0655 20.9953 25.1289 23.3449C23.1923 25.6944 20.499 27.2976 17.5104 27.8798C14.5218 28.4621 11.4237 27.9872 8.74671 26.5364C6.06971 25.0857 3.98037 22.7494 2.83648 19.9276C1.69259 17.1059 1.56531 13.9742 2.47645 11.0689C3.38758 8.16362 5.28046 5.66547 7.83086 4.00228Z" fill="#319ACE"/>
<path fill-rule="evenodd" clip-rule="evenodd" d="M15.6259 19.375V21.25H14.375V19.375H15.6259Z" fill="#D64923"/>
<path fill-rule="evenodd" clip-rule="evenodd" d="M14.375 10.625V8.75H15.6259V10.625H14.375Z" fill="#D64923"/>
<path fill-rule="evenodd" clip-rule="evenodd" d="M11.3574 10.7323C11.8263 10.2634 12.4623 10 13.1255 10H16.8755C17.5387 10 18.1747 10.2634 18.6436 10.7323C19.1125 11.2012 19.3759 11.8373 19.3759 12.5005V13.1255H18.125V12.5005C18.125 12.1691 17.9934 11.8512 17.759 11.6169C17.5247 11.3825 17.2069 11.2509 16.8755 11.2509H13.1255C12.7941 11.2509 12.4763 11.3825 12.2419 11.6169C12.0076 11.8512 11.8759 12.1691 11.8759 12.5005V13.1255C11.8759 13.4569 12.0076 13.7746 12.2419 14.009C12.4763 14.2434 12.7941 14.375 13.1255 14.375H16.8755C17.5387 14.375 18.1747 14.6384 18.6436 15.1073C19.1125 15.5762 19.3759 16.2122 19.3759 16.8754V17.5004C19.3759 18.1636 19.1125 18.7996 18.6436 19.2685C18.1747 19.7374 17.5387 20.0009 16.8755 20.0009H13.1255C12.4623 20.0009 11.8263 19.7374 11.3574 19.2685C10.8885 18.7996 10.625 18.1636 10.625 17.5004V16.8754H11.8759V17.5004C11.8759 17.8318 12.0076 18.1496 12.2419 18.384C12.4763 18.6184 12.7941 18.75 13.1255 18.75H16.8755C17.2069 18.75 17.5247 18.6184 17.759 18.384C17.9934 18.1496 18.125 17.8318 18.125 17.5004V16.8754C18.125 16.544 17.9934 16.2262 17.759 15.9919C17.5247 15.7575 17.2069 15.6259 16.8755 15.6259H13.1255C12.4623 15.6259 11.8263 15.3625 11.3574 14.8935C10.8885 14.4246 10.625 13.7886 10.625 13.1255V12.5005C10.625 11.8373 10.8885 11.2012 11.3574 10.7323Z" fill="#D64923"/>
</svg>
