<svg width="30" height="30" viewBox="0 0 30 30" fill="none" xmlns="http://www.w3.org/2000/svg">
<path d="M13.125 4.0625V12.1875C13.1251 12.3085 13.1603 12.4269 13.2263 12.5282C13.2923 12.6296 13.3864 12.7097 13.497 12.7586C13.6076 12.8076 13.7301 12.8234 13.8496 12.8042C13.969 12.7849 14.0803 12.7314 14.1699 12.6501L16.5076 10.5249L18.9368 12.6575C19.0271 12.7368 19.1384 12.7884 19.2573 12.8061C19.3762 12.8238 19.4977 12.8069 19.6072 12.7573C19.7167 12.7077 19.8096 12.6275 19.8747 12.5265C19.9398 12.4254 19.9744 12.3077 19.9744 12.1875V4.0625H18.7244V10.8069L16.9116 9.21753C16.7962 9.11628 16.6475 9.06107 16.494 9.06242C16.3404 9.06377 16.1927 9.12159 16.0791 9.22485L14.375 10.7751V4.0625H13.125Z" fill="#319ACE" stroke="#F4F5F7" stroke-width="0.4"/>
<path d="M9.85596 3.125C8.21516 3.125 6.875 4.46516 6.875 6.10596V12.1875H3.75C3.40482 12.1875 3.125 12.4673 3.125 12.8125C3.125 13.1577 3.40482 13.4375 3.75 13.4375H7.5C8.0286 13.4375 8.125 13.1043 8.125 12.8125V6.10596C8.125 5.13604 8.88604 4.375 9.85596 4.375H23.269C24.239 4.375 25 5.13604 25 6.10596V14.375C25 14.7202 25.2798 15 25.625 15C25.9702 15 26.25 14.7202 26.25 14.375V6.10596C26.25 4.46516 24.9098 3.125 23.269 3.125H9.85596ZM1.875 14.6875C1.52982 14.6875 1.25 14.9673 1.25 15.3125C1.25 15.6577 1.52982 15.9375 1.875 15.9375H6.875V19.519C6.875 21.1598 8.21516 22.5 9.85596 22.5H15.625C15.9702 22.5 16.25 22.2202 16.25 21.875C16.25 21.5298 15.9702 21.25 15.625 21.25H9.85596C8.88604 21.25 8.125 20.489 8.125 19.519V15.3125C8.125 14.9673 7.84518 14.6875 7.5 14.6875C5.62765 14.6875 3.74942 14.6875 1.875 14.6875Z" fill="#319ACE" stroke="#F4F5F7" stroke-width="0.4"/>
<path d="M23.125 15.625C20.0258 15.625 17.5 18.1508 17.5 21.25C17.5 24.3492 20.0258 26.875 23.125 26.875C26.2242 26.875 28.75 24.3492 28.75 21.25C28.75 18.1508 26.2242 15.625 23.125 15.625ZM23.125 16.875C25.5486 16.875 27.5 18.8264 27.5 21.25C27.5 23.6736 25.5486 25.625 23.125 25.625C20.7014 25.625 18.75 23.6736 18.75 21.25C18.75 18.8264 20.7014 16.875 23.125 16.875Z" fill="#D64923" stroke="#F4F5F7" stroke-width="0.4"/>
<path d="M23.125 18.75C22.9592 18.75 22.8003 18.8158 22.6831 18.9331C22.5658 19.0503 22.5 19.2092 22.5 19.375V21.25C22.5 21.4158 22.5659 21.5747 22.6831 21.6919C22.8003 21.8091 22.9592 21.875 23.125 21.875H25C25.1658 21.875 25.3247 21.8092 25.4419 21.6919C25.5592 21.5747 25.625 21.4158 25.625 21.25C25.625 21.0842 25.5592 20.9253 25.4419 20.8081C25.3247 20.6908 25.1658 20.625 25 20.625H23.75V19.375C23.75 19.2092 23.6842 19.0503 23.5669 18.9331C23.4497 18.8158 23.2908 18.75 23.125 18.75Z" fill="#D64923" stroke="#F4F5F7" stroke-width="0.4"/>
<path d="M10 18.4375C9.83424 18.4375 9.67527 18.5033 9.55806 18.6206C9.44085 18.7378 9.375 18.8967 9.375 19.0625C9.375 19.2283 9.44085 19.3872 9.55806 19.5044C9.67527 19.6217 9.83424 19.6875 10 19.6875H12.5C12.6658 19.6875 12.8247 19.6217 12.9419 19.5044C13.0592 19.3872 13.125 19.2283 13.125 19.0625C13.125 18.8967 13.0592 18.7378 12.9419 18.6206C12.8247 18.5033 12.6658 18.4375 12.5 18.4375H10Z" fill="#D64923" stroke="#F4F5F7" stroke-width="0.4"/>
<path d="M15.625 19.0625C15.625 19.2283 15.5592 19.3872 15.4419 19.5044C15.3247 19.6217 15.1658 19.6875 15 19.6875C14.8342 19.6875 14.6753 19.6217 14.5581 19.5044C14.4408 19.3872 14.375 19.2283 14.375 19.0625C14.375 18.8967 14.4408 18.7378 14.5581 18.6206C14.6753 18.5033 14.8342 18.4375 15 18.4375C15.1658 18.4375 15.3247 18.5033 15.4419 18.6206C15.5592 18.7378 15.625 18.8967 15.625 19.0625Z" fill="#D64923" stroke="#F4F5F7" stroke-width="0.4"/>
<path d="M1.875 9.6875C1.70924 9.6875 1.55027 9.75335 1.43306 9.87056C1.31585 9.98777 1.25 10.1467 1.25 10.3125C1.25 10.4783 1.31585 10.6372 1.43306 10.7544C1.55027 10.8717 1.70924 10.9375 1.875 10.9375H4.375C4.54076 10.9375 4.69973 10.8717 4.81694 10.7544C4.93415 10.6372 5 10.4783 5 10.3125C5 10.1467 4.93415 9.98777 4.81694 9.87056C4.69973 9.75335 4.54076 9.6875 4.375 9.6875H1.875Z" fill="#D64923" stroke="#F4F5F7" stroke-width="0.4"/>
</svg>
