<svg width="860" height="578" viewBox="0 0 860 578" fill="none" xmlns="http://www.w3.org/2000/svg">
<g opacity="0.05">
<path fill-rule="evenodd" clip-rule="evenodd" d="M265.568 577.996C258.095 550.498 198.235 385.568 182.936 368.595C161.009 344.157 130.913 343.793 89.0862 343.672L0 577.996H265.568Z" fill="#319ACE"/>
<path fill-rule="evenodd" clip-rule="evenodd" d="M78.1094 234.039C161.54 233.916 246.754 241.89 274.099 181.371C313.909 93.3978 175.908 110.04 113.706 111.591L78.1094 234.039Z" fill="#319ACE"/>
<path fill-rule="evenodd" clip-rule="evenodd" d="M359.297 473.801L392.982 578C406.63 578 404.126 576.569 413.773 558.699C426.314 535.477 453.83 484.779 453.83 484.779H663.722L666.44 578H859.189L795.715 0L604.309 0.240538L359.297 473.801ZM533.692 358.636L652.253 155.072L660.359 358.691L533.692 358.636Z" fill="#319ACE"/>
<path fill-rule="evenodd" clip-rule="evenodd" d="M346.744 468.649L593.62 0.210854L400.765 0C420.671 14.1129 423.737 10.5521 440.039 29.5407C450.864 41.9707 459.446 58.1019 463.306 78.4108C470.76 118.558 458.457 159.788 442.4 191.563C429.842 216.423 418.267 234.226 398.366 250.477C369.883 273.648 343.884 303.882 281.188 314.521C290.396 335.068 305.193 347.374 315.141 373.061L346.744 468.649Z" fill="#319ACE"/>
</g>
</svg>
