<svg width="60" height="40" viewBox="0 0 60 40" fill="none" xmlns="http://www.w3.org/2000/svg">
<path fill-rule="evenodd" clip-rule="evenodd" d="M19 40C18.4654 38.1224 14.1827 26.8607 13.0882 25.7018C11.5194 24.0331 9.36615 24.0083 6.37366 24L0 40H19Z" fill="#319ACE"/>
<path fill-rule="evenodd" clip-rule="evenodd" d="M5 16.9795C10.7515 16.9706 16.626 17.5448 18.5111 13.1865C21.2555 6.85108 11.7421 8.04959 7.45394 8.16126L5 16.9795Z" fill="#319ACE"/>
<path fill-rule="evenodd" clip-rule="evenodd" d="M25 32.789L27.3585 40C28.314 40 28.1387 39.901 28.8141 38.6643C29.6922 37.0573 31.6188 33.5487 31.6188 33.5487H46.3143L46.5047 40H60L55.5559 0L42.1546 0.0166462L25 32.789ZM37.2103 24.8191L45.5113 10.7316L46.0789 24.8229L37.2103 24.8191Z" fill="#D64923"/>
<path fill-rule="evenodd" clip-rule="evenodd" d="M24.6162 32L42 0.0143974L28.4201 0C29.8218 0.963651 30.0377 0.720515 31.1856 2.01708C31.9478 2.86582 32.5521 3.96728 32.8239 5.354C33.3488 8.09531 32.4825 10.9105 31.3518 13.0802C30.4675 14.7777 29.6525 15.9933 28.2511 17.1029C26.2455 18.6851 24.4148 20.7495 20 21.4759C20.6485 22.8789 21.6904 23.7192 22.3908 25.4732L24.6162 32Z" fill="#319ACE"/>
</svg>
