<svg width="60" height="26" viewBox="0 0 60 26" fill="none" xmlns="http://www.w3.org/2000/svg">
<g clip-path="url(#clip0_8125_20151)">
<path d="M10 2C10.5535 2 11 1.55349 11 1C11 0.446512 10.5535 0 10 0C9.44651 0 9 0.446512 9 1C9 1.55349 9.44651 2 10 2Z" fill="white"/>
<path d="M26.8394 13.8722H25L27.4882 0L31.6053 10.0199L35.7637 0L38 13.8722H36.1606L34.9562 6.09987L31.5155 14L28.099 6.08483L26.8428 13.8722H26.8394Z" fill="white"/>
<path d="M39 0.123306H41.0133L44.2212 8.21924L47.5 0L50.6689 8.21924L53.9867 0.133875H56L50.559 13L47.3901 4.43198L44.1822 13L39 0.123306Z" fill="white"/>
<path d="M58 0H60V13H58V0Z" fill="white"/>
<path d="M17.3023 13.6587H20.3121L21 12.5089H16.5033L14.5362 17.9615L13.2857 15.7155L11.1537 19.5933V3H10V22H11.1537L13.2857 17.9436L14.6042 20.6967L14.9195 19.8611L15.1954 19.1505" fill="white"/>
<path d="M3.69772 11.3429H0.673616L0 12.4929H4.49674L6.46384 7.025L7.7 9.28571L9.83192 5.40714V22H11V3H9.83192L7.71433 7.05714L6.39577 4.30357L6.08046 5.13929H6.06612L5.80456 5.83929V5.85357" fill="white"/>
<path d="M26.5259 20.0617C26.1594 20.0617 25.8597 19.9349 25.6268 19.6815C25.3939 19.428 25.2774 19.1266 25.2774 18.7772C25.2774 18.4245 25.3939 18.1213 25.6268 17.8679C25.8597 17.611 26.1594 17.4826 26.5259 17.4826C26.9609 17.4826 27.2965 17.647 27.5328 17.9758V16.4037H27.7846V20H27.5328V19.5736C27.2999 19.899 26.9643 20.0617 26.5259 20.0617ZM26.5772 19.8305C26.7793 19.8305 26.9694 19.7739 27.1475 19.6609C27.3256 19.5479 27.4541 19.404 27.5328 19.2294V18.32C27.4472 18.1419 27.3188 17.9963 27.1475 17.8833C26.9763 17.7703 26.7862 17.7138 26.5772 17.7138C26.2793 17.7138 26.0309 17.8165 25.8323 18.022C25.6336 18.2241 25.5343 18.4758 25.5343 18.7772C25.5343 19.0752 25.6336 19.3253 25.8323 19.5273C26.0309 19.7294 26.2793 19.8305 26.5772 19.8305ZM28.7753 20V17.5442H29.027V20H28.7753ZM28.7496 16.8301C28.7119 16.789 28.6931 16.7393 28.6931 16.6811C28.6931 16.6229 28.7119 16.5749 28.7496 16.5372C28.7907 16.4961 28.8404 16.4756 28.8986 16.4756C28.9568 16.4756 29.0048 16.4961 29.0425 16.5372C29.0836 16.5749 29.1041 16.6229 29.1041 16.6811C29.1041 16.7393 29.0836 16.789 29.0425 16.8301C29.0048 16.8678 28.9568 16.8866 28.8986 16.8866C28.8404 16.8866 28.7907 16.8678 28.7496 16.8301ZM32.0885 17.5442H32.3402V19.887C32.3402 20.2603 32.2169 20.5463 31.9703 20.745C31.7271 20.947 31.4154 21.0481 31.0353 21.0481C30.6859 21.0481 30.3708 20.971 30.0899 20.8169V20.5651C30.3674 20.733 30.6773 20.8169 31.0198 20.8169C31.3384 20.8169 31.5953 20.7398 31.7905 20.5857C31.9891 20.4316 32.0885 20.1987 32.0885 19.887V19.5582C31.8624 19.8767 31.5285 20.036 31.0866 20.036C30.7201 20.036 30.4187 19.9109 30.1824 19.6609C29.9495 19.4109 29.8331 19.1095 29.8331 18.7567C29.8331 18.4073 29.9495 18.1076 30.1824 17.8576C30.4187 17.6076 30.7201 17.4826 31.0866 17.4826C31.525 17.4826 31.859 17.6435 32.0885 17.9655V17.5442ZM32.0885 19.2139V18.3097C32.0028 18.1316 31.8744 17.9878 31.7031 17.8782C31.5353 17.7686 31.3469 17.7138 31.138 17.7138C30.8366 17.7138 30.5866 17.8148 30.3879 18.0169C30.1893 18.2155 30.0899 18.4621 30.0899 18.7567C30.0899 19.0581 30.1893 19.3081 30.3879 19.5068C30.5866 19.7054 30.8366 19.8048 31.138 19.8048C31.3469 19.8048 31.537 19.7517 31.7083 19.6455C31.8795 19.5359 32.0063 19.392 32.0885 19.2139ZM33.3259 20V17.5442H33.5776V20H33.3259ZM33.3002 16.8301C33.2625 16.789 33.2437 16.7393 33.2437 16.6811C33.2437 16.6229 33.2625 16.5749 33.3002 16.5372C33.3413 16.4961 33.391 16.4756 33.4492 16.4756C33.5074 16.4756 33.5554 16.4961 33.5931 16.5372C33.6342 16.5749 33.6547 16.6229 33.6547 16.6811C33.6547 16.7393 33.6342 16.789 33.5931 16.8301C33.5554 16.8678 33.5074 16.8866 33.4492 16.8866C33.391 16.8866 33.3413 16.8678 33.3002 16.8301ZM35.5139 20.0617C35.0858 20.0617 34.8717 19.8236 34.8717 19.3475V17.7703H34.2501V17.5442H34.8717V16.7582H35.1235V17.5442H36.0277V17.7703H35.1235V19.2807C35.1235 19.4794 35.1577 19.6198 35.2262 19.702C35.2981 19.7808 35.4163 19.8202 35.5807 19.8202C35.7211 19.8202 35.8581 19.7825 35.9917 19.7072V19.9486C35.8855 20.024 35.7263 20.0617 35.5139 20.0617ZM37.5425 19.8305C37.7412 19.8305 37.9244 19.7842 38.0922 19.6917C38.2601 19.5958 38.3937 19.4828 38.493 19.3527V18.9519C38.2293 18.767 37.9347 18.6745 37.6093 18.6745C37.3524 18.6745 37.1504 18.7276 37.0031 18.8338C36.8592 18.9365 36.7873 19.0752 36.7873 19.2499C36.7873 19.4417 36.8592 19.5873 37.0031 19.6866C37.1504 19.7825 37.3302 19.8305 37.5425 19.8305ZM37.4706 20.0617C37.2137 20.0617 36.9911 19.9914 36.8027 19.851C36.6178 19.7072 36.5253 19.5085 36.5253 19.255C36.5253 19.0153 36.6229 18.8218 36.8181 18.6745C37.0134 18.5272 37.2548 18.4536 37.5425 18.4536C37.8816 18.4536 38.1984 18.5409 38.493 18.7156V18.4022C38.493 17.9432 38.2053 17.7138 37.6299 17.7138C37.3285 17.7138 37.0527 17.8011 36.8027 17.9758V17.724C37.0493 17.5631 37.3404 17.4826 37.6761 17.4826C37.9946 17.4826 38.2515 17.5579 38.4467 17.7086C38.6454 17.8559 38.7447 18.0802 38.7447 18.3817V19.4606C38.7447 19.5702 38.767 19.6558 38.8115 19.7174C38.8595 19.7757 38.9245 19.8048 39.0067 19.8048C39.0615 19.8048 39.1095 19.7945 39.1506 19.7739V19.9794C39.1061 20.0069 39.0376 20.0206 38.9451 20.0206C38.8355 20.0206 38.7379 19.9863 38.6522 19.9178C38.57 19.8459 38.5255 19.7397 38.5187 19.5993C38.2412 19.9075 37.8919 20.0617 37.4706 20.0617ZM40.3006 20.0617C40.1533 20.0617 40.0266 20.0188 39.9204 19.9332C39.8177 19.8442 39.7663 19.6952 39.7663 19.4862V16.4037H40.0181V19.4297C40.0181 19.69 40.1379 19.8202 40.3777 19.8202C40.4702 19.8202 40.5558 19.7962 40.6346 19.7483V19.9897C40.5489 20.0377 40.4376 20.0617 40.3006 20.0617ZM43.3876 19.8305C43.5862 19.8305 43.7695 19.7842 43.9373 19.6917C44.1051 19.5958 44.2387 19.4828 44.338 19.3527V18.9519C44.0743 18.767 43.7797 18.6745 43.4544 18.6745C43.1975 18.6745 42.9954 18.7276 42.8481 18.8338C42.7043 18.9365 42.6323 19.0752 42.6323 19.2499C42.6323 19.4417 42.7043 19.5873 42.8481 19.6866C42.9954 19.7825 43.1752 19.8305 43.3876 19.8305ZM43.3156 20.0617C43.0588 20.0617 42.8361 19.9914 42.6477 19.851C42.4628 19.7072 42.3703 19.5085 42.3703 19.255C42.3703 19.0153 42.4679 18.8218 42.6632 18.6745C42.8584 18.5272 43.0999 18.4536 43.3876 18.4536C43.7266 18.4536 44.0435 18.5409 44.338 18.7156V18.4022C44.338 17.9432 44.0503 17.7138 43.4749 17.7138C43.1735 17.7138 42.8978 17.8011 42.6477 17.9758V17.724C42.8944 17.5631 43.1855 17.4826 43.5211 17.4826C43.8397 17.4826 44.0966 17.5579 44.2918 17.7086C44.4904 17.8559 44.5898 18.0802 44.5898 18.3817V19.4606C44.5898 19.5702 44.612 19.6558 44.6566 19.7174C44.7045 19.7757 44.7696 19.8048 44.8518 19.8048C44.9066 19.8048 44.9545 19.7945 44.9956 19.7739V19.9794C44.9511 20.0069 44.8826 20.0206 44.7901 20.0206C44.6805 20.0206 44.5829 19.9863 44.4973 19.9178C44.4151 19.8459 44.3706 19.7397 44.3637 19.5993C44.0863 19.9075 43.7369 20.0617 43.3156 20.0617ZM47.6869 17.5442H47.9387V19.887C47.9387 20.2603 47.8154 20.5463 47.5688 20.745C47.3256 20.947 47.0139 21.0481 46.6337 21.0481C46.2844 21.0481 45.9693 20.971 45.6884 20.8169V20.5651C45.9658 20.733 46.2758 20.8169 46.6183 20.8169C46.9369 20.8169 47.1937 20.7398 47.389 20.5857C47.5876 20.4316 47.6869 20.1987 47.6869 19.887V19.5582C47.4609 19.8767 47.1269 20.036 46.6851 20.036C46.3186 20.036 46.0172 19.9109 45.7809 19.6609C45.548 19.4109 45.4315 19.1095 45.4315 18.7567C45.4315 18.4073 45.548 18.1076 45.7809 17.8576C46.0172 17.6076 46.3186 17.4826 46.6851 17.4826C47.1235 17.4826 47.4575 17.6435 47.6869 17.9655V17.5442ZM47.6869 19.2139V18.3097C47.6013 18.1316 47.4729 17.9878 47.3016 17.8782C47.1338 17.7686 46.9454 17.7138 46.7365 17.7138C46.4351 17.7138 46.1851 17.8148 45.9864 18.0169C45.7877 18.2155 45.6884 18.4621 45.6884 18.7567C45.6884 19.0581 45.7877 19.3081 45.9864 19.5068C46.1851 19.7054 46.4351 19.8048 46.7365 19.8048C46.9454 19.8048 47.1355 19.7517 47.3068 19.6455C47.478 19.5359 47.6047 19.392 47.6869 19.2139ZM50.0136 20.0617C49.63 20.0617 49.3097 19.9418 49.0528 19.702C48.7994 19.4588 48.6726 19.1506 48.6726 18.7772C48.6726 18.4073 48.7874 18.0991 49.0169 17.8525C49.2463 17.6059 49.5392 17.4826 49.8954 17.4826C50.0598 17.4826 50.2088 17.51 50.3424 17.5648C50.4759 17.6196 50.5838 17.6915 50.666 17.7806C50.7517 17.8662 50.8219 17.9655 50.8767 18.0785C50.9349 18.1916 50.9743 18.3029 50.9948 18.4125C51.0188 18.5187 51.0308 18.6248 51.0308 18.731V18.8132H48.9244C48.9312 19.1112 49.0408 19.3561 49.2532 19.5479C49.4656 19.7363 49.731 19.8305 50.0495 19.8305C50.3544 19.8305 50.6181 19.7534 50.8407 19.5993V19.8407C50.6455 19.988 50.3698 20.0617 50.0136 20.0617ZM48.9295 18.5974H50.7791C50.7791 18.4673 50.7517 18.3388 50.6969 18.2121C50.6455 18.0854 50.5496 17.9706 50.4092 17.8679C50.2687 17.7651 50.0958 17.7138 49.8903 17.7138C49.6094 17.7138 49.3816 17.8045 49.207 17.9861C49.0357 18.1642 48.9432 18.368 48.9295 18.5974ZM52.0242 20H51.7725V17.5442H52.0242V17.9655C52.2914 17.6435 52.6373 17.4826 53.062 17.4826C53.3771 17.4826 53.6135 17.5716 53.771 17.7497C53.932 17.9244 54.0125 18.1761 54.0125 18.505V20H53.7607V18.5563C53.7607 18.3851 53.735 18.2412 53.6837 18.1248C53.6357 18.0083 53.5689 17.9227 53.4833 17.8679C53.4011 17.8131 53.3206 17.7754 53.2418 17.7549C53.1631 17.7309 53.0774 17.7189 52.985 17.7189C52.7966 17.7189 52.6116 17.7754 52.4301 17.8884C52.2486 18.0015 52.1133 18.1316 52.0242 18.2789V20ZM55.998 20.0617C55.6247 20.0617 55.3147 19.9366 55.0681 19.6866C54.8249 19.4366 54.7033 19.1317 54.7033 18.7721C54.7033 18.4125 54.8249 18.1076 55.0681 17.8576C55.3147 17.6076 55.6264 17.4826 56.0031 17.4826C56.2806 17.4826 56.5272 17.5459 56.743 17.6727V17.9141C56.5135 17.7806 56.2771 17.7138 56.034 17.7138C55.7291 17.7138 55.474 17.8165 55.2685 18.022C55.063 18.2241 54.9602 18.4758 54.9602 18.7772C54.9602 19.0787 55.063 19.3304 55.2685 19.5325C55.474 19.7311 55.7291 19.8305 56.034 19.8305C56.3182 19.8305 56.57 19.7534 56.7892 19.5993V19.8459C56.57 19.9897 56.3063 20.0617 55.998 20.0617ZM57.6493 21.0481C57.4849 21.0481 57.365 21.0224 57.2897 20.971V20.7347C57.3856 20.7895 57.4952 20.8169 57.6185 20.8169C57.7795 20.8169 57.913 20.7501 58.0192 20.6165C58.1288 20.4829 58.2521 20.262 58.3891 19.9538L57.2537 17.5442H57.5363L58.5124 19.6506L59.4577 17.5442H59.7352L58.497 20.2774C58.3771 20.5343 58.2521 20.7261 58.122 20.8528C57.9918 20.983 57.8343 21.0481 57.6493 21.0481Z" fill="white"/>
</g>
<defs>
<clipPath id="clip0_8125_20151">
<rect width="60" height="26" fill="white"/>
</clipPath>
</defs>
</svg>
