<svg width="320" height="70" viewBox="0 0 320 70" fill="none" xmlns="http://www.w3.org/2000/svg">
<path fill-rule="evenodd" clip-rule="evenodd" d="M87.0733 28.4143L87.7321 22.8948H88.9024C89.9267 22.8948 90.6829 23.0666 91.1464 23.4097C91.6098 23.7779 91.8291 24.3174 91.8291 25.0533C91.8291 26.1082 91.5365 26.9179 90.9511 27.5066C90.3662 28.1199 89.5851 28.4143 88.6097 28.4143H87.0733ZM94.3173 21.3251C93.1951 20.442 91.488 20.0004 89.2195 20.0004L84.0487 20L82 37H86.049L86.7077 31.358H88.732C89.8293 31.358 90.8292 31.2108 91.7317 30.8918C92.6342 30.5974 93.3904 30.1559 94.0242 29.5918C94.6585 29.0276 95.1464 28.3651 95.488 27.5554C95.8292 26.7707 96 25.8876 96 24.9312C96.0004 23.4097 95.4391 22.2081 94.3169 21.3251H94.3173Z" fill="white"/>
<path fill-rule="evenodd" clip-rule="evenodd" d="M98.5121 36.6933H99.7896C99.5933 37.0756 99.3721 37.4104 99.1016 37.6973C98.8315 38.0081 98.5121 38.247 98.1439 38.4623C97.7757 38.6773 97.3332 38.8447 96.8176 38.9641C96.3016 39.1076 95.7122 39.203 95 39.2749L95.1474 42C97.3824 41.9045 99.1508 41.4023 100.477 40.4703C101.803 39.5618 102.835 38.247 103.572 36.5499L109 24H104.874L101.312 34.0637H101.214L100.232 24H96.1789L98.5121 36.6933Z" fill="white"/>
<path fill-rule="evenodd" clip-rule="evenodd" d="M112.461 34.265C112.084 33.8446 111.895 33.1765 111.895 32.2121C111.895 30.5548 112.201 29.2683 112.815 28.3783C113.429 27.4874 114.184 27.0422 115.105 27.0422C115.554 27.0422 115.931 27.1166 116.285 27.2402C116.639 27.3638 116.994 27.6114 117.371 27.933L119 25.5585C118.386 25.0388 117.749 24.6432 117.088 24.3708C116.403 24.1236 115.624 24 114.728 24C113.807 24 112.957 24.198 112.154 24.5688C111.328 24.9644 110.62 25.5089 110.006 26.2261C109.393 26.9434 108.897 27.7846 108.543 28.7987C108.189 29.8127 108 30.9256 108 32.1873C108 33.1273 108.142 33.9682 108.401 34.6854C108.661 35.4026 109.015 36.0211 109.487 36.5159C109.959 37.0107 110.526 37.3816 111.186 37.6288C111.824 37.8764 112.556 38 113.335 38C114.916 38 116.38 37.53 117.725 36.5651L116.474 33.993C115.978 34.3146 115.53 34.5618 115.152 34.6854C114.751 34.8338 114.373 34.9082 113.996 34.9082C113.335 34.9082 112.815 34.6854 112.461 34.265Z" fill="white"/>
<path fill-rule="evenodd" clip-rule="evenodd" d="M128.831 37H133L129.957 20H125.14L118 37H122.289L123.583 33.3447H128.399L128.831 37ZM127.153 23.2138H127.249L128.111 30.401H124.565L127.153 23.2138Z" fill="white"/>
<path fill-rule="evenodd" clip-rule="evenodd" d="M143.248 30.3568C144.165 30.1344 144.865 29.7388 145.324 29.1695C145.783 28.6007 146 27.933 146 27.1414C146 26.2509 145.638 25.5089 144.889 24.8904C144.141 24.2968 143.054 24 141.63 24C140.592 24 139.602 24.198 138.684 24.5936C137.743 24.9892 136.946 25.5585 136.245 26.2757C135.546 26.993 135.014 27.8834 134.604 28.8975C134.193 29.9115 134 31.074 134 32.3357C134 33.1765 134.145 33.9433 134.41 34.6362C134.676 35.3534 135.087 35.9471 135.594 36.4419C136.101 36.9363 136.728 37.3076 137.453 37.5796C138.177 37.8516 138.998 38 139.891 38C140.881 38 141.775 37.8764 142.523 37.6288C143.271 37.4064 143.923 37.0847 144.431 36.6643C144.937 36.2439 145.299 35.7739 145.565 35.2046C145.807 34.6606 145.927 34.0918 145.927 33.4733C145.928 32.7313 145.686 32.088 145.227 31.544C144.768 31.0248 144.093 30.6536 143.223 30.456L143.248 30.3568ZM141.557 34.6606C141.195 35.0318 140.712 35.2046 140.109 35.2046C139.433 35.2046 138.877 34.9574 138.467 34.463C138.032 33.9682 137.815 33.2261 137.815 32.2617V32.0637C137.815 31.9893 137.815 31.9396 137.839 31.8657C138.37 31.816 138.877 31.7668 139.36 31.6924C139.819 31.6184 140.302 31.544 140.785 31.4452C141.63 31.8905 142.064 32.5089 142.064 33.2757C142.064 33.8446 141.895 34.3146 141.557 34.6606ZM142.427 27.6606C142.427 27.933 142.378 28.2046 142.257 28.4274C142.137 28.6751 141.92 28.8975 141.606 29.0707C141.292 29.2683 140.833 29.4419 140.278 29.5903C139.722 29.7387 138.998 29.8375 138.129 29.9115C138.394 28.8479 138.805 28.0318 139.384 27.463C139.94 26.8937 140.592 26.5969 141.292 26.5969C142.04 26.5969 142.426 26.9434 142.426 27.6606H142.427Z" fill="white"/>
<path fill-rule="evenodd" clip-rule="evenodd" d="M156.763 37L157.76 30.0854C158.319 29.0201 158.829 28.2622 159.29 27.7885C159.752 27.3385 160.141 27.1019 160.456 27.1019C160.627 27.1019 160.773 27.1494 160.894 27.2439C160.991 27.3623 161.04 27.5994 161.04 27.9543C161.04 28.1914 161.015 28.4755 160.967 28.8305L159.776 37H163.664L164.927 28.2385C164.976 27.8597 165 27.5043 165 27.1964C165 26.0836 164.733 25.2549 164.198 24.7575C163.639 24.2604 162.959 24 162.133 24C161.404 24 160.699 24.1896 160.019 24.5683C159.339 24.9708 158.683 25.5865 158.027 26.439C157.905 25.5865 157.589 24.9708 157.079 24.5683C156.569 24.1896 155.961 24 155.257 24C154.479 24 153.751 24.2129 153.07 24.6629C152.39 25.1128 151.71 25.7995 151.029 26.7703L151.175 24.4262H147.798L146 37H149.864L150.859 30.1329C151.418 29.0434 151.953 28.2622 152.415 27.7885C152.876 27.3385 153.265 27.1019 153.58 27.1019C153.751 27.1019 153.897 27.1494 153.994 27.2677C154.091 27.386 154.14 27.5994 154.14 27.9306C154.14 28.1439 154.115 28.4518 154.066 28.8305L152.9 37H156.763Z" fill="white"/>
<path fill-rule="evenodd" clip-rule="evenodd" d="M169.772 24.6924C168.926 25.1624 168.24 25.7809 167.692 26.5477C167.12 27.3146 166.709 28.2046 166.435 29.1943C166.138 30.2084 166 31.2472 166 32.3357C166 34.1414 166.48 35.5267 167.44 36.5159C168.4 37.5052 169.703 38 171.349 38C172.423 38 173.383 37.7772 174.229 37.3319C175.051 36.9115 175.737 36.3179 176.309 35.5511C176.857 34.7846 177.268 33.9186 177.566 32.9045C177.863 31.9153 178 30.8516 178 29.7387C178 28.8727 177.885 28.0814 177.657 27.3638C177.406 26.6465 177.063 26.0529 176.606 25.5585C176.148 25.0636 175.6 24.6676 174.937 24.3956C174.274 24.1236 173.543 24 172.697 24C171.578 24 170.617 24.2224 169.771 24.6924H169.772ZM174.274 29.4911C174.274 30.0351 174.229 30.6287 174.137 31.2968C174.046 31.9648 173.886 32.5585 173.68 33.1273C173.452 33.6962 173.154 34.1662 172.788 34.537C172.423 34.9082 171.966 35.1058 171.44 35.1058C170.869 35.1058 170.434 34.9082 170.16 34.4878C169.863 34.0918 169.726 33.4485 169.726 32.5585C169.726 31.8904 169.794 31.2224 169.909 30.5548C170.023 29.8867 170.183 29.2935 170.412 28.7491C170.64 28.2046 170.937 27.7598 171.303 27.4134C171.646 27.0918 172.08 26.9186 172.56 26.9186C173.703 26.9186 174.274 27.7846 174.274 29.4911Z" fill="white"/>
<path fill-rule="evenodd" clip-rule="evenodd" d="M190.554 37H194.292L195 24H190.285L187.379 32.2258H187.281L186.499 24H181.907L179 37H182.762L183.543 32.8625C183.666 32.1035 183.788 31.2467 183.91 30.2917C184.032 29.3372 184.105 28.4799 184.179 27.7209H184.276L185.229 35.678H188.478L191.556 27.7209H191.654C191.482 28.5536 191.311 29.4349 191.189 30.3899C191.043 31.3445 190.92 32.2995 190.847 33.2786L190.554 37Z" fill="white"/>
<path fill-rule="evenodd" clip-rule="evenodd" d="M208 25.4593C207.202 24.9893 206.403 24.6432 205.582 24.3708C204.738 24.1236 203.871 24 202.935 24C201.954 24 201.042 24.198 200.198 24.6184C199.354 25.0389 198.624 25.6077 198.007 26.3497C197.392 27.1166 196.89 28.0318 196.548 29.0955C196.183 30.1587 196 31.3464 196 32.6573C196 33.5726 196.091 34.3886 196.297 35.0562C196.479 35.7243 196.753 36.2935 197.095 36.7139C197.437 37.1591 197.848 37.4803 198.327 37.6784C198.806 37.9012 199.331 38 199.901 38C200.586 38 201.247 37.8024 201.886 37.4312C202.502 37.0599 203.072 36.4911 203.551 35.7739C203.871 37.0848 204.829 37.8024 206.426 37.9504L207.452 35.3535C207.247 35.2542 207.088 35.1306 206.996 34.9822C206.905 34.8338 206.859 34.6114 206.859 34.3394C206.859 34.265 206.859 34.1662 206.882 34.0422C206.882 33.9434 206.882 33.8198 206.905 33.6962L208 25.4593ZM200.129 34.5618C199.833 34.1906 199.696 33.5477 199.696 32.5829C199.696 31.6184 199.787 30.7772 199.969 30.0599C200.129 29.3427 200.38 28.7491 200.677 28.279C200.973 27.809 201.293 27.463 201.681 27.2402C202.068 27.0178 202.456 26.8938 202.844 26.8938C203.095 26.8938 203.323 26.9185 203.528 26.9433C203.711 26.9929 203.916 27.0669 204.144 27.1906L203.323 33.0281C203.027 33.6465 202.662 34.1662 202.274 34.537C201.886 34.9082 201.498 35.1058 201.156 35.1058C200.768 35.1058 200.426 34.933 200.129 34.5618Z" fill="white"/>
<path fill-rule="evenodd" clip-rule="evenodd" d="M220.763 37L221.76 30.0854C222.319 29.0201 222.829 28.2622 223.29 27.7885C223.752 27.3385 224.141 27.1019 224.456 27.1019C224.627 27.1019 224.772 27.1494 224.894 27.2439C224.991 27.3623 225.04 27.5994 225.04 27.9543C225.04 28.1914 225.015 28.4755 224.967 28.8305L223.776 37H227.664L228.927 28.2385C228.976 27.8597 229 27.5043 229 27.1964C229 26.0836 228.733 25.2549 228.198 24.7575C227.64 24.2604 226.959 24 226.133 24C225.404 24 224.699 24.1896 224.019 24.5683C223.339 24.9708 222.683 25.5865 222.027 26.439C221.906 25.5865 221.59 24.9708 221.079 24.5683C220.569 24.1896 219.962 24 219.257 24C218.48 24 217.751 24.2129 217.07 24.6629C216.39 25.1128 215.71 25.7995 215.029 26.7703L215.175 24.4262H211.798L210 37H213.863L214.859 30.1329C215.418 29.0434 215.953 28.2622 216.414 27.7885C216.876 27.3385 217.265 27.1019 217.58 27.1019C217.751 27.1019 217.896 27.1494 217.993 27.2677C218.091 27.386 218.139 27.5994 218.139 27.9306C218.139 28.1439 218.115 28.4518 218.066 28.8305L216.9 37H220.763Z" fill="white"/>
<path fill-rule="evenodd" clip-rule="evenodd" d="M231.257 24L230.095 32.2792C230.071 32.4925 230.047 32.7062 230.023 32.9195C230 33.1332 230 33.3465 230 33.5364C230 34.7226 230.285 35.6004 230.83 36.146C231.375 36.7153 232.111 37 233.059 37C233.794 37 234.482 36.8105 235.146 36.4307C235.81 36.0746 236.427 35.5057 236.972 34.7464L236.925 36.5968H240.222L242 24H238.206L237.068 31.8994C236.664 32.6114 236.237 33.1332 235.834 33.4416C235.407 33.7739 235.028 33.9396 234.696 33.9396C234.435 33.9396 234.221 33.8686 234.079 33.7263C233.913 33.6077 233.842 33.3465 233.842 32.967V32.6586C233.842 32.5401 233.866 32.4215 233.889 32.303L235.051 24H231.257Z" fill="white"/>
<path fill-rule="evenodd" clip-rule="evenodd" d="M245.277 32.088H247.032C247.711 32.088 248.179 32.2121 248.483 32.4345C248.787 32.6817 248.928 33.0281 248.928 33.4485C248.928 33.9682 248.764 34.3886 248.436 34.7102C248.085 35.0318 247.617 35.1803 247.032 35.1803C245.909 35.1803 244.879 34.7598 243.942 33.9186L242 35.9223C242.656 36.5651 243.428 37.0599 244.34 37.4312C245.253 37.8024 246.213 38 247.219 38C248.132 38 248.928 37.8764 249.63 37.654C250.309 37.4312 250.894 37.1343 251.362 36.7387C251.83 36.3675 252.181 35.8975 252.438 35.3783C252.673 34.8586 252.789 34.3146 252.789 33.721C252.789 32.9541 252.555 32.3109 252.064 31.7668C251.573 31.2224 250.917 30.8516 250.075 30.6784L250.098 30.5796C251.011 30.3816 251.713 29.986 252.228 29.3923C252.743 28.7987 253 28.0814 253 27.265C253 26.3249 252.602 25.5332 251.83 24.9152C251.034 24.2968 249.934 24 248.53 24C246.634 24 244.925 24.5688 243.357 25.6816L244.762 27.809C245.277 27.4382 245.791 27.1414 246.306 26.9681C246.798 26.7949 247.29 26.721 247.757 26.721C248.202 26.721 248.553 26.8197 248.787 27.0178C249.022 27.2402 249.139 27.5122 249.139 27.8834C249.139 28.4026 248.974 28.7987 248.647 29.0955C248.319 29.4167 247.781 29.5651 247.032 29.5651H245.838L245.277 32.088Z" fill="white"/>
<path fill-rule="evenodd" clip-rule="evenodd" d="M267 25.4593C266.201 24.9893 265.403 24.6432 264.582 24.3708C263.737 24.1236 262.871 24 261.935 24C260.954 24 260.042 24.198 259.197 24.6184C258.353 25.0389 257.624 25.6077 257.007 26.3497C256.392 27.1166 255.89 28.0318 255.547 29.0955C255.182 30.1587 255 31.3464 255 32.6573C255 33.5726 255.091 34.3886 255.296 35.0562C255.479 35.7243 255.753 36.2935 256.095 36.7139C256.437 37.1591 256.848 37.4803 257.327 37.6784C257.806 37.9012 258.33 38 258.901 38C259.586 38 260.247 37.8024 260.886 37.4312C261.502 37.0599 262.072 36.4911 262.551 35.7739C262.871 37.0848 263.828 37.8024 265.426 37.9504L266.452 35.3535C266.247 35.2542 266.087 35.1306 265.996 34.9822C265.905 34.8338 265.859 34.6114 265.859 34.3394C265.859 34.265 265.859 34.1662 265.882 34.0422C265.882 33.9434 265.882 33.8198 265.905 33.6962L267 25.4593ZM259.129 34.5618C258.833 34.1906 258.696 33.5477 258.696 32.5829C258.696 31.6184 258.787 30.7772 258.969 30.0599C259.129 29.3427 259.38 28.7491 259.676 28.279C259.973 27.809 260.293 27.463 260.681 27.2402C261.068 27.0178 261.456 26.8938 261.844 26.8938C262.095 26.8938 262.323 26.9185 262.528 26.9433C262.711 26.9929 262.916 27.0669 263.144 27.1906L262.323 33.0281C262.027 33.6465 261.661 34.1662 261.274 34.537C260.886 34.9082 260.498 35.1058 260.156 35.1058C259.768 35.1058 259.426 34.933 259.129 34.5618H259.129Z" fill="white"/>
<path fill-rule="evenodd" clip-rule="evenodd" d="M280.859 24H277.11L275.985 31.7552C275.586 32.4543 275.164 32.9665 274.766 33.2693C274.344 33.5955 273.968 33.7582 273.641 33.7582C273.382 33.7582 273.172 33.6885 273.031 33.5488C272.867 33.4324 272.796 33.1759 272.796 32.8034L272.797 32.5006C272.797 32.3842 272.82 32.2678 272.843 32.1514L273.992 24H270.242L269.094 32.1281C269.07 32.3375 269.047 32.5472 269.023 32.7567C269 32.9665 269 33.1759 269 33.3623C269 34.5269 269.281 35.3887 269.82 35.9243C270.359 36.4832 271.086 36.7627 272.023 36.7627C272.797 36.7627 273.547 36.5529 274.25 36.1337C274.93 35.7149 275.562 35.0625 276.125 34.2007L276.195 34.2241C276.195 34.2942 276.195 34.3405 276.195 34.4105C276.172 34.4802 276.172 34.5269 276.172 34.5966C276.172 35.0859 276.289 35.5051 276.523 35.8079C276.734 36.1337 277.156 36.3668 277.742 36.4832L277.649 40H280.086L281 33.7582H280.531C280.203 33.7352 279.969 33.6418 279.828 33.5254C279.688 33.4091 279.617 33.1992 279.617 32.8964C279.617 32.7337 279.64 32.5005 279.687 32.2444L280.859 24Z" fill="white"/>
<path fill-rule="evenodd" clip-rule="evenodd" d="M284.257 24L283.095 32.2792C283.071 32.4925 283.048 32.7062 283.024 32.9195C283 33.1332 283 33.3465 283 33.5364C283 34.7226 283.285 35.6004 283.83 36.146C284.376 36.7153 285.111 37 286.059 37C286.795 37 287.482 36.8105 288.146 36.4307C288.811 36.0746 289.427 35.5057 289.972 34.7464L289.925 36.5968H293.222L295 24H291.206L290.068 31.8994C289.664 32.6114 289.237 33.1332 288.834 33.4416C288.407 33.7739 288.028 33.9396 287.696 33.9396C287.435 33.9396 287.221 33.8686 287.079 33.7263C286.913 33.6077 286.842 33.3465 286.842 32.967V32.6586C286.842 32.5401 286.865 32.4215 286.89 32.303L288.052 24H284.257Z" fill="white"/>
<path fill-rule="evenodd" clip-rule="evenodd" d="M296.476 30.2988C296.751 30.8433 297.141 31.2933 297.669 31.6483L294 37H297.967L300.902 32.477H302.346L301.727 37H305.326L307 24.7104C306.633 24.592 306.243 24.4971 305.808 24.4025C305.372 24.3316 304.96 24.2604 304.524 24.1896C304.089 24.1183 303.652 24.0708 303.24 24.0475C302.827 24.0233 302.437 24 302.07 24C300.03 24 298.54 24.4024 297.554 25.2311C296.568 26.0598 296.063 27.1731 296.063 28.5939C296.063 29.2093 296.201 29.7775 296.476 30.2988ZM303.125 26.6048L302.644 30.2513H301.635C300.42 30.2513 299.801 29.683 299.801 28.5464C299.801 27.8831 299.984 27.3623 300.351 27.0073C300.718 26.6519 301.245 26.4627 301.933 26.4627C302.323 26.4627 302.736 26.5098 303.125 26.6048Z" fill="white"/>
<path fill-rule="evenodd" clip-rule="evenodd" d="M19 44C18.4654 41.8877 14.1827 29.2183 13.0882 27.9145C11.5194 26.0373 9.36615 26.0093 6.37366 26L0 44H19Z" fill="white"/>
<path fill-rule="evenodd" clip-rule="evenodd" d="M6 17.9772C12.1624 17.9673 18.4565 18.6054 20.4762 13.7628C23.4167 6.72342 13.2236 8.0551 8.62922 8.17918L6 17.9772Z" fill="white"/>
<path fill-rule="evenodd" clip-rule="evenodd" d="M26 36.0679L28.4932 44C29.5034 44 29.318 43.8911 30.0321 42.5308C30.9604 40.763 32.997 36.9036 32.997 36.9036H48.5323L48.7335 44H63L58.3019 0L44.1348 0.0183108L26 36.0679ZM38.9081 27.301L47.6834 11.8048L48.2834 27.3052L38.9081 27.301Z" fill="white"/>
<path fill-rule="evenodd" clip-rule="evenodd" d="M26.826 36L45 0.0161971L30.8028 0C32.2682 1.08411 32.4939 0.81058 33.694 2.26922C34.4909 3.22405 35.1226 4.46319 35.4068 6.02325C35.9555 9.10722 35.0499 12.2744 33.8678 14.7153C32.9433 16.6249 32.0912 17.9925 30.6262 19.2408C28.5294 21.0207 26.6155 23.3432 22 24.1604C22.6779 25.7388 23.7672 26.6841 24.4995 28.6573L26.826 36Z" fill="white"/>
<path d="M312 10V4H314.364C314.958 4 315.391 4.05474 315.659 4.16242C315.93 4.26965 316.145 4.46143 316.307 4.73641C316.468 5.01271 316.55 5.32728 316.55 5.6819C316.55 6.13306 316.428 6.50454 316.183 6.79776C315.939 7.09097 315.574 7.27566 315.088 7.35219C315.33 7.50436 315.529 7.67209 315.685 7.85496C315.843 8.03783 316.056 8.36353 316.322 8.82982L317 10H315.658L314.853 8.69009C314.565 8.22513 314.367 7.9319 314.259 7.80999C314.153 7.6903 314.041 7.60669 313.922 7.56175C313.801 7.51682 313.613 7.49454 313.354 7.49454H313.126V10H312ZM313.126 6.5397H313.956C314.495 6.5397 314.83 6.51435 314.964 6.4654C315.098 6.41646 315.204 6.33103 315.279 6.21135C315.355 6.09121 315.393 5.94039 315.393 5.76019C315.393 5.5573 315.342 5.39532 315.243 5.26985C315.143 5.14571 315.002 5.06743 314.821 5.03539C314.729 5.02115 314.456 5.01401 314.002 5.01401H313.126V6.5397Z" fill="white"/>
<path fill-rule="evenodd" clip-rule="evenodd" d="M314 1C316.761 1 319 3.46259 319 6.49977C319 9.53781 316.761 12 314 12C311.238 12 309 9.53781 309 6.49977C309 3.46259 311.238 1 314 1Z" stroke="white" stroke-width="0.841701" stroke-miterlimit="22.9256"/>
<g opacity="0.6">
<path d="M6.80811 58.5849V67.3648H5.62302V59.5377H1.19127V67.3648H0V58.5849H6.80811Z" fill="white"/>
<path d="M8.49317 64.1749V64.0362C8.49317 63.5658 8.56312 63.1296 8.70303 62.7276C8.84294 62.3216 9.04457 61.9698 9.30792 61.6724C9.57128 61.3709 9.89018 61.1377 10.2646 60.9729C10.6391 60.804 11.0588 60.7196 11.5238 60.7196C11.9929 60.7196 12.4147 60.804 12.7891 60.9729C13.1677 61.1377 13.4887 61.3709 13.752 61.6724C14.0195 61.9698 14.2232 62.3216 14.3631 62.7276C14.503 63.1296 14.5729 63.5658 14.5729 64.0362V64.1749C14.5729 64.6452 14.503 65.0814 14.3631 65.4834C14.2232 65.8854 14.0195 66.2372 13.752 66.5387C13.4887 66.8362 13.1698 67.0693 12.7953 67.2382C12.425 67.403 12.0052 67.4854 11.5361 67.4854C11.067 67.4854 10.6453 67.403 10.2708 67.2382C9.89635 67.0693 9.57539 66.8362 9.30792 66.5387C9.04457 66.2372 8.84294 65.8854 8.70303 65.4834C8.56312 65.0814 8.49317 64.6452 8.49317 64.1749ZM9.63506 64.0362V64.1749C9.63506 64.5005 9.67415 64.808 9.75233 65.0975C9.83051 65.3829 9.94779 65.6362 10.1042 65.8573C10.2646 66.0784 10.4642 66.2533 10.7029 66.3819C10.9415 66.5065 11.2193 66.5688 11.5361 66.5688C11.8489 66.5688 12.1225 66.5065 12.3571 66.3819C12.5957 66.2533 12.7932 66.0784 12.9496 65.8573C13.106 65.6362 13.2233 65.3829 13.3014 65.0975C13.3837 64.808 13.4249 64.5005 13.4249 64.1749V64.0362C13.4249 63.7146 13.3837 63.4111 13.3014 63.1256C13.2233 62.8362 13.1039 62.5809 12.9434 62.3598C12.7871 62.1347 12.5896 61.9578 12.3509 61.8291C12.1163 61.7005 11.8406 61.6362 11.5238 61.6362C11.2111 61.6362 10.9354 61.7005 10.6967 61.8291C10.4622 61.9578 10.2646 62.1347 10.1042 62.3598C9.94779 62.5809 9.83051 62.8362 9.75233 63.1256C9.67415 63.4111 9.63506 63.7146 9.63506 64.0362Z" fill="white"/>
<path d="M16.7641 60.8402H17.906L17.8073 63.2824C17.7826 63.9015 17.7106 64.4362 17.5912 64.8864C17.4719 65.3367 17.3196 65.7206 17.1345 66.0382C16.9493 66.3518 16.7415 66.6151 16.5111 66.8281C16.2847 67.0412 16.0502 67.2201 15.8074 67.3648H15.2396L15.2704 66.4543L15.505 66.4482C15.6408 66.2915 15.7724 66.1307 15.9 65.9658C16.0276 65.797 16.1448 65.598 16.2518 65.3688C16.3588 65.1357 16.4473 64.8523 16.5172 64.5186C16.5913 64.1809 16.6386 63.7688 16.6592 63.2824L16.7641 60.8402ZM17.0481 60.8402H21.0663V67.3648H19.9244V61.8714H17.0481V60.8402ZM14.9803 66.4482H21.9242V69.2884H20.7823V67.3648H16.1222V69.2884H14.9741L14.9803 66.4482Z" fill="white"/>
<path d="M27.4732 58H28.4114C28.4114 58.394 28.3497 58.7075 28.2262 58.9407C28.1028 59.1698 27.9341 59.3467 27.7201 59.4714C27.5102 59.596 27.2716 59.6905 27.0041 59.7548C26.7407 59.8191 26.4671 59.8814 26.1832 59.9417C25.8293 60.0141 25.5001 60.1286 25.1956 60.2854C24.8952 60.4382 24.636 60.6553 24.4179 60.9367C24.2039 61.2181 24.0455 61.5839 23.9426 62.0342C23.8438 62.4844 23.8171 63.0412 23.8623 63.7045V64.2593H22.9242V63.7045C22.9242 62.9608 22.9962 62.3116 23.1402 61.7568C23.2883 61.202 23.4961 60.7337 23.7636 60.3518C24.0311 59.9698 24.3479 59.6663 24.7141 59.4412C25.0845 59.2161 25.4919 59.0613 25.9363 58.9769C26.2572 58.9166 26.5329 58.8523 26.7634 58.7839C26.9938 58.7116 27.1687 58.6151 27.288 58.4945C27.4115 58.3739 27.4732 58.209 27.4732 58ZM26.1214 61.2141C26.5576 61.2141 26.9465 61.2884 27.288 61.4372C27.6295 61.5859 27.9196 61.793 28.1583 62.0583C28.397 62.3236 28.578 62.6372 28.7015 62.999C28.829 63.3568 28.8928 63.7467 28.8928 64.1688V64.3015C28.8928 64.7558 28.8249 65.1779 28.6891 65.5678C28.5575 65.9538 28.362 66.2915 28.1028 66.5809C27.8476 66.8663 27.5349 67.0894 27.1646 67.2503C26.7983 67.4111 26.3807 67.4915 25.9116 67.4915C25.4425 67.4915 25.0228 67.4111 24.6524 67.2503C24.2862 67.0894 23.9735 66.8663 23.7142 66.5809C23.455 66.2915 23.2575 65.9538 23.1217 65.5678C22.99 65.1779 22.9242 64.7558 22.9242 64.3015V64.1688C22.9242 64.0683 22.9427 63.9698 22.9797 63.8734C23.0167 63.7769 23.062 63.6784 23.1155 63.5779C23.1731 63.4774 23.2245 63.3709 23.2698 63.2583C23.4221 62.8965 23.6299 62.5608 23.8932 62.2513C24.1607 61.9417 24.4796 61.6925 24.8499 61.5035C25.2244 61.3106 25.6482 61.2141 26.1214 61.2141ZM25.8992 62.1246C25.4795 62.1246 25.1339 62.2191 24.8623 62.408C24.5948 62.597 24.3952 62.8482 24.2636 63.1618C24.1319 63.4714 24.066 63.807 24.066 64.1688V64.3015C24.066 64.607 24.1031 64.8965 24.1771 65.1698C24.2512 65.4432 24.3623 65.6864 24.5104 65.8995C24.6627 66.1085 24.854 66.2734 25.0845 66.394C25.319 66.5146 25.5947 66.5749 25.9116 66.5749C26.2284 66.5749 26.5021 66.5146 26.7325 66.394C26.9629 66.2734 27.1522 66.1085 27.3004 65.8995C27.4485 65.6864 27.5596 65.4432 27.6337 65.1698C27.7077 64.8965 27.7448 64.607 27.7448 64.3015V64.1688C27.7448 63.8955 27.7077 63.6362 27.6337 63.391C27.5596 63.1457 27.4464 62.9286 27.2942 62.7397C27.146 62.5508 26.9547 62.402 26.7202 62.2935C26.4897 62.1809 26.2161 62.1246 25.8992 62.1246Z" fill="white"/>
<path d="M29.8866 64.1749V64.0362C29.8866 63.5658 29.9565 63.1296 30.0964 62.7276C30.2363 62.3216 30.438 61.9698 30.7013 61.6724C30.9647 61.3709 31.2836 61.1377 31.658 60.9729C32.0325 60.804 32.4522 60.7196 32.9172 60.7196C33.3863 60.7196 33.8081 60.804 34.1825 60.9729C34.5611 61.1377 34.8821 61.3709 35.1454 61.6724C35.4129 61.9698 35.6166 62.3216 35.7565 62.7276C35.8964 63.1296 35.9664 63.5658 35.9664 64.0362V64.1749C35.9664 64.6452 35.8964 65.0814 35.7565 65.4834C35.6166 65.8854 35.4129 66.2372 35.1454 66.5387C34.8821 66.8362 34.5632 67.0693 34.1887 67.2382C33.8184 67.403 33.3986 67.4854 32.9295 67.4854C32.4604 67.4854 32.0387 67.403 31.6642 67.2382C31.2898 67.0693 30.9688 66.8362 30.7013 66.5387C30.438 66.2372 30.2363 65.8854 30.0964 65.4834C29.9565 65.0814 29.8866 64.6452 29.8866 64.1749ZM31.0285 64.0362V64.1749C31.0285 64.5005 31.0676 64.808 31.1457 65.0975C31.2239 65.3829 31.3412 65.6362 31.4976 65.8573C31.658 66.0784 31.8576 66.2533 32.0963 66.3819C32.3349 66.5065 32.6127 66.5688 32.9295 66.5688C33.2423 66.5688 33.5159 66.5065 33.7505 66.3819C33.9891 66.2533 34.1867 66.0784 34.343 65.8573C34.4994 65.6362 34.6167 65.3829 34.6948 65.0975C34.7771 64.808 34.8183 64.5005 34.8183 64.1749V64.0362C34.8183 63.7146 34.7771 63.4111 34.6948 63.1256C34.6167 62.8362 34.4973 62.5809 34.3368 62.3598C34.1805 62.1347 33.983 61.9578 33.7443 61.8291C33.5098 61.7005 33.2341 61.6362 32.9172 61.6362C32.6045 61.6362 32.3288 61.7005 32.0901 61.8291C31.8556 61.9578 31.658 62.1347 31.4976 62.3598C31.3412 62.5809 31.2239 62.8362 31.1457 63.1256C31.0676 63.4111 31.0285 63.7146 31.0285 64.0362Z" fill="white"/>
<path d="M38.5402 62.0945V69.8734H37.3922V60.8402H38.4415L38.5402 62.0945ZM43.0399 64.0482V64.1749C43.0399 64.6492 42.9823 65.0894 42.8671 65.4955C42.7518 65.8975 42.5831 66.2472 42.3609 66.5447C42.1428 66.8422 41.8733 67.0734 41.5523 67.2382C41.2314 67.403 40.8631 67.4854 40.4475 67.4854C40.0236 67.4854 39.6492 67.4171 39.3241 67.2804C38.999 67.1437 38.7233 66.9447 38.497 66.6834C38.2707 66.4221 38.0896 66.1085 37.9539 65.7427C37.8222 65.3769 37.7316 64.9648 37.6823 64.5065V63.8312C37.7316 63.3487 37.8242 62.9166 37.96 62.5347C38.0958 62.1528 38.2748 61.8271 38.497 61.5578C38.7233 61.2844 38.997 61.0774 39.3179 60.9367C39.6389 60.792 40.0092 60.7196 40.429 60.7196C40.8487 60.7196 41.2211 60.8 41.5462 60.9608C41.8712 61.1176 42.1449 61.3427 42.3671 61.6362C42.5893 61.9296 42.7559 62.2814 42.8671 62.6915C42.9823 63.0975 43.0399 63.5497 43.0399 64.0482ZM41.8918 64.1749V64.0482C41.8918 63.7226 41.8568 63.4171 41.7869 63.1317C41.7169 62.8422 41.6079 62.5889 41.4598 62.3719C41.3157 62.1508 41.1306 61.9779 40.9042 61.8533C40.6779 61.7246 40.4084 61.6603 40.0957 61.6603C39.8076 61.6603 39.5566 61.7085 39.3426 61.805C39.1328 61.9015 38.9538 62.0322 38.8056 62.197C38.6575 62.3578 38.5361 62.5427 38.4415 62.7518C38.3509 62.9568 38.283 63.1698 38.2378 63.391V64.9528C38.3201 65.2342 38.4353 65.4995 38.5834 65.7487C38.7316 65.994 38.9291 66.193 39.176 66.3457C39.4229 66.4945 39.7335 66.5688 40.108 66.5688C40.4166 66.5688 40.682 66.5065 40.9042 66.3819C41.1306 66.2533 41.3157 66.0784 41.4598 65.8573C41.6079 65.6362 41.7169 65.3829 41.7869 65.0975C41.8568 64.808 41.8918 64.5005 41.8918 64.1749Z" fill="white"/>
<path d="M48.8666 65.598L51.9466 60.8402H53.0947V67.3648H51.9466V62.607L48.8666 67.3648H47.7309V60.8402H48.8666V65.598Z" fill="white"/>
<path d="M62.5137 60.8402V61.7628H59.1374V60.8402H62.5137ZM59.304 60.8402V67.3648H58.1622V60.8402H59.304ZM63.5259 60.8402V67.3648H62.3779V60.8402H63.5259Z" fill="white"/>
<path d="M65.0567 64.1749V64.0362C65.0567 63.5658 65.1266 63.1296 65.2666 62.7276C65.4065 62.3216 65.6081 61.9698 65.8714 61.6724C66.1348 61.3709 66.4537 61.1377 66.8282 60.9729C67.2026 60.804 67.6223 60.7196 68.0873 60.7196C68.5564 60.7196 68.9782 60.804 69.3527 60.9729C69.7312 61.1377 70.0522 61.3709 70.3155 61.6724C70.583 61.9698 70.7867 62.3216 70.9266 62.7276C71.0665 63.1296 71.1365 63.5658 71.1365 64.0362V64.1749C71.1365 64.6452 71.0665 65.0814 70.9266 65.4834C70.7867 65.8854 70.583 66.2372 70.3155 66.5387C70.0522 66.8362 69.7333 67.0693 69.3588 67.2382C68.9885 67.403 68.5688 67.4854 68.0997 67.4854C67.6306 67.4854 67.2088 67.403 66.8343 67.2382C66.4599 67.0693 66.1389 66.8362 65.8714 66.5387C65.6081 66.2372 65.4065 65.8854 65.2666 65.4834C65.1266 65.0814 65.0567 64.6452 65.0567 64.1749ZM66.1986 64.0362V64.1749C66.1986 64.5005 66.2377 64.808 66.3159 65.0975C66.394 65.3829 66.5113 65.6362 66.6677 65.8573C66.8282 66.0784 67.0277 66.2533 67.2664 66.3819C67.5051 66.5065 67.7828 66.5688 68.0997 66.5688C68.4124 66.5688 68.686 66.5065 68.9206 66.3819C69.1593 66.2533 69.3568 66.0784 69.5131 65.8573C69.6695 65.6362 69.7868 65.3829 69.865 65.0975C69.9473 64.808 69.9884 64.5005 69.9884 64.1749V64.0362C69.9884 63.7146 69.9473 63.4111 69.865 63.1256C69.7868 62.8362 69.6674 62.5809 69.507 62.3598C69.3506 62.1347 69.1531 61.9578 68.9144 61.8291C68.6799 61.7005 68.4042 61.6362 68.0873 61.6362C67.7746 61.6362 67.4989 61.7005 67.2602 61.8291C67.0257 61.9578 66.8282 62.1347 66.6677 62.3598C66.5113 62.5809 66.394 62.8362 66.3159 63.1256C66.2377 63.4111 66.1986 63.7146 66.1986 64.0362Z" fill="white"/>
<path d="M75.2411 66.5688C75.5127 66.5688 75.7637 66.5146 75.9941 66.406C76.2245 66.2975 76.4138 66.1487 76.562 65.9598C76.7101 65.7668 76.7945 65.5477 76.815 65.3025H77.9014C77.8808 65.6884 77.7471 66.0482 77.5002 66.3819C77.2574 66.7116 76.9385 66.9789 76.5435 67.1839C76.1484 67.3849 75.7143 67.4854 75.2411 67.4854C74.7391 67.4854 74.3008 67.399 73.9264 67.2261C73.556 67.0533 73.2474 66.8161 73.0005 66.5146C72.7577 66.2131 72.5746 65.8673 72.4512 65.4774C72.3318 65.0834 72.2722 64.6673 72.2722 64.2291V63.9759C72.2722 63.5377 72.3318 63.1236 72.4512 62.7337C72.5746 62.3397 72.7577 61.992 73.0005 61.6905C73.2474 61.3889 73.556 61.1518 73.9264 60.9789C74.3008 60.806 74.7391 60.7196 75.2411 60.7196C75.7637 60.7196 76.2204 60.8241 76.6114 61.0332C77.0023 61.2382 77.3088 61.5196 77.531 61.8774C77.7574 62.2312 77.8808 62.6332 77.9014 63.0834H76.815C76.7945 62.8141 76.7163 62.5709 76.5805 62.3538C76.4488 62.1367 76.2678 61.9638 76.0373 61.8352C75.811 61.7025 75.5456 61.6362 75.2411 61.6362C74.8913 61.6362 74.5971 61.7045 74.3584 61.8412C74.1239 61.9739 73.9367 62.1548 73.7968 62.3839C73.661 62.609 73.5622 62.8603 73.5005 63.1377C73.4429 63.4111 73.4141 63.6905 73.4141 63.9759V64.2291C73.4141 64.5146 73.4429 64.796 73.5005 65.0734C73.5581 65.3508 73.6548 65.602 73.7906 65.8271C73.9305 66.0523 74.1177 66.2332 74.3523 66.3698C74.5909 66.5025 74.8872 66.5688 75.2411 66.5688Z" fill="white"/>
<path d="M81.9072 60.8402V67.3648H80.7592V60.8402H81.9072ZM84.1478 60.8402V61.7447H78.5618V60.8402H84.1478Z" fill="white"/>
<path d="M89.1104 66.2492V62.8905C89.1104 62.6332 89.0569 62.4101 88.9499 62.2211C88.847 62.0281 88.6907 61.8794 88.4808 61.7749C88.2709 61.6704 88.0117 61.6181 87.7031 61.6181C87.415 61.6181 87.162 61.6663 86.9439 61.7628C86.7299 61.8593 86.5612 61.9859 86.4378 62.1427C86.3184 62.2995 86.2588 62.4683 86.2588 62.6492H85.1169C85.1169 62.4161 85.1786 62.1849 85.302 61.9558C85.4255 61.7266 85.6024 61.5196 85.8329 61.3347C86.0674 61.1457 86.3472 60.997 86.6723 60.8884C87.0015 60.7759 87.3677 60.7196 87.771 60.7196C88.2565 60.7196 88.6845 60.8 89.0548 60.9608C89.4293 61.1216 89.7214 61.3648 89.9313 61.6905C90.1453 62.0121 90.2523 62.4161 90.2523 62.9025V65.9417C90.2523 66.1588 90.2708 66.3899 90.3078 66.6352C90.349 66.8804 90.4086 67.0915 90.4868 67.2683V67.3648H89.2956C89.2379 67.2362 89.1927 67.0653 89.1598 66.8523C89.1268 66.6352 89.1104 66.4342 89.1104 66.2492ZM89.3079 63.409L89.3202 64.193H88.166C87.8409 64.193 87.5508 64.2191 87.2957 64.2714C87.0406 64.3196 86.8266 64.394 86.6538 64.4945C86.481 64.595 86.3493 64.7216 86.2588 64.8744C86.1682 65.0231 86.123 65.198 86.123 65.399C86.123 65.604 86.1703 65.791 86.2649 65.9598C86.3596 66.1286 86.5015 66.2633 86.6908 66.3638C86.8842 66.4603 87.1208 66.5085 87.4006 66.5085C87.7504 66.5085 88.059 66.4362 88.3265 66.2915C88.594 66.1467 88.8059 65.9698 88.9622 65.7608C89.1227 65.5518 89.2091 65.3487 89.2215 65.1518L89.7091 65.6884C89.6803 65.8573 89.6021 66.0442 89.4746 66.2492C89.347 66.4543 89.1762 66.6513 88.9622 66.8402C88.7524 67.0251 88.5014 67.1799 88.2092 67.3045C87.9212 67.4251 87.5961 67.4854 87.234 67.4854C86.7813 67.4854 86.3843 67.399 86.0427 67.2261C85.7053 67.0533 85.4419 66.8221 85.2527 66.5327C85.0675 66.2392 84.9749 65.9116 84.9749 65.5497C84.9749 65.2 85.0449 64.8925 85.1848 64.6271C85.3247 64.3578 85.5263 64.1347 85.7897 63.9578C86.053 63.7769 86.3699 63.6402 86.7402 63.5477C87.1105 63.4553 87.5241 63.409 87.9808 63.409H89.3079Z" fill="white"/>
<path d="M95.184 64.4945H92.9928L92.9805 63.602H94.7704C95.1243 63.602 95.4185 63.5678 95.6531 63.4995C95.8918 63.4312 96.0707 63.3286 96.1901 63.192C96.3094 63.0553 96.3691 62.8864 96.3691 62.6854C96.3691 62.5286 96.3341 62.392 96.2641 62.2754C96.1983 62.1548 96.0975 62.0563 95.9617 61.9799C95.8259 61.8995 95.6572 61.8412 95.4556 61.805C95.2581 61.7648 95.0256 61.7447 94.7581 61.7447H93.2952V67.3648H92.1534V60.8402H94.7581C95.1819 60.8402 95.5626 60.8764 95.9 60.9487C96.2415 61.0211 96.5316 61.1317 96.7703 61.2804C97.0131 61.4251 97.1982 61.6101 97.3258 61.8352C97.4534 62.0603 97.5171 62.3256 97.5171 62.6312C97.5171 62.8281 97.476 63.0151 97.3937 63.192C97.3114 63.3688 97.19 63.5256 97.0295 63.6623C96.869 63.799 96.6715 63.9116 96.437 64C96.2024 64.0844 95.9329 64.1387 95.6284 64.1628L95.184 64.4945ZM95.184 67.3648H92.5793L93.1471 66.4603H95.184C95.5008 66.4603 95.7642 66.4221 95.974 66.3457C96.1839 66.2653 96.3403 66.1528 96.4431 66.008C96.5501 65.8593 96.6036 65.6824 96.6036 65.4774C96.6036 65.2724 96.5501 65.0975 96.4431 64.9528C96.3403 64.804 96.1839 64.6915 95.974 64.6151C95.7642 64.5347 95.5008 64.4945 95.184 64.4945H93.4496L93.4619 63.602H95.6284L96.0419 63.9397C96.4082 63.9678 96.7188 64.0563 96.974 64.205C97.2291 64.3538 97.4225 64.5427 97.5542 64.7719C97.6859 64.997 97.7517 65.2422 97.7517 65.5075C97.7517 65.8131 97.692 66.0824 97.5727 66.3156C97.4575 66.5487 97.2888 66.7437 97.0666 66.9005C96.8444 67.0533 96.5748 67.1698 96.258 67.2503C95.9411 67.3266 95.5831 67.3648 95.184 67.3648Z" fill="white"/>
<path d="M100.523 60.8402V67.3648H99.3812V60.8402H100.523ZM104.905 60.8402L101.739 64.5789H100.14L99.9676 63.602H101.276L103.517 60.8402H104.905ZM103.677 67.3648L101.221 64.41L101.955 63.602L105.128 67.3648H103.677Z" fill="white"/>
<path d="M110.059 66.2492V62.8905C110.059 62.6332 110.006 62.4101 109.899 62.2211C109.796 62.0281 109.64 61.8794 109.43 61.7749C109.22 61.6704 108.961 61.6181 108.652 61.6181C108.364 61.6181 108.111 61.6663 107.893 61.7628C107.679 61.8593 107.51 61.9859 107.387 62.1427C107.267 62.2995 107.208 62.4683 107.208 62.6492H106.066C106.066 62.4161 106.128 62.1849 106.251 61.9558C106.374 61.7266 106.551 61.5196 106.782 61.3347C107.016 61.1457 107.296 60.997 107.621 60.8884C107.95 60.7759 108.317 60.7196 108.72 60.7196C109.206 60.7196 109.633 60.8 110.004 60.9608C110.378 61.1216 110.67 61.3648 110.88 61.6905C111.094 62.0121 111.201 62.4161 111.201 62.9025V65.9417C111.201 66.1588 111.22 66.3899 111.257 66.6352C111.298 66.8804 111.358 67.0915 111.436 67.2683V67.3648H110.245C110.187 67.2362 110.142 67.0653 110.109 66.8523C110.076 66.6352 110.059 66.4342 110.059 66.2492ZM110.257 63.409L110.269 64.193H109.115C108.79 64.193 108.5 64.2191 108.245 64.2714C107.99 64.3196 107.776 64.394 107.603 64.4945C107.43 64.595 107.298 64.7216 107.208 64.8744C107.117 65.0231 107.072 65.198 107.072 65.399C107.072 65.604 107.119 65.791 107.214 65.9598C107.309 66.1286 107.451 66.2633 107.64 66.3638C107.833 66.4603 108.07 66.5085 108.35 66.5085C108.699 66.5085 109.008 66.4362 109.275 66.2915C109.543 66.1467 109.755 65.9698 109.911 65.7608C110.072 65.5518 110.158 65.3487 110.17 65.1518L110.658 65.6884C110.629 65.8573 110.551 66.0442 110.424 66.2492C110.296 66.4543 110.125 66.6513 109.911 66.8402C109.701 67.0251 109.45 67.1799 109.158 67.3045C108.87 67.4251 108.545 67.4854 108.183 67.4854C107.73 67.4854 107.333 67.399 106.992 67.2261C106.654 67.0533 106.391 66.8221 106.202 66.5327C106.016 66.2392 105.924 65.9116 105.924 65.5497C105.924 65.2 105.994 64.8925 106.134 64.6271C106.274 64.3578 106.475 64.1347 106.739 63.9578C107.002 63.7769 107.319 63.6402 107.689 63.5477C108.06 63.4553 108.473 63.409 108.93 63.409H110.257Z" fill="white"/>
<path d="M115.831 64.1749V64.0362C115.831 63.5658 115.9 63.1296 116.04 62.7276C116.18 62.3216 116.382 61.9698 116.645 61.6724C116.909 61.3709 117.228 61.1377 117.602 60.9729C117.976 60.804 118.396 60.7196 118.861 60.7196C119.33 60.7196 119.752 60.804 120.126 60.9729C120.505 61.1377 120.826 61.3709 121.089 61.6724C121.357 61.9698 121.561 62.3216 121.7 62.7276C121.84 63.1296 121.91 63.5658 121.91 64.0362V64.1749C121.91 64.6452 121.84 65.0814 121.7 65.4834C121.561 65.8854 121.357 66.2372 121.089 66.5387C120.826 66.8362 120.507 67.0693 120.133 67.2382C119.762 67.403 119.343 67.4854 118.874 67.4854C118.404 67.4854 117.983 67.403 117.608 67.2382C117.234 67.0693 116.913 66.8362 116.645 66.5387C116.382 66.2372 116.18 65.8854 116.04 65.4834C115.9 65.0814 115.831 64.6452 115.831 64.1749ZM116.972 64.0362V64.1749C116.972 64.5005 117.012 64.808 117.09 65.0975C117.168 65.3829 117.285 65.6362 117.442 65.8573C117.602 66.0784 117.802 66.2533 118.04 66.3819C118.279 66.5065 118.557 66.5688 118.874 66.5688C119.186 66.5688 119.46 66.5065 119.694 66.3819C119.933 66.2533 120.131 66.0784 120.287 65.8573C120.443 65.6362 120.561 65.3829 120.639 65.0975C120.721 64.808 120.762 64.5005 120.762 64.1749V64.0362C120.762 63.7146 120.721 63.4111 120.639 63.1256C120.561 62.8362 120.441 62.5809 120.281 62.3598C120.124 62.1347 119.927 61.9578 119.688 61.8291C119.454 61.7005 119.178 61.6362 118.861 61.6362C118.548 61.6362 118.273 61.7005 118.034 61.8291C117.8 61.9578 117.602 62.1347 117.442 62.3598C117.285 62.5809 117.168 62.8362 117.09 63.1256C117.012 63.4111 116.972 63.7146 116.972 64.0362Z" fill="white"/>
<path d="M127.626 58H128.564C128.564 58.394 128.502 58.7075 128.379 58.9407C128.255 59.1698 128.087 59.3467 127.873 59.4714C127.663 59.596 127.424 59.6905 127.157 59.7548C126.893 59.8191 126.62 59.8814 126.336 59.9417C125.982 60.0141 125.653 60.1286 125.348 60.2854C125.048 60.4382 124.789 60.6553 124.571 60.9367C124.357 61.2181 124.198 61.5839 124.095 62.0342C123.997 62.4844 123.97 63.0412 124.015 63.7045V64.2593H123.077V63.7045C123.077 62.9608 123.149 62.3116 123.293 61.7568C123.441 61.202 123.649 60.7337 123.916 60.3518C124.184 59.9698 124.501 59.6663 124.867 59.4412C125.237 59.2161 125.645 59.0613 126.089 58.9769C126.41 58.9166 126.686 58.8523 126.916 58.7839C127.147 58.7116 127.321 58.6151 127.441 58.4945C127.564 58.3739 127.626 58.209 127.626 58ZM126.274 61.2141C126.71 61.2141 127.099 61.2884 127.441 61.4372C127.782 61.5859 128.072 61.793 128.311 62.0583C128.55 62.3236 128.731 62.6372 128.854 62.999C128.982 63.3568 129.046 63.7467 129.046 64.1688V64.3015C129.046 64.7558 128.978 65.1779 128.842 65.5678C128.71 65.9538 128.515 66.2915 128.255 66.5809C128 66.8663 127.688 67.0894 127.317 67.2503C126.951 67.4111 126.533 67.4915 126.064 67.4915C125.595 67.4915 125.175 67.4111 124.805 67.2503C124.439 67.0894 124.126 66.8663 123.867 66.5809C123.608 66.2915 123.41 65.9538 123.274 65.5678C123.143 65.1779 123.077 64.7558 123.077 64.3015V64.1688C123.077 64.0683 123.095 63.9698 123.132 63.8734C123.169 63.7769 123.215 63.6784 123.268 63.5779C123.326 63.4774 123.377 63.3709 123.423 63.2583C123.575 62.8965 123.783 62.5608 124.046 62.2513C124.313 61.9417 124.632 61.6925 125.003 61.5035C125.377 61.3106 125.801 61.2141 126.274 61.2141ZM126.052 62.1246C125.632 62.1246 125.287 62.2191 125.015 62.408C124.748 62.597 124.548 62.8482 124.416 63.1618C124.285 63.4714 124.219 63.807 124.219 64.1688V64.3015C124.219 64.607 124.256 64.8965 124.33 65.1698C124.404 65.4432 124.515 65.6864 124.663 65.8995C124.815 66.1085 125.007 66.2734 125.237 66.394C125.472 66.5146 125.747 66.5749 126.064 66.5749C126.381 66.5749 126.655 66.5146 126.885 66.394C127.116 66.2734 127.305 66.1085 127.453 65.8995C127.601 65.6864 127.712 65.4432 127.786 65.1698C127.86 64.8965 127.898 64.607 127.898 64.3015V64.1688C127.898 63.8955 127.86 63.6362 127.786 63.391C127.712 63.1457 127.599 62.9286 127.447 62.7397C127.299 62.5508 127.107 62.402 126.873 62.2935C126.642 62.1809 126.369 62.1246 126.052 62.1246Z" fill="white"/>
<path d="M130.039 64.1749V64.0362C130.039 63.5658 130.109 63.1296 130.249 62.7276C130.389 62.3216 130.591 61.9698 130.854 61.6724C131.117 61.3709 131.436 61.1377 131.811 60.9729C132.185 60.804 132.605 60.7196 133.07 60.7196C133.539 60.7196 133.961 60.804 134.335 60.9729C134.714 61.1377 135.035 61.3709 135.298 61.6724C135.566 61.9698 135.769 62.3216 135.909 62.7276C136.049 63.1296 136.119 63.5658 136.119 64.0362V64.1749C136.119 64.6452 136.049 65.0814 135.909 65.4834C135.769 65.8854 135.566 66.2372 135.298 66.5387C135.035 66.8362 134.716 67.0693 134.341 67.2382C133.971 67.403 133.551 67.4854 133.082 67.4854C132.613 67.4854 132.191 67.403 131.817 67.2382C131.442 67.0693 131.122 66.8362 130.854 66.5387C130.591 66.2372 130.389 65.8854 130.249 65.4834C130.109 65.0814 130.039 64.6452 130.039 64.1749ZM131.181 64.0362V64.1749C131.181 64.5005 131.22 64.808 131.298 65.0975C131.377 65.3829 131.494 65.6362 131.65 65.8573C131.811 66.0784 132.01 66.2533 132.249 66.3819C132.488 66.5065 132.765 66.5688 133.082 66.5688C133.395 66.5688 133.669 66.5065 133.903 66.3819C134.142 66.2533 134.339 66.0784 134.496 65.8573C134.652 65.6362 134.769 65.3829 134.848 65.0975C134.93 64.808 134.971 64.5005 134.971 64.1749V64.0362C134.971 63.7146 134.93 63.4111 134.848 63.1256C134.769 62.8362 134.65 62.5809 134.49 62.3598C134.333 62.1347 134.136 61.9578 133.897 61.8291C133.662 61.7005 133.387 61.6362 133.07 61.6362C132.757 61.6362 132.482 61.7005 132.243 61.8291C132.008 61.9578 131.811 62.1347 131.65 62.3598C131.494 62.5809 131.377 62.8362 131.298 63.1256C131.22 63.4111 131.181 63.7146 131.181 64.0362Z" fill="white"/>
<path d="M138.693 62.0945V69.8734H137.545V60.8402H138.594L138.693 62.0945ZM143.193 64.0482V64.1749C143.193 64.6492 143.135 65.0894 143.02 65.4955C142.905 65.8975 142.736 66.2472 142.514 66.5447C142.296 66.8422 142.026 67.0734 141.705 67.2382C141.384 67.403 141.016 67.4854 140.6 67.4854C140.176 67.4854 139.802 67.4171 139.477 67.2804C139.152 67.1437 138.876 66.9447 138.65 66.6834C138.423 66.4221 138.242 66.1085 138.107 65.7427C137.975 65.3769 137.884 64.9648 137.835 64.5065V63.8312C137.884 63.3487 137.977 62.9166 138.113 62.5347C138.249 62.1528 138.428 61.8271 138.65 61.5578C138.876 61.2844 139.15 61.0774 139.471 60.9367C139.792 60.792 140.162 60.7196 140.582 60.7196C141.001 60.7196 141.374 60.8 141.699 60.9608C142.024 61.1176 142.298 61.3427 142.52 61.6362C142.742 61.9296 142.909 62.2814 143.02 62.6915C143.135 63.0975 143.193 63.5497 143.193 64.0482ZM142.045 64.1749V64.0482C142.045 63.7226 142.01 63.4171 141.94 63.1317C141.87 62.8422 141.761 62.5889 141.612 62.3719C141.468 62.1508 141.283 61.9779 141.057 61.8533C140.831 61.7246 140.561 61.6603 140.248 61.6603C139.96 61.6603 139.709 61.7085 139.495 61.805C139.286 61.9015 139.107 62.0322 138.958 62.197C138.81 62.3578 138.689 62.5427 138.594 62.7518C138.504 62.9568 138.436 63.1698 138.391 63.391V64.9528C138.473 65.2342 138.588 65.4995 138.736 65.7487C138.884 65.994 139.082 66.193 139.329 66.3457C139.576 66.4945 139.886 66.5688 140.261 66.5688C140.569 66.5688 140.835 66.5065 141.057 66.3819C141.283 66.2533 141.468 66.0784 141.612 65.8573C141.761 65.6362 141.87 65.3829 141.94 65.0975C142.01 64.808 142.045 64.5005 142.045 64.1749Z" fill="white"/>
<path d="M146.452 66.6894L148.31 60.8402H149.532L146.853 68.3719C146.791 68.5327 146.709 68.7055 146.606 68.8905C146.507 69.0794 146.38 69.2583 146.223 69.4271C146.067 69.596 145.878 69.7327 145.655 69.8372C145.437 69.9457 145.176 70 144.871 70C144.781 70 144.666 69.9879 144.526 69.9638C144.386 69.9397 144.287 69.9196 144.23 69.9035L144.223 68.999C144.256 69.003 144.308 69.007 144.378 69.0111C144.452 69.0191 144.503 69.0231 144.532 69.0231C144.791 69.0231 145.011 68.9889 145.192 68.9206C145.374 68.8563 145.526 68.7457 145.649 68.5889C145.777 68.4362 145.886 68.2251 145.976 67.9558L146.452 66.6894ZM145.088 60.8402L146.822 65.9055L147.118 67.0814L146.297 67.4915L143.841 60.8402H145.088Z" fill="white"/>
<path d="M151.42 60.8402H152.562L152.464 63.2824C152.439 63.9015 152.367 64.4362 152.247 64.8864C152.128 65.3367 151.976 65.7206 151.791 66.0382C151.606 66.3518 151.398 66.6151 151.167 66.8281C150.941 67.0412 150.706 67.2201 150.464 67.3648H149.896L149.927 66.4543L150.161 66.4482C150.297 66.2915 150.429 66.1307 150.556 65.9658C150.684 65.797 150.801 65.598 150.908 65.3688C151.015 65.1357 151.104 64.8523 151.173 64.5186C151.248 64.1809 151.295 63.7688 151.315 63.2824L151.42 60.8402ZM151.704 60.8402H155.723V67.3648H154.581V61.8714H151.704V60.8402ZM149.637 66.4482H156.58V69.2884H155.439V67.3648H150.778V69.2884H149.63L149.637 66.4482Z" fill="white"/>
<path d="M157.543 64.1749V64.0362C157.543 63.5658 157.613 63.1296 157.753 62.7276C157.893 62.3216 158.095 61.9698 158.358 61.6724C158.621 61.3709 158.94 61.1377 159.315 60.9729C159.689 60.804 160.109 60.7196 160.574 60.7196C161.043 60.7196 161.465 60.804 161.839 60.9729C162.218 61.1377 162.539 61.3709 162.802 61.6724C163.07 61.9698 163.273 62.3216 163.413 62.7276C163.553 63.1296 163.623 63.5658 163.623 64.0362V64.1749C163.623 64.6452 163.553 65.0814 163.413 65.4834C163.273 65.8854 163.07 66.2372 162.802 66.5387C162.539 66.8362 162.22 67.0693 161.845 67.2382C161.475 67.403 161.055 67.4854 160.586 67.4854C160.117 67.4854 159.695 67.403 159.321 67.2382C158.947 67.0693 158.626 66.8362 158.358 66.5387C158.095 66.2372 157.893 65.8854 157.753 65.4834C157.613 65.0814 157.543 64.6452 157.543 64.1749ZM158.685 64.0362V64.1749C158.685 64.5005 158.724 64.808 158.803 65.0975C158.881 65.3829 158.998 65.6362 159.154 65.8573C159.315 66.0784 159.514 66.2533 159.753 66.3819C159.992 66.5065 160.269 66.5688 160.586 66.5688C160.899 66.5688 161.173 66.5065 161.407 66.3819C161.646 66.2533 161.843 66.0784 162 65.8573C162.156 65.6362 162.273 65.3829 162.352 65.0975C162.434 64.808 162.475 64.5005 162.475 64.1749V64.0362C162.475 63.7146 162.434 63.4111 162.352 63.1256C162.273 62.8362 162.154 62.5809 161.994 62.3598C161.837 62.1347 161.64 61.9578 161.401 61.8291C161.167 61.7005 160.891 61.6362 160.574 61.6362C160.261 61.6362 159.986 61.7005 159.747 61.8291C159.512 61.9578 159.315 62.1347 159.154 62.3598C158.998 62.5809 158.881 62.8362 158.803 63.1256C158.724 63.4111 158.685 63.7146 158.685 64.0362Z" fill="white"/>
<path d="M168.191 64.4945H165.999L165.987 63.602H167.777C168.131 63.602 168.425 63.5678 168.66 63.4995C168.898 63.4312 169.077 63.3286 169.197 63.192C169.316 63.0553 169.376 62.8864 169.376 62.6854C169.376 62.5286 169.341 62.392 169.271 62.2754C169.205 62.1548 169.104 62.0563 168.968 61.9799C168.833 61.8995 168.664 61.8412 168.462 61.805C168.265 61.7648 168.032 61.7447 167.765 61.7447H166.302V67.3648H165.16V60.8402H167.765C168.189 60.8402 168.569 60.8764 168.907 60.9487C169.248 61.0211 169.538 61.1317 169.777 61.2804C170.02 61.4251 170.205 61.6101 170.332 61.8352C170.46 62.0603 170.524 62.3256 170.524 62.6312C170.524 62.8281 170.483 63.0151 170.4 63.192C170.318 63.3688 170.197 63.5256 170.036 63.6623C169.876 63.799 169.678 63.9116 169.444 64C169.209 64.0844 168.94 64.1387 168.635 64.1628L168.191 64.4945ZM168.191 67.3648H165.586L166.154 66.4603H168.191C168.508 66.4603 168.771 66.4221 168.981 66.3457C169.191 66.2653 169.347 66.1528 169.45 66.008C169.557 65.8593 169.61 65.6824 169.61 65.4774C169.61 65.2724 169.557 65.0975 169.45 64.9528C169.347 64.804 169.191 64.6915 168.981 64.6151C168.771 64.5347 168.508 64.4945 168.191 64.4945H166.456L166.469 63.602H168.635L169.049 63.9397C169.415 63.9678 169.726 64.0563 169.981 64.205C170.236 64.3538 170.429 64.5427 170.561 64.7719C170.693 64.997 170.758 65.2422 170.758 65.5075C170.758 65.8131 170.699 66.0824 170.579 66.3156C170.464 66.5487 170.295 66.7437 170.073 66.9005C169.851 67.0533 169.582 67.1698 169.265 67.2503C168.948 67.3266 168.59 67.3648 168.191 67.3648Z" fill="white"/>
<path d="M176.227 66.2492V62.8905C176.227 62.6332 176.174 62.4101 176.067 62.2211C175.964 62.0281 175.807 61.8794 175.598 61.7749C175.388 61.6704 175.128 61.6181 174.82 61.6181C174.532 61.6181 174.279 61.6663 174.061 61.7628C173.847 61.8593 173.678 61.9859 173.554 62.1427C173.435 62.2995 173.375 62.4683 173.375 62.6492H172.234C172.234 62.4161 172.295 62.1849 172.419 61.9558C172.542 61.7266 172.719 61.5196 172.95 61.3347C173.184 61.1457 173.464 60.997 173.789 60.8884C174.118 60.7759 174.484 60.7196 174.888 60.7196C175.373 60.7196 175.801 60.8 176.172 60.9608C176.546 61.1216 176.838 61.3648 177.048 61.6905C177.262 62.0121 177.369 62.4161 177.369 62.9025V65.9417C177.369 66.1588 177.387 66.3899 177.425 66.6352C177.466 66.8804 177.525 67.0915 177.604 67.2683V67.3648H176.412C176.355 67.2362 176.309 67.0653 176.276 66.8523C176.244 66.6352 176.227 66.4342 176.227 66.2492ZM176.425 63.409L176.437 64.193H175.283C174.958 64.193 174.668 64.2191 174.412 64.2714C174.157 64.3196 173.943 64.394 173.77 64.4945C173.598 64.595 173.466 64.7216 173.375 64.8744C173.285 65.0231 173.24 65.198 173.24 65.399C173.24 65.604 173.287 65.791 173.382 65.9598C173.476 66.1286 173.618 66.2633 173.808 66.3638C174.001 66.4603 174.238 66.5085 174.517 66.5085C174.867 66.5085 175.176 66.4362 175.443 66.2915C175.711 66.1467 175.923 65.9698 176.079 65.7608C176.239 65.5518 176.326 65.3487 176.338 65.1518L176.826 65.6884C176.797 65.8573 176.719 66.0442 176.591 66.2492C176.464 66.4543 176.293 66.6513 176.079 66.8402C175.869 67.0251 175.618 67.1799 175.326 67.3045C175.038 67.4251 174.713 67.4854 174.351 67.4854C173.898 67.4854 173.501 67.399 173.159 67.2261C172.822 67.0533 172.559 66.8221 172.369 66.5327C172.184 66.2392 172.092 65.9116 172.092 65.5497C172.092 65.2 172.162 64.8925 172.301 64.6271C172.441 64.3578 172.643 64.1347 172.906 63.9578C173.17 63.7769 173.487 63.6402 173.857 63.5477C174.227 63.4553 174.641 63.409 175.098 63.409H176.425Z" fill="white"/>
<path d="M183.696 63.6683V64.5729H180.165V63.6683H183.696ZM180.406 60.8402V67.3648H179.264V60.8402H180.406ZM184.622 60.8402V67.3648H183.473V60.8402H184.622Z" fill="white"/>
<path d="M187.695 65.598L190.775 60.8402H191.923V67.3648H190.775V62.607L187.695 67.3648H186.56V60.8402H187.695V65.598Z" fill="white"/>
<path d="M195.108 64.2533H196.343L194.411 67.3648H193.176L195.108 64.2533ZM196.065 60.8402H198.855V67.3648H197.713V61.7447H196.065C195.74 61.7447 195.475 61.799 195.269 61.9075C195.063 62.0121 194.913 62.1487 194.818 62.3176C194.724 62.4864 194.676 62.6613 194.676 62.8422C194.676 63.0191 194.719 63.1899 194.806 63.3548C194.892 63.5156 195.028 63.6482 195.213 63.7528C195.398 63.8573 195.637 63.9095 195.929 63.9095H198.022V64.8261H195.929C195.547 64.8261 195.207 64.7759 194.911 64.6754C194.615 64.5749 194.364 64.4362 194.158 64.2593C193.952 64.0784 193.796 63.8673 193.689 63.6261C193.582 63.3809 193.528 63.1156 193.528 62.8302C193.528 62.5447 193.584 62.2814 193.695 62.0402C193.81 61.799 193.975 61.5879 194.189 61.407C194.407 61.2261 194.672 61.0874 194.985 60.991C195.302 60.8905 195.662 60.8402 196.065 60.8402Z" fill="white"/>
<path d="M205.034 60.8402H206.175L206.077 63.2824C206.052 63.9015 205.98 64.4362 205.861 64.8864C205.741 65.3367 205.589 65.7206 205.404 66.0382C205.219 66.3518 205.011 66.6151 204.78 66.8281C204.554 67.0412 204.32 67.2201 204.077 67.3648H203.509L203.54 66.4543L203.774 66.4482C203.91 66.2915 204.042 66.1307 204.169 65.9658C204.297 65.797 204.414 65.598 204.521 65.3688C204.628 65.1357 204.717 64.8523 204.787 64.5186C204.861 64.1809 204.908 63.7688 204.929 63.2824L205.034 60.8402ZM205.317 60.8402H209.336V67.3648H208.194V61.8714H205.317V60.8402ZM203.25 66.4482H210.194V69.2884H209.052V67.3648H204.392V69.2884H203.244L203.25 66.4482Z" fill="white"/>
<path d="M215.922 60.8402V61.7628H212.693V60.8402H215.922ZM216.928 60.8402V67.3648H215.786V60.8402H216.928ZM212.416 60.8402H213.564L213.391 63.9879C213.362 64.4744 213.315 64.9045 213.249 65.2784C213.187 65.6482 213.101 65.9658 212.99 66.2312C212.883 66.4965 212.747 66.7136 212.582 66.8824C212.422 67.0472 212.228 67.1698 212.002 67.2503C211.776 67.3266 211.514 67.3648 211.218 67.3648H210.86V66.3819L211.107 66.3638C211.284 66.3518 211.434 66.3116 211.558 66.2432C211.685 66.1749 211.792 66.0744 211.879 65.9417C211.965 65.805 212.035 65.6302 212.089 65.4171C212.146 65.204 212.189 64.9508 212.218 64.6573C212.251 64.3638 212.276 64.0221 212.292 63.6322L212.416 60.8402Z" fill="white"/>
<path d="M220.119 64.2533H221.353L219.421 67.3648H218.187L220.119 64.2533ZM221.075 60.8402H223.865V67.3648H222.723V61.7447H221.075C220.75 61.7447 220.485 61.799 220.279 61.9075C220.073 62.0121 219.923 62.1487 219.829 62.3176C219.734 62.4864 219.687 62.6613 219.687 62.8422C219.687 63.0191 219.73 63.1899 219.816 63.3548C219.903 63.5156 220.039 63.6482 220.224 63.7528C220.409 63.8573 220.648 63.9095 220.94 63.9095H223.032V64.8261H220.94C220.557 64.8261 220.218 64.7759 219.921 64.6754C219.625 64.5749 219.374 64.4362 219.168 64.2593C218.962 64.0784 218.806 63.8673 218.699 63.6261C218.592 63.3809 218.539 63.1156 218.539 62.8302C218.539 62.5447 218.594 62.2814 218.705 62.0402C218.821 61.799 218.985 61.5879 219.199 61.407C219.417 61.2261 219.683 61.0874 219.995 60.991C220.312 60.8905 220.672 60.8402 221.075 60.8402Z" fill="white"/>
<path d="M232.778 66.2492V62.8905C232.778 62.6332 232.725 62.4101 232.618 62.2211C232.515 62.0281 232.359 61.8794 232.149 61.7749C231.939 61.6704 231.68 61.6181 231.371 61.6181C231.083 61.6181 230.83 61.6663 230.612 61.7628C230.398 61.8593 230.229 61.9859 230.106 62.1427C229.986 62.2995 229.927 62.4683 229.927 62.6492H228.785C228.785 62.4161 228.846 62.1849 228.97 61.9558C229.093 61.7266 229.27 61.5196 229.501 61.3347C229.735 61.1457 230.015 60.997 230.34 60.8884C230.669 60.7759 231.036 60.7196 231.439 60.7196C231.924 60.7196 232.352 60.8 232.723 60.9608C233.097 61.1216 233.389 61.3648 233.599 61.6905C233.813 62.0121 233.92 62.4161 233.92 62.9025V65.9417C233.92 66.1588 233.939 66.3899 233.976 66.6352C234.017 66.8804 234.077 67.0915 234.155 67.2683V67.3648H232.963C232.906 67.2362 232.861 67.0653 232.828 66.8523C232.795 66.6352 232.778 66.4342 232.778 66.2492ZM232.976 63.409L232.988 64.193H231.834C231.509 64.193 231.219 64.2191 230.964 64.2714C230.708 64.3196 230.494 64.394 230.322 64.4945C230.149 64.595 230.017 64.7216 229.927 64.8744C229.836 65.0231 229.791 65.198 229.791 65.399C229.791 65.604 229.838 65.791 229.933 65.9598C230.027 66.1286 230.169 66.2633 230.359 66.3638C230.552 66.4603 230.789 66.5085 231.069 66.5085C231.418 66.5085 231.727 66.4362 231.994 66.2915C232.262 66.1467 232.474 65.9698 232.63 65.7608C232.791 65.5518 232.877 65.3487 232.889 65.1518L233.377 65.6884C233.348 65.8573 233.27 66.0442 233.142 66.2492C233.015 66.4543 232.844 66.6513 232.63 66.8402C232.42 67.0251 232.169 67.1799 231.877 67.3045C231.589 67.4251 231.264 67.4854 230.902 67.4854C230.449 67.4854 230.052 67.399 229.711 67.2261C229.373 67.0533 229.11 66.8221 228.921 66.5327C228.735 66.2392 228.643 65.9116 228.643 65.5497C228.643 65.2 228.713 64.8925 228.853 64.6271C228.993 64.3578 229.194 64.1347 229.458 63.9578C229.721 63.7769 230.038 63.6402 230.408 63.5477C230.778 63.4553 231.192 63.409 231.649 63.409H232.976Z" fill="white"/>
<path d="M238.852 64.4945H236.661L236.648 63.602H238.438C238.792 63.602 239.086 63.5678 239.321 63.4995C239.56 63.4312 239.739 63.3286 239.858 63.192C239.977 63.0553 240.037 62.8864 240.037 62.6854C240.037 62.5286 240.002 62.392 239.932 62.2754C239.866 62.1548 239.765 62.0563 239.63 61.9799C239.494 61.8995 239.325 61.8412 239.123 61.805C238.926 61.7648 238.693 61.7447 238.426 61.7447H236.963V67.3648H235.821V60.8402H238.426C238.85 60.8402 239.23 60.8764 239.568 60.9487C239.909 61.0211 240.2 61.1317 240.438 61.2804C240.681 61.4251 240.866 61.6101 240.994 61.8352C241.121 62.0603 241.185 62.3256 241.185 62.6312C241.185 62.8281 241.144 63.0151 241.062 63.192C240.979 63.3688 240.858 63.5256 240.697 63.6623C240.537 63.799 240.339 63.9116 240.105 64C239.87 64.0844 239.601 64.1387 239.296 64.1628L238.852 64.4945ZM238.852 67.3648H236.247L236.815 66.4603H238.852C239.169 66.4603 239.432 66.4221 239.642 66.3457C239.852 66.2653 240.008 66.1528 240.111 66.008C240.218 65.8593 240.272 65.6824 240.272 65.4774C240.272 65.2724 240.218 65.0975 240.111 64.9528C240.008 64.804 239.852 64.6915 239.642 64.6151C239.432 64.5347 239.169 64.4945 238.852 64.4945H237.117L237.13 63.602H239.296L239.71 63.9397C240.076 63.9678 240.387 64.0563 240.642 64.205C240.897 64.3538 241.09 64.5427 241.222 64.7719C241.354 64.997 241.42 65.2422 241.42 65.5075C241.42 65.8131 241.36 66.0824 241.241 66.3156C241.125 66.5487 240.957 66.7437 240.734 66.9005C240.512 67.0533 240.243 67.1698 239.926 67.2503C239.609 67.3266 239.251 67.3648 238.852 67.3648Z" fill="white"/>
<path d="M245.598 60.8402V67.3648H244.45V60.8402H245.598ZM247.839 60.8402V61.7447H242.253V60.8402H247.839Z" fill="white"/>
<path d="M248.401 64.1749V64.0362C248.401 63.5658 248.47 63.1296 248.61 62.7276C248.75 62.3216 248.952 61.9698 249.215 61.6724C249.479 61.3709 249.798 61.1377 250.172 60.9729C250.546 60.804 250.966 60.7196 251.431 60.7196C251.9 60.7196 252.322 60.804 252.696 60.9729C253.075 61.1377 253.396 61.3709 253.659 61.6724C253.927 61.9698 254.131 62.3216 254.27 62.7276C254.41 63.1296 254.48 63.5658 254.48 64.0362V64.1749C254.48 64.6452 254.41 65.0814 254.27 65.4834C254.131 65.8854 253.927 66.2372 253.659 66.5387C253.396 66.8362 253.077 67.0693 252.703 67.2382C252.332 67.403 251.913 67.4854 251.443 67.4854C250.974 67.4854 250.553 67.403 250.178 67.2382C249.804 67.0693 249.483 66.8362 249.215 66.5387C248.952 66.2372 248.75 65.8854 248.61 65.4834C248.47 65.0814 248.401 64.6452 248.401 64.1749ZM249.542 64.0362V64.1749C249.542 64.5005 249.581 64.808 249.66 65.0975C249.738 65.3829 249.855 65.6362 250.012 65.8573C250.172 66.0784 250.372 66.2533 250.61 66.3819C250.849 66.5065 251.127 66.5688 251.443 66.5688C251.756 66.5688 252.03 66.5065 252.264 66.3819C252.503 66.2533 252.701 66.0784 252.857 65.8573C253.013 65.6362 253.131 65.3829 253.209 65.0975C253.291 64.808 253.332 64.5005 253.332 64.1749V64.0362C253.332 63.7146 253.291 63.4111 253.209 63.1256C253.131 62.8362 253.011 62.5809 252.851 62.3598C252.694 62.1347 252.497 61.9578 252.258 61.8291C252.024 61.7005 251.748 61.6362 251.431 61.6362C251.118 61.6362 250.843 61.7005 250.604 61.8291C250.369 61.9578 250.172 62.1347 250.012 62.3598C249.855 62.5809 249.738 62.8362 249.66 63.1256C249.581 63.4111 249.542 63.7146 249.542 64.0362Z" fill="white"/>
<path d="M259.751 65.8814L262.023 60.8402H263.122L260.147 67.3648H259.356L256.394 60.8402H257.492L259.751 65.8814ZM257.159 60.8402V67.3648H256.017V60.8402H257.159ZM262.307 67.3648V60.8402H263.455V67.3648H262.307Z" fill="white"/>
<path d="M269.232 66.2492V62.8905C269.232 62.6332 269.179 62.4101 269.072 62.2211C268.969 62.0281 268.813 61.8794 268.603 61.7749C268.393 61.6704 268.134 61.6181 267.825 61.6181C267.537 61.6181 267.284 61.6663 267.066 61.7628C266.852 61.8593 266.683 61.9859 266.56 62.1427C266.44 62.2995 266.381 62.4683 266.381 62.6492H265.239C265.239 62.4161 265.3 62.1849 265.424 61.9558C265.547 61.7266 265.724 61.5196 265.955 61.3347C266.189 61.1457 266.469 60.997 266.794 60.8884C267.123 60.7759 267.49 60.7196 267.893 60.7196C268.378 60.7196 268.806 60.8 269.177 60.9608C269.551 61.1216 269.843 61.3648 270.053 61.6905C270.267 62.0121 270.374 62.4161 270.374 62.9025V65.9417C270.374 66.1588 270.393 66.3899 270.43 66.6352C270.471 66.8804 270.53 67.0915 270.609 67.2683V67.3648H269.417C269.36 67.2362 269.315 67.0653 269.282 66.8523C269.249 66.6352 269.232 66.4342 269.232 66.2492ZM269.43 63.409L269.442 64.193H268.288C267.963 64.193 267.673 64.2191 267.418 64.2714C267.162 64.3196 266.948 64.394 266.776 64.4945C266.603 64.595 266.471 64.7216 266.381 64.8744C266.29 65.0231 266.245 65.198 266.245 65.399C266.245 65.604 266.292 65.791 266.387 65.9598C266.481 66.1286 266.623 66.2633 266.813 66.3638C267.006 66.4603 267.243 66.5085 267.522 66.5085C267.872 66.5085 268.181 66.4362 268.448 66.2915C268.716 66.1467 268.928 65.9698 269.084 65.7608C269.245 65.5518 269.331 65.3487 269.343 65.1518L269.831 65.6884C269.802 65.8573 269.724 66.0442 269.596 66.2492C269.469 66.4543 269.298 66.6513 269.084 66.8402C268.874 67.0251 268.623 67.1799 268.331 67.3045C268.043 67.4251 267.718 67.4854 267.356 67.4854C266.903 67.4854 266.506 67.399 266.165 67.2261C265.827 67.0533 265.564 66.8221 265.375 66.5327C265.189 66.2392 265.097 65.9116 265.097 65.5497C265.097 65.2 265.167 64.8925 265.307 64.6271C265.447 64.3578 265.648 64.1347 265.912 63.9578C266.175 63.7769 266.492 63.6402 266.862 63.5477C267.232 63.4553 267.646 63.409 268.103 63.409H269.43Z" fill="white"/>
<path d="M274.794 60.8402V67.3648H273.645V60.8402H274.794ZM277.034 60.8402V61.7447H271.448V60.8402H277.034Z" fill="white"/>
<path d="M279.392 65.598L282.472 60.8402H283.62V67.3648H282.472V62.607L279.392 67.3648H278.256V60.8402H279.392V65.598Z" fill="white"/>
<path d="M287.947 64.2472H286.719V63.5598H287.854C288.171 63.5598 288.422 63.5216 288.607 63.4452C288.792 63.3648 288.924 63.2543 289.002 63.1136C289.08 62.9729 289.12 62.808 289.12 62.6191C289.12 62.4503 289.074 62.2915 288.984 62.1427C288.897 61.9899 288.757 61.8673 288.564 61.7749C288.371 61.6784 288.111 61.6302 287.786 61.6302C287.523 61.6302 287.284 61.6764 287.07 61.7688C286.856 61.8573 286.686 61.9799 286.558 62.1367C286.435 62.2894 286.373 62.4623 286.373 62.6553H285.231C285.231 62.2573 285.346 61.9156 285.577 61.6302C285.811 61.3407 286.122 61.1176 286.509 60.9608C286.9 60.804 287.325 60.7256 287.786 60.7256C288.173 60.7256 288.519 60.7678 288.823 60.8523C289.132 60.9327 289.393 61.0533 289.607 61.2141C289.821 61.3709 289.984 61.5678 290.095 61.805C290.21 62.0382 290.268 62.3095 290.268 62.6191C290.268 62.8402 290.214 63.0492 290.107 63.2462C290 63.4432 289.846 63.6181 289.644 63.7709C289.443 63.9196 289.198 64.0362 288.91 64.1206C288.626 64.205 288.305 64.2472 287.947 64.2472ZM286.719 63.8251H287.947C288.346 63.8251 288.698 63.8633 289.002 63.9397C289.307 64.0121 289.562 64.1206 289.768 64.2653C289.973 64.41 290.128 64.5889 290.231 64.802C290.338 65.0111 290.391 65.2523 290.391 65.5256C290.391 65.8312 290.327 66.1065 290.2 66.3518C290.076 66.593 289.899 66.798 289.669 66.9668C289.438 67.1357 289.163 67.2643 288.842 67.3528C288.525 67.4412 288.173 67.4854 287.786 67.4854C287.354 67.4854 286.935 67.4131 286.527 67.2683C286.12 67.1236 285.784 66.9005 285.521 66.599C285.258 66.2935 285.126 65.9055 285.126 65.4352H286.268C286.268 65.6322 286.332 65.8191 286.459 65.996C286.587 66.1729 286.764 66.3156 286.99 66.4241C287.221 66.5327 287.486 66.5869 287.786 66.5869C288.107 66.5869 288.375 66.5387 288.589 66.4422C288.803 66.3457 288.963 66.2171 289.07 66.0563C289.181 65.8955 289.237 65.7206 289.237 65.5317C289.237 65.2864 289.187 65.0894 289.089 64.9407C288.99 64.792 288.838 64.6834 288.632 64.6151C288.43 64.5427 288.171 64.5065 287.854 64.5065H286.719V63.8251Z" fill="white"/>
<path d="M295.81 66.2492V62.8905C295.81 62.6332 295.757 62.4101 295.65 62.2211C295.547 62.0281 295.391 61.8794 295.181 61.7749C294.971 61.6704 294.712 61.6181 294.403 61.6181C294.115 61.6181 293.862 61.6663 293.644 61.7628C293.43 61.8593 293.261 61.9859 293.138 62.1427C293.018 62.2995 292.959 62.4683 292.959 62.6492H291.817C291.817 62.4161 291.879 62.1849 292.002 61.9558C292.126 61.7266 292.302 61.5196 292.533 61.3347C292.767 61.1457 293.047 60.997 293.372 60.8884C293.702 60.7759 294.068 60.7196 294.471 60.7196C294.957 60.7196 295.385 60.8 295.755 60.9608C296.129 61.1216 296.421 61.3648 296.631 61.6905C296.845 62.0121 296.952 62.4161 296.952 62.9025V65.9417C296.952 66.1588 296.971 66.3899 297.008 66.6352C297.049 66.8804 297.109 67.0915 297.187 67.2683V67.3648H295.996C295.938 67.2362 295.893 67.0653 295.86 66.8523C295.827 66.6352 295.81 66.4342 295.81 66.2492ZM296.008 63.409L296.02 64.193H294.866C294.541 64.193 294.251 64.2191 293.996 64.2714C293.741 64.3196 293.527 64.394 293.354 64.4945C293.181 64.595 293.049 64.7216 292.959 64.8744C292.868 65.0231 292.823 65.198 292.823 65.399C292.823 65.604 292.87 65.791 292.965 65.9598C293.06 66.1286 293.202 66.2633 293.391 66.3638C293.584 66.4603 293.821 66.5085 294.101 66.5085C294.45 66.5085 294.759 66.4362 295.027 66.2915C295.294 66.1467 295.506 65.9698 295.662 65.7608C295.823 65.5518 295.909 65.3487 295.922 65.1518L296.409 65.6884C296.38 65.8573 296.302 66.0442 296.175 66.2492C296.047 66.4543 295.876 66.6513 295.662 66.8402C295.452 67.0251 295.201 67.1799 294.909 67.3045C294.621 67.4251 294.296 67.4854 293.934 67.4854C293.481 67.4854 293.084 67.399 292.743 67.2261C292.405 67.0533 292.142 66.8221 291.953 66.5327C291.768 66.2392 291.675 65.9116 291.675 65.5497C291.675 65.2 291.745 64.8925 291.885 64.6271C292.025 64.3578 292.226 64.1347 292.49 63.9578C292.753 63.7769 293.07 63.6402 293.44 63.5477C293.811 63.4553 294.224 63.409 294.681 63.409H296.008Z" fill="white"/>
<path d="M298.847 67.3648V60.8402H299.989V66.4482H303.063V60.8402H304.211V67.3648H298.847ZM305.001 66.4482L304.89 69.3005H303.872V67.3648H303.001V66.4482H305.001Z" fill="white"/>
<path d="M307.476 65.598L310.556 60.8402H311.704V67.3648H310.556V62.607L307.476 67.3648H306.34V60.8402H307.476V65.598Z" fill="white"/>
<path d="M314.772 65.598L317.852 60.8402H319V67.3648H317.852V62.607L314.772 67.3648H313.636V60.8402H314.772V65.598Z" fill="white"/>
</g>
</svg>
