<svg width="273" height="53" viewBox="0 0 273 53" fill="none" xmlns="http://www.w3.org/2000/svg">
<g opacity="0.6">
<path d="M5.80504 43.4874V50.804H4.79455V44.2814H1.01575V50.804H0V43.4874H5.80504Z" fill="#6C757D"/>
<path d="M7.24183 48.1457V48.0302C7.24183 47.6382 7.30147 47.2747 7.42077 46.9397C7.54006 46.6013 7.71198 46.3082 7.93653 46.0603C8.16109 45.809 8.43301 45.6147 8.75229 45.4774C9.07158 45.3367 9.42946 45.2663 9.82594 45.2663C10.2259 45.2663 10.5856 45.3367 10.9048 45.4774C11.2276 45.6147 11.5013 45.809 11.7259 46.0603C11.9539 46.3082 12.1276 46.6013 12.2469 46.9397C12.3662 47.2747 12.4258 47.6382 12.4258 48.0302V48.1457C12.4258 48.5377 12.3662 48.9012 12.2469 49.2362C12.1276 49.5712 11.9539 49.8643 11.7259 50.1156C11.5013 50.3635 11.2294 50.5578 10.9101 50.6985C10.5943 50.8358 10.2364 50.9045 9.83646 50.9045C9.43648 50.9045 9.07684 50.8358 8.75756 50.6985C8.43827 50.5578 8.1646 50.3635 7.93653 50.1156C7.71198 49.8643 7.54006 49.5712 7.42077 49.2362C7.30147 48.9012 7.24183 48.5377 7.24183 48.1457ZM8.21547 48.0302V48.1457C8.21547 48.4171 8.2488 48.6734 8.31547 48.9146C8.38213 49.1524 8.48213 49.3635 8.61546 49.5477C8.75229 49.732 8.92246 49.8777 9.12596 49.9849C9.32946 50.0888 9.5663 50.1407 9.83646 50.1407C10.1031 50.1407 10.3364 50.0888 10.5364 49.9849C10.7399 49.8777 10.9083 49.732 11.0417 49.5477C11.175 49.3635 11.275 49.1524 11.3417 48.9146C11.4118 48.6734 11.4469 48.4171 11.4469 48.1457V48.0302C11.4469 47.7621 11.4118 47.5092 11.3417 47.2714C11.275 47.0302 11.1733 46.8174 11.0364 46.6332C10.9031 46.4456 10.7347 46.2982 10.5312 46.191C10.3312 46.0838 10.0961 46.0302 9.82594 46.0302C9.55928 46.0302 9.3242 46.0838 9.1207 46.191C8.92071 46.2982 8.75229 46.4456 8.61546 46.6332C8.48213 46.8174 8.38213 47.0302 8.31547 47.2714C8.2488 47.5092 8.21547 47.7621 8.21547 48.0302Z" fill="#6C757D"/>
<path d="M14.2942 45.3668H15.2678L15.1836 47.402C15.1626 47.9179 15.1012 48.3635 14.9994 48.7387C14.8977 49.1139 14.7678 49.4338 14.61 49.6985C14.4521 49.9598 14.2749 50.1792 14.0784 50.3568C13.8854 50.5343 13.6854 50.6834 13.4784 50.804H12.9942L13.0205 50.0452L13.2205 50.0402C13.3363 49.9095 13.4486 49.7755 13.5574 49.6382C13.6661 49.4975 13.7661 49.3317 13.8574 49.1407C13.9486 48.9464 14.024 48.7102 14.0837 48.4322C14.1468 48.1508 14.1872 47.8074 14.2047 47.402L14.2942 45.3668ZM14.5363 45.3668H17.9625V50.804H16.9888V46.2261H14.5363V45.3668ZM12.7732 50.0402H18.694V52.407H17.7204V50.804H13.7468V52.407H12.7679L12.7732 50.0402Z" fill="#6C757D"/>
<path d="M23.4254 43H24.2254C24.2254 43.3283 24.1727 43.5896 24.0675 43.7839C23.9622 43.9749 23.8184 44.1223 23.6359 44.2261C23.457 44.33 23.2535 44.4087 23.0254 44.4623C22.8009 44.5159 22.5675 44.5678 22.3255 44.6181C22.0237 44.6784 21.743 44.7739 21.4834 44.9045C21.2272 45.0318 21.0062 45.2127 20.8202 45.4472C20.6378 45.6817 20.5027 45.9866 20.415 46.3618C20.3308 46.737 20.308 47.201 20.3466 47.7538V48.2161H19.5466V47.7538C19.5466 47.134 19.608 46.593 19.7308 46.1307C19.8571 45.6683 20.0343 45.2781 20.2624 44.9598C20.4904 44.6415 20.7606 44.3886 21.0729 44.201C21.3886 44.0134 21.736 43.8844 22.1149 43.8141C22.3886 43.7638 22.6237 43.7102 22.8202 43.6533C23.0167 43.593 23.1658 43.5126 23.2675 43.4121C23.3728 43.3116 23.4254 43.1742 23.4254 43ZM22.2728 45.6784C22.6447 45.6784 22.9763 45.7404 23.2675 45.8643C23.5587 45.9883 23.8061 46.1608 24.0096 46.3819C24.2131 46.603 24.3675 46.8643 24.4727 47.1658C24.5815 47.464 24.6359 47.7889 24.6359 48.1407V48.2513C24.6359 48.6298 24.578 48.9816 24.4622 49.3065C24.3499 49.6281 24.1833 49.9095 23.9622 50.1508C23.7447 50.3886 23.478 50.5745 23.1623 50.7085C22.85 50.8425 22.4939 50.9095 22.0939 50.9095C21.6939 50.9095 21.336 50.8425 21.0202 50.7085C20.708 50.5745 20.4413 50.3886 20.2203 50.1508C19.9992 49.9095 19.8308 49.6281 19.715 49.3065C19.6028 48.9816 19.5466 48.6298 19.5466 48.2513V48.1407C19.5466 48.057 19.5624 47.9749 19.594 47.8945C19.6256 47.8141 19.6642 47.732 19.7098 47.6482C19.7589 47.5645 19.8027 47.4757 19.8413 47.3819C19.9712 47.0804 20.1483 46.8007 20.3729 46.5427C20.601 46.2848 20.8729 46.0771 21.1887 45.9196C21.5079 45.7588 21.8693 45.6784 22.2728 45.6784ZM22.0834 46.4372C21.7255 46.4372 21.4307 46.5159 21.1992 46.6734C20.9711 46.8308 20.8009 47.0402 20.6887 47.3015C20.5764 47.5595 20.5203 47.8392 20.5203 48.1407V48.2513C20.5203 48.5059 20.5518 48.7471 20.615 48.9749C20.6781 49.2027 20.7729 49.4054 20.8992 49.5829C21.029 49.7571 21.1922 49.8945 21.3886 49.995C21.5886 50.0955 21.8237 50.1457 22.0939 50.1457C22.364 50.1457 22.5974 50.0955 22.7939 49.995C22.9903 49.8945 23.1517 49.7571 23.278 49.5829C23.4044 49.4054 23.4991 49.2027 23.5622 48.9749C23.6254 48.7471 23.657 48.5059 23.657 48.2513V48.1407C23.657 47.9129 23.6254 47.6968 23.5622 47.4925C23.4991 47.2881 23.4026 47.1072 23.2728 46.9497C23.1465 46.7923 22.9833 46.6683 22.7833 46.5779C22.5868 46.4841 22.3535 46.4372 22.0834 46.4372Z" fill="#6C757D"/>
<path d="M25.4832 48.1457V48.0302C25.4832 47.6382 25.5429 47.2747 25.6622 46.9397C25.7815 46.6013 25.9534 46.3082 26.1779 46.0603C26.4025 45.809 26.6744 45.6147 26.9937 45.4774C27.313 45.3367 27.6709 45.2663 28.0673 45.2663C28.4673 45.2663 28.827 45.3367 29.1462 45.4774C29.469 45.6147 29.7427 45.809 29.9673 46.0603C30.1953 46.3082 30.369 46.6013 30.4883 46.9397C30.6076 47.2747 30.6672 47.6382 30.6672 48.0302V48.1457C30.6672 48.5377 30.6076 48.9012 30.4883 49.2362C30.369 49.5712 30.1953 49.8643 29.9673 50.1156C29.7427 50.3635 29.4708 50.5578 29.1515 50.6985C28.8357 50.8358 28.4778 50.9045 28.0779 50.9045C27.6779 50.9045 27.3182 50.8358 26.999 50.6985C26.6797 50.5578 26.406 50.3635 26.1779 50.1156C25.9534 49.8643 25.7815 49.5712 25.6622 49.2362C25.5429 48.9012 25.4832 48.5377 25.4832 48.1457ZM26.4569 48.0302V48.1457C26.4569 48.4171 26.4902 48.6734 26.5569 48.9146C26.6235 49.1524 26.7235 49.3635 26.8569 49.5477C26.9937 49.732 27.1639 49.8777 27.3674 49.9849C27.5709 50.0888 27.8077 50.1407 28.0779 50.1407C28.3445 50.1407 28.5778 50.0888 28.7778 49.9849C28.9813 49.8777 29.1497 49.732 29.2831 49.5477C29.4164 49.3635 29.5164 49.1524 29.5831 48.9146C29.6532 48.6734 29.6883 48.4171 29.6883 48.1457V48.0302C29.6883 47.7621 29.6532 47.5092 29.5831 47.2714C29.5164 47.0302 29.4147 46.8174 29.2778 46.6332C29.1445 46.4456 28.9761 46.2982 28.7726 46.191C28.5726 46.0838 28.3375 46.0302 28.0673 46.0302C27.8007 46.0302 27.5656 46.0838 27.3621 46.191C27.1621 46.2982 26.9937 46.4456 26.8569 46.6332C26.7235 46.8174 26.6235 47.0302 26.5569 47.2714C26.4902 47.5092 26.4569 47.7621 26.4569 48.0302Z" fill="#6C757D"/>
<path d="M32.8619 46.4121V52.8945H31.883V45.3668H32.7777L32.8619 46.4121ZM36.6986 48.0402V48.1457C36.6986 48.541 36.6495 48.9079 36.5512 49.2462C36.453 49.5812 36.3091 49.8727 36.1197 50.1206C35.9337 50.3685 35.7039 50.5611 35.4302 50.6985C35.1565 50.8358 34.8425 50.9045 34.4881 50.9045C34.1267 50.9045 33.8075 50.8476 33.5303 50.7337C33.2531 50.6198 33.018 50.4539 32.825 50.2362C32.6321 50.0184 32.4777 49.7571 32.3619 49.4523C32.2496 49.1474 32.1724 48.804 32.1303 48.4221V47.8593C32.1724 47.4573 32.2514 47.0972 32.3672 46.7789C32.483 46.4606 32.6356 46.1893 32.825 45.9648C33.018 45.737 33.2513 45.5645 33.525 45.4472C33.7987 45.3266 34.1145 45.2663 34.4724 45.2663C34.8302 45.2663 35.1478 45.3333 35.4249 45.4673C35.7021 45.598 35.9355 45.7856 36.1249 46.0302C36.3144 46.2747 36.4565 46.5678 36.5512 46.9095C36.6495 47.2479 36.6986 47.6248 36.6986 48.0402ZM35.7197 48.1457V48.0402C35.7197 47.7688 35.6898 47.5142 35.6302 47.2764C35.5706 47.0352 35.4776 46.8241 35.3513 46.6432C35.2285 46.459 35.0706 46.3149 34.8776 46.2111C34.6846 46.1039 34.4548 46.0503 34.1882 46.0503C33.9425 46.0503 33.7285 46.0905 33.5461 46.1709C33.3671 46.2513 33.2145 46.3601 33.0882 46.4975C32.9619 46.6315 32.8584 46.7856 32.7777 46.9598C32.7005 47.1307 32.6426 47.3082 32.604 47.4925V48.794C32.6742 49.0285 32.7724 49.2496 32.8987 49.4573C33.025 49.6616 33.1935 49.8275 33.404 49.9548C33.6145 50.0787 33.8794 50.1407 34.1987 50.1407C34.4618 50.1407 34.6881 50.0888 34.8776 49.9849C35.0706 49.8777 35.2285 49.732 35.3513 49.5477C35.4776 49.3635 35.5706 49.1524 35.6302 48.9146C35.6898 48.6734 35.7197 48.4171 35.7197 48.1457Z" fill="#6C757D"/>
<path d="M41.6668 49.3317L44.293 45.3668H45.2719V50.804H44.293V46.8392L41.6668 50.804H40.6984V45.3668H41.6668V49.3317Z" fill="#6C757D"/>
<path d="M53.3032 45.3668V46.1357H50.4244V45.3668H53.3032ZM50.5665 45.3668V50.804H49.5928V45.3668H50.5665ZM54.1663 45.3668V50.804H53.1874V45.3668H54.1663Z" fill="#6C757D"/>
<path d="M55.4715 48.1457V48.0302C55.4715 47.6382 55.5312 47.2747 55.6505 46.9397C55.7698 46.6013 55.9417 46.3082 56.1662 46.0603C56.3908 45.809 56.6627 45.6147 56.982 45.4774C57.3013 45.3367 57.6592 45.2663 58.0556 45.2663C58.4556 45.2663 58.8153 45.3367 59.1346 45.4774C59.4573 45.6147 59.731 45.809 59.9556 46.0603C60.1836 46.3082 60.3573 46.6013 60.4766 46.9397C60.5959 47.2747 60.6555 47.6382 60.6555 48.0302V48.1457C60.6555 48.5377 60.5959 48.9012 60.4766 49.2362C60.3573 49.5712 60.1836 49.8643 59.9556 50.1156C59.731 50.3635 59.4591 50.5578 59.1398 50.6985C58.824 50.8358 58.4662 50.9045 58.0662 50.9045C57.6662 50.9045 57.3066 50.8358 56.9873 50.6985C56.668 50.5578 56.3943 50.3635 56.1662 50.1156C55.9417 49.8643 55.7698 49.5712 55.6505 49.2362C55.5312 48.9012 55.4715 48.5377 55.4715 48.1457ZM56.4452 48.0302V48.1457C56.4452 48.4171 56.4785 48.6734 56.5452 48.9146C56.6118 49.1524 56.7118 49.3635 56.8452 49.5477C56.982 49.732 57.1522 49.8777 57.3557 49.9849C57.5592 50.0888 57.796 50.1407 58.0662 50.1407C58.3328 50.1407 58.5662 50.0888 58.7661 49.9849C58.9696 49.8777 59.1381 49.732 59.2714 49.5477C59.4047 49.3635 59.5047 49.1524 59.5714 48.9146C59.6416 48.6734 59.6766 48.4171 59.6766 48.1457V48.0302C59.6766 47.7621 59.6416 47.5092 59.5714 47.2714C59.5047 47.0302 59.403 46.8174 59.2661 46.6332C59.1328 46.4456 58.9644 46.2982 58.7609 46.191C58.5609 46.0838 58.3258 46.0302 58.0556 46.0302C57.789 46.0302 57.5539 46.0838 57.3504 46.191C57.1504 46.2982 56.982 46.4456 56.8452 46.6332C56.7118 46.8174 56.6118 47.0302 56.5452 47.2714C56.4785 47.5092 56.4452 47.7621 56.4452 48.0302Z" fill="#6C757D"/>
<path d="M64.1554 50.1407C64.387 50.1407 64.601 50.0955 64.7975 50.005C64.994 49.9146 65.1554 49.7906 65.2817 49.6332C65.408 49.4724 65.4799 49.2898 65.4975 49.0854H66.4237C66.4062 49.407 66.2922 49.7069 66.0817 49.9849C65.8746 50.2596 65.6027 50.4824 65.2659 50.6533C64.9291 50.8208 64.5589 50.9045 64.1554 50.9045C63.7274 50.9045 63.3537 50.8325 63.0344 50.6884C62.7186 50.5444 62.4555 50.3467 62.245 50.0955C62.038 49.8442 61.8818 49.5561 61.7766 49.2312C61.6748 48.9028 61.6239 48.5561 61.6239 48.191V47.9799C61.6239 47.6147 61.6748 47.2697 61.7766 46.9447C61.8818 46.6164 62.038 46.3266 62.245 46.0754C62.4555 45.8241 62.7186 45.6265 63.0344 45.4824C63.3537 45.3384 63.7274 45.2663 64.1554 45.2663C64.601 45.2663 64.9905 45.3534 65.3238 45.5276C65.6571 45.6985 65.9185 45.933 66.108 46.2312C66.3009 46.526 66.4062 46.861 66.4237 47.2362H65.4975C65.4799 47.0117 65.4133 46.809 65.2975 46.6281C65.1852 46.4472 65.0308 46.3032 64.8343 46.196C64.6414 46.0854 64.4151 46.0302 64.1554 46.0302C63.8572 46.0302 63.6063 46.0871 63.4028 46.201C63.2028 46.3116 63.0432 46.4623 62.9239 46.6533C62.8081 46.8409 62.7239 47.0503 62.6713 47.2814C62.6221 47.5092 62.5976 47.742 62.5976 47.9799V48.191C62.5976 48.4288 62.6221 48.6633 62.6713 48.8945C62.7204 49.1256 62.8028 49.335 62.9186 49.5226C63.0379 49.7102 63.1976 49.861 63.3975 49.9749C63.601 50.0854 63.8537 50.1407 64.1554 50.1407Z" fill="#6C757D"/>
<path d="M69.8394 45.3668V50.804H68.8605V45.3668H69.8394ZM71.7499 45.3668V46.1206H66.9869V45.3668H71.7499Z" fill="#6C757D"/>
<path d="M75.9813 49.8744V47.0754C75.9813 46.861 75.9357 46.675 75.8444 46.5176C75.7567 46.3568 75.6234 46.2328 75.4444 46.1457C75.2655 46.0586 75.0445 46.0151 74.7813 46.0151C74.5357 46.0151 74.3199 46.0553 74.134 46.1357C73.9515 46.2161 73.8077 46.3216 73.7024 46.4523C73.6007 46.5829 73.5498 46.7236 73.5498 46.8744H72.5761C72.5761 46.6801 72.6288 46.4874 72.734 46.2965C72.8393 46.1055 72.9902 45.933 73.1866 45.7789C73.3866 45.6214 73.6252 45.4975 73.9024 45.407C74.1831 45.3132 74.4954 45.2663 74.8392 45.2663C75.2532 45.2663 75.6181 45.3333 75.9339 45.4673C76.2532 45.6013 76.5023 45.804 76.6812 46.0754C76.8637 46.3434 76.9549 46.6801 76.9549 47.0854V49.6181C76.9549 49.799 76.9707 49.9916 77.0023 50.196C77.0374 50.4003 77.0882 50.5762 77.1549 50.7236V50.804H76.1392C76.09 50.6968 76.0514 50.5544 76.0234 50.3769C75.9953 50.196 75.9813 50.0285 75.9813 49.8744ZM76.1497 47.5075L76.1602 48.1608H75.176C74.8989 48.1608 74.6515 48.1826 74.434 48.2261C74.2164 48.2663 74.034 48.3283 73.8866 48.4121C73.7393 48.4958 73.627 48.6013 73.5498 48.7286C73.4726 48.8526 73.434 48.9983 73.434 49.1658C73.434 49.3367 73.4743 49.4925 73.555 49.6332C73.6357 49.7739 73.7568 49.8861 73.9182 49.9698C74.0831 50.0503 74.2848 50.0905 74.5234 50.0905C74.8217 50.0905 75.0848 50.0302 75.3129 49.9095C75.5409 49.7889 75.7216 49.6415 75.855 49.4673C75.9918 49.2931 76.0655 49.124 76.076 48.9598L76.4918 49.407C76.4672 49.5477 76.4006 49.7035 76.2918 49.8744C76.183 50.0452 76.0374 50.2094 75.855 50.3668C75.676 50.5209 75.462 50.6499 75.2129 50.7538C74.9673 50.8543 74.6901 50.9045 74.3813 50.9045C73.9954 50.9045 73.6568 50.8325 73.3656 50.6884C73.0779 50.5444 72.8533 50.3518 72.6919 50.1106C72.534 49.866 72.4551 49.593 72.4551 49.2915C72.4551 49 72.5147 48.7437 72.634 48.5226C72.7533 48.2982 72.9252 48.1122 73.1498 47.9648C73.3744 47.8141 73.6445 47.7002 73.9603 47.6231C74.2761 47.5461 74.6287 47.5075 75.0181 47.5075H76.1497Z" fill="#6C757D"/>
<path d="M81.16 48.4121H79.2917L79.2811 47.6683H80.8074C81.1091 47.6683 81.36 47.6399 81.56 47.5829C81.7635 47.526 81.9161 47.4405 82.0179 47.3266C82.1196 47.2127 82.1705 47.072 82.1705 46.9045C82.1705 46.7739 82.1407 46.66 82.081 46.5628C82.0249 46.4623 81.9389 46.3802 81.8231 46.3166C81.7074 46.2496 81.5635 46.201 81.3916 46.1709C81.2232 46.1374 81.0249 46.1206 80.7969 46.1206H79.5496V50.804H78.5759V45.3668H80.7969C81.1583 45.3668 81.4828 45.397 81.7705 45.4573C82.0617 45.5176 82.3091 45.6097 82.5126 45.7337C82.7196 45.8543 82.8775 46.0084 82.9863 46.196C83.095 46.3836 83.1494 46.6047 83.1494 46.8593C83.1494 47.0235 83.1143 47.1792 83.0442 47.3266C82.974 47.474 82.8705 47.6047 82.7336 47.7186C82.5968 47.8325 82.4284 47.9263 82.2284 48C82.0284 48.0704 81.7986 48.1156 81.5389 48.1357L81.16 48.4121ZM81.16 50.804H78.9391L79.4232 50.0503H81.16C81.4302 50.0503 81.6547 50.0184 81.8337 49.9548C82.0126 49.8878 82.1459 49.794 82.2337 49.6734C82.3249 49.5494 82.3705 49.402 82.3705 49.2312C82.3705 49.0603 82.3249 48.9146 82.2337 48.794C82.1459 48.67 82.0126 48.5762 81.8337 48.5126C81.6547 48.4456 81.4302 48.4121 81.16 48.4121H79.6811L79.6917 47.6683H81.5389L81.8916 47.9497C82.2038 47.9732 82.4687 48.0469 82.6863 48.1709C82.9038 48.2948 83.0687 48.4523 83.181 48.6432C83.2933 48.8308 83.3494 49.0352 83.3494 49.2563C83.3494 49.5109 83.2985 49.7353 83.1968 49.9296C83.0985 50.124 82.9547 50.2864 82.7652 50.4171C82.5758 50.5444 82.3459 50.6415 82.0758 50.7085C81.8056 50.7722 81.5004 50.804 81.16 50.804Z" fill="#6C757D"/>
<path d="M85.7125 45.3668V50.804H84.7388V45.3668H85.7125ZM89.4492 45.3668L86.7493 48.4824H85.3862L85.2388 47.6683H86.3546L88.265 45.3668H89.4492ZM88.4018 50.804L86.3072 48.3417L86.9335 47.6683L89.6386 50.804H88.4018Z" fill="#6C757D"/>
<path d="M93.8437 49.8744V47.0754C93.8437 46.861 93.7981 46.675 93.7069 46.5176C93.6192 46.3568 93.4859 46.2328 93.3069 46.1457C93.128 46.0586 92.9069 46.0151 92.6438 46.0151C92.3982 46.0151 92.1824 46.0553 91.9964 46.1357C91.814 46.2161 91.6701 46.3216 91.5649 46.4523C91.4631 46.5829 91.4123 46.7236 91.4123 46.8744H90.4386C90.4386 46.6801 90.4912 46.4874 90.5965 46.2965C90.7018 46.1055 90.8526 45.933 91.0491 45.7789C91.2491 45.6214 91.4877 45.4975 91.7649 45.407C92.0456 45.3132 92.3578 45.2663 92.7017 45.2663C93.1157 45.2663 93.4806 45.3333 93.7964 45.4673C94.1157 45.6013 94.3648 45.804 94.5437 46.0754C94.7262 46.3434 94.8174 46.6801 94.8174 47.0854V49.6181C94.8174 49.799 94.8332 49.9916 94.8647 50.196C94.8998 50.4003 94.9507 50.5762 95.0174 50.7236V50.804H94.0016C93.9525 50.6968 93.9139 50.5544 93.8858 50.3769C93.8578 50.196 93.8437 50.0285 93.8437 49.8744ZM94.0122 47.5075L94.0227 48.1608H93.0385C92.7613 48.1608 92.514 48.1826 92.2964 48.2261C92.0789 48.2663 91.8964 48.3283 91.7491 48.4121C91.6017 48.4958 91.4894 48.6013 91.4123 48.7286C91.3351 48.8526 91.2965 48.9983 91.2965 49.1658C91.2965 49.3367 91.3368 49.4925 91.4175 49.6332C91.4982 49.7739 91.6193 49.8861 91.7807 49.9698C91.9456 50.0503 92.1473 50.0905 92.3859 50.0905C92.6841 50.0905 92.9473 50.0302 93.1753 49.9095C93.4034 49.7889 93.5841 49.6415 93.7174 49.4673C93.8543 49.2931 93.9279 49.124 93.9385 48.9598L94.3542 49.407C94.3297 49.5477 94.263 49.7035 94.1543 49.8744C94.0455 50.0452 93.8999 50.2094 93.7174 50.3668C93.5385 50.5209 93.3245 50.6499 93.0753 50.7538C92.8297 50.8543 92.5526 50.9045 92.2438 50.9045C91.8578 50.9045 91.5193 50.8325 91.228 50.6884C90.9403 50.5444 90.7158 50.3518 90.5544 50.1106C90.3965 49.866 90.3176 49.593 90.3176 49.2915C90.3176 49 90.3772 48.7437 90.4965 48.5226C90.6158 48.2982 90.7877 48.1122 91.0123 47.9648C91.2368 47.8141 91.507 47.7002 91.8228 47.6231C92.1385 47.5461 92.4912 47.5075 92.8806 47.5075H94.0122Z" fill="#6C757D"/>
<path d="M98.7646 48.1457V48.0302C98.7646 47.6382 98.8242 47.2747 98.9435 46.9397C99.0628 46.6013 99.2348 46.3082 99.4593 46.0603C99.6839 45.809 99.9558 45.6147 100.275 45.4774C100.594 45.3367 100.952 45.2663 101.349 45.2663C101.749 45.2663 102.108 45.3367 102.428 45.4774C102.75 45.6147 103.024 45.809 103.249 46.0603C103.477 46.3082 103.65 46.6013 103.77 46.9397C103.889 47.2747 103.949 47.6382 103.949 48.0302V48.1457C103.949 48.5377 103.889 48.9012 103.77 49.2362C103.65 49.5712 103.477 49.8643 103.249 50.1156C103.024 50.3635 102.752 50.5578 102.433 50.6985C102.117 50.8358 101.759 50.9045 101.359 50.9045C100.959 50.9045 100.6 50.8358 100.28 50.6985C99.961 50.5578 99.6874 50.3635 99.4593 50.1156C99.2348 49.8643 99.0628 49.5712 98.9435 49.2362C98.8242 48.9012 98.7646 48.5377 98.7646 48.1457ZM99.7382 48.0302V48.1457C99.7382 48.4171 99.7716 48.6734 99.8382 48.9146C99.9049 49.1524 100.005 49.3635 100.138 49.5477C100.275 49.732 100.445 49.8777 100.649 49.9849C100.852 50.0888 101.089 50.1407 101.359 50.1407C101.626 50.1407 101.859 50.0888 102.059 49.9849C102.263 49.8777 102.431 49.732 102.564 49.5477C102.698 49.3635 102.798 49.1524 102.864 48.9146C102.935 48.6734 102.97 48.4171 102.97 48.1457V48.0302C102.97 47.7621 102.935 47.5092 102.864 47.2714C102.798 47.0302 102.696 46.8174 102.559 46.6332C102.426 46.4456 102.257 46.2982 102.054 46.191C101.854 46.0838 101.619 46.0302 101.349 46.0302C101.082 46.0302 100.847 46.0838 100.643 46.191C100.443 46.2982 100.275 46.4456 100.138 46.6332C100.005 46.8174 99.9049 47.0302 99.8382 47.2714C99.7716 47.5092 99.7382 47.7621 99.7382 48.0302Z" fill="#6C757D"/>
<path d="M108.822 43H109.622C109.622 43.3283 109.569 43.5896 109.464 43.7839C109.359 43.9749 109.215 44.1223 109.033 44.2261C108.854 44.33 108.65 44.4087 108.422 44.4623C108.198 44.5159 107.964 44.5678 107.722 44.6181C107.42 44.6784 107.14 44.7739 106.88 44.9045C106.624 45.0318 106.403 45.2127 106.217 45.4472C106.034 45.6817 105.899 45.9866 105.812 46.3618C105.727 46.737 105.705 47.201 105.743 47.7538V48.2161H104.943V47.7538C104.943 47.134 105.005 46.593 105.128 46.1307C105.254 45.6683 105.431 45.2781 105.659 44.9598C105.887 44.6415 106.157 44.3886 106.47 44.201C106.785 44.0134 107.133 43.8844 107.512 43.8141C107.785 43.7638 108.02 43.7102 108.217 43.6533C108.413 43.593 108.562 43.5126 108.664 43.4121C108.769 43.3116 108.822 43.1742 108.822 43ZM107.67 45.6784C108.041 45.6784 108.373 45.7404 108.664 45.8643C108.955 45.9883 109.203 46.1608 109.406 46.3819C109.61 46.603 109.764 46.8643 109.869 47.1658C109.978 47.464 110.033 47.7889 110.033 48.1407V48.2513C110.033 48.6298 109.975 48.9816 109.859 49.3065C109.747 49.6281 109.58 49.9095 109.359 50.1508C109.141 50.3886 108.875 50.5745 108.559 50.7085C108.247 50.8425 107.891 50.9095 107.491 50.9095C107.091 50.9095 106.733 50.8425 106.417 50.7085C106.105 50.5745 105.838 50.3886 105.617 50.1508C105.396 49.9095 105.228 49.6281 105.112 49.3065C104.999 48.9816 104.943 48.6298 104.943 48.2513V48.1407C104.943 48.057 104.959 47.9749 104.991 47.8945C105.022 47.8141 105.061 47.732 105.106 47.6482C105.156 47.5645 105.199 47.4757 105.238 47.3819C105.368 47.0804 105.545 46.8007 105.77 46.5427C105.998 46.2848 106.27 46.0771 106.585 45.9196C106.905 45.7588 107.266 45.6784 107.67 45.6784ZM107.48 46.4372C107.122 46.4372 106.827 46.5159 106.596 46.6734C106.368 46.8308 106.198 47.0402 106.085 47.3015C105.973 47.5595 105.917 47.8392 105.917 48.1407V48.2513C105.917 48.5059 105.949 48.7471 106.012 48.9749C106.075 49.2027 106.17 49.4054 106.296 49.5829C106.426 49.7571 106.589 49.8945 106.785 49.995C106.985 50.0955 107.22 50.1457 107.491 50.1457C107.761 50.1457 107.994 50.0955 108.191 49.995C108.387 49.8945 108.548 49.7571 108.675 49.5829C108.801 49.4054 108.896 49.2027 108.959 48.9749C109.022 48.7471 109.054 48.5059 109.054 48.2513V48.1407C109.054 47.9129 109.022 47.6968 108.959 47.4925C108.896 47.2881 108.799 47.1072 108.669 46.9497C108.543 46.7923 108.38 46.6683 108.18 46.5779C107.984 46.4841 107.75 46.4372 107.48 46.4372Z" fill="#6C757D"/>
<path d="M110.88 48.1457V48.0302C110.88 47.6382 110.94 47.2747 111.059 46.9397C111.178 46.6013 111.35 46.3082 111.575 46.0603C111.799 45.809 112.071 45.6147 112.39 45.4774C112.71 45.3367 113.068 45.2663 113.464 45.2663C113.864 45.2663 114.224 45.3367 114.543 45.4774C114.866 45.6147 115.139 45.809 115.364 46.0603C115.592 46.3082 115.766 46.6013 115.885 46.9397C116.004 47.2747 116.064 47.6382 116.064 48.0302V48.1457C116.064 48.5377 116.004 48.9012 115.885 49.2362C115.766 49.5712 115.592 49.8643 115.364 50.1156C115.139 50.3635 114.867 50.5578 114.548 50.6985C114.232 50.8358 113.875 50.9045 113.475 50.9045C113.075 50.9045 112.715 50.8358 112.396 50.6985C112.076 50.5578 111.803 50.3635 111.575 50.1156C111.35 49.8643 111.178 49.5712 111.059 49.2362C110.94 48.9012 110.88 48.5377 110.88 48.1457ZM111.854 48.0302V48.1457C111.854 48.4171 111.887 48.6734 111.954 48.9146C112.02 49.1524 112.12 49.3635 112.254 49.5477C112.39 49.732 112.561 49.8777 112.764 49.9849C112.968 50.0888 113.204 50.1407 113.475 50.1407C113.741 50.1407 113.975 50.0888 114.175 49.9849C114.378 49.8777 114.546 49.732 114.68 49.5477C114.813 49.3635 114.913 49.1524 114.98 48.9146C115.05 48.6734 115.085 48.4171 115.085 48.1457V48.0302C115.085 47.7621 115.05 47.5092 114.98 47.2714C114.913 47.0302 114.811 46.8174 114.675 46.6332C114.541 46.4456 114.373 46.2982 114.169 46.191C113.969 46.0838 113.734 46.0302 113.464 46.0302C113.197 46.0302 112.962 46.0838 112.759 46.191C112.559 46.2982 112.39 46.4456 112.254 46.6332C112.12 46.8174 112.02 47.0302 111.954 47.2714C111.887 47.5092 111.854 47.7621 111.854 48.0302Z" fill="#6C757D"/>
<path d="M118.259 46.4121V52.8945H117.28V45.3668H118.174L118.259 46.4121ZM122.095 48.0402V48.1457C122.095 48.541 122.046 48.9079 121.948 49.2462C121.85 49.5812 121.706 49.8727 121.516 50.1206C121.33 50.3685 121.101 50.5611 120.827 50.6985C120.553 50.8358 120.239 50.9045 119.885 50.9045C119.523 50.9045 119.204 50.8476 118.927 50.7337C118.65 50.6198 118.415 50.4539 118.222 50.2362C118.029 50.0184 117.874 49.7571 117.759 49.4523C117.646 49.1474 117.569 48.804 117.527 48.4221V47.8593C117.569 47.4573 117.648 47.0972 117.764 46.7789C117.88 46.4606 118.032 46.1893 118.222 45.9648C118.415 45.737 118.648 45.5645 118.922 45.4472C119.195 45.3266 119.511 45.2663 119.869 45.2663C120.227 45.2663 120.544 45.3333 120.822 45.4673C121.099 45.598 121.332 45.7856 121.522 46.0302C121.711 46.2747 121.853 46.5678 121.948 46.9095C122.046 47.2479 122.095 47.6248 122.095 48.0402ZM121.116 48.1457V48.0402C121.116 47.7688 121.087 47.5142 121.027 47.2764C120.967 47.0352 120.874 46.8241 120.748 46.6432C120.625 46.459 120.467 46.3149 120.274 46.2111C120.081 46.1039 119.852 46.0503 119.585 46.0503C119.339 46.0503 119.125 46.0905 118.943 46.1709C118.764 46.2513 118.611 46.3601 118.485 46.4975C118.359 46.6315 118.255 46.7856 118.174 46.9598C118.097 47.1307 118.039 47.3082 118.001 47.4925V48.794C118.071 49.0285 118.169 49.2496 118.295 49.4573C118.422 49.6616 118.59 49.8275 118.801 49.9548C119.011 50.0787 119.276 50.1407 119.595 50.1407C119.859 50.1407 120.085 50.0888 120.274 49.9849C120.467 49.8777 120.625 49.732 120.748 49.5477C120.874 49.3635 120.967 49.1524 121.027 48.9146C121.087 48.6734 121.116 48.4171 121.116 48.1457Z" fill="#6C757D"/>
<path d="M124.874 50.2412L126.458 45.3668H127.5L125.216 51.6432C125.164 51.7772 125.093 51.9213 125.006 52.0754C124.921 52.2328 124.813 52.3819 124.679 52.5226C124.546 52.6633 124.385 52.7772 124.195 52.8643C124.009 52.9548 123.786 53 123.527 53C123.45 53 123.351 52.9899 123.232 52.9698C123.113 52.9497 123.029 52.933 122.979 52.9196L122.974 52.1658C123.002 52.1692 123.046 52.1725 123.106 52.1759C123.169 52.1826 123.213 52.1859 123.237 52.1859C123.458 52.1859 123.646 52.1575 123.8 52.1005C123.955 52.0469 124.085 51.9548 124.19 51.8241C124.299 51.6968 124.392 51.5209 124.469 51.2965L124.874 50.2412ZM123.711 45.3668L125.19 49.5879L125.443 50.5678L124.743 50.9095L122.648 45.3668H123.711Z" fill="#6C757D"/>
<path d="M129.111 45.3668H130.084L130 47.402C129.979 47.9179 129.918 48.3635 129.816 48.7387C129.714 49.1139 129.584 49.4338 129.427 49.6985C129.269 49.9598 129.091 50.1792 128.895 50.3568C128.702 50.5343 128.502 50.6834 128.295 50.804H127.811L127.837 50.0452L128.037 50.0402C128.153 49.9095 128.265 49.7755 128.374 49.6382C128.483 49.4975 128.583 49.3317 128.674 49.1407C128.765 48.9464 128.841 48.7102 128.9 48.4322C128.963 48.1508 129.004 47.8074 129.021 47.402L129.111 45.3668ZM129.353 45.3668H132.779V50.804H131.805V46.2261H129.353V45.3668ZM127.59 50.0402H133.511V52.407H132.537V50.804H128.563V52.407H127.585L127.59 50.0402Z" fill="#6C757D"/>
<path d="M134.332 48.1457V48.0302C134.332 47.6382 134.391 47.2747 134.511 46.9397C134.63 46.6013 134.802 46.3082 135.026 46.0603C135.251 45.809 135.523 45.6147 135.842 45.4774C136.161 45.3367 136.519 45.2663 136.916 45.2663C137.316 45.2663 137.675 45.3367 137.995 45.4774C138.317 45.6147 138.591 45.809 138.816 46.0603C139.044 46.3082 139.217 46.6013 139.337 46.9397C139.456 47.2747 139.516 47.6382 139.516 48.0302V48.1457C139.516 48.5377 139.456 48.9012 139.337 49.2362C139.217 49.5712 139.044 49.8643 138.816 50.1156C138.591 50.3635 138.319 50.5578 138 50.6985C137.684 50.8358 137.326 50.9045 136.926 50.9045C136.526 50.9045 136.167 50.8358 135.847 50.6985C135.528 50.5578 135.254 50.3635 135.026 50.1156C134.802 49.8643 134.63 49.5712 134.511 49.2362C134.391 48.9012 134.332 48.5377 134.332 48.1457ZM135.305 48.0302V48.1457C135.305 48.4171 135.339 48.6734 135.405 48.9146C135.472 49.1524 135.572 49.3635 135.705 49.5477C135.842 49.732 136.012 49.8777 136.216 49.9849C136.419 50.0888 136.656 50.1407 136.926 50.1407C137.193 50.1407 137.426 50.0888 137.626 49.9849C137.83 49.8777 137.998 49.732 138.131 49.5477C138.265 49.3635 138.365 49.1524 138.431 48.9146C138.502 48.6734 138.537 48.4171 138.537 48.1457V48.0302C138.537 47.7621 138.502 47.5092 138.431 47.2714C138.365 47.0302 138.263 46.8174 138.126 46.6332C137.993 46.4456 137.824 46.2982 137.621 46.191C137.421 46.0838 137.186 46.0302 136.916 46.0302C136.649 46.0302 136.414 46.0838 136.211 46.191C136.011 46.2982 135.842 46.4456 135.705 46.6332C135.572 46.8174 135.472 47.0302 135.405 47.2714C135.339 47.5092 135.305 47.7621 135.305 48.0302Z" fill="#6C757D"/>
<path d="M143.41 48.4121H141.542L141.531 47.6683H143.058C143.359 47.6683 143.61 47.6399 143.81 47.5829C144.014 47.526 144.166 47.4405 144.268 47.3266C144.37 47.2127 144.421 47.072 144.421 46.9045C144.421 46.7739 144.391 46.66 144.331 46.5628C144.275 46.4623 144.189 46.3802 144.073 46.3166C143.958 46.2496 143.814 46.201 143.642 46.1709C143.473 46.1374 143.275 46.1206 143.047 46.1206H141.8V50.804H140.826V45.3668H143.047C143.408 45.3668 143.733 45.397 144.021 45.4573C144.312 45.5176 144.559 45.6097 144.763 45.7337C144.97 45.8543 145.128 46.0084 145.236 46.196C145.345 46.3836 145.4 46.6047 145.4 46.8593C145.4 47.0235 145.365 47.1792 145.294 47.3266C145.224 47.474 145.121 47.6047 144.984 47.7186C144.847 47.8325 144.679 47.9263 144.479 48C144.279 48.0704 144.049 48.1156 143.789 48.1357L143.41 48.4121ZM143.41 50.804H141.189L141.673 50.0503H143.41C143.68 50.0503 143.905 50.0184 144.084 49.9548C144.263 49.8878 144.396 49.794 144.484 49.6734C144.575 49.5494 144.621 49.402 144.621 49.2312C144.621 49.0603 144.575 48.9146 144.484 48.794C144.396 48.67 144.263 48.5762 144.084 48.5126C143.905 48.4456 143.68 48.4121 143.41 48.4121H141.931L141.942 47.6683H143.789L144.142 47.9497C144.454 47.9732 144.719 48.0469 144.936 48.1709C145.154 48.2948 145.319 48.4523 145.431 48.6432C145.543 48.8308 145.6 49.0352 145.6 49.2563C145.6 49.5109 145.549 49.7353 145.447 49.9296C145.349 50.124 145.205 50.2864 145.015 50.4171C144.826 50.5444 144.596 50.6415 144.326 50.7085C144.056 50.7722 143.751 50.804 143.41 50.804Z" fill="#6C757D"/>
<path d="M150.263 49.8744V47.0754C150.263 46.861 150.217 46.675 150.126 46.5176C150.038 46.3568 149.905 46.2328 149.726 46.1457C149.547 46.0586 149.326 46.0151 149.063 46.0151C148.817 46.0151 148.601 46.0553 148.415 46.1357C148.233 46.2161 148.089 46.3216 147.984 46.4523C147.882 46.5829 147.831 46.7236 147.831 46.8744H146.857C146.857 46.6801 146.91 46.4874 147.015 46.2965C147.121 46.1055 147.271 45.933 147.468 45.7789C147.668 45.6214 147.907 45.4975 148.184 45.407C148.464 45.3132 148.777 45.2663 149.121 45.2663C149.535 45.2663 149.899 45.3333 150.215 45.4673C150.535 45.6013 150.784 45.804 150.963 46.0754C151.145 46.3434 151.236 46.6801 151.236 47.0854V49.6181C151.236 49.799 151.252 49.9916 151.284 50.196C151.319 50.4003 151.37 50.5762 151.436 50.7236V50.804H150.42C150.371 50.6968 150.333 50.5544 150.305 50.3769C150.277 50.196 150.263 50.0285 150.263 49.8744ZM150.431 47.5075L150.442 48.1608H149.457C149.18 48.1608 148.933 48.1826 148.715 48.2261C148.498 48.2663 148.315 48.3283 148.168 48.4121C148.021 48.4958 147.908 48.6013 147.831 48.7286C147.754 48.8526 147.715 48.9983 147.715 49.1658C147.715 49.3367 147.756 49.4925 147.836 49.6332C147.917 49.7739 148.038 49.8861 148.2 49.9698C148.364 50.0503 148.566 50.0905 148.805 50.0905C149.103 50.0905 149.366 50.0302 149.594 49.9095C149.822 49.7889 150.003 49.6415 150.136 49.4673C150.273 49.2931 150.347 49.124 150.357 48.9598L150.773 49.407C150.749 49.5477 150.682 49.7035 150.573 49.8744C150.464 50.0452 150.319 50.2094 150.136 50.3668C149.957 50.5209 149.743 50.6499 149.494 50.7538C149.249 50.8543 148.971 50.9045 148.663 50.9045C148.277 50.9045 147.938 50.8325 147.647 50.6884C147.359 50.5444 147.135 50.3518 146.973 50.1106C146.815 49.866 146.736 49.593 146.736 49.2915C146.736 49 146.796 48.7437 146.915 48.5226C147.035 48.2982 147.207 48.1122 147.431 47.9648C147.656 47.8141 147.926 47.7002 148.242 47.6231C148.557 47.5461 148.91 47.5075 149.299 47.5075H150.431Z" fill="#6C757D"/>
<path d="M156.631 47.7236V48.4774H153.62V47.7236H156.631ZM153.826 45.3668V50.804H152.852V45.3668H153.826ZM157.42 45.3668V50.804H156.441V45.3668H157.42Z" fill="#6C757D"/>
<path d="M160.041 49.3317L162.667 45.3668H163.646V50.804H162.667V46.8392L160.041 50.804H159.073V45.3668H160.041V49.3317Z" fill="#6C757D"/>
<path d="M166.362 48.2111H167.415L165.767 50.804H164.715L166.362 48.2111ZM167.178 45.3668H169.557V50.804H168.583V46.1206H167.178C166.901 46.1206 166.674 46.1658 166.499 46.2563C166.323 46.3434 166.195 46.4573 166.115 46.598C166.034 46.7387 165.994 46.8844 165.994 47.0352C165.994 47.1826 166.03 47.325 166.104 47.4623C166.178 47.5963 166.294 47.7069 166.451 47.794C166.609 47.8811 166.813 47.9246 167.062 47.9246H168.846V48.6884H167.062C166.736 48.6884 166.446 48.6466 166.194 48.5628C165.941 48.4791 165.727 48.3635 165.551 48.2161C165.376 48.0653 165.243 47.8894 165.152 47.6884C165.06 47.4841 165.015 47.263 165.015 47.0251C165.015 46.7873 165.062 46.5678 165.157 46.3668C165.255 46.1658 165.395 45.9899 165.578 45.8392C165.764 45.6884 165.99 45.5729 166.257 45.4925C166.527 45.4087 166.834 45.3668 167.178 45.3668Z" fill="#6C757D"/>
<path d="M174.825 45.3668H175.798L175.714 47.402C175.693 47.9179 175.632 48.3635 175.53 48.7387C175.428 49.1139 175.298 49.4338 175.141 49.6985C174.983 49.9598 174.806 50.1792 174.609 50.3568C174.416 50.5343 174.216 50.6834 174.009 50.804H173.525L173.551 50.0452L173.751 50.0402C173.867 49.9095 173.979 49.7755 174.088 49.6382C174.197 49.4975 174.297 49.3317 174.388 49.1407C174.479 48.9464 174.555 48.7102 174.614 48.4322C174.677 48.1508 174.718 47.8074 174.735 47.402L174.825 45.3668ZM175.067 45.3668H178.493V50.804H177.519V46.2261H175.067V45.3668ZM173.304 50.0402H179.225V52.407H178.251V50.804H174.277V52.407H173.299L173.304 50.0402Z" fill="#6C757D"/>
<path d="M184.109 45.3668V46.1357H181.356V45.3668H184.109ZM184.967 45.3668V50.804H183.993V45.3668H184.967ZM181.119 45.3668H182.098L181.951 47.9899C181.926 48.3953 181.886 48.7538 181.83 49.0653C181.777 49.3735 181.703 49.6382 181.609 49.8593C181.518 50.0804 181.402 50.2613 181.261 50.402C181.125 50.5394 180.96 50.6415 180.767 50.7085C180.574 50.7722 180.351 50.804 180.098 50.804H179.793V49.9849L180.004 49.9698C180.154 49.9598 180.282 49.9263 180.388 49.8693C180.497 49.8124 180.588 49.7286 180.661 49.6181C180.735 49.5042 180.795 49.3585 180.84 49.1809C180.889 49.0034 180.926 48.7923 180.951 48.5477C180.979 48.3032 181 48.0184 181.014 47.6935L181.119 45.3668Z" fill="#6C757D"/>
<path d="M187.687 48.2111H188.74L187.093 50.804H186.04L187.687 48.2111ZM188.503 45.3668H190.882V50.804H189.908V46.1206H188.503C188.226 46.1206 188 46.1658 187.824 46.2563C187.649 46.3434 187.521 46.4573 187.44 46.598C187.359 46.7387 187.319 46.8844 187.319 47.0352C187.319 47.1826 187.356 47.325 187.43 47.4623C187.503 47.5963 187.619 47.7069 187.777 47.794C187.935 47.8811 188.138 47.9246 188.387 47.9246H190.172V48.6884H188.387C188.061 48.6884 187.772 48.6466 187.519 48.5628C187.266 48.4791 187.052 48.3635 186.877 48.2161C186.702 48.0653 186.568 47.8894 186.477 47.6884C186.386 47.4841 186.34 47.263 186.34 47.0251C186.34 46.7873 186.388 46.5678 186.482 46.3668C186.58 46.1658 186.721 45.9899 186.903 45.8392C187.089 45.6884 187.316 45.5729 187.582 45.4925C187.852 45.4087 188.159 45.3668 188.503 45.3668Z" fill="#6C757D"/>
<path d="M198.482 49.8744V47.0754C198.482 46.861 198.436 46.675 198.345 46.5176C198.257 46.3568 198.124 46.2328 197.945 46.1457C197.766 46.0586 197.545 46.0151 197.282 46.0151C197.036 46.0151 196.82 46.0553 196.634 46.1357C196.452 46.2161 196.308 46.3216 196.203 46.4523C196.101 46.5829 196.05 46.7236 196.05 46.8744H195.077C195.077 46.6801 195.129 46.4874 195.235 46.2965C195.34 46.1055 195.491 45.933 195.687 45.7789C195.887 45.6214 196.126 45.4975 196.403 45.407C196.684 45.3132 196.996 45.2663 197.34 45.2663C197.754 45.2663 198.119 45.3333 198.434 45.4673C198.754 45.6013 199.003 45.804 199.182 46.0754C199.364 46.3434 199.455 46.6801 199.455 47.0854V49.6181C199.455 49.799 199.471 49.9916 199.503 50.196C199.538 50.4003 199.589 50.5762 199.655 50.7236V50.804H198.64C198.591 50.6968 198.552 50.5544 198.524 50.3769C198.496 50.196 198.482 50.0285 198.482 49.8744ZM198.65 47.5075L198.661 48.1608H197.677C197.399 48.1608 197.152 48.1826 196.934 48.2261C196.717 48.2663 196.534 48.3283 196.387 48.4121C196.24 48.4958 196.127 48.6013 196.05 48.7286C195.973 48.8526 195.935 48.9983 195.935 49.1658C195.935 49.3367 195.975 49.4925 196.056 49.6332C196.136 49.7739 196.257 49.8861 196.419 49.9698C196.584 50.0503 196.785 50.0905 197.024 50.0905C197.322 50.0905 197.585 50.0302 197.813 49.9095C198.041 49.7889 198.222 49.6415 198.355 49.4673C198.492 49.2931 198.566 49.124 198.577 48.9598L198.992 49.407C198.968 49.5477 198.901 49.7035 198.792 49.8744C198.684 50.0452 198.538 50.2094 198.355 50.3668C198.177 50.5209 197.963 50.6499 197.713 50.7538C197.468 50.8543 197.191 50.9045 196.882 50.9045C196.496 50.9045 196.157 50.8325 195.866 50.6884C195.578 50.5444 195.354 50.3518 195.192 50.1106C195.035 49.866 194.956 49.593 194.956 49.2915C194.956 49 195.015 48.7437 195.135 48.5226C195.254 48.2982 195.426 48.1122 195.65 47.9648C195.875 47.8141 196.145 47.7002 196.461 47.6231C196.777 47.5461 197.129 47.5075 197.519 47.5075H198.65Z" fill="#6C757D"/>
<path d="M203.661 48.4121H201.792L201.782 47.6683H203.308C203.61 47.6683 203.861 47.6399 204.061 47.5829C204.264 47.526 204.417 47.4405 204.518 47.3266C204.62 47.2127 204.671 47.072 204.671 46.9045C204.671 46.7739 204.641 46.66 204.582 46.5628C204.525 46.4623 204.439 46.3802 204.324 46.3166C204.208 46.2496 204.064 46.201 203.892 46.1709C203.724 46.1374 203.525 46.1206 203.297 46.1206H202.05V50.804H201.076V45.3668H203.297C203.659 45.3668 203.983 45.397 204.271 45.4573C204.562 45.5176 204.81 45.6097 205.013 45.7337C205.22 45.8543 205.378 46.0084 205.487 46.196C205.596 46.3836 205.65 46.6047 205.65 46.8593C205.65 47.0235 205.615 47.1792 205.545 47.3266C205.475 47.474 205.371 47.6047 205.234 47.7186C205.097 47.8325 204.929 47.9263 204.729 48C204.529 48.0704 204.299 48.1156 204.039 48.1357L203.661 48.4121ZM203.661 50.804H201.44L201.924 50.0503H203.661C203.931 50.0503 204.155 50.0184 204.334 49.9548C204.513 49.8878 204.646 49.794 204.734 49.6734C204.825 49.5494 204.871 49.402 204.871 49.2312C204.871 49.0603 204.825 48.9146 204.734 48.794C204.646 48.67 204.513 48.5762 204.334 48.5126C204.155 48.4456 203.931 48.4121 203.661 48.4121H202.182L202.192 47.6683H204.039L204.392 47.9497C204.704 47.9732 204.969 48.0469 205.187 48.1709C205.404 48.2948 205.569 48.4523 205.682 48.6432C205.794 48.8308 205.85 49.0352 205.85 49.2563C205.85 49.5109 205.799 49.7353 205.697 49.9296C205.599 50.124 205.455 50.2864 205.266 50.4171C205.076 50.5444 204.846 50.6415 204.576 50.7085C204.306 50.7722 204.001 50.804 203.661 50.804Z" fill="#6C757D"/>
<path d="M209.413 45.3668V50.804H208.434V45.3668H209.413ZM211.323 45.3668V46.1206H206.56V45.3668H211.323Z" fill="#6C757D"/>
<path d="M211.802 48.1457V48.0302C211.802 47.6382 211.862 47.2747 211.981 46.9397C212.101 46.6013 212.272 46.3082 212.497 46.0603C212.722 45.809 212.994 45.6147 213.313 45.4774C213.632 45.3367 213.99 45.2663 214.386 45.2663C214.786 45.2663 215.146 45.3367 215.465 45.4774C215.788 45.6147 216.062 45.809 216.286 46.0603C216.514 46.3082 216.688 46.6013 216.807 46.9397C216.927 47.2747 216.986 47.6382 216.986 48.0302V48.1457C216.986 48.5377 216.927 48.9012 216.807 49.2362C216.688 49.5712 216.514 49.8643 216.286 50.1156C216.062 50.3635 215.79 50.5578 215.471 50.6985C215.155 50.8358 214.797 50.9045 214.397 50.9045C213.997 50.9045 213.637 50.8358 213.318 50.6985C212.999 50.5578 212.725 50.3635 212.497 50.1156C212.272 49.8643 212.101 49.5712 211.981 49.2362C211.862 48.9012 211.802 48.5377 211.802 48.1457ZM212.776 48.0302V48.1457C212.776 48.4171 212.809 48.6734 212.876 48.9146C212.943 49.1524 213.043 49.3635 213.176 49.5477C213.313 49.732 213.483 49.8777 213.686 49.9849C213.89 50.0888 214.127 50.1407 214.397 50.1407C214.664 50.1407 214.897 50.0888 215.097 49.9849C215.3 49.8777 215.469 49.732 215.602 49.5477C215.736 49.3635 215.836 49.1524 215.902 48.9146C215.972 48.6734 216.007 48.4171 216.007 48.1457V48.0302C216.007 47.7621 215.972 47.5092 215.902 47.2714C215.836 47.0302 215.734 46.8174 215.597 46.6332C215.464 46.4456 215.295 46.2982 215.092 46.191C214.892 46.0838 214.657 46.0302 214.386 46.0302C214.12 46.0302 213.885 46.0838 213.681 46.191C213.481 46.2982 213.313 46.4456 213.176 46.6332C213.043 46.8174 212.943 47.0302 212.876 47.2714C212.809 47.5092 212.776 47.7621 212.776 48.0302Z" fill="#6C757D"/>
<path d="M221.481 49.5678L223.418 45.3668H224.354L221.818 50.804H221.144L218.618 45.3668H219.555L221.481 49.5678ZM219.27 45.3668V50.804H218.297V45.3668H219.27ZM223.66 50.804V45.3668H224.639V50.804H223.66Z" fill="#6C757D"/>
<path d="M229.565 49.8744V47.0754C229.565 46.861 229.519 46.675 229.428 46.5176C229.34 46.3568 229.207 46.2328 229.028 46.1457C228.849 46.0586 228.628 46.0151 228.365 46.0151C228.119 46.0151 227.903 46.0553 227.718 46.1357C227.535 46.2161 227.391 46.3216 227.286 46.4523C227.184 46.5829 227.133 46.7236 227.133 46.8744H226.16C226.16 46.6801 226.212 46.4874 226.318 46.2965C226.423 46.1055 226.574 45.933 226.77 45.7789C226.97 45.6214 227.209 45.4975 227.486 45.407C227.767 45.3132 228.079 45.2663 228.423 45.2663C228.837 45.2663 229.202 45.3333 229.517 45.4673C229.837 45.6013 230.086 45.804 230.265 46.0754C230.447 46.3434 230.538 46.6801 230.538 47.0854V49.6181C230.538 49.799 230.554 49.9916 230.586 50.196C230.621 50.4003 230.672 50.5762 230.738 50.7236V50.804H229.723C229.674 50.6968 229.635 50.5544 229.607 50.3769C229.579 50.196 229.565 50.0285 229.565 49.8744ZM229.733 47.5075L229.744 48.1608H228.76C228.482 48.1608 228.235 48.1826 228.017 48.2261C227.8 48.2663 227.618 48.3283 227.47 48.4121C227.323 48.4958 227.211 48.6013 227.133 48.7286C227.056 48.8526 227.018 48.9983 227.018 49.1658C227.018 49.3367 227.058 49.4925 227.139 49.6332C227.219 49.7739 227.34 49.8861 227.502 49.9698C227.667 50.0503 227.868 50.0905 228.107 50.0905C228.405 50.0905 228.668 50.0302 228.896 49.9095C229.124 49.7889 229.305 49.6415 229.438 49.4673C229.575 49.2931 229.649 49.124 229.66 48.9598L230.075 49.407C230.051 49.5477 229.984 49.7035 229.875 49.8744C229.767 50.0452 229.621 50.2094 229.438 50.3668C229.26 50.5209 229.046 50.6499 228.796 50.7538C228.551 50.8543 228.274 50.9045 227.965 50.9045C227.579 50.9045 227.24 50.8325 226.949 50.6884C226.661 50.5444 226.437 50.3518 226.275 50.1106C226.118 49.866 226.039 49.593 226.039 49.2915C226.039 49 226.098 48.7437 226.218 48.5226C226.337 48.2982 226.509 48.1122 226.733 47.9648C226.958 47.8141 227.228 47.7002 227.544 47.6231C227.86 47.5461 228.212 47.5075 228.602 47.5075H229.733Z" fill="#6C757D"/>
<path d="M234.307 45.3668V50.804H233.328V45.3668H234.307ZM236.217 45.3668V46.1206H231.454V45.3668H236.217Z" fill="#6C757D"/>
<path d="M238.228 49.3317L240.854 45.3668H241.833V50.804H240.854V46.8392L238.228 50.804H237.259V45.3668H238.228V49.3317Z" fill="#6C757D"/>
<path d="M245.522 48.206H244.475V47.6332H245.443C245.713 47.6332 245.927 47.6013 246.085 47.5377C246.243 47.4707 246.355 47.3786 246.422 47.2613C246.489 47.1441 246.522 47.0067 246.522 46.8492C246.522 46.7085 246.483 46.5762 246.406 46.4523C246.333 46.325 246.213 46.2228 246.048 46.1457C245.883 46.0653 245.662 46.0251 245.385 46.0251C245.161 46.0251 244.957 46.0637 244.775 46.1407C244.592 46.2144 244.447 46.3166 244.338 46.4472C244.233 46.5745 244.18 46.7186 244.18 46.8794H243.206C243.206 46.5477 243.305 46.263 243.501 46.0251C243.701 45.7839 243.966 45.598 244.296 45.4673C244.629 45.3367 244.992 45.2714 245.385 45.2714C245.715 45.2714 246.01 45.3065 246.269 45.3769C246.533 45.4439 246.755 45.5444 246.938 45.6784C247.12 45.809 247.259 45.9732 247.354 46.1709C247.452 46.3652 247.501 46.5913 247.501 46.8492C247.501 47.0335 247.455 47.2077 247.364 47.3719C247.273 47.536 247.141 47.6817 246.969 47.809C246.797 47.933 246.589 48.0302 246.343 48.1005C246.101 48.1709 245.827 48.206 245.522 48.206ZM244.475 47.8543H245.522C245.862 47.8543 246.162 47.8861 246.422 47.9497C246.682 48.0101 246.899 48.1005 247.075 48.2211C247.25 48.3417 247.382 48.4908 247.469 48.6683C247.561 48.8425 247.606 49.0436 247.606 49.2714C247.606 49.526 247.552 49.7554 247.443 49.9598C247.338 50.1608 247.187 50.3317 246.99 50.4724C246.794 50.6131 246.559 50.7203 246.285 50.794C246.015 50.8677 245.715 50.9045 245.385 50.9045C245.017 50.9045 244.659 50.8442 244.312 50.7236C243.964 50.603 243.678 50.4171 243.454 50.1658C243.229 49.9112 243.117 49.5879 243.117 49.196H244.091C244.091 49.3601 244.145 49.5159 244.254 49.6633C244.362 49.8107 244.513 49.9296 244.706 50.0201C244.903 50.1106 245.129 50.1558 245.385 50.1558C245.659 50.1558 245.887 50.1156 246.069 50.0352C246.252 49.9548 246.389 49.8476 246.48 49.7136C246.575 49.5796 246.622 49.4338 246.622 49.2764C246.622 49.072 246.58 48.9079 246.496 48.7839C246.412 48.66 246.282 48.5695 246.106 48.5126C245.934 48.4523 245.713 48.4221 245.443 48.4221H244.475V47.8543Z" fill="#6C757D"/>
<path d="M252.227 49.8744V47.0754C252.227 46.861 252.181 46.675 252.09 46.5176C252.003 46.3568 251.869 46.2328 251.69 46.1457C251.511 46.0586 251.29 46.0151 251.027 46.0151C250.782 46.0151 250.566 46.0553 250.38 46.1357C250.197 46.2161 250.053 46.3216 249.948 46.4523C249.846 46.5829 249.796 46.7236 249.796 46.8744H248.822C248.822 46.6801 248.875 46.4874 248.98 46.2965C249.085 46.1055 249.236 45.933 249.432 45.7789C249.632 45.6214 249.871 45.4975 250.148 45.407C250.429 45.3132 250.741 45.2663 251.085 45.2663C251.499 45.2663 251.864 45.3333 252.18 45.4673C252.499 45.6013 252.748 45.804 252.927 46.0754C253.11 46.3434 253.201 46.6801 253.201 47.0854V49.6181C253.201 49.799 253.217 49.9916 253.248 50.196C253.283 50.4003 253.334 50.5762 253.401 50.7236V50.804H252.385C252.336 50.6968 252.297 50.5544 252.269 50.3769C252.241 50.196 252.227 50.0285 252.227 49.8744ZM252.395 47.5075L252.406 48.1608H251.422C251.145 48.1608 250.897 48.1826 250.68 48.2261C250.462 48.2663 250.28 48.3283 250.132 48.4121C249.985 48.4958 249.873 48.6013 249.796 48.7286C249.718 48.8526 249.68 48.9983 249.68 49.1658C249.68 49.3367 249.72 49.4925 249.801 49.6332C249.882 49.7739 250.003 49.8861 250.164 49.9698C250.329 50.0503 250.531 50.0905 250.769 50.0905C251.067 50.0905 251.331 50.0302 251.559 49.9095C251.787 49.7889 251.967 49.6415 252.101 49.4673C252.238 49.2931 252.311 49.124 252.322 48.9598L252.738 49.407C252.713 49.5477 252.646 49.7035 252.538 49.8744C252.429 50.0452 252.283 50.2094 252.101 50.3668C251.922 50.5209 251.708 50.6499 251.459 50.7538C251.213 50.8543 250.936 50.9045 250.627 50.9045C250.241 50.9045 249.903 50.8325 249.611 50.6884C249.324 50.5444 249.099 50.3518 248.938 50.1106C248.78 49.866 248.701 49.593 248.701 49.2915C248.701 49 248.761 48.7437 248.88 48.5226C248.999 48.2982 249.171 48.1122 249.396 47.9648C249.62 47.8141 249.89 47.7002 250.206 47.6231C250.522 47.5461 250.875 47.5075 251.264 47.5075H252.395Z" fill="#6C757D"/>
<path d="M254.816 50.804V45.3668H255.79V50.0402H258.411V45.3668H259.39V50.804H254.816ZM260.064 50.0402L259.969 52.4171H259.1V50.804H258.358V50.0402H260.064Z" fill="#6C757D"/>
<path d="M262.174 49.3317L264.8 45.3668H265.779V50.804H264.8V46.8392L262.174 50.804H261.206V45.3668H262.174V49.3317Z" fill="#6C757D"/>
<path d="M268.395 49.3317L271.021 45.3668H272V50.804H271.021V46.8392L268.395 50.804H267.426V45.3668H268.395V49.3317Z" fill="#6C757D"/>
</g>
<path fill-rule="evenodd" clip-rule="evenodd" d="M74.3486 23.9294L74.9132 19.384H75.9163C76.7944 19.384 77.4425 19.5254 77.8397 19.808C78.237 20.1112 78.425 20.5555 78.425 21.1616C78.425 22.0303 78.1741 22.6971 77.6724 23.1819C77.171 23.687 76.5015 23.9294 75.6654 23.9294H74.3486ZM80.5577 18.0912C79.5958 17.364 78.1325 17.0003 76.1881 17.0003L71.7561 17L70 31H73.4705L74.0352 26.3536H75.7703C76.7108 26.3536 77.5679 26.2324 78.3415 25.9697C79.115 25.7273 79.7632 25.3637 80.3065 24.8991C80.8502 24.4345 81.2684 23.8889 81.5612 23.2221C81.8536 22.5759 82 21.8486 82 21.061C82.0004 19.808 81.5192 18.8185 80.5573 18.0912H80.5577Z" fill="#D64923"/>
<path fill-rule="evenodd" clip-rule="evenodd" d="M84.0104 30.5777H85.1053C84.9372 30.8964 84.7475 31.1753 84.5156 31.4144C84.2841 31.6734 84.0104 31.8725 83.6948 32.0519C83.3792 32.2311 82.9999 32.3706 82.558 32.4701C82.1157 32.5896 81.6104 32.6692 81 32.7291L81.1263 35C83.0421 34.9204 84.5578 34.5019 85.6946 33.7252C86.8314 32.9682 87.7156 31.8725 88.3472 30.4582L93 20H89.4633L86.4107 28.3864H86.3262L85.4843 20H82.0105L84.0104 30.5777Z" fill="#D64923"/>
<path fill-rule="evenodd" clip-rule="evenodd" d="M95.65 28.0653C95.3411 27.735 95.1864 27.2101 95.1864 26.4523C95.1868 25.1502 95.4376 24.1394 95.9398 23.4401C96.4421 22.7401 97.0599 22.3903 97.8132 22.3903C98.1802 22.3903 98.4891 22.4487 98.7786 22.5458C99.0685 22.643 99.3583 22.8375 99.6672 23.0902L101 21.2245C100.498 20.8162 99.9762 20.5054 99.4355 20.2913C98.8755 20.0971 98.238 20 97.5043 20C96.751 20 96.0557 20.1556 95.3988 20.4469C94.723 20.7578 94.1436 21.1856 93.6417 21.7491C93.1394 22.3126 92.7337 22.9736 92.4441 23.7704C92.1546 24.5672 92 25.4415 92 26.4328C92 27.1715 92.1159 27.8321 92.3283 28.3957C92.5407 28.9592 92.8305 29.4451 93.2165 29.8339C93.6029 30.2227 94.0664 30.5141 94.6071 30.7083C95.1287 30.9029 95.7274 31 96.3646 31C97.6586 31 98.8561 30.6307 99.9568 29.8726L98.9333 27.8516C98.5279 28.1043 98.1609 28.2986 97.8516 28.3957C97.5234 28.5123 97.2145 28.5707 96.9056 28.5707C96.3646 28.5707 95.9398 28.3957 95.65 28.0653Z" fill="#D64923"/>
<path fill-rule="evenodd" clip-rule="evenodd" d="M109.387 31H113L110.363 17H106.188L100 31H103.717L104.839 27.9897H109.012L109.387 31ZM107.933 19.6466H108.016L108.763 25.5656H105.69L107.933 19.6466Z" fill="#319ACE"/>
<path fill-rule="evenodd" clip-rule="evenodd" d="M121.706 24.9946C122.471 24.8198 123.054 24.509 123.436 24.0617C123.819 23.6148 124 23.0903 124 22.4682C124 21.7686 123.698 21.1855 123.074 20.6996C122.451 20.2332 121.545 20 120.358 20C119.493 20 118.668 20.1556 117.903 20.4664C117.119 20.7773 116.455 21.2245 115.871 21.7881C115.288 22.3516 114.845 23.0513 114.503 23.848C114.161 24.6448 114 25.5581 114 26.5494C114 27.2101 114.121 27.8126 114.342 28.357C114.564 28.9206 114.906 29.387 115.328 29.7758C115.751 30.1643 116.274 30.4559 116.877 30.6697C117.481 30.8834 118.165 31 118.91 31C119.734 31 120.479 30.9029 121.102 30.7083C121.726 30.5336 122.27 30.2809 122.692 29.9505C123.115 29.6202 123.416 29.2509 123.638 28.8036C123.839 28.3762 123.939 27.9293 123.939 27.4433C123.94 26.8603 123.738 26.3549 123.356 25.9274C122.974 25.5195 122.41 25.2278 121.686 25.0726L121.706 24.9946ZM120.298 28.3762C119.996 28.6679 119.594 28.8036 119.09 28.8036C118.527 28.8036 118.065 28.6094 117.722 28.2209C117.36 27.8321 117.179 27.2491 117.179 26.4913V26.3357C117.179 26.2773 117.179 26.2383 117.199 26.1802C117.642 26.1412 118.064 26.1025 118.467 26.044C118.849 25.9859 119.252 25.9275 119.654 25.8498C120.358 26.1996 120.72 26.6856 120.72 27.2881C120.72 27.735 120.579 28.1043 120.298 28.3762ZM121.022 22.8762C121.022 23.0902 120.982 23.3036 120.881 23.4787C120.781 23.6733 120.6 23.848 120.338 23.9841C120.076 24.1394 119.694 24.2758 119.231 24.3924C118.769 24.509 118.165 24.5866 117.441 24.6448C117.662 23.809 118.004 23.1679 118.487 22.7209C118.95 22.2737 119.493 22.0404 120.076 22.0404C120.7 22.0404 121.022 22.3126 121.022 22.8762H121.022Z" fill="#319ACE"/>
<path fill-rule="evenodd" clip-rule="evenodd" d="M134.064 31L134.903 25.1492C135.374 24.2478 135.803 23.6065 136.192 23.2056C136.581 22.8249 136.908 22.6247 137.174 22.6247C137.317 22.6247 137.44 22.6648 137.542 22.7449C137.624 22.845 137.665 23.0456 137.665 23.346C137.665 23.5466 137.644 23.787 137.603 24.0874L136.601 31H139.875L140.938 23.5864C140.98 23.2659 141 22.9652 141 22.7047C141 21.763 140.775 21.0619 140.325 20.6409C139.854 20.2203 139.281 20 138.586 20C137.972 20 137.378 20.1604 136.806 20.4809C136.233 20.8214 135.68 21.3425 135.128 22.0638C135.026 21.3425 134.759 20.8214 134.33 20.4809C133.9 20.1604 133.389 20 132.795 20C132.141 20 131.527 20.1801 130.954 20.5609C130.381 20.9416 129.808 21.5226 129.235 22.3441L129.358 20.3607H126.514L125 31H128.254L129.092 25.1894C129.563 24.2675 130.013 23.6065 130.402 23.2056C130.791 22.8249 131.118 22.6247 131.383 22.6247C131.527 22.6247 131.65 22.6648 131.732 22.765C131.813 22.8651 131.854 23.0456 131.854 23.3259C131.854 23.5064 131.834 23.7669 131.793 24.0874L130.811 31H134.064Z" fill="#319ACE"/>
<path fill-rule="evenodd" clip-rule="evenodd" d="M145.458 20.544C144.682 20.9133 144.053 21.3993 143.551 22.0018C143.027 22.6043 142.65 23.3036 142.398 24.0812C142.126 24.878 142 25.6942 142 26.5494C142 27.9682 142.44 29.0567 143.32 29.8339C144.2 30.6112 145.395 31 146.903 31C147.888 31 148.768 30.8249 149.543 30.4751C150.297 30.1448 150.926 29.6784 151.449 29.0758C151.952 28.4736 152.329 27.7932 152.602 26.9964C152.874 26.2191 153 25.3834 153 24.509C153 23.8285 152.895 23.2068 152.686 22.643C152.455 22.0794 152.141 21.613 151.722 21.2245C151.303 20.8357 150.8 20.5246 150.192 20.3108C149.585 20.0971 148.914 20 148.139 20C147.113 20 146.232 20.1747 145.457 20.544H145.458ZM149.585 24.3144C149.585 24.7419 149.543 25.2083 149.459 25.7332C149.375 26.2581 149.229 26.7245 149.04 27.1715C148.831 27.6184 148.558 27.9877 148.223 28.2791C147.888 28.5708 147.468 28.726 146.987 28.726C146.463 28.726 146.065 28.5707 145.814 28.2404C145.541 27.9292 145.415 27.4238 145.415 26.7245C145.416 26.1996 145.478 25.6747 145.583 25.1502C145.688 24.6253 145.834 24.1592 146.044 23.7314C146.253 23.3036 146.526 22.9541 146.861 22.6819C147.175 22.4292 147.574 22.2932 148.013 22.2932C149.061 22.2932 149.585 22.9736 149.585 24.3144Z" fill="#319ACE"/>
<path fill-rule="evenodd" clip-rule="evenodd" d="M162.388 31H165.424L166 20H162.169L159.808 26.9603H159.728L159.093 20H155.362L153 31H156.057L156.692 27.499C156.791 26.8568 156.89 26.1319 156.989 25.3238C157.089 24.5161 157.148 23.7907 157.208 23.1485H157.287L158.061 29.8814H160.701L163.202 23.1485H163.281C163.142 23.853 163.003 24.5988 162.904 25.4068C162.785 26.2146 162.685 27.0227 162.626 27.8511L162.388 31Z" fill="#319ACE"/>
<path fill-rule="evenodd" clip-rule="evenodd" d="M178 21.1466C177.268 20.7773 176.536 20.5054 175.783 20.2913C175.01 20.0971 174.215 20 173.357 20C172.458 20 171.622 20.1556 170.848 20.4859C170.074 20.8162 169.405 21.2632 168.84 21.8462C168.276 22.4487 167.815 23.1679 167.502 24.0036C167.167 24.839 167 25.7722 167 26.8022C167 27.5213 167.084 28.1625 167.272 28.687C167.439 29.2119 167.69 29.6592 168.004 29.9895C168.318 30.3393 168.694 30.5917 169.133 30.7473C169.572 30.9224 170.053 31 170.576 31C171.203 31 171.81 30.8448 172.395 30.5531C172.96 30.2614 173.483 29.8144 173.922 29.2509C174.215 30.2809 175.093 30.8447 176.557 30.961L177.498 28.9206C177.31 28.8426 177.164 28.7455 177.08 28.6289C176.996 28.5123 176.954 28.3375 176.954 28.1238C176.954 28.0653 176.954 27.9877 176.975 27.8903C176.975 27.8126 176.975 27.7155 176.996 27.6184L178 21.1466ZM170.785 28.2986C170.513 28.0069 170.388 27.5018 170.388 26.7437C170.388 25.9859 170.472 25.3249 170.639 24.7614C170.785 24.1978 171.015 23.7314 171.287 23.3621C171.559 22.9928 171.852 22.7209 172.207 22.5458C172.563 22.3711 172.918 22.2737 173.274 22.2737C173.504 22.2737 173.713 22.2931 173.901 22.3126C174.068 22.3516 174.257 22.4097 174.466 22.5069L173.713 27.0935C173.441 27.5794 173.107 27.9877 172.751 28.2791C172.396 28.5708 172.04 28.726 171.726 28.726C171.371 28.726 171.057 28.5903 170.785 28.2986Z" fill="#319ACE"/>
<path fill-rule="evenodd" clip-rule="evenodd" d="M188.064 31L188.903 25.1492C189.374 24.2478 189.803 23.6065 190.192 23.2056C190.581 22.8249 190.908 22.6247 191.174 22.6247C191.317 22.6247 191.44 22.6648 191.542 22.7449C191.624 22.845 191.665 23.0456 191.665 23.346C191.665 23.5466 191.644 23.787 191.604 24.0874L190.601 31H193.875L194.939 23.5864C194.979 23.2659 195 22.9652 195 22.7047C195 21.763 194.775 21.0619 194.325 20.6409C193.854 20.2203 193.281 20 192.585 20C191.972 20 191.378 20.1604 190.806 20.4809C190.233 20.8214 189.68 21.3425 189.128 22.0638C189.026 21.3425 188.76 20.8214 188.33 20.4809C187.9 20.1604 187.389 20 186.795 20C186.141 20 185.527 20.1801 184.954 20.5609C184.381 20.9416 183.808 21.5226 183.235 22.3441L183.358 20.3607H180.514L179 31H182.253L183.092 25.1894C183.563 24.2675 184.013 23.6065 184.401 23.2056C184.79 22.8249 185.118 22.6247 185.384 22.6247C185.527 22.6247 185.65 22.6648 185.731 22.765C185.813 22.8651 185.854 23.0456 185.854 23.3259C185.854 23.5064 185.834 23.7669 185.793 24.0874L184.811 31H188.064Z" fill="#319ACE"/>
<path fill-rule="evenodd" clip-rule="evenodd" d="M197.047 20L196.079 27.0055C196.059 27.1859 196.039 27.3667 196.019 27.5472C196 27.7281 196 27.9085 196 28.0692C196 29.073 196.237 29.8158 196.692 30.2774C197.146 30.7591 197.759 31 198.549 31C199.162 31 199.735 30.8397 200.288 30.5183C200.842 30.217 201.356 29.7356 201.81 29.0931L201.771 30.6588H204.518L206 20H202.838L201.89 26.6841C201.553 27.2866 201.198 27.7281 200.862 27.9891C200.506 28.2702 200.19 28.4104 199.913 28.4104C199.696 28.4104 199.518 28.3504 199.399 28.2299C199.261 28.1296 199.202 27.9085 199.202 27.5875V27.3265C199.202 27.2262 199.221 27.1259 199.241 27.0256L200.209 20H197.047Z" fill="#319ACE"/>
<path fill-rule="evenodd" clip-rule="evenodd" d="M209.979 26.3549H211.575C212.192 26.3549 212.617 26.4523 212.894 26.6271C213.17 26.8213 213.298 27.0935 213.298 27.4238C213.298 27.8321 213.149 28.1625 212.851 28.4152C212.532 28.6679 212.106 28.7845 211.574 28.7845C210.553 28.7845 209.617 28.4542 208.766 27.7932L207 29.3675C207.596 29.8726 208.298 30.2614 209.128 30.5531C209.957 30.8448 210.83 31 211.745 31C212.575 31 213.298 30.9029 213.936 30.7281C214.554 30.5531 215.085 30.3198 215.511 30.009C215.936 29.7173 216.255 29.348 216.489 28.9401C216.702 28.5318 216.808 28.1043 216.808 27.6379C216.808 27.0354 216.596 26.53 216.149 26.1025C215.702 25.6747 215.106 25.3834 214.341 25.2473L214.362 25.1697C215.192 25.0141 215.83 24.7032 216.298 24.2368C216.766 23.7704 217 23.2068 217 22.5653C217 21.8267 216.638 21.2047 215.936 20.7191C215.213 20.2332 214.213 20 212.936 20C211.213 20 209.659 20.4469 208.234 21.3213L209.511 22.9928C209.979 22.7014 210.447 22.4682 210.915 22.3321C211.362 22.196 211.809 22.1379 212.234 22.1379C212.639 22.1379 212.958 22.2155 213.17 22.3711C213.383 22.5458 213.49 22.7596 213.49 23.0513C213.49 23.4592 213.34 23.7704 213.043 24.0036C212.745 24.256 212.255 24.3726 211.574 24.3726H210.489L209.979 26.3549Z" fill="#319ACE"/>
<path fill-rule="evenodd" clip-rule="evenodd" d="M228 21.1466C227.268 20.7773 226.536 20.5054 225.783 20.2913C225.009 20.0971 224.215 20 223.357 20C222.458 20 221.621 20.1556 220.848 20.4859C220.074 20.8162 219.405 21.2632 218.84 21.8462C218.276 22.4487 217.815 23.1679 217.502 24.0036C217.167 24.839 217 25.7722 217 26.8022C217 27.5213 217.084 28.1625 217.272 28.687C217.439 29.2119 217.69 29.6592 218.003 29.9895C218.317 30.3393 218.694 30.5917 219.133 30.7473C219.572 30.9224 220.053 31 220.576 31C221.203 31 221.81 30.8448 222.395 30.5531C222.96 30.2614 223.483 29.8144 223.922 29.2509C224.215 30.2809 225.093 30.8447 226.557 30.961L227.498 28.9206C227.31 28.8426 227.163 28.7455 227.08 28.6289C226.996 28.5123 226.954 28.3375 226.954 28.1238C226.954 28.0653 226.954 27.9877 226.975 27.8903C226.975 27.8126 226.975 27.7155 226.996 27.6184L228 21.1466ZM220.785 28.2986C220.513 28.0069 220.388 27.5018 220.388 26.7437C220.388 25.9859 220.471 25.3249 220.639 24.7614C220.785 24.1978 221.015 23.7314 221.287 23.3621C221.559 22.9928 221.851 22.7209 222.207 22.5458C222.563 22.3711 222.918 22.2737 223.274 22.2737C223.504 22.2737 223.713 22.2931 223.901 22.3126C224.068 22.3516 224.256 22.4097 224.465 22.5069L223.713 27.0935C223.441 27.5794 223.106 27.9877 222.751 28.2791C222.395 28.5708 222.04 28.726 221.726 28.726C221.371 28.726 221.057 28.5903 220.785 28.2986H220.785Z" fill="#319ACE"/>
<path fill-rule="evenodd" clip-rule="evenodd" d="M238.883 20H235.758L234.82 26.7858C234.488 27.3975 234.137 27.8457 233.805 28.1106C233.453 28.3961 233.14 28.5384 232.867 28.5384C232.652 28.5384 232.476 28.4774 232.359 28.3552C232.223 28.2533 232.164 28.0289 232.164 27.703L232.164 27.438C232.164 27.3362 232.184 27.2343 232.203 27.1325L233.16 20H230.035L229.078 27.1121C229.059 27.2953 229.039 27.4788 229.019 27.6621C229 27.8457 229 28.0289 229 28.192C229 29.2111 229.234 29.9651 229.684 30.4338C230.133 30.9228 230.738 31.1674 231.519 31.1674C232.164 31.1674 232.789 30.9838 233.375 30.617C233.941 30.2505 234.469 29.6797 234.937 28.9257L234.996 28.9461C234.996 29.0074 234.996 29.0479 234.996 29.1092C234.977 29.1702 234.976 29.2111 234.976 29.272C234.976 29.7001 235.074 30.067 235.269 30.3319C235.445 30.617 235.797 30.821 236.285 30.9228L236.207 34H238.238L239 28.5384H238.609C238.336 28.5183 238.141 28.4366 238.023 28.3348C237.906 28.2329 237.847 28.0493 237.847 27.7844C237.848 27.642 237.867 27.438 237.906 27.2139L238.883 20Z" fill="#319ACE"/>
<path fill-rule="evenodd" clip-rule="evenodd" d="M242.048 20L241.079 27.0055C241.059 27.1859 241.04 27.3667 241.02 27.5472C241 27.7281 241 27.9085 241 28.0692C241 29.073 241.237 29.8158 241.692 30.2774C242.146 30.7591 242.759 31 243.549 31C244.162 31 244.735 30.8397 245.289 30.5183C245.842 30.217 246.356 29.7356 246.81 29.0931L246.771 30.6588H249.518L251 20H247.838L246.89 26.6841C246.554 27.2866 246.198 27.7281 245.862 27.9891C245.506 28.2702 245.19 28.4104 244.913 28.4104C244.696 28.4104 244.518 28.3504 244.399 28.2299C244.261 28.1296 244.202 27.9085 244.202 27.5875V27.3265C244.202 27.2262 244.221 27.1259 244.241 27.0256L245.21 20H242.048Z" fill="#319ACE"/>
<path fill-rule="evenodd" clip-rule="evenodd" d="M253.095 25.3297C253.328 25.7905 253.658 26.1712 254.104 26.4716L251 31H254.356L256.84 27.1728H258.062L257.538 31H260.584L262 20.6011C261.69 20.5009 261.36 20.4206 260.991 20.3406C260.623 20.2806 260.273 20.2203 259.905 20.1604C259.536 20.1001 259.167 20.0599 258.818 20.0402C258.469 20.0198 258.139 20 257.829 20C256.102 20 254.841 20.3405 254.007 21.0417C253.173 21.7429 252.746 22.685 252.746 23.8871C252.746 24.4078 252.862 24.8887 253.095 25.3297ZM258.721 22.2041L258.314 25.2895H257.46C256.432 25.2895 255.908 24.8087 255.908 23.8469C255.908 23.2857 256.064 22.845 256.374 22.5447C256.685 22.2439 257.13 22.0839 257.712 22.0839C258.042 22.0839 258.392 22.1237 258.721 22.2041Z" fill="#319ACE"/>
<path fill-rule="evenodd" clip-rule="evenodd" d="M17 37C16.5217 35.2397 12.6898 24.6819 11.7105 23.5955C10.3068 22.0311 8.38024 22.0078 5.70275 22L0 37H17Z" fill="#319ACE"/>
<path fill-rule="evenodd" clip-rule="evenodd" d="M5 14.9818C10.3407 14.9738 15.7956 15.4843 17.546 11.6102C20.0944 5.97874 11.2605 7.04408 7.27866 7.14335L5 14.9818Z" fill="#319ACE"/>
<path fill-rule="evenodd" clip-rule="evenodd" d="M23 30.3298L25.1563 37C26.03 37 25.8697 36.9084 26.4872 35.7645C27.29 34.278 29.0514 31.0326 29.0514 31.0326H42.4874L42.6614 37H55L50.9368 0L38.6842 0.0153977L23 30.3298ZM34.1637 22.9577L41.7532 9.92677L42.2721 22.9612L34.1637 22.9577Z" fill="#D64923"/>
<path fill-rule="evenodd" clip-rule="evenodd" d="M22.1966 30L38 0.0134976L25.6546 0C26.9289 0.903422 27.1252 0.675483 28.1687 1.89102C28.8617 2.68671 29.411 3.71932 29.6581 5.01938C30.1353 7.58935 29.3477 10.2286 28.3198 12.2627C27.5159 13.8541 26.775 14.9937 25.501 16.034C23.6778 17.5173 22.0134 19.4527 18 20.1337C18.5895 21.449 19.5367 22.2367 20.1735 23.8811L22.1966 30Z" fill="#319ACE"/>
<path d="M266 8V3H267.891C268.367 3 268.712 3.04562 268.928 3.13535C269.144 3.22471 269.316 3.38453 269.445 3.61367C269.575 3.84393 269.64 4.10607 269.64 4.40158C269.64 4.77755 269.543 5.08712 269.347 5.33147C269.151 5.57581 268.859 5.72972 268.47 5.79349C268.664 5.9203 268.823 6.06008 268.948 6.21247C269.075 6.36486 269.244 6.63628 269.457 7.02485L270 8H268.927L268.283 6.90841C268.052 6.52094 267.893 6.27659 267.808 6.17499C267.722 6.07525 267.633 6.00558 267.537 5.96813C267.441 5.93068 267.29 5.91211 267.083 5.91211H266.901V8H266ZM266.901 5.11642H267.565C267.996 5.11642 268.264 5.09529 268.372 5.0545C268.478 5.01372 268.563 4.94253 268.623 4.84279C268.684 4.74268 268.714 4.617 268.714 4.46683C268.714 4.29775 268.674 4.16277 268.594 4.05821C268.514 3.95476 268.402 3.88952 268.257 3.86283C268.184 3.85096 267.965 3.84501 267.601 3.84501H266.901V5.11642Z" fill="#319ACE"/>
<path fill-rule="evenodd" clip-rule="evenodd" d="M267.5 1C269.985 1 272 3.01485 272 5.49981C272 7.98548 269.985 10 267.5 10C265.015 10 263 7.98548 263 5.49981C263 3.01485 265.015 1 267.5 1Z" stroke="#319ACE" stroke-width="0.841701" stroke-miterlimit="22.9256"/>
</svg>
