<svg width="16" height="16" viewBox="0 0 16 16" fill="none" xmlns="http://www.w3.org/2000/svg">
<path d="M12 10.7226C11.4933 10.7226 11.04 10.9226 10.6933 11.2359L5.94 8.46927C5.97333 8.31594 6 8.1626 6 8.0026C6 7.8426 5.97333 7.68927 5.94 7.53594L10.64 4.79594C11 5.12927 11.4733 5.33594 12 5.33594C13.1067 5.33594 14 4.4426 14 3.33594C14 2.22927 13.1067 1.33594 12 1.33594C10.8933 1.33594 10 2.22927 10 3.33594C10 3.49594 10.0267 3.64927 10.06 3.8026L5.36 6.5426C5 6.20927 4.52667 6.0026 4 6.0026C2.89333 6.0026 2 6.89594 2 8.0026C2 9.10927 2.89333 10.0026 4 10.0026C4.52667 10.0026 5 9.79594 5.36 9.4626L10.1067 12.2359C10.0733 12.3759 10.0533 12.5226 10.0533 12.6693C10.0533 13.7426 10.9267 14.6159 12 14.6159C13.0733 14.6159 13.9467 13.7426 13.9467 12.6693C13.9467 11.5959 13.0733 10.7226 12 10.7226ZM12 2.66927C12.3667 2.66927 12.6667 2.96927 12.6667 3.33594C12.6667 3.7026 12.3667 4.0026 12 4.0026C11.6333 4.0026 11.3333 3.7026 11.3333 3.33594C11.3333 2.96927 11.6333 2.66927 12 2.66927ZM4 8.66927C3.63333 8.66927 3.33333 8.36927 3.33333 8.0026C3.33333 7.63594 3.63333 7.33594 4 7.33594C4.36667 7.33594 4.66667 7.63594 4.66667 8.0026C4.66667 8.36927 4.36667 8.66927 4 8.66927ZM12 13.3493C11.6333 13.3493 11.3333 13.0493 11.3333 12.6826C11.3333 12.3159 11.6333 12.0159 12 12.0159C12.3667 12.0159 12.6667 12.3159 12.6667 12.6826C12.6667 13.0493 12.3667 13.3493 12 13.3493Z" fill="#D64923"/>
</svg>
