<svg width="0" height="0">
	<symbol xmlns="http://www.w3.org/2000/svg" id="marker" viewBox="0 0 16 20">
		<path d="M8 12C10.206 12 12 10.206 12 8C12 5.794 10.206 4 8 4C5.794 4 4 5.794 4 8C4 10.206 5.794 12 8 12ZM8 6C9.103 6 10 6.897 10 8C10 9.103 9.103 10 8 10C6.897 10 6 9.103 6 8C6 6.897 6.897 6 8 6Z"/>
		<path d="M7.42009 19.814C7.59409 19.938 7.79709 20 8.00009 20C8.20309 20 8.40609 19.938 8.58009 19.814C8.88409 19.599 16.0291 14.44 16.0001 8C16.0001 3.589 12.4111 0 8.00009 0C3.58909 0 8.80377e-05 3.589 8.80377e-05 7.995C-0.028912 14.44 7.11609 19.599 7.42009 19.814ZM8.00009 2C11.3091 2 14.0001 4.691 14.0001 8.005C14.0211 12.443 9.61209 16.428 8.00009 17.735C6.38909 16.427 1.97909 12.441 2.00009 8C2.00009 4.691 4.69109 2 8.00009 2Z"/>
	</symbol>
	
	<symbol xmlns="http://www.w3.org/2000/svg" id="lupa" viewBox="0 0 24 24">
		<path d="M9.91029 15.8426C10.6893 15.8426 11.4608 15.6892 12.1805 15.3911C12.9003 15.0929 13.5542 14.656 14.1051 14.1051C14.656 13.5542 15.0929 12.9002 15.3911 12.1805C15.6892 11.4608 15.8426 10.6893 15.8426 9.91029C15.8426 9.13124 15.6892 8.35982 15.3911 7.64008C15.0929 6.92033 14.656 6.26636 14.1051 5.71549C13.5542 5.16462 12.9003 4.72765 12.1805 4.42952C11.4608 4.13139 10.6893 3.97794 9.91029 3.97794C8.33694 3.97794 6.82802 4.60296 5.71549 5.71549C4.60296 6.82802 3.97795 8.33693 3.97795 9.91029C3.97795 11.4836 4.60296 12.9926 5.71549 14.1051C6.82802 15.2176 8.33694 15.8426 9.91029 15.8426V15.8426ZM16.159 14.761L19.6987 18.3006C19.793 18.3919 19.8683 18.501 19.92 18.6217C19.9717 18.7424 19.9989 18.8721 20 19.0034C20.001 19.1347 19.9759 19.2648 19.9261 19.3863C19.8763 19.5078 19.8028 19.6181 19.7099 19.7109C19.617 19.8037 19.5066 19.877 19.385 19.9266C19.2635 19.9763 19.1333 20.0012 19.002 20C18.8707 19.9987 18.741 19.9714 18.6204 19.9195C18.4998 19.8676 18.3908 19.7922 18.2996 19.6977L14.76 16.158C13.1706 17.3918 11.1707 17.9735 9.16752 17.7847C7.16432 17.5959 5.30838 16.6507 3.9775 15.1417C2.64663 13.6326 1.94086 11.6731 2.00388 9.66204C2.06691 7.65096 2.89398 5.73948 4.31673 4.31673C5.73948 2.89398 7.65096 2.06691 9.66205 2.00388C11.6731 1.94086 13.6327 2.64663 15.1417 3.9775C16.6507 5.30838 17.5959 7.16432 17.7847 9.16751C17.9735 11.1707 17.3918 13.1706 16.158 14.76L16.159 14.761Z"/>
	</symbol>

	<symbol xmlns="http://www.w3.org/2000/svg" id="stock" viewBox="0 0 20 20">
		<path d="M15 12.7002H17.5C18.7703 12.7002 19.7998 13.7298 19.7998 15V17.5C19.7998 18.7702 18.7702 19.7998 17.5 19.7998H15C13.7298 19.7998 12.7002 18.7702 12.7002 17.5V15C12.7002 13.7298 13.7297 12.7002 15 12.7002ZM15.3955 0.639648C15.7326 0.167837 16.3885 0.0585053 16.8604 0.395508C17.3322 0.732553 17.4415 1.38848 17.1045 1.86035L4.60449 19.3604C4.26743 19.8322 3.61151 19.9415 3.13965 19.6045C2.66778 19.2674 2.55849 18.6115 2.89551 18.1396L15.3955 0.639648ZM14.7998 17.7002H17.7002V14.7998H14.7998V17.7002ZM2.5 0.200195H5C6.27023 0.200195 7.29977 1.22979 7.2998 2.5V5C7.2998 6.27024 6.27026 7.2998 5 7.2998H2.5C1.22974 7.2998 0.200195 6.27024 0.200195 5V2.5C0.200235 1.22979 1.22977 0.200195 2.5 0.200195ZM2.2998 5.2002H5.2002V2.2998H2.2998V5.2002Z" stroke="#F0F1F4" stroke-width="0.4"/>
	</symbol>

	<symbol xmlns="http://www.w3.org/2000/svg" id="favorite" viewBox="0 0 20 20">
		<path fill-rule="evenodd" clip-rule="evenodd" d="M0 7.38517C0 3.94304 2.46941 1 5.69154 1C7.43501 1 8.96825 1.87243 10 3.21058C11.0317 1.87248 12.5647 1 14.3073 1C17.5306 1 20 3.94435 20 7.38517C20 8.76903 19.4861 10.1005 18.7437 11.3079C17.9997 12.5182 16.9978 13.6504 15.9503 14.6514C13.8556 16.653 11.4963 18.2066 10.4001 18.8858C10.1543 19.0381 9.84541 19.0381 9.59964 18.8856C8.50368 18.206 6.1444 16.6523 4.04975 14.651C3.00214 13.65 2.00034 12.5179 1.25629 11.3078C0.513988 10.1004 0 8.76904 0 7.38517ZM5.69154 2.56522C3.47675 2.56522 1.53846 4.63783 1.53846 7.38517C1.53846 8.37519 1.90889 9.41772 2.56059 10.4777C3.21053 11.5347 4.11228 12.5634 5.10294 13.5099C6.86222 15.1909 8.83756 16.5526 10.0001 17.2968C11.1626 16.5533 13.1378 15.1915 14.897 13.5105C15.8877 12.5639 16.7894 11.5352 17.4394 10.4779C18.0911 9.41781 18.4615 8.3752 18.4615 7.38517C18.4615 4.63914 16.5233 2.56522 14.3073 2.56522C12.7901 2.56522 11.4198 3.52051 10.6891 5.01901C10.5592 5.28535 10.2922 5.45382 10 5.45382C9.70777 5.45382 9.44078 5.28535 9.3109 5.01901C8.58026 3.52062 7.21005 2.56522 5.69154 2.56522Z"/>
	</symbol>

	<symbol xmlns="http://www.w3.org/2000/svg" id="compare" viewBox="0 0 20 20">
		<path fill-rule="evenodd" clip-rule="evenodd" d="M3.71894 1.4878C2.48645 1.4878 1.48758 2.48682 1.48758 3.7195V16.2805C1.48758 17.5132 2.48645 18.5122 3.71894 18.5122H16.2801C17.5125 18.5122 18.5116 17.5131 18.5124 16.28V3.7195C18.5124 2.48682 17.5136 1.4878 16.2811 1.4878H3.71894ZM0 3.7195C0 1.66513 1.66489 0 3.71894 0H16.2811C18.3351 0 20 1.66513 20 3.7195V16.2805C19.9987 18.3344 18.3342 20 16.2801 20H3.71894C1.66489 20 0 18.3349 0 16.2805V3.7195ZM9.99952 5.28962C10.4103 5.28962 10.7433 5.62267 10.7433 6.03352V13.9665C10.7433 14.3773 10.4103 14.7104 9.99952 14.7104C9.58875 14.7104 9.25573 14.3773 9.25573 13.9665V6.03352C9.25573 5.62267 9.58875 5.28962 9.99952 5.28962ZM13.9664 8.26422C14.3772 8.26422 14.7102 8.59728 14.7102 9.00812V13.9665C14.7102 14.3773 14.3772 14.7104 13.9664 14.7104C13.5556 14.7104 13.2226 14.3773 13.2226 13.9665V9.00812C13.2226 8.59727 13.5556 8.26422 13.9664 8.26422ZM6.03262 10.5783C6.4434 10.5783 6.77641 10.9113 6.77641 11.3222V13.9665C6.77641 14.3773 6.4434 14.7104 6.03262 14.7104C5.62184 14.7104 5.28883 14.3773 5.28883 13.9665V11.3222C5.28883 10.9113 5.62184 10.5783 6.03262 10.5783Z"/>
	</symbol>

	<symbol xmlns="http://www.w3.org/2000/svg" id="cart" viewBox="0 0 20 20">
		<path d="M2.67242 20.4492H18.228C19.4535 20.4492 20.4502 19.5522 20.4502 18.4492V7.44922C20.4502 6.89622 19.9535 6.44922 19.3391 6.44922H16.0058V5.44922C16.0058 2.69222 13.5135 0.449219 10.4502 0.449219C7.38686 0.449219 4.89464 2.69222 4.89464 5.44922V6.44922H1.56131C0.946862 6.44922 0.450195 6.89622 0.450195 7.44922V18.4492C0.450195 19.5522 1.44686 20.4492 2.67242 20.4492ZM7.11686 5.44922C7.11686 3.79522 8.61242 2.44922 10.4502 2.44922C12.288 2.44922 13.7835 3.79522 13.7835 5.44922V6.44922H7.11686V5.44922ZM2.67242 8.44922H4.89464V10.4492H7.11686V8.44922H13.7835V10.4492H16.0058V8.44922H18.228L18.2302 18.4492H2.67242V8.44922Z" stroke="#F0F1F4" stroke-width="0.9"/>
	</symbol>

	<symbol xmlns="http://www.w3.org/2000/svg" id="user" viewBox="0 0 20 20">
		<path d="M7.85449 0.527344C8.64018 0.201906 9.50479 0.116337 10.3389 0.282227C11.173 0.448143 11.9397 0.857619 12.541 1.45898C13.1424 2.06035 13.5519 2.82701 13.7178 3.66113C13.8837 4.49521 13.7981 5.35982 13.4727 6.14551C13.1472 6.93123 12.5958 7.60271 11.8887 8.0752C11.1816 8.54763 10.3504 8.7998 9.5 8.7998C8.35957 8.7998 7.26539 8.34742 6.45898 7.54102C5.65258 6.73461 5.2002 5.64043 5.2002 4.5C5.2002 3.6496 5.45237 2.81843 5.9248 2.11133C6.39729 1.4042 7.06877 0.8528 7.85449 0.527344ZM9.5 2.0498C8.85022 2.0498 8.22704 2.30811 7.76758 2.76758C7.30811 3.22704 7.04981 3.85022 7.0498 4.5C7.0498 4.98456 7.19368 5.45843 7.46289 5.86133C7.7321 6.26417 8.11487 6.57826 8.5625 6.76367C9.00999 6.949 9.50248 6.99771 9.97754 6.90332C10.4528 6.80879 10.8898 6.57506 11.2324 6.23242C11.5751 5.88978 11.8088 5.45279 11.9033 4.97754C11.9977 4.50248 11.949 4.00999 11.7637 3.5625C11.5783 3.11487 11.2642 2.7321 10.8613 2.46289C10.4584 2.19368 9.98456 2.0498 9.5 2.0498Z" stroke="#F0F1F4" stroke-width="0.4"/>
		<path d="M10 11.2002C12.0697 11.2002 14.0541 12.0095 15.5166 13.4492C16.979 14.8888 17.7998 16.8405 17.7998 18.875C17.7998 19.1193 17.7018 19.3546 17.5254 19.5283C17.3489 19.7021 17.1084 19.7997 16.8574 19.7998C16.6065 19.7998 16.366 19.702 16.1895 19.5283C16.013 19.3546 15.9141 19.1193 15.9141 18.875C15.9141 17.3291 15.2901 15.847 14.1807 14.7549C13.0713 13.663 11.5675 13.0498 10 13.0498C8.43253 13.0498 6.9287 13.663 5.81934 14.7549C4.70985 15.847 4.08594 17.3291 4.08594 18.875C4.08594 19.1193 3.98703 19.3546 3.81055 19.5283C3.63398 19.702 3.39353 19.7998 3.14258 19.7998C2.89161 19.7997 2.65113 19.7021 2.47461 19.5283C2.29816 19.3546 2.2002 19.1193 2.2002 18.875L2.20996 18.4941C2.30562 16.5983 3.11254 14.7987 4.4834 13.4492C5.94595 12.0095 7.9303 11.2002 10 11.2002Z" stroke="#F0F1F4" stroke-width="0.4"/>
	</symbol>

	<symbol xmlns="http://www.w3.org/2000/svg" id="arrow3" viewBox="0 0 9 5">
		<path d="M8.82213 0.173415C8.76779 0.118069 8.70239 0.0741489 8.62995 0.0443603C8.55751 0.0145716 8.47958 -0.000453818 8.40095 0.000210418C8.23874 0.000210418 8.09881 0.0579451 7.98024 0.173415L4.50593 3.55667L1.01976 0.161868C0.965585 0.108758 0.900811 0.0670151 0.829434 0.0392126C0.758057 0.01141 0.681589 -0.00186337 0.604743 0.000210418C0.438735 0.000210418 0.296443 0.0579451 0.177866 0.173415C0.0592885 0.288884 0 0.4256 0 0.5831C0 0.740139 0.0592885 0.877317 0.177866 0.992786L4.17391 4.87256C4.22134 4.91875 4.27257 4.95108 4.32759 4.97094C4.44299 5.00969 4.56839 5.00969 4.68379 4.97094C4.74204 4.9497 4.7947 4.91609 4.83794 4.87256L8.83399 0.981239C8.94451 0.87316 9 0.740601 9 0.5831C9 0.425138 8.94071 0.288884 8.82213 0.173415Z"/>
	</symbol>


	<symbol xmlns="http://www.w3.org/2000/svg" id="arrow" viewBox="0 0 8 13">
		<path d="M0.355351 1.99217L5.06911 6.50581L0.355351 11.0195C-0.11845 11.4732 -0.11845 12.206 0.355351 12.6597C0.829152 13.1134 1.59452 13.1134 2.06833 12.6597L7.64465 7.32013C8.11845 6.86644 8.11845 6.13355 7.64465 5.67986L2.06833 0.340269C1.59452 -0.113423 0.829152 -0.113423 0.355351 0.340269C-0.106302 0.79396 -0.11845 1.53847 0.355351 1.99217Z"/>
	</symbol>
	<symbol xmlns="http://www.w3.org/2000/svg" id="arrow2" viewBox="0 0 11 17">
		<path d="M0.45688 2.56136L6.51743 8.36461L0.45688 14.1679C-0.152293 14.7512 -0.152293 15.6935 0.45688 16.2768C1.06605 16.8601 2.0501 16.8601 2.65928 16.2768L9.82883 9.41159C10.438 8.82828 10.438 7.88599 9.82883 7.30268L2.65928 0.437488C2.0501 -0.145829 1.06605 -0.145829 0.45688 0.437488C-0.136673 1.02081 -0.152293 1.97803 0.45688 2.56136Z"/>
	</symbol>
	<symbol xmlns="http://www.w3.org/2000/svg" id="download" viewBox="0 0 14 14">
		<path d="M13.5 9.52019V12.1734C13.5 12.5252 13.3548 12.8627 13.0964 13.1114C12.8379 13.3602 12.4874 13.5 12.1219 13.5L1.87814 13.4798C1.51263 13.4798 1.1621 13.34 0.903646 13.0913C0.645195 12.8425 0.499999 12.505 0.499999 12.1532V9.5" stroke-linecap="round" stroke-linejoin="round"/>
		<path d="M3.5 6.5L7 10.5L10.5 6.5" stroke-linecap="round" stroke-linejoin="round"/>
		<path d="M7 9.5V0.5" stroke-linecap="round" stroke-linejoin="round"/>
	</symbol>
	<symbol xmlns="http://www.w3.org/2000/svg" id="arrow4" viewBox="0 0 4 7">
		<path d="M0.177675 0.996086L2.53456 3.25291L0.177675 5.50973C-0.0592252 5.73658 -0.0592252 6.10302 0.177675 6.32987C0.414576 6.55671 0.797262 6.55671 1.03416 6.32987L3.82232 3.66006C4.05923 3.43322 4.05923 3.06678 3.82232 2.83993L1.03416 0.170134C0.797262 -0.0567115 0.414576 -0.0567115 0.177675 0.170134C-0.0531508 0.39698 -0.0592252 0.769234 0.177675 0.996086Z"/>
	</symbol>
	<symbol xmlns="http://www.w3.org/2000/svg" id="attach" viewBox="0 0 12 13">
		<path d="M7.20762 2.60898C7.98734 1.81443 8.96657 1.74753 9.64758 2.44285C10.3287 3.13743 10.2639 4.13869 9.48564 4.934L5.27123 9.23675C5.2018 9.30522 5.10881 9.3431 5.01229 9.34225C4.91576 9.34139 4.82343 9.30186 4.75517 9.23217C4.68692 9.16249 4.6482 9.06822 4.64736 8.96967C4.64653 8.87112 4.68363 8.77619 4.75068 8.7053L8.9651 4.40255C9.3428 4.01692 9.58356 3.43961 9.12781 2.97431C8.6728 2.509 8.1066 2.75556 7.7289 3.14119L3.04328 7.92428C1.69958 9.29764 1.36459 9.93062 2.16491 10.7485C2.97481 11.5745 3.8333 11.3701 5.12619 10.0509L10.3316 4.7348C11.1725 3.87635 11.7614 2.47442 10.6563 1.34687C9.34427 0.00732901 7.84597 1.32431 7.41893 1.76106L2.63612 6.64487C2.56669 6.71335 2.4737 6.75123 2.37718 6.75037C2.28065 6.74951 2.18832 6.70999 2.12006 6.6403C2.05181 6.57062 2.01309 6.47634 2.01225 6.3778C2.01142 6.27925 2.04852 6.18431 2.11558 6.11342L6.89839 1.2296C8.34442 -0.246747 9.9841 -0.404605 11.1775 0.815412C12.3836 2.04595 12.2533 3.83501 10.8522 5.26625L5.646 10.5816C5.2035 11.0333 4.25591 12 3.16624 12C2.67662 12 2.15754 11.8038 1.64363 11.2791C0.180661 9.78472 1.53392 8.40161 2.522 7.39207L7.20762 2.60898Z"/>
	</symbol>
</svg>