<svg width="0" height="0">
<svg width="16" height="16" viewBox="0 0 " fill="none" xmlns="http://www.w3.org/2000/svg">

</svg>
	<symbol xmlns="http://www.w3.org/2000/svg" id="arrow" viewBox="0 0 8 13">
		<path d="M0.355351 1.99217L5.06911 6.50581L0.355351 11.0195C-0.11845 11.4732 -0.11845 12.206 0.355351 12.6597C0.829152 13.1134 1.59452 13.1134 2.06833 12.6597L7.64465 7.32013C8.11845 6.86644 8.11845 6.13355 7.64465 5.67986L2.06833 0.340269C1.59452 -0.113423 0.829152 -0.113423 0.355351 0.340269C-0.106302 0.79396 -0.11845 1.53847 0.355351 1.99217Z"/>
	</symbol>
	<symbol xmlns="http://www.w3.org/2000/svg" id="arrow2" viewBox="0 0 11 17">
		<path d="M0.45688 2.56136L6.51743 8.36461L0.45688 14.1679C-0.152293 14.7512 -0.152293 15.6935 0.45688 16.2768C1.06605 16.8601 2.0501 16.8601 2.65928 16.2768L9.82883 9.41159C10.438 8.82828 10.438 7.88599 9.82883 7.30268L2.65928 0.437488C2.0501 -0.145829 1.06605 -0.145829 0.45688 0.437488C-0.136673 1.02081 -0.152293 1.97803 0.45688 2.56136Z"/>
	</symbol>
	<symbol xmlns="http://www.w3.org/2000/svg" id="download" viewBox="0 0 14 14">
		<path d="M13.5 9.52019V12.1734C13.5 12.5252 13.3548 12.8627 13.0964 13.1114C12.8379 13.3602 12.4874 13.5 12.1219 13.5L1.87814 13.4798C1.51263 13.4798 1.1621 13.34 0.903646 13.0913C0.645195 12.8425 0.499999 12.505 0.499999 12.1532V9.5" stroke-linecap="round" stroke-linejoin="round"/>
		<path d="M3.5 6.5L7 10.5L10.5 6.5" stroke-linecap="round" stroke-linejoin="round"/>
		<path d="M7 9.5V0.5" stroke-linecap="round" stroke-linejoin="round"/>
	</symbol>
	<symbol xmlns="http://www.w3.org/2000/svg" id="attach" viewBox="0 0 12 13">
		<path d="M7.20762 2.60898C7.98734 1.81443 8.96657 1.74753 9.64758 2.44285C10.3287 3.13743 10.2639 4.13869 9.48564 4.934L5.27123 9.23675C5.2018 9.30522 5.10881 9.3431 5.01229 9.34225C4.91576 9.34139 4.82343 9.30186 4.75517 9.23217C4.68692 9.16249 4.6482 9.06822 4.64736 8.96967C4.64653 8.87112 4.68363 8.77619 4.75068 8.7053L8.9651 4.40255C9.3428 4.01692 9.58356 3.43961 9.12781 2.97431C8.6728 2.509 8.1066 2.75556 7.7289 3.14119L3.04328 7.92428C1.69958 9.29764 1.36459 9.93062 2.16491 10.7485C2.97481 11.5745 3.8333 11.3701 5.12619 10.0509L10.3316 4.7348C11.1725 3.87635 11.7614 2.47442 10.6563 1.34687C9.34427 0.00732901 7.84597 1.32431 7.41893 1.76106L2.63612 6.64487C2.56669 6.71335 2.4737 6.75123 2.37718 6.75037C2.28065 6.74951 2.18832 6.70999 2.12006 6.6403C2.05181 6.57062 2.01309 6.47634 2.01225 6.3778C2.01142 6.27925 2.04852 6.18431 2.11558 6.11342L6.89839 1.2296C8.34442 -0.246747 9.9841 -0.404605 11.1775 0.815412C12.3836 2.04595 12.2533 3.83501 10.8522 5.26625L5.646 10.5816C5.2035 11.0333 4.25591 12 3.16624 12C2.67662 12 2.15754 11.8038 1.64363 11.2791C0.180661 9.78472 1.53392 8.40161 2.522 7.39207L7.20762 2.60898Z"/>
	</symbol>
</svg>