<svg width="0" height="0">
	<symbol xmlns="http://www.w3.org/2000/svg" id="marker" viewBox="0 0 16 20">
		<path d="M8 12C10.206 12 12 10.206 12 8C12 5.794 10.206 4 8 4C5.794 4 4 5.794 4 8C4 10.206 5.794 12 8 12ZM8 6C9.103 6 10 6.897 10 8C10 9.103 9.103 10 8 10C6.897 10 6 9.103 6 8C6 6.897 6.897 6 8 6Z"/>
		<path d="M7.42009 19.814C7.59409 19.938 7.79709 20 8.00009 20C8.20309 20 8.40609 19.938 8.58009 19.814C8.88409 19.599 16.0291 14.44 16.0001 8C16.0001 3.589 12.4111 0 8.00009 0C3.58909 0 8.80377e-05 3.589 8.80377e-05 7.995C-0.028912 14.44 7.11609 19.599 7.42009 19.814ZM8.00009 2C11.3091 2 14.0001 4.691 14.0001 8.005C14.0211 12.443 9.61209 16.428 8.00009 17.735C6.38909 16.427 1.97909 12.441 2.00009 8C2.00009 4.691 4.69109 2 8.00009 2Z"/>
	</symbol>
	
	<symbol xmlns="http://www.w3.org/2000/svg" id="lupa" viewBox="0 0 24 24">
		<path d="M9.91029 15.8426C10.6893 15.8426 11.4608 15.6892 12.1805 15.3911C12.9003 15.0929 13.5542 14.656 14.1051 14.1051C14.656 13.5542 15.0929 12.9002 15.3911 12.1805C15.6892 11.4608 15.8426 10.6893 15.8426 9.91029C15.8426 9.13124 15.6892 8.35982 15.3911 7.64008C15.0929 6.92033 14.656 6.26636 14.1051 5.71549C13.5542 5.16462 12.9003 4.72765 12.1805 4.42952C11.4608 4.13139 10.6893 3.97794 9.91029 3.97794C8.33694 3.97794 6.82802 4.60296 5.71549 5.71549C4.60296 6.82802 3.97795 8.33693 3.97795 9.91029C3.97795 11.4836 4.60296 12.9926 5.71549 14.1051C6.82802 15.2176 8.33694 15.8426 9.91029 15.8426V15.8426ZM16.159 14.761L19.6987 18.3006C19.793 18.3919 19.8683 18.501 19.92 18.6217C19.9717 18.7424 19.9989 18.8721 20 19.0034C20.001 19.1347 19.9759 19.2648 19.9261 19.3863C19.8763 19.5078 19.8028 19.6181 19.7099 19.7109C19.617 19.8037 19.5066 19.877 19.385 19.9266C19.2635 19.9763 19.1333 20.0012 19.002 20C18.8707 19.9987 18.741 19.9714 18.6204 19.9195C18.4998 19.8676 18.3908 19.7922 18.2996 19.6977L14.76 16.158C13.1706 17.3918 11.1707 17.9735 9.16752 17.7847C7.16432 17.5959 5.30838 16.6507 3.9775 15.1417C2.64663 13.6326 1.94086 11.6731 2.00388 9.66204C2.06691 7.65096 2.89398 5.73948 4.31673 4.31673C5.73948 2.89398 7.65096 2.06691 9.66205 2.00388C11.6731 1.94086 13.6327 2.64663 15.1417 3.9775C16.6507 5.30838 17.5959 7.16432 17.7847 9.16751C17.9735 11.1707 17.3918 13.1706 16.158 14.76L16.159 14.761Z"/>
	</symbol>
	
	<symbol xmlns="http://www.w3.org/2000/svg" id="close" viewBox="0 0 11 11">
		<path d="M10.5 0.5L0.5 10.5" stroke-linecap="round" stroke-linejoin="round"/>
		<path d="M0.5 0.5L10.5 10.5" stroke-linecap="round" stroke-linejoin="round"/>
	</symbol>
	
	<symbol xmlns="http://www.w3.org/2000/svg" id="arrow_back" viewBox="0 0 10 15">
		<path d="M9.45056 15L10 14L1.08056 8.33335V6.66666L10 1L9.45056 0L2.38419e-07 5.99999V9.00001L9.45056 15Z"/>
	</symbol>

	<symbol xmlns="http://www.w3.org/2000/svg" id="home" viewBox="0 0 20 20">
		<path d="M10 0.138672C10.7622 0.138672 11.5079 0.362162 12.1445 0.78125L18.1445 4.78125V4.78223C18.6783 5.13369 19.1178 5.61083 19.4238 6.17188C19.6916 6.66287 19.8508 7.20473 19.8906 7.76074L19.9004 7.99902V16.998C19.9004 17.7671 19.5945 18.505 19.0508 19.0488C18.5069 19.5927 17.7691 19.8984 17 19.8984H13.5C12.9961 19.8984 12.5126 19.6981 12.1562 19.3418C11.8 18.9855 11.5996 18.5019 11.5996 17.998V13.8984H8.40039V17.998C8.40039 18.5019 8.19996 18.9855 7.84375 19.3418C7.48743 19.6981 7.00391 19.8984 6.5 19.8984H3C2.23087 19.8984 1.49307 19.5927 0.949219 19.0488C0.405475 18.505 0.0996094 17.7671 0.0996094 16.998V7.99902C0.10619 7.36014 0.270238 6.73278 0.576172 6.17188C0.882197 5.61083 1.32171 5.13369 1.85547 4.78223V4.78125L7.85449 0.78125L7.85547 0.782227C8.49221 0.362948 9.23761 0.138672 10 0.138672ZM10 1.86914C9.64092 1.86914 9.28864 1.96061 8.97656 2.13477L8.84473 2.21484L2.84473 6.21484C2.54996 6.40895 2.30869 6.6744 2.14355 6.98633C1.99901 7.2594 1.91711 7.56062 1.90234 7.86816L1.90039 7.99805V16.998C1.90039 17.3207 2.00794 17.5977 2.2041 17.7939C2.40038 17.9902 2.67728 18.0986 3 18.0986H6.59961V13.998C6.5998 12.9534 7.45535 12.0986 8.5 12.0986H11.5C12.0039 12.0986 12.4874 12.299 12.8438 12.6553C13.1998 13.0115 13.4003 13.4944 13.4004 13.998V18.0986H17C17.3227 18.0986 17.5996 17.9902 17.7959 17.7939C17.9921 17.5977 18.0996 17.3207 18.0996 16.998V7.99805C18.1045 7.64574 18.0213 7.29775 17.8564 6.98633C17.7119 6.71327 17.5087 6.47613 17.2627 6.29102L17.1553 6.21484L11.1553 2.21484C10.8124 1.98904 10.4106 1.86914 10 1.86914Z" stroke="white" stroke-width="0.2"/>
	</symbol>
	
	<symbol xmlns="http://www.w3.org/2000/svg" id="ic_catalog" viewBox="0 0 24 20">
		<path d="M13.1016 1.70605C14.6991 1.0759 16.4585 0.983029 18.1133 1.44238C19.7682 1.90181 21.2283 2.88831 22.2725 4.25195C23.2514 5.53047 23.8152 7.07533 23.8916 8.67871L23.9004 9C23.8889 10.127 23.6358 11.2384 23.1592 12.2598C22.6823 13.2818 21.9919 14.1898 21.1348 14.9229L21.0684 14.9795L21.1162 15.0527L22.7041 17.5342C22.7412 17.712 22.7244 17.8966 22.6543 18.0645C22.5824 18.2364 22.4588 18.3827 22.3008 18.4814C22.1429 18.58 21.9583 18.6269 21.7725 18.6162C21.5897 18.6056 21.4147 18.5393 21.2705 18.4268L19.6816 16.1416L19.6328 16.0703L19.5547 16.1094C18.021 16.8821 16.2776 17.1342 14.5879 16.8271C12.8982 16.5201 11.3542 15.6711 10.1904 14.4082C9.02666 13.1451 8.30569 11.5364 8.1377 9.82715C7.9698 8.11817 8.36345 6.40086 9.25879 4.93555C10.1544 3.47005 11.5039 2.33628 13.1016 1.70605ZM16 2.89941C14.3822 2.89941 12.8305 3.54157 11.6865 4.68555C10.5426 5.82952 9.90039 7.3812 9.90039 8.99902C9.90039 10.6168 10.5426 12.1685 11.6865 13.3125C12.8305 14.4565 14.3822 15.0986 16 15.0986C17.6178 15.0986 19.1695 14.4565 20.3135 13.3125C21.4574 12.1685 22.0996 10.6168 22.0996 8.99902C22.0996 7.3812 21.4574 5.82952 20.3135 4.68555C19.1695 3.54157 17.6178 2.89941 16 2.89941ZM1 13.0986H6C6.2387 13.0986 6.46794 13.1935 6.63672 13.3623C6.8055 13.5311 6.90039 13.7603 6.90039 13.999C6.90039 14.2377 6.8055 14.467 6.63672 14.6357C6.46794 14.8045 6.23869 14.8994 6 14.8994H1C0.761307 14.8994 0.532064 14.8045 0.363281 14.6357C0.1945 14.467 0.0996114 14.2377 0.0996094 13.999C0.0996094 13.7218 0.191983 13.4984 0.345703 13.3447C0.499425 13.191 0.722725 13.0986 1 13.0986ZM1 8.09863H4C4.23869 8.09863 4.46794 8.19352 4.63672 8.3623C4.8055 8.53109 4.90039 8.76033 4.90039 8.99902C4.90039 9.23772 4.8055 9.46696 4.63672 9.63574C4.46794 9.80452 4.23869 9.89941 4 9.89941H1C0.761307 9.89941 0.532064 9.80452 0.363281 9.63574C0.1945 9.46696 0.0996115 9.23772 0.0996094 8.99902C0.0996094 8.76033 0.194501 8.53109 0.363281 8.3623C0.532064 8.19352 0.761305 8.09863 1 8.09863ZM1 3.09863H6C6.23869 3.09863 6.46794 3.19352 6.63672 3.3623C6.8055 3.53109 6.90039 3.76033 6.90039 3.99902C6.90039 4.23772 6.8055 4.46696 6.63672 4.63574C6.46794 4.80452 6.23869 4.89941 6 4.89941H1C0.761307 4.89941 0.532064 4.80452 0.363281 4.63574C0.1945 4.46696 0.0996115 4.23772 0.0996094 3.99902C0.0996094 3.76033 0.194501 3.53109 0.363281 3.3623C0.532064 3.19352 0.761305 3.09863 1 3.09863Z" stroke="white" stroke-width="0.2"/>
	</symbol>

	<symbol xmlns="http://www.w3.org/2000/svg" id="stock" viewBox="0 0 20 20">
		<path d="M15 12.7002H17.5C18.7703 12.7002 19.7998 13.7298 19.7998 15V17.5C19.7998 18.7702 18.7702 19.7998 17.5 19.7998H15C13.7298 19.7998 12.7002 18.7702 12.7002 17.5V15C12.7002 13.7298 13.7297 12.7002 15 12.7002ZM15.3955 0.639648C15.7326 0.167837 16.3885 0.0585053 16.8604 0.395508C17.3322 0.732553 17.4415 1.38848 17.1045 1.86035L4.60449 19.3604C4.26743 19.8322 3.61151 19.9415 3.13965 19.6045C2.66778 19.2674 2.55849 18.6115 2.89551 18.1396L15.3955 0.639648ZM14.7998 17.7002H17.7002V14.7998H14.7998V17.7002ZM2.5 0.200195H5C6.27023 0.200195 7.29977 1.22979 7.2998 2.5V5C7.2998 6.27024 6.27026 7.2998 5 7.2998H2.5C1.22974 7.2998 0.200195 6.27024 0.200195 5V2.5C0.200235 1.22979 1.22977 0.200195 2.5 0.200195ZM2.2998 5.2002H5.2002V2.2998H2.2998V5.2002Z" stroke="#F0F1F4" stroke-width="0.4"/>
	</symbol>

	<symbol xmlns="http://www.w3.org/2000/svg" id="favorite" viewBox="0 0 20 20">
		<path fill-rule="evenodd" clip-rule="evenodd" d="M0 7.38517C0 3.94304 2.46941 1 5.69154 1C7.43501 1 8.96825 1.87243 10 3.21058C11.0317 1.87248 12.5647 1 14.3073 1C17.5306 1 20 3.94435 20 7.38517C20 8.76903 19.4861 10.1005 18.7437 11.3079C17.9997 12.5182 16.9978 13.6504 15.9503 14.6514C13.8556 16.653 11.4963 18.2066 10.4001 18.8858C10.1543 19.0381 9.84541 19.0381 9.59964 18.8856C8.50368 18.206 6.1444 16.6523 4.04975 14.651C3.00214 13.65 2.00034 12.5179 1.25629 11.3078C0.513988 10.1004 0 8.76904 0 7.38517ZM5.69154 2.56522C3.47675 2.56522 1.53846 4.63783 1.53846 7.38517C1.53846 8.37519 1.90889 9.41772 2.56059 10.4777C3.21053 11.5347 4.11228 12.5634 5.10294 13.5099C6.86222 15.1909 8.83756 16.5526 10.0001 17.2968C11.1626 16.5533 13.1378 15.1915 14.897 13.5105C15.8877 12.5639 16.7894 11.5352 17.4394 10.4779C18.0911 9.41781 18.4615 8.3752 18.4615 7.38517C18.4615 4.63914 16.5233 2.56522 14.3073 2.56522C12.7901 2.56522 11.4198 3.52051 10.6891 5.01901C10.5592 5.28535 10.2922 5.45382 10 5.45382C9.70777 5.45382 9.44078 5.28535 9.3109 5.01901C8.58026 3.52062 7.21005 2.56522 5.69154 2.56522Z"/>
	</symbol>

	<symbol xmlns="http://www.w3.org/2000/svg" id="compare" viewBox="0 0 20 20">
		<path fill-rule="evenodd" clip-rule="evenodd" d="M3.71894 1.4878C2.48645 1.4878 1.48758 2.48682 1.48758 3.7195V16.2805C1.48758 17.5132 2.48645 18.5122 3.71894 18.5122H16.2801C17.5125 18.5122 18.5116 17.5131 18.5124 16.28V3.7195C18.5124 2.48682 17.5136 1.4878 16.2811 1.4878H3.71894ZM0 3.7195C0 1.66513 1.66489 0 3.71894 0H16.2811C18.3351 0 20 1.66513 20 3.7195V16.2805C19.9987 18.3344 18.3342 20 16.2801 20H3.71894C1.66489 20 0 18.3349 0 16.2805V3.7195ZM9.99952 5.28962C10.4103 5.28962 10.7433 5.62267 10.7433 6.03352V13.9665C10.7433 14.3773 10.4103 14.7104 9.99952 14.7104C9.58875 14.7104 9.25573 14.3773 9.25573 13.9665V6.03352C9.25573 5.62267 9.58875 5.28962 9.99952 5.28962ZM13.9664 8.26422C14.3772 8.26422 14.7102 8.59728 14.7102 9.00812V13.9665C14.7102 14.3773 14.3772 14.7104 13.9664 14.7104C13.5556 14.7104 13.2226 14.3773 13.2226 13.9665V9.00812C13.2226 8.59727 13.5556 8.26422 13.9664 8.26422ZM6.03262 10.5783C6.4434 10.5783 6.77641 10.9113 6.77641 11.3222V13.9665C6.77641 14.3773 6.4434 14.7104 6.03262 14.7104C5.62184 14.7104 5.28883 14.3773 5.28883 13.9665V11.3222C5.28883 10.9113 5.62184 10.5783 6.03262 10.5783Z"/>
	</symbol>

	<symbol xmlns="http://www.w3.org/2000/svg" id="cart" viewBox="0 0 20 20">
		<path d="M2.67242 20.4492H18.228C19.4535 20.4492 20.4502 19.5522 20.4502 18.4492V7.44922C20.4502 6.89622 19.9535 6.44922 19.3391 6.44922H16.0058V5.44922C16.0058 2.69222 13.5135 0.449219 10.4502 0.449219C7.38686 0.449219 4.89464 2.69222 4.89464 5.44922V6.44922H1.56131C0.946862 6.44922 0.450195 6.89622 0.450195 7.44922V18.4492C0.450195 19.5522 1.44686 20.4492 2.67242 20.4492ZM7.11686 5.44922C7.11686 3.79522 8.61242 2.44922 10.4502 2.44922C12.288 2.44922 13.7835 3.79522 13.7835 5.44922V6.44922H7.11686V5.44922ZM2.67242 8.44922H4.89464V10.4492H7.11686V8.44922H13.7835V10.4492H16.0058V8.44922H18.228L18.2302 18.4492H2.67242V8.44922Z" stroke="#F0F1F4" stroke-width="0.9"/>
	</symbol>

	<symbol xmlns="http://www.w3.org/2000/svg" id="user" viewBox="0 0 20 20">
		<path d="M7.85449 0.527344C8.64018 0.201906 9.50479 0.116337 10.3389 0.282227C11.173 0.448143 11.9397 0.857619 12.541 1.45898C13.1424 2.06035 13.5519 2.82701 13.7178 3.66113C13.8837 4.49521 13.7981 5.35982 13.4727 6.14551C13.1472 6.93123 12.5958 7.60271 11.8887 8.0752C11.1816 8.54763 10.3504 8.7998 9.5 8.7998C8.35957 8.7998 7.26539 8.34742 6.45898 7.54102C5.65258 6.73461 5.2002 5.64043 5.2002 4.5C5.2002 3.6496 5.45237 2.81843 5.9248 2.11133C6.39729 1.4042 7.06877 0.8528 7.85449 0.527344ZM9.5 2.0498C8.85022 2.0498 8.22704 2.30811 7.76758 2.76758C7.30811 3.22704 7.04981 3.85022 7.0498 4.5C7.0498 4.98456 7.19368 5.45843 7.46289 5.86133C7.7321 6.26417 8.11487 6.57826 8.5625 6.76367C9.00999 6.949 9.50248 6.99771 9.97754 6.90332C10.4528 6.80879 10.8898 6.57506 11.2324 6.23242C11.5751 5.88978 11.8088 5.45279 11.9033 4.97754C11.9977 4.50248 11.949 4.00999 11.7637 3.5625C11.5783 3.11487 11.2642 2.7321 10.8613 2.46289C10.4584 2.19368 9.98456 2.0498 9.5 2.0498Z" stroke="#F0F1F4" stroke-width="0.4"/>
		<path d="M10 11.2002C12.0697 11.2002 14.0541 12.0095 15.5166 13.4492C16.979 14.8888 17.7998 16.8405 17.7998 18.875C17.7998 19.1193 17.7018 19.3546 17.5254 19.5283C17.3489 19.7021 17.1084 19.7997 16.8574 19.7998C16.6065 19.7998 16.366 19.702 16.1895 19.5283C16.013 19.3546 15.9141 19.1193 15.9141 18.875C15.9141 17.3291 15.2901 15.847 14.1807 14.7549C13.0713 13.663 11.5675 13.0498 10 13.0498C8.43253 13.0498 6.9287 13.663 5.81934 14.7549C4.70985 15.847 4.08594 17.3291 4.08594 18.875C4.08594 19.1193 3.98703 19.3546 3.81055 19.5283C3.63398 19.702 3.39353 19.7998 3.14258 19.7998C2.89161 19.7997 2.65113 19.7021 2.47461 19.5283C2.29816 19.3546 2.2002 19.1193 2.2002 18.875L2.20996 18.4941C2.30562 16.5983 3.11254 14.7987 4.4834 13.4492C5.94595 12.0095 7.9303 11.2002 10 11.2002Z" stroke="#F0F1F4" stroke-width="0.4"/>
	</symbol>

	<symbol xmlns="http://www.w3.org/2000/svg" id="ic_pay1" viewBox="0 0 24 24">
		<path fill-rule="evenodd" clip-rule="evenodd" d="M7 5C7 4.20435 7.31607 3.44129 7.87868 2.87868C8.44129 2.31607 9.20435 2 10 2H14C14.7956 2 15.5587 2.31607 16.1213 2.87868C16.6839 3.44129 17 4.20435 17 5V6H20C20.7956 6 21.5587 6.31607 22.1213 6.87868C22.6839 7.44129 23 8.20435 23 9V9.2C20.3 11.1 17.2 12.2 14 12.5V12C14 11.4 13.6 11 13 11H11C10.7348 11 10.4804 11.1054 10.2929 11.2929C10.1054 11.4804 10 11.7348 10 12V12.5C6.8 12.2 3.7 11.1 1 9.2V9C1 8.20435 1.31607 7.44129 1.87868 6.87868C2.44129 6.31607 3.20435 6 4 6H7V5ZM10 4C9.73478 4 9.48043 4.10536 9.29289 4.29289C9.10536 4.48043 9 4.73478 9 5V6H15V5C15 4.4 14.6 4 14 4H10ZM14 14.5C17.1 14.2 20.2 13.3 23 11.6V18C23 18.7956 22.6839 19.5587 22.1213 20.1213C21.5587 20.6839 20.7956 21 20 21H4C3.20435 21 2.44129 20.6839 1.87868 20.1213C1.31607 19.5587 1 18.7956 1 18V11.6C3.8 13.3 6.9 14.2 10 14.6V15C10 15.6 10.4 16 11 16H13C13.6 16 14 15.6 14 15V14.5Z"/>
	</symbol>

	<symbol xmlns="http://www.w3.org/2000/svg" id="ic_pay2" viewBox="0 0 24 24">
		<path d="M12.0002 12C10.9002 12 9.95819 11.608 9.17519 10.825C8.39219 10.042 8.00019 9.1 8.00019 8C8.00019 6.9 8.39219 5.958 9.17519 5.175C9.95819 4.392 10.9002 4 12.0002 4C13.1002 4 14.0422 4.392 14.8252 5.175C15.6082 5.958 16.0002 6.9 16.0002 8C16.0002 9.1 15.6082 10.042 14.8252 10.825C14.0422 11.608 13.1002 12 12.0002 12ZM6.00019 20C5.45019 20 4.98019 19.804 4.58819 19.413C4.39887 19.2301 4.24902 19.0104 4.1479 18.7674C4.04677 18.5244 3.9965 18.2632 4.00019 18V17.2C4.00019 16.633 4.14619 16.112 4.43819 15.637C4.71718 15.1739 5.11952 14.7975 5.60019 14.55C6.6029 14.0446 7.65964 13.6545 8.75019 13.387C9.8143 13.1293 10.9053 12.9994 12.0002 13C13.1002 13 14.1832 13.129 15.2502 13.387C16.3172 13.646 17.3672 14.033 18.4002 14.55C18.8832 14.8 19.2702 15.162 19.5622 15.637C19.8542 16.112 20.0002 16.633 20.0002 17.2V18C20.0038 18.2631 19.9536 18.5242 19.8527 18.7672C19.7518 19.0101 19.6022 19.2299 19.4132 19.413C19.2302 19.6021 19.0104 19.7517 18.7674 19.8527C18.5244 19.9536 18.2633 20.0038 18.0002 20H6.00019Z"/>
	</symbol>

	<symbol xmlns="http://www.w3.org/2000/svg" id="arrow3" viewBox="0 0 9 5">
		<path d="M8.82213 0.173415C8.76779 0.118069 8.70239 0.0741489 8.62995 0.0443603C8.55751 0.0145716 8.47958 -0.000453818 8.40095 0.000210418C8.23874 0.000210418 8.09881 0.0579451 7.98024 0.173415L4.50593 3.55667L1.01976 0.161868C0.965585 0.108758 0.900811 0.0670151 0.829434 0.0392126C0.758057 0.01141 0.681589 -0.00186337 0.604743 0.000210418C0.438735 0.000210418 0.296443 0.0579451 0.177866 0.173415C0.0592885 0.288884 0 0.4256 0 0.5831C0 0.740139 0.0592885 0.877317 0.177866 0.992786L4.17391 4.87256C4.22134 4.91875 4.27257 4.95108 4.32759 4.97094C4.44299 5.00969 4.56839 5.00969 4.68379 4.97094C4.74204 4.9497 4.7947 4.91609 4.83794 4.87256L8.83399 0.981239C8.94451 0.87316 9 0.740601 9 0.5831C9 0.425138 8.94071 0.288884 8.82213 0.173415Z"/>
	</symbol>

	<symbol xmlns="http://www.w3.org/2000/svg" id="delete" viewBox="0 0 16 16">
		<path d="M1 3.5H2.55556H15" stroke-linecap="round" stroke-linejoin="round"/>
		<path d="M13.5 3.5V14C13.5 14.3978 13.3344 14.7794 13.0397 15.0607C12.745 15.342 12.3453 15.5 11.9286 15.5H4.07143C3.65466 15.5 3.25496 15.342 2.96026 15.0607C2.66556 14.7794 2.5 14.3978 2.5 14V3.5M4.85714 3.5V2C4.85714 1.60218 5.0227 1.22064 5.3174 0.93934C5.6121 0.658035 6.0118 0.5 6.42857 0.5H9.57143C9.9882 0.5 10.3879 0.658035 10.6826 0.93934C10.9773 1.22064 11.1429 1.60218 11.1429 2V3.5" stroke-linecap="round" stroke-linejoin="round"/>
		<path d="M6 6.5V11.5" stroke-linecap="round" stroke-linejoin="round"/>
		<path d="M10 6.5V11.5" stroke-linecap="round" stroke-linejoin="round"/>
	</symbol>

	<symbol xmlns="http://www.w3.org/2000/svg" id="delete2" viewBox="0 0 17 17">
		<path d="M2.125 4.25H3.54167H14.875" stroke-width="1.5" stroke-linecap="round" stroke-linejoin="round"/>
		<path d="M13.4596 4.2513V14.168C13.4596 14.5437 13.3104 14.904 13.0447 15.1697C12.779 15.4354 12.4187 15.5846 12.043 15.5846H4.95964C4.58391 15.5846 4.22358 15.4354 3.9579 15.1697C3.69222 14.904 3.54297 14.5437 3.54297 14.168V4.2513M5.66797 4.2513V2.83464C5.66797 2.45891 5.81722 2.09858 6.0829 1.8329C6.34858 1.56722 6.70891 1.41797 7.08464 1.41797H9.91797C10.2937 1.41797 10.654 1.56722 10.9197 1.8329C11.1854 2.09858 11.3346 2.45891 11.3346 2.83464V4.2513" stroke-width="1.5" stroke-linecap="round" stroke-linejoin="round"/>
	</symbol>

	<symbol xmlns="http://www.w3.org/2000/svg" id="big-plus" viewBox="0 0 24 24">
		<path d="M12 5V19" stroke-width="2" stroke-linecap="round" stroke-linejoin="round"/>
		<path d="M5 12H19" stroke-width="2" stroke-linecap="round" stroke-linejoin="round"/>
	</symbol>

	<symbol xmlns="http://www.w3.org/2000/svg" id="big-plus" viewBox="0 0 24 24">
		<path d="M12 5V19" stroke-width="2" stroke-linecap="round" stroke-linejoin="round"/>
		<path d="M5 12H19" stroke-width="2" stroke-linecap="round" stroke-linejoin="round"/>
	</symbol>

	<symbol xmlns="http://www.w3.org/2000/svg" id="minus" viewBox="0 0 12 2">
		<path d="M10.75 0.749999L5.75 0.75L0.75 0.75" stroke-width="1.5" stroke-linecap="round"/>
	</symbol>

	<symbol xmlns="http://www.w3.org/2000/svg" id="plus" viewBox="0 0 12 12">
		<path d="M5.75 0.75V5.75M5.75 10.75V5.75M5.75 5.75H10.75M5.75 5.75H0.75" stroke-width="1.5" stroke-linecap="round"/>
	</symbol>

	<symbol xmlns="http://www.w3.org/2000/svg" id="cart2" viewBox="0 0 17 16">
		<path d="M5.55078 13.54C6.23506 13.54 6.78305 14.0719 6.7832 14.7197C6.7832 15.3677 6.23516 15.9004 5.55078 15.9004C4.86657 15.9002 4.31934 15.3676 4.31934 14.7197C4.31949 14.072 4.86666 13.5402 5.55078 13.54ZM13.5449 13.54C14.2291 13.5401 14.7772 14.072 14.7773 14.7197C14.7773 15.3676 14.2292 15.9003 13.5449 15.9004C12.8606 15.9004 12.3125 15.3677 12.3125 14.7197C12.3127 14.0719 12.8607 13.54 13.5449 13.54ZM0.666016 0.0996094H1.89355C2.41003 0.0996094 2.88051 0.363457 3.14062 0.782227L2.64453 1.02148L2.6875 1.11133L2.73145 1.20215L3.23926 0.957031L3.65332 1.75293L3.68164 1.80664H15.8877C16.6695 1.80664 17.1457 2.61266 16.7666 3.25098L13.8486 8.15625C13.5906 8.59016 13.1088 8.86035 12.585 8.86035H5.86621L5.83691 8.90527L4.66113 10.7119C4.52145 10.9266 4.68721 11.1934 4.93359 11.1934H14.877C15.1934 11.1934 15.4434 11.4389 15.4434 11.7334C15.4433 12.0279 15.1934 12.2734 14.877 12.2734H4.93359C3.78476 12.2734 3.09943 11.0646 3.69922 10.1426L4.89941 8.29785L4.92676 8.25586L4.90918 8.20898L2.81055 2.56348H2.81152L2.80566 2.55176L2.18066 1.35156C2.1251 1.24503 2.01335 1.17969 1.89355 1.17969H0.666016C0.349598 1.17963 0.0996094 0.934107 0.0996094 0.639648C0.0998078 0.345345 0.349723 0.0996712 0.666016 0.0996094ZM4.18262 3.02148L5.92676 7.71484L5.95117 7.78027H12.585C12.6986 7.78027 12.806 7.72172 12.8643 7.62402L15.5918 3.03809L15.6816 2.88672H4.13184L4.18262 3.02148Z" stroke-width="0.2"/>
	</symbol>

	<symbol xmlns="http://www.w3.org/2000/svg" id="arrow_back2" viewBox="0 0 24 15">
		<path d="M0.292892 6.65617C-0.0976315 7.0467 -0.0976315 7.67986 0.292892 8.07039L6.65685 14.4343C7.04738 14.8249 7.68054 14.8249 8.07107 14.4343C8.46159 14.0438 8.46159 13.4107 8.07107 13.0201L2.41421 7.36328L8.07107 1.70643C8.46159 1.3159 8.46159 0.682738 8.07107 0.292213C7.68054 -0.0983109 7.04738 -0.0983109 6.65685 0.292213L0.292892 6.65617ZM24 7.36328V6.36328L1 6.36328V7.36328V8.36328L24 8.36328V7.36328Z"/>
	</symbol>

	<symbol xmlns="http://www.w3.org/2000/svg" id="dots" viewBox="0 0 15 4">
		<path d="M0.000184183 2.0001C0.000184183 1.45013 0.18393 0.980151 0.550484 0.588171C0.721927 0.398861 0.927914 0.249023 1.15574 0.147898C1.38357 0.0467742 1.6284 -0.00349211 1.87514 0.000199777C2.39075 0.000199777 2.8323 0.19619 3.19979 0.588171C3.37708 0.770936 3.51737 0.990513 3.61202 1.23335C3.70667 1.47619 3.75366 1.73714 3.75009 2.0001C3.75009 2.55007 3.56635 3.02105 3.19979 3.41303C2.8323 3.80401 2.39075 4 1.87514 4C1.35953 4 0.917975 3.80401 0.550484 3.41303C0.373216 3.23004 0.232943 3.01028 0.138303 2.76728C0.0436626 2.52429 -0.00334273 2.2632 0.000184183 2.0001ZM5.62505 2.0001C5.62505 1.45013 5.80879 0.980151 6.17628 0.588171C6.34748 0.398794 6.55329 0.248901 6.78098 0.147767C7.00866 0.0466326 7.25338 -0.00359215 7.5 0.000199777C8.01561 0.000199777 8.45716 0.19619 8.82465 0.588171C9.00194 0.770936 9.14223 0.990513 9.23688 1.23335C9.33153 1.47619 9.37852 1.73714 9.37495 2.0001C9.37495 2.55007 9.19121 3.02105 8.82465 3.41303C8.45716 3.80401 8.01561 4 7.5 4C6.98439 4 6.54377 3.80401 6.17628 3.41303C5.9988 3.23016 5.85832 3.01045 5.76352 2.76744C5.66871 2.52443 5.62158 2.26328 5.62505 2.0001ZM11.2499 2.0001C11.2499 1.45013 11.4337 0.980151 11.8011 0.588171C11.9723 0.398794 12.1782 0.248901 12.4058 0.147767C12.6335 0.0466326 12.8782 -0.00359215 13.1249 0.000199777C13.6405 0.000199777 14.0811 0.19619 14.4486 0.588171C14.6261 0.770778 14.7666 0.990302 14.8615 1.23316C14.9563 1.47602 15.0034 1.73705 14.9998 2.0001C14.9998 2.55007 14.8161 3.02105 14.4486 3.41303C14.082 3.80401 13.6405 4 13.1249 4C12.6092 4 12.1686 3.80401 11.8011 3.41303C11.6237 3.23016 11.4832 3.01045 11.3884 2.76744C11.2936 2.52443 11.2464 2.26328 11.2499 2.0001Z"/>
	</symbol>
	<symbol xmlns="http://www.w3.org/2000/svg" id="bell" viewBox="0 0 19 24">
		<path d="M11.459 21.2002C11.4415 21.4123 11.3925 21.621 11.3105 21.8184C11.2032 22.0767 11.0437 22.3103 10.8428 22.5049L10.8389 22.5098C10.6445 22.7106 10.4105 22.8693 10.1523 22.9766C9.89416 23.0838 9.61646 23.1377 9.33691 23.1338H9.33398C8.74591 23.1338 8.24744 22.9261 7.82715 22.5068L7.8252 22.5049C7.62401 22.3105 7.4649 22.0766 7.35742 21.8184C7.27533 21.621 7.22552 21.4124 7.20801 21.2002H11.459ZM9.33008 0.200195H9.33398C9.76768 0.200264 10.1288 0.349514 10.4316 0.652344V0.65332C10.7339 0.954695 10.8837 1.31622 10.8838 1.75V2.72266L11.0352 2.76074C12.5472 3.13847 13.7728 3.93523 14.7168 5.15332C15.661 6.3718 16.1338 7.76404 16.1338 9.33398V17.7002H17.5C17.7794 17.7002 18.0046 17.7928 18.1895 17.9775L18.1904 17.9785C18.2808 18.0674 18.3519 18.1745 18.3994 18.292C18.4469 18.4095 18.47 18.5354 18.4668 18.6621V18.667C18.4668 18.9465 18.3743 19.1716 18.1895 19.3564L18.1885 19.3574C18.0997 19.4477 17.9933 19.5189 17.876 19.5664C17.7585 19.6139 17.6316 19.6369 17.5049 19.6338H1.16211C1.03517 19.6369 0.908747 19.614 0.791016 19.5664C0.673382 19.5189 0.566642 19.4477 0.477539 19.3574L0.475586 19.3555L0.412109 19.2852C0.351902 19.2121 0.303114 19.1302 0.267578 19.042C0.220212 18.9245 0.197027 18.7985 0.200195 18.6719V18.6621C0.19721 18.5354 0.220228 18.4095 0.267578 18.292C0.314929 18.1745 0.385656 18.0677 0.475586 17.9785L0.477539 17.9766C0.566643 17.8862 0.673373 17.8151 0.791016 17.7676C0.908747 17.72 1.03517 17.6971 1.16211 17.7002H2.5332V9.33398C2.5332 7.76404 3.00601 6.3718 3.9502 5.15332C4.89414 3.93519 6.11982 3.13852 7.63184 2.76074L7.7832 2.72266V1.75C7.78327 1.3163 7.93349 0.95518 8.23633 0.652344L8.23828 0.650391C8.3797 0.504739 8.54964 0.389936 8.7373 0.3125C8.92511 0.235042 9.12696 0.196559 9.33008 0.200195ZM9.33398 4.4668C7.99717 4.4668 6.84718 4.94579 5.89648 5.89648C4.94581 6.84718 4.4668 7.99719 4.4668 9.33398V17.7002H14.2002V9.33398C14.2002 7.99717 13.7212 6.84718 12.7705 5.89648C11.8199 4.94595 10.6706 4.46687 9.33398 4.4668Z" stroke="white" stroke-width="0.4"/>
	</symbol>
	<symbol xmlns="http://www.w3.org/2000/svg" id="view_grid" viewBox="0 0 19 19">
		<path d="M3.55569 8.22224C3.12792 8.22224 2.76159 8.0698 2.45671 7.76492C2.30962 7.62276 2.19323 7.45198 2.11471 7.2631C2.03618 7.07422 1.9972 6.87125 2.00016 6.66672V3.55568C2.00016 3.12791 2.1526 2.76158 2.45671 2.4567C2.59904 2.30963 2.76997 2.19326 2.95897 2.11474C3.14798 2.03623 3.35105 1.99723 3.55569 2.00016H6.66677C7.09454 2.00016 7.46087 2.1526 7.76576 2.4567C8.06987 2.76158 8.22231 3.12791 8.22231 3.55568V6.66672C8.22231 7.09449 8.06987 7.46004 7.76576 7.76492C7.62352 7.91216 7.45263 8.02871 7.26361 8.10736C7.0746 8.18602 6.87148 8.22511 6.66677 8.22224H3.55569ZM3.55569 15.9998C3.12792 15.9998 2.76159 15.8474 2.45671 15.5433C2.30964 15.401 2.19326 15.23 2.11474 15.041C2.03623 14.852 1.99723 14.649 2.00016 14.4443V11.3333C2.00016 10.9055 2.1526 10.5392 2.45671 10.2343C2.59904 10.0872 2.76997 9.97086 2.95897 9.89235C3.14798 9.81383 3.35105 9.77484 3.55569 9.77776H6.66677C7.09454 9.77776 7.46087 9.9302 7.76576 10.2343C8.06987 10.5392 8.22231 10.9055 8.22231 11.3333V14.4443C8.22231 14.8721 8.06987 15.2376 7.76576 15.5433C7.62343 15.6904 7.4525 15.8067 7.26349 15.8853C7.07449 15.9638 6.87141 16.0028 6.66677 15.9998H3.55569ZM11.3334 8.22224C10.9056 8.22224 10.5401 8.0698 10.2352 7.76492C10.0879 7.62289 9.97129 7.45214 9.89263 7.26324C9.81396 7.07435 9.7749 6.87132 9.77785 6.66672V3.55568C9.77785 3.12791 9.93029 2.76158 10.2352 2.4567C10.3773 2.30962 10.5481 2.19323 10.737 2.11471C10.9259 2.03618 11.1289 1.9972 11.3334 2.00016H14.4445C14.8722 2.00016 15.2386 2.1526 15.5434 2.4567C15.8476 2.76158 16 3.12791 16 3.55568V6.66672C16 7.09449 15.8476 7.46004 15.5434 7.76492C15.4012 7.91216 15.2303 8.02871 15.0413 8.10736C14.8523 8.18602 14.6492 8.22511 14.4445 8.22224H11.3334ZM11.3334 15.9998C10.9056 15.9998 10.5401 15.8474 10.2352 15.5433C10.0879 15.4011 9.97138 15.2302 9.89273 15.0412C9.81407 14.8522 9.77498 14.649 9.77785 14.4443V11.3333C9.77785 10.9055 9.93029 10.5392 10.2352 10.2343C10.3773 10.0872 10.5481 9.97083 10.737 9.89231C10.9259 9.81379 11.1289 9.7748 11.3334 9.77776H14.4445C14.8722 9.77776 15.2386 9.9302 15.5434 10.2343C15.8476 10.5392 16 10.9055 16 11.3333V14.4443C16 14.8721 15.8476 15.2376 15.5434 15.5433C15.4011 15.6904 15.2302 15.8067 15.0412 15.8853C14.8522 15.9638 14.6491 16.0028 14.4445 15.9998H11.3334Z"/>
	</symbol>
	<symbol xmlns="http://www.w3.org/2000/svg" id="view_list" viewBox="0 0 19 19">
		<path d="M3.55556 2C3.143 2 2.74733 2.16389 2.45561 2.45561C2.16389 2.74733 2 3.143 2 3.55556V6.66667C2 7.07923 2.16389 7.47489 2.45561 7.76661C2.74733 8.05833 3.143 8.22222 3.55556 8.22222H14.4444C14.857 8.22222 15.2527 8.05833 15.5444 7.76661C15.8361 7.47489 16 7.07923 16 6.66667V3.55556C16 3.143 15.8361 2.74733 15.5444 2.45561C15.2527 2.16389 14.857 2 14.4444 2H3.55556ZM3.55556 9.77778C3.143 9.77778 2.74733 9.94167 2.45561 10.2334C2.16389 10.5251 2 10.9208 2 11.3333V14.4444C2 14.857 2.16389 15.2527 2.45561 15.5444C2.74733 15.8361 3.143 16 3.55556 16H14.4444C14.857 16 15.2527 15.8361 15.5444 15.5444C15.8361 15.2527 16 14.857 16 14.4444V11.3333C16 10.9208 15.8361 10.5251 15.5444 10.2334C15.2527 9.94167 14.857 9.77778 14.4444 9.77778H3.55556Z"/>
	</symbol>
	<symbol xmlns="http://www.w3.org/2000/svg" id="favorite2" viewBox="0 0 20 17">
		<path fill-rule="evenodd" clip-rule="evenodd" d="M0 6.03044C0 2.77953 2.46941 0 5.69154 0C7.43501 0 8.96825 0.823963 10 2.08777C11.0317 0.824012 12.5647 0 14.3073 0C17.5306 0 20 2.78078 20 6.03044C20 7.33742 19.4861 8.59489 18.7437 9.73523C17.9997 10.8783 16.9978 11.9476 15.9503 12.893C13.8556 14.7834 11.4963 16.2507 10.4001 16.8922C10.1543 17.036 9.84541 17.036 9.59964 16.892C8.50368 16.2501 6.1444 14.7827 4.04975 12.8926C3.00214 11.9472 2.00034 10.878 1.25629 9.73514C0.513988 8.59484 0 7.33743 0 6.03044ZM5.69154 1.47826C3.47675 1.47826 1.53846 3.43572 1.53846 6.03044C1.53846 6.96546 1.90889 7.95007 2.56059 8.95115C3.21053 9.94948 4.11228 10.921 5.10294 11.815C6.86222 13.4025 8.83756 14.6886 10.0001 15.3915C11.1626 14.6892 13.1378 13.4031 14.897 11.8154C15.8877 10.9215 16.7894 9.94988 17.4394 8.95135C18.0911 7.95016 18.4615 6.96547 18.4615 6.03044C18.4615 3.43697 16.5233 1.47826 14.3073 1.47826C12.7901 1.47826 11.4198 2.38048 10.6891 3.79573C10.5592 4.04727 10.2922 4.20638 10 4.20638C9.70777 4.20638 9.44078 4.04727 9.3109 3.79573C8.58026 2.38058 7.21005 1.47826 5.69154 1.47826Z"/>
	</symbol>
	<symbol xmlns="http://www.w3.org/2000/svg" id="compare2" viewBox="0 0 9 9">
		<path d="M5.21054 0.710674C5.21054 0.318173 4.89241 0 4.50001 0C4.10762 0 3.78949 0.318173 3.78949 0.710674V8.28933C3.78949 8.68181 4.10762 9 4.50001 9C4.89241 9 5.21054 8.68181 5.21054 8.28933V0.710674Z"/>
		<path d="M9 3.55242C9 3.15993 8.68187 2.84175 8.28947 2.84175C7.89708 2.84175 7.57895 3.15992 7.57895 3.55242V8.28933C7.57895 8.68181 7.89708 9 8.28947 9C8.68187 9 9 8.68181 9 8.28933V3.55242Z"/>
		<path d="M1.42105 5.76312C1.42105 5.37064 1.10293 5.05245 0.710524 5.05245C0.318116 5.05245 0 5.37064 0 5.76312V8.28933C0 8.68181 0.318116 9 0.710524 9C1.10293 9 1.42105 8.68181 1.42105 8.28933V5.76312Z"/>
	</symbol>
	<symbol xmlns="http://www.w3.org/2000/svg" id="copy" viewBox="0 0 13 13">
		<path d="M10.9231 5H6.07692C5.48215 5 5 5.48215 5 6.07692V10.9231C5 11.5178 5.48215 12 6.07692 12H10.9231C11.5178 12 12 11.5178 12 10.9231V6.07692C12 5.48215 11.5178 5 10.9231 5Z" stroke-linecap="round" stroke-linejoin="round"/>
		<path d="M2.61538 8H2.07692C1.79131 8 1.51739 7.88654 1.31542 7.68458C1.11346 7.48261 1 7.2087 1 6.92308V2.07692C1 1.79131 1.11346 1.51739 1.31542 1.31542C1.51739 1.11346 1.79131 1 2.07692 1H6.92308C7.2087 1 7.48261 1.11346 7.68458 1.31542C7.88654 1.51739 8 1.79131 8 2.07692V2.61538" stroke-linecap="round" stroke-linejoin="round"/>
	</symbol>
	<symbol xmlns="http://www.w3.org/2000/svg" id="arrow" viewBox="0 0 8 13">
		<path d="M0.355351 1.99217L5.06911 6.50581L0.355351 11.0195C-0.11845 11.4732 -0.11845 12.206 0.355351 12.6597C0.829152 13.1134 1.59452 13.1134 2.06833 12.6597L7.64465 7.32013C8.11845 6.86644 8.11845 6.13355 7.64465 5.67986L2.06833 0.340269C1.59452 -0.113423 0.829152 -0.113423 0.355351 0.340269C-0.106302 0.79396 -0.11845 1.53847 0.355351 1.99217Z"/>
	</symbol>
	<symbol xmlns="http://www.w3.org/2000/svg" id="arrow2" viewBox="0 0 11 17">
		<path d="M0.45688 2.56136L6.51743 8.36461L0.45688 14.1679C-0.152293 14.7512 -0.152293 15.6935 0.45688 16.2768C1.06605 16.8601 2.0501 16.8601 2.65928 16.2768L9.82883 9.41159C10.438 8.82828 10.438 7.88599 9.82883 7.30268L2.65928 0.437488C2.0501 -0.145829 1.06605 -0.145829 0.45688 0.437488C-0.136673 1.02081 -0.152293 1.97803 0.45688 2.56136Z"/>
	</symbol>
	<symbol xmlns="http://www.w3.org/2000/svg" id="download" viewBox="0 0 14 14">
		<path d="M13.5 9.52019V12.1734C13.5 12.5252 13.3548 12.8627 13.0964 13.1114C12.8379 13.3602 12.4874 13.5 12.1219 13.5L1.87814 13.4798C1.51263 13.4798 1.1621 13.34 0.903646 13.0913C0.645195 12.8425 0.499999 12.505 0.499999 12.1532V9.5" stroke-linecap="round" stroke-linejoin="round"/>
		<path d="M3.5 6.5L7 10.5L10.5 6.5" stroke-linecap="round" stroke-linejoin="round"/>
		<path d="M7 9.5V0.5" stroke-linecap="round" stroke-linejoin="round"/>
	</symbol>
	<symbol xmlns="http://www.w3.org/2000/svg" id="download2" viewBox="0 0 17 17">
		<path d="M4 11V13.5H13V11M8.5 10.5V3.5M6.5 8.5L8.5 10.5L10.5 8.5" stroke-width="1.2" stroke-linecap="round" stroke-linejoin="round"/>
	</symbol>
	<symbol xmlns="http://www.w3.org/2000/svg" id="arrow4" viewBox="0 0 4 7">
		<path d="M0.177675 0.996086L2.53456 3.25291L0.177675 5.50973C-0.0592252 5.73658 -0.0592252 6.10302 0.177675 6.32987C0.414576 6.55671 0.797262 6.55671 1.03416 6.32987L3.82232 3.66006C4.05923 3.43322 4.05923 3.06678 3.82232 2.83993L1.03416 0.170134C0.797262 -0.0567115 0.414576 -0.0567115 0.177675 0.170134C-0.0531508 0.39698 -0.0592252 0.769234 0.177675 0.996086Z"/>
	</symbol>
	<symbol xmlns="http://www.w3.org/2000/svg" id="arrow5" viewBox="0 0 9 6">
		<path d="M8.82213 0.178082C8.76779 0.121247 8.70239 0.0761445 8.62995 0.0455541C8.55751 0.0149638 8.47958 -0.000466032 8.40095 0.000216081C8.23874 0.000216081 8.09881 0.0595046 7.98024 0.178082L4.50593 3.65239L1.01976 0.166224C0.965585 0.111685 0.900811 0.0688187 0.829434 0.0402679C0.758057 0.0117171 0.681589 -0.00191352 0.604743 0.000216081C0.438735 0.000216081 0.296443 0.0595046 0.177866 0.178082C0.0592885 0.296659 0 0.437054 0 0.598793C0 0.760058 0.0592885 0.900928 0.177866 1.0195L4.17391 5.00369C4.22134 5.05112 4.27257 5.08433 4.32759 5.10472C4.44299 5.14451 4.56839 5.14451 4.68379 5.10472C4.74204 5.08291 4.7947 5.0484 4.83794 5.00369L8.83399 1.00765C8.94451 0.896659 9 0.760532 9 0.598793C9 0.43658 8.94071 0.296659 8.82213 0.178082Z"/>
	</symbol>
	<symbol xmlns="http://www.w3.org/2000/svg" id="attach" viewBox="0 0 12 13">
		<path d="M7.20762 2.60898C7.98734 1.81443 8.96657 1.74753 9.64758 2.44285C10.3287 3.13743 10.2639 4.13869 9.48564 4.934L5.27123 9.23675C5.2018 9.30522 5.10881 9.3431 5.01229 9.34225C4.91576 9.34139 4.82343 9.30186 4.75517 9.23217C4.68692 9.16249 4.6482 9.06822 4.64736 8.96967C4.64653 8.87112 4.68363 8.77619 4.75068 8.7053L8.9651 4.40255C9.3428 4.01692 9.58356 3.43961 9.12781 2.97431C8.6728 2.509 8.1066 2.75556 7.7289 3.14119L3.04328 7.92428C1.69958 9.29764 1.36459 9.93062 2.16491 10.7485C2.97481 11.5745 3.8333 11.3701 5.12619 10.0509L10.3316 4.7348C11.1725 3.87635 11.7614 2.47442 10.6563 1.34687C9.34427 0.00732901 7.84597 1.32431 7.41893 1.76106L2.63612 6.64487C2.56669 6.71335 2.4737 6.75123 2.37718 6.75037C2.28065 6.74951 2.18832 6.70999 2.12006 6.6403C2.05181 6.57062 2.01309 6.47634 2.01225 6.3778C2.01142 6.27925 2.04852 6.18431 2.11558 6.11342L6.89839 1.2296C8.34442 -0.246747 9.9841 -0.404605 11.1775 0.815412C12.3836 2.04595 12.2533 3.83501 10.8522 5.26625L5.646 10.5816C5.2035 11.0333 4.25591 12 3.16624 12C2.67662 12 2.15754 11.8038 1.64363 11.2791C0.180661 9.78472 1.53392 8.40161 2.522 7.39207L7.20762 2.60898Z"/>
	</symbol>
</svg>