<svg width="372" height="383" viewBox="0 0 372 383" fill="none" xmlns="http://www.w3.org/2000/svg">
<path d="M132.156 226.238L136.451 223.758L140.732 226.23L136.437 228.71L132.156 226.238Z" fill="#319ACE"/>
<path d="M141.288 231.514L145.583 229.035L149.862 231.507L145.568 233.986L141.288 231.514Z" fill="#319ACE"/>
<path d="M150.424 236.793L154.719 234.312L159 236.784L154.705 239.264L150.424 236.793Z" fill="#319ACE"/>
<path d="M159.558 242.061L163.852 239.582L168.133 242.054L163.838 244.533L159.558 242.061Z" fill="#319ACE"/>
<path d="M168.695 247.34L172.99 244.859L177.27 247.331L172.975 249.811L168.695 247.34Z" fill="#319ACE"/>
<g opacity="0.5">
<path d="M120.119 191.751L105.895 183.766L98.8457 185.745L113.07 193.731L120.119 191.751Z" fill="#319ACE"/>
<path d="M116.709 147.371L118.773 154.718L132.996 162.702L130.933 155.357L116.709 147.371Z" fill="#319ACE"/>
<path d="M41.9054 153.778L56.1292 161.764L54.1496 154.715L39.9258 146.73L41.9054 153.778Z" fill="#319ACE"/>
<path d="M121.325 163.797L125.394 178.284L114.979 181.208L129.202 189.194L139.617 186.269L135.548 171.783L121.325 163.797Z" fill="#319ACE"/>
<path d="M51.5974 145.628L48.6726 135.212L96.0164 121.915L81.794 113.93L34.4502 127.228L37.3749 137.642L51.5974 145.628Z" fill="#319ACE"/>
<path d="M85.0462 189.617L65.4972 195.109L60.0056 175.559L45.7832 167.574L57.5115 209.331L99.27 197.603L85.0462 189.617Z" fill="#319ACE"/>
<path d="M90.8779 111.381L105.1 119.366L109.543 121.86L123.767 129.846L116.555 104.168L90.8779 111.381Z" fill="#319ACE"/>
<path d="M112.096 130.945L114.159 138.291L128.382 146.276L126.318 138.93L112.096 130.945Z" fill="#319ACE"/>
</g>
<path d="M176.808 192.505H149.291L159.184 182.613H186.7L176.808 192.505ZM154.37 190.402H175.937L181.621 184.716H160.055L154.37 190.402Z" fill="#D64923"/>
<path d="M182.2 137.127H154.684L144.464 126.906H171.978L182.2 137.127ZM155.556 135.025H177.122L171.108 129.009H149.542L155.556 135.025Z" fill="#D64923"/>
<path d="M80.6631 192.505H53.1466L43.2539 182.613H70.7705L80.6631 192.505ZM54.019 190.402H75.5854L69.9009 184.716H48.3344L54.019 190.402Z" fill="#D64923"/>
<path d="M194.632 174.68H167.115L179.675 162.122L162.616 145.062H190.131L207.19 162.122L194.632 174.68ZM172.194 172.578H193.761L204.217 162.122L189.26 147.165H167.695L182.649 162.122L172.194 172.578Z" fill="#D64923"/>
<path d="M62.8385 174.681H35.3234L22.7646 162.122L76.1313 108.754H103.648L50.2784 162.122L62.8385 174.681ZM36.1958 172.578H57.7608L47.3047 162.122L98.5687 110.857H77.0022L25.7383 162.122L36.1958 172.578Z" fill="#D64923"/>
<path d="M114.975 254.333L66.293 205.652H93.8081L114.976 226.819L136.143 205.652H163.659L114.975 254.333ZM71.3721 207.755L114.975 251.359L158.579 207.755H137.012L114.975 229.793L92.9357 207.755H71.3721Z" fill="#D64923"/>
<path d="M145.889 100.817H84.0625L114.975 69.9062L145.889 100.817ZM89.143 98.7146H140.811L114.976 72.8785L89.143 98.7146Z" fill="#D64923"/>
<path d="M164.046 118.975H136.529L126.31 108.754H153.823L164.046 118.975ZM137.4 116.872H158.967L152.952 110.857H131.386L137.4 116.872Z" fill="#D64923"/>
<g opacity="0.5">
<path d="M370.784 183.925C370.765 183.875 370.744 183.825 370.723 183.776C370.709 183.739 370.693 183.706 370.679 183.67C370.664 183.633 370.649 183.597 370.632 183.56C370.074 182.234 369.206 181.111 368.131 180.49L367.827 180.316L330.902 158.988L293.977 137.661L293.673 137.486C292.598 136.865 291.519 136.861 290.618 137.348C290.593 137.359 290.569 137.373 290.546 137.385C290.522 137.399 290.497 137.412 290.473 137.426L285.598 140.238L288.408 141.43L278.657 193.132C278.405 194.465 278.627 195.935 279.187 197.26C279.2 197.298 279.217 197.334 279.233 197.372C279.248 197.407 279.262 197.442 279.277 197.475C279.835 198.803 280.703 199.925 281.778 200.545L355.425 243.081L354.747 246.325L359.365 243.65C359.389 243.636 359.414 243.625 359.436 243.61C360.337 243.127 361.016 242.178 361.268 240.843L371.253 187.904C371.496 186.622 371.299 185.212 370.784 183.925Z" fill="#319ACE"/>
<path d="M351.451 246.322L276.991 203.318C274.741 202.018 273.373 198.528 273.941 195.525L283.783 143.342C284.349 140.339 286.634 138.959 288.886 140.259L363.345 183.263C365.597 184.563 366.963 188.053 366.396 191.056L356.553 243.24C355.987 246.243 353.701 247.623 351.451 246.322Z" fill="url(#paint0_linear_6068_58154)"/>
<path d="M363.04 183.081L326.114 161.754L314.544 223.099L351.145 246.141C353.565 247.537 355.953 246.405 356.48 243.61L366.465 190.671C366.993 187.877 365.46 184.479 363.04 183.081Z" fill="url(#paint1_linear_6068_58154)"/>
<path d="M289.188 140.435L326.114 161.762L314.616 222.722L277.295 203.494C274.875 202.096 273.341 198.699 273.868 195.903L283.853 142.964C284.38 140.171 286.77 139.037 289.188 140.435Z" fill="url(#paint2_linear_6068_58154)"/>
<path d="M274.338 199.885C274.943 201.397 275.988 202.739 277.295 203.494L351.146 246.148C352.453 246.903 353.749 246.914 354.75 246.328L321.663 185.367L274.338 199.885Z" fill="url(#paint3_linear_6068_58154)"/>
<path d="M365.999 186.695C365.394 185.182 364.349 183.84 363.042 183.085L289.191 140.431C287.884 139.677 286.588 139.665 285.587 140.251L318.675 201.212L365.999 186.695Z" fill="url(#paint4_linear_6068_58154)"/>
</g>
<path d="M60.2085 223.884L60.2099 223.883C60.2603 223.757 60.312 223.631 60.3651 223.507C60.4001 223.416 60.4392 223.328 60.4756 223.239C60.5161 223.146 60.5524 223.054 60.5944 222.963C62.0022 219.611 64.1986 216.777 66.9136 215.209L67.6811 214.766L160.961 160.891L254.241 107.015L255.008 106.572C257.723 105.004 260.452 104.994 262.724 106.221C262.787 106.251 262.847 106.286 262.91 106.318C262.971 106.353 263.033 106.383 263.094 106.421L275.41 113.522L268.309 116.535L292.943 247.142C293.579 250.512 293.017 254.225 291.604 257.573C291.567 257.668 291.525 257.761 291.488 257.854C291.45 257.942 291.414 258.031 291.374 258.117C289.967 261.471 287.77 264.305 285.055 265.874L99.0088 373.328L100.723 381.522L89.0574 374.765C88.9973 374.731 88.9344 374.7 88.8757 374.663C86.5996 373.446 84.8856 371.045 84.2495 367.676L59.0258 233.942C58.412 230.696 58.9097 227.134 60.2085 223.884Z" fill="#319ACE"/>
<path d="M109.059 381.507L297.153 272.87C302.842 269.585 306.292 260.771 304.861 253.184L279.996 121.357C278.565 113.77 272.795 110.283 267.106 113.569L79.0117 222.206C73.323 225.491 69.8726 234.305 71.3042 241.892L96.1686 373.719C97.6002 381.306 103.371 384.793 109.059 381.507Z" fill="url(#paint5_linear_6068_58154)"/>
<path d="M79.7789 221.766L173.059 167.891L202.288 322.86L109.826 381.068C103.714 384.598 97.6796 381.736 96.3473 374.676L71.1236 240.942C69.7912 233.882 73.6666 225.296 79.7789 221.766Z" fill="url(#paint6_linear_6068_58154)"/>
<path d="M266.34 114.016L173.061 167.891L202.107 321.887L296.386 273.317C302.498 269.787 306.374 261.202 305.041 254.142L279.818 120.408C278.487 113.348 272.453 110.486 266.34 114.016Z" fill="url(#paint7_linear_6068_58154)"/>
<path d="M303.857 264.193C302.329 268.016 299.689 271.405 296.386 273.313L109.826 381.064C106.523 382.972 103.248 382.999 100.721 381.518L184.306 227.52L303.857 264.193Z" fill="url(#paint8_linear_6068_58154)"/>
<path d="M72.3115 230.883C73.8396 227.06 76.4791 223.672 79.7827 221.763L266.342 114.012C269.646 112.104 272.92 112.077 275.448 113.558L191.862 267.557L72.3115 230.883Z" fill="url(#paint9_linear_6068_58154)"/>
<path d="M319.626 37.1331L315.313 32.8203L311.001 37.1332L315.313 41.446L319.626 37.1331Z" fill="#319ACE"/>
<path d="M335.199 37.0862L330.886 32.7734L326.573 37.0863L330.886 41.3991L335.199 37.0862Z" fill="#319ACE"/>
<path d="M327.44 29.3129L323.127 25L318.814 29.3129L323.127 33.6257L327.44 29.3129Z" fill="#319ACE"/>
<path d="M327.387 44.887L323.074 40.5742L318.761 44.8871L323.074 49.1999L327.387 44.887Z" fill="#319ACE"/>
<path d="M63.5536 19.3944L56.6592 12.5L49.7647 19.3945L56.6591 26.2889L63.5536 19.3944Z" fill="#D64923"/>
<path d="M88.4481 19.3045L81.5537 12.4102L74.6592 19.3046L81.5536 26.199L88.4481 19.3045Z" fill="#D64923"/>
<path d="M76.0468 6.89449L69.1523 0L62.2579 6.89449L69.1523 13.789L76.0468 6.89449Z" fill="#D64923"/>
<path d="M75.9618 31.7928L69.0674 24.8984L62.1729 31.7929L69.0673 38.6873L75.9618 31.7928Z" fill="#D64923"/>
<path d="M12.3921 296.661L6.19629 290.465L0.00034523 296.661L6.19618 302.857L12.3921 296.661Z" fill="#319ACE"/>
<path d="M34.7642 296.59L28.5684 290.395L22.3724 296.59L28.5683 302.786L34.7642 296.59Z" fill="#319ACE"/>
<path d="M23.6178 285.438L17.4219 279.242L11.2259 285.438L17.4219 291.634L23.6178 285.438Z" fill="#319ACE"/>
<path d="M23.5357 307.813L17.3398 301.617L11.1439 307.813L17.3397 314.009L23.5357 307.813Z" fill="#319ACE"/>
<path d="M237.651 363.349L234.325 360.023L230.999 363.349L234.325 366.675L237.651 363.349Z" fill="#D64923"/>
<path d="M249.662 363.318L246.336 359.992L243.01 363.318L246.336 366.644L249.662 363.318Z" fill="#D64923"/>
<path d="M243.678 357.326L240.353 354L237.027 357.326L240.353 360.651L243.678 357.326Z" fill="#D64923"/>
<path d="M243.634 369.33L240.309 366.004L236.983 369.33L240.309 372.655L243.634 369.33Z" fill="#D64923"/>
<path d="M311.41 310H284.847V314.306H311.41V310Z" fill="#D64923"/>
<path d="M344.09 310H317.527V314.306H344.09V310Z" fill="#D64923"/>
<path d="M308.06 325.144H284.765V319.504H308.06V325.144ZM286.1 323.809H306.725V320.839H286.1V323.809Z" fill="#D64923"/>
<path d="M292.041 330.094H284.847V334.4H292.041V330.094Z" fill="#D64923"/>
<path d="M295.262 106.524C297.646 117.858 290.43 128.409 279.096 130.793C267.762 133.177 256.905 126.227 254.521 114.893C252.137 103.558 259.089 92.7024 270.423 90.3185C281.757 87.9345 292.878 95.1901 295.262 106.524Z" fill="#D64923"/>
<path d="M274.593 100.531L279.253 118.203L276.115 119.067L272.441 105.136L268.654 107.684L267.971 105.094L274.238 100.629L274.593 100.531Z" fill="white"/>
<defs>
<linearGradient id="paint0_linear_6068_58154" x1="278.862" y1="169.432" x2="367.327" y2="186.12" gradientUnits="userSpaceOnUse">
<stop stop-color="#7BDAFF"/>
<stop offset="1" stop-color="#59BDEF"/>
</linearGradient>
<linearGradient id="paint1_linear_6068_58154" x1="369.699" y1="286.792" x2="324.891" y2="202.176" gradientUnits="userSpaceOnUse">
<stop offset="0.7677" stop-color="#59BDEF"/>
<stop offset="0.8452" stop-color="#55B8EB"/>
<stop offset="0.9318" stop-color="#49ABE1"/>
<stop offset="1" stop-color="#3A9BD5"/>
</linearGradient>
<linearGradient id="paint2_linear_6068_58154" x1="248.502" y1="216.699" x2="311.055" y2="190.122" gradientUnits="userSpaceOnUse">
<stop offset="0.7677" stop-color="#59BDEF"/>
<stop offset="0.8452" stop-color="#55B8EB"/>
<stop offset="0.9318" stop-color="#49ABE1"/>
<stop offset="1" stop-color="#3A9BD5"/>
</linearGradient>
<linearGradient id="paint3_linear_6068_58154" x1="302.411" y1="287.427" x2="347.023" y2="210.19" gradientUnits="userSpaceOnUse">
<stop offset="0.7677" stop-color="#3A9BD5"/>
<stop offset="0.8386" stop-color="#3896D2"/>
<stop offset="0.9179" stop-color="#3189C9"/>
<stop offset="1" stop-color="#2573BA"/>
</linearGradient>
<linearGradient id="paint4_linear_6068_58154" x1="301.025" y1="132.55" x2="384.008" y2="195.667" gradientUnits="userSpaceOnUse">
<stop stop-color="#7BDAFF"/>
<stop offset="1" stop-color="#59BDEF"/>
</linearGradient>
<linearGradient id="paint5_linear_6068_58154" x1="292.431" y1="187.268" x2="68.9503" y2="229.424" gradientUnits="userSpaceOnUse">
<stop stop-color="#7BDAFF"/>
<stop offset="1" stop-color="#59BDEF"/>
</linearGradient>
<linearGradient id="paint6_linear_6068_58154" x1="62.956" y1="483.759" x2="176.147" y2="270.001" gradientUnits="userSpaceOnUse">
<stop offset="0.7677" stop-color="#59BDEF"/>
<stop offset="0.8452" stop-color="#55B8EB"/>
<stop offset="0.9318" stop-color="#49ABE1"/>
<stop offset="1" stop-color="#3A9BD5"/>
</linearGradient>
<linearGradient id="paint7_linear_6068_58154" x1="369.123" y1="306.674" x2="211.103" y2="239.536" gradientUnits="userSpaceOnUse">
<stop offset="0.7677" stop-color="#59BDEF"/>
<stop offset="0.8452" stop-color="#55B8EB"/>
<stop offset="0.9318" stop-color="#49ABE1"/>
<stop offset="1" stop-color="#3A9BD5"/>
</linearGradient>
<linearGradient id="paint8_linear_6068_58154" x1="232.94" y1="485.342" x2="120.242" y2="290.226" gradientUnits="userSpaceOnUse">
<stop offset="0.7677" stop-color="#3A9BD5"/>
<stop offset="0.8386" stop-color="#3896D2"/>
<stop offset="0.9179" stop-color="#3189C9"/>
<stop offset="1" stop-color="#2573BA"/>
</linearGradient>
<linearGradient id="paint9_linear_6068_58154" x1="236.449" y1="94.1048" x2="26.8186" y2="253.55" gradientUnits="userSpaceOnUse">
<stop stop-color="#7BDAFF"/>
<stop offset="1" stop-color="#59BDEF"/>
</linearGradient>
</defs>
</svg>
