<svg width="703" height="369" viewBox="0 0 703 369" fill="none" xmlns="http://www.w3.org/2000/svg">
<path d="M270.988 234.81L276.317 231.732L281.629 234.799L276.3 237.877L270.988 234.81Z" fill="#319ACE"/>
<path d="M282.32 241.353L287.65 238.277L292.96 241.344L287.63 244.42L282.32 241.353Z" fill="#319ACE"/>
<path d="M293.656 247.9L298.985 244.822L304.297 247.889L298.968 250.967L293.656 247.9Z" fill="#319ACE"/>
<path d="M304.99 254.443L310.319 251.367L315.631 254.434L310.302 257.51L304.99 254.443Z" fill="#319ACE"/>
<path d="M316.328 260.988L321.657 257.91L326.967 260.977L321.638 264.055L316.328 260.988Z" fill="#319ACE"/>
<g opacity="0.5">
<path d="M210.787 192.014L193.137 182.105L184.391 184.562L202.04 194.471L210.787 192.014Z" fill="#319ACE"/>
<path d="M206.557 136.949L209.117 146.065L226.767 155.973L224.206 146.858L206.557 136.949Z" fill="#319ACE"/>
<path d="M113.738 144.893L131.387 154.802L128.931 146.056L111.281 136.148L113.738 144.893Z" fill="#319ACE"/>
<path d="M212.284 157.334L217.332 175.31L204.41 178.939L222.058 188.848L234.982 185.219L229.932 167.243L212.284 157.334Z" fill="#319ACE"/>
<path d="M125.763 134.785L122.134 121.861L180.88 105.362L163.232 95.4531L104.486 111.954L108.115 124.876L125.763 134.785Z" fill="#319ACE"/>
<path d="M167.268 189.372L143.011 196.186L136.197 171.927L118.549 162.02L133.102 213.833L184.917 199.281L167.268 189.372Z" fill="#319ACE"/>
<path d="M174.504 92.2895L192.152 102.198L197.665 105.293L215.314 115.202L206.365 83.3398L174.504 92.2895Z" fill="#319ACE"/>
<path d="M200.832 116.564L203.393 125.679L221.04 135.588L218.48 126.472L200.832 116.564Z" fill="#319ACE"/>
</g>
<path d="M281.128 192.955H246.984L259.26 180.682H293.403L281.128 192.955ZM253.287 190.346H280.047L287.101 183.291H260.34L253.287 190.346Z" fill="#D64923"/>
<path d="M287.821 124.24H253.677L240.996 111.557H275.136L287.821 124.24ZM254.76 121.63H281.52L274.057 114.166H247.297L254.76 121.63Z" fill="#D64923"/>
<path d="M161.829 192.955H127.685L115.41 180.682H149.554L161.829 192.955ZM128.768 190.346H155.528L148.475 183.291H121.714L128.768 190.346Z" fill="#D64923"/>
<path d="M303.246 170.835H269.102L284.687 155.252L263.52 134.084H297.661L318.829 155.252L303.246 170.835ZM275.404 168.226H302.165L315.139 155.252L296.581 136.693H269.822L288.377 155.252L275.404 168.226Z" fill="#D64923"/>
<path d="M139.712 170.836H105.57L89.9863 155.252L156.206 89.0312H190.349L124.126 155.252L139.712 170.836ZM106.652 168.227H133.411L120.437 155.252L184.047 91.6404H157.286L93.6762 155.252L106.652 168.227Z" fill="#D64923"/>
<path d="M204.404 269.674L143.998 209.27H178.14L204.406 235.534L230.67 209.27H264.814L204.404 269.674ZM150.3 211.879L204.404 265.984L258.51 211.879H231.749L204.404 239.224L177.057 211.879H150.3Z" fill="#D64923"/>
<path d="M242.763 79.1857H166.047L204.404 40.8301L242.763 79.1857ZM172.351 76.5766H236.463L204.406 44.5182L172.351 76.5766Z" fill="#D64923"/>
<path d="M265.294 101.714H231.15L218.469 89.0312H252.609L265.294 101.714ZM232.231 99.105H258.991L251.528 91.6404H224.768L232.231 99.105Z" fill="#D64923"/>
<g opacity="0.5">
<path d="M634.197 115.385C634.173 115.323 634.147 115.26 634.121 115.199C634.104 115.154 634.085 115.113 634.067 115.068C634.048 115.023 634.029 114.977 634.008 114.932C633.316 113.286 632.239 111.893 630.905 111.123L630.528 110.906L584.71 84.4421L538.891 57.9783L538.515 57.7614C537.181 56.9912 535.841 56.986 534.724 57.5897C534.693 57.6036 534.664 57.6209 534.634 57.6365C534.605 57.6539 534.573 57.6695 534.544 57.6868L528.495 61.1755L531.982 62.6552L519.882 126.809C519.569 128.463 519.845 130.287 520.539 131.931C520.556 131.978 520.577 132.023 520.596 132.07C520.615 132.113 520.633 132.157 520.652 132.198C521.344 133.846 522.421 135.238 523.755 136.008L615.139 188.788L614.298 192.813L620.028 189.494C620.057 189.477 620.089 189.463 620.116 189.444C621.233 188.845 622.077 187.668 622.389 186.011L634.779 120.322C635.08 118.731 634.836 116.981 634.197 115.385Z" fill="#319ACE"/>
<path d="M610.207 192.811L517.816 139.449C515.023 137.836 513.326 133.506 514.03 129.78L526.243 65.0281C526.946 61.3018 529.78 59.5896 532.575 61.2029L624.967 114.564C627.762 116.178 629.456 120.508 628.752 124.234L616.539 188.986C615.837 192.712 613 194.424 610.207 192.811Z" fill="url(#paint0_linear_3120_17224)"/>
<path d="M624.588 114.345L578.769 87.8809L564.412 164.001L609.828 192.591C612.831 194.324 615.794 192.919 616.448 189.451L628.838 123.763C629.494 120.295 627.59 116.079 624.588 114.345Z" fill="url(#paint1_linear_3120_17224)"/>
<path d="M532.951 61.4188L578.769 87.8826L564.503 163.524L518.193 139.665C515.19 137.931 513.287 133.715 513.941 130.246L526.331 64.557C526.985 61.0909 529.95 59.684 532.951 61.4188Z" fill="url(#paint2_linear_3120_17224)"/>
<path d="M514.523 135.188C515.275 137.065 516.57 138.73 518.192 139.667L609.83 192.593C611.452 193.529 613.06 193.543 614.302 192.816L573.247 117.174L514.523 135.188Z" fill="url(#paint3_linear_3120_17224)"/>
<path d="M628.259 118.824C627.508 116.947 626.212 115.281 624.59 114.345L532.953 61.4186C531.331 60.4819 529.723 60.468 528.48 61.1949L569.537 136.838L628.259 118.824Z" fill="url(#paint4_linear_3120_17224)"/>
</g>
<path d="M206.2 171.09L206.202 171.088C206.264 170.932 206.328 170.776 206.394 170.622C206.438 170.509 206.486 170.4 206.531 170.289C206.581 170.174 206.627 170.06 206.679 169.947C208.426 165.787 211.151 162.27 214.52 160.326L215.472 159.776L331.217 92.925L446.963 26.0741L447.915 25.5242C451.284 23.5778 454.67 23.5657 457.489 25.0888C457.567 25.1252 457.642 25.1686 457.72 25.2085C457.796 25.2518 457.872 25.29 457.949 25.3369L473.23 34.1477L464.419 37.8862L494.986 199.95C495.775 204.13 495.078 208.738 493.324 212.893C493.279 213.011 493.227 213.125 493.18 213.241C493.133 213.351 493.088 213.46 493.04 213.567C491.293 217.729 488.567 221.246 485.198 223.192L254.345 356.526L256.472 366.693L241.997 358.309C241.922 358.266 241.844 358.228 241.771 358.183C238.947 356.672 236.82 353.693 236.031 349.512L204.732 183.57C203.971 179.542 204.588 175.122 206.2 171.09Z" fill="#319ACE"/>
<path d="M266.815 366.676L500.211 231.874C507.269 227.797 511.551 216.861 509.774 207.447L478.921 43.8706C477.145 34.4561 469.986 30.1296 462.927 34.2063L229.532 169.008C222.473 173.085 218.192 184.02 219.968 193.435L250.821 357.011C252.597 366.426 259.758 370.752 266.815 366.676Z" fill="url(#paint5_linear_3120_17224)"/>
<path d="M230.483 168.458L346.228 101.607L382.497 293.899L267.767 366.126C260.182 370.506 252.695 366.955 251.042 358.195L219.743 192.252C218.09 183.492 222.899 172.839 230.483 168.458Z" fill="url(#paint6_linear_3120_17224)"/>
<path d="M461.976 34.757L346.23 101.608L382.272 292.692L499.258 232.425C506.842 228.044 511.651 217.391 509.997 208.631L478.699 42.6884C477.047 33.9278 469.56 30.3767 461.976 34.757Z" fill="url(#paint7_linear_3120_17224)"/>
<path d="M508.528 221.108C506.632 225.851 503.357 230.056 499.258 232.424L267.767 366.125C263.668 368.493 259.605 368.526 256.469 366.689L360.185 175.602L508.528 221.108Z" fill="url(#paint8_linear_3120_17224)"/>
<path d="M221.217 179.773C223.113 175.03 226.388 170.825 230.487 168.457L461.978 34.7554C466.077 32.3875 470.14 32.3545 473.276 34.1916L369.56 225.279L221.217 179.773Z" fill="url(#paint9_linear_3120_17224)"/>
<path d="M618.359 220.466L616.164 218.271L613.97 220.466L616.164 222.66L618.359 220.466Z" fill="#319ACE"/>
<path d="M626.282 220.439L624.088 218.244L621.893 220.439L624.088 222.633L626.282 220.439Z" fill="#319ACE"/>
<path d="M622.335 216.489L620.141 214.295L617.946 216.489L620.141 218.684L622.335 216.489Z" fill="#319ACE"/>
<path d="M622.308 224.415L620.113 222.221L617.919 224.415L620.113 226.61L622.308 224.415Z" fill="#319ACE"/>
<path d="M17.1095 27.215L8.55469 18.6602L-0.000271633 27.2151L8.55454 35.7699L17.1095 27.215Z" fill="#D64923"/>
<path d="M48.0001 27.1095L39.4453 18.5547L30.8904 27.1096L39.4452 35.6645L48.0001 27.1095Z" fill="#D64923"/>
<path d="M32.6116 11.7093L24.0566 3.1543L15.5017 11.7093L24.0566 20.2642L32.6116 11.7093Z" fill="#D64923"/>
<path d="M32.506 42.6036L23.9512 34.0488L15.3962 42.6038L23.951 51.1586L32.506 42.6036Z" fill="#D64923"/>
<path d="M111.394 322.171L109.199 319.977L107.005 322.171L109.199 324.365L111.394 322.171Z" fill="#319ACE"/>
<path d="M119.316 322.144L117.121 319.949L114.927 322.144L117.121 324.338L119.316 322.144Z" fill="#319ACE"/>
<path d="M115.368 318.194L113.174 316L110.979 318.194L113.174 320.389L115.368 318.194Z" fill="#319ACE"/>
<path d="M115.341 326.12L113.146 323.926L110.952 326.12L113.146 328.315L115.341 326.12Z" fill="#319ACE"/>
<path d="M694.392 28.171L692.197 25.9766L690.003 28.171L692.197 30.3655L694.392 28.171Z" fill="#D64923"/>
<path d="M702.316 28.1437L700.121 25.9492L697.927 28.1437L700.121 30.3381L702.316 28.1437Z" fill="#D64923"/>
<path d="M698.368 24.1945L696.174 22L693.979 24.1945L696.174 26.389L698.368 24.1945Z" fill="#D64923"/>
<path d="M698.339 32.1202L696.145 29.9258L693.95 32.1203L696.144 34.3147L698.339 32.1202Z" fill="#D64923"/>
<path d="M574.968 288.16H542.008V293.503H574.968V288.16Z" fill="#D64923"/>
<path d="M615.521 288.16H582.561V293.503H615.521V288.16Z" fill="#D64923"/>
<path d="M570.813 306.943H541.906V299.945H570.813V306.943ZM543.563 305.287H569.156V301.602H543.563V305.287Z" fill="#D64923"/>
<path d="M550.935 313.09H542.008V318.433H550.935V313.09Z" fill="#D64923"/>
<path d="M497.862 25.4657C500.82 39.5296 491.867 52.6216 477.803 55.5797C463.739 58.5379 450.268 49.9133 447.31 35.8494C444.352 21.7855 452.977 8.31498 467.041 5.35686C481.105 2.39874 494.904 11.4018 497.862 25.4657Z" fill="#D64923"/>
<path d="M473.679 21.6152L478.131 38.1353L475.132 38.9433L471.623 25.9196L468.005 28.3024L467.352 25.881L473.34 21.7067L473.679 21.6152Z" fill="white"/>
<defs>
<linearGradient id="paint0_linear_3120_17224" x1="520.136" y1="97.402" x2="629.908" y2="118.109" gradientUnits="userSpaceOnUse">
<stop stop-color="#7BDAFF"/>
<stop offset="1" stop-color="#59BDEF"/>
</linearGradient>
<linearGradient id="paint1_linear_3120_17224" x1="632.85" y1="243.034" x2="577.252" y2="138.038" gradientUnits="userSpaceOnUse">
<stop offset="0.7677" stop-color="#59BDEF"/>
<stop offset="0.8452" stop-color="#55B8EB"/>
<stop offset="0.9318" stop-color="#49ABE1"/>
<stop offset="1" stop-color="#3A9BD5"/>
</linearGradient>
<linearGradient id="paint2_linear_3120_17224" x1="482.465" y1="156.051" x2="560.084" y2="123.073" gradientUnits="userSpaceOnUse">
<stop offset="0.7677" stop-color="#59BDEF"/>
<stop offset="0.8452" stop-color="#55B8EB"/>
<stop offset="0.9318" stop-color="#49ABE1"/>
<stop offset="1" stop-color="#3A9BD5"/>
</linearGradient>
<linearGradient id="paint3_linear_3120_17224" x1="549.358" y1="243.814" x2="604.714" y2="147.975" gradientUnits="userSpaceOnUse">
<stop offset="0.7677" stop-color="#3A9BD5"/>
<stop offset="0.8386" stop-color="#3896D2"/>
<stop offset="0.9179" stop-color="#3189C9"/>
<stop offset="1" stop-color="#2573BA"/>
</linearGradient>
<linearGradient id="paint4_linear_3120_17224" x1="547.636" y1="51.6394" x2="650.605" y2="129.957" gradientUnits="userSpaceOnUse">
<stop stop-color="#7BDAFF"/>
<stop offset="1" stop-color="#59BDEF"/>
</linearGradient>
<linearGradient id="paint5_linear_3120_17224" x1="494.351" y1="125.656" x2="217.047" y2="177.965" gradientUnits="userSpaceOnUse">
<stop stop-color="#7BDAFF"/>
<stop offset="1" stop-color="#59BDEF"/>
</linearGradient>
<linearGradient id="paint6_linear_3120_17224" x1="209.609" y1="493.549" x2="350.061" y2="228.31" gradientUnits="userSpaceOnUse">
<stop offset="0.7677" stop-color="#59BDEF"/>
<stop offset="0.8452" stop-color="#55B8EB"/>
<stop offset="0.9318" stop-color="#49ABE1"/>
<stop offset="1" stop-color="#3A9BD5"/>
</linearGradient>
<linearGradient id="paint7_linear_3120_17224" x1="589.513" y1="273.815" x2="393.435" y2="190.507" gradientUnits="userSpaceOnUse">
<stop offset="0.7677" stop-color="#59BDEF"/>
<stop offset="0.8452" stop-color="#55B8EB"/>
<stop offset="0.9318" stop-color="#49ABE1"/>
<stop offset="1" stop-color="#3A9BD5"/>
</linearGradient>
<linearGradient id="paint8_linear_3120_17224" x1="420.531" y1="495.518" x2="280.692" y2="253.41" gradientUnits="userSpaceOnUse">
<stop offset="0.7677" stop-color="#3A9BD5"/>
<stop offset="0.8386" stop-color="#3896D2"/>
<stop offset="0.9179" stop-color="#3189C9"/>
<stop offset="1" stop-color="#2573BA"/>
</linearGradient>
<linearGradient id="paint9_linear_3120_17224" x1="424.885" y1="10.0535" x2="164.767" y2="207.899" gradientUnits="userSpaceOnUse">
<stop stop-color="#7BDAFF"/>
<stop offset="1" stop-color="#59BDEF"/>
</linearGradient>
</defs>
</svg>
